<?xml version="1.0" encoding="utf-8"?>
<!-- Generator: Adobe Illustrator 23.1.0, SVG Export Plug-In . SVG Version: 6.00 Build 0)  -->
<svg version="1.1" id="YouTube_Icon" xmlns="http://www.w3.org/2000/svg" xmlns:xlink="http://www.w3.org/1999/xlink" x="0px"
	 y="0px" width="55px" height="38.7px" viewBox="0 0 55 38.7" style="enable-background:new 0 0 55 38.7;" xml:space="preserve">
<style type="text/css">
	.st0{fill:#FFFFFF;}
	.st1{opacity:0.12;fill:#420000;enable-background:new    ;}
	.st2{fill:url(#SVGID_1_);}
</style>
<path id="Triangle" class="st0" d="M21.8,26.5l14.9-7.7L21.8,11V26.5z"/>
<path id="The_Sharpness" class="st1" d="M21.8,11l13,8.7l1.8-0.9L21.8,11z"/>
<g id="Lozenge">
	<g>
		
			<linearGradient id="SVGID_1_" gradientUnits="userSpaceOnUse" x1="27.5074" y1="-121" x2="27.5074" y2="-82.3" gradientTransform="matrix(1 0 0 1 0 121)">
			<stop  offset="0" style="stop-color:#E52D27"/>
			<stop  offset="1" style="stop-color:#BF171D"/>
		</linearGradient>
		<path class="st2" d="M54.5,8.3c0,0-0.5-3.8-2.2-5.5c-2.1-2.2-4.4-2.2-5.5-2.3C39.1,0,27.5,0,27.5,0h0c0,0-11.5,0-19.3,0.6
			C7.2,0.7,4.8,0.7,2.7,2.9C1.1,4.6,0.5,8.3,0.5,8.3S0,12.8,0,17.3v4.2c0,4.5,0.5,8.9,0.5,8.9s0.5,3.8,2.2,5.5
			c2.1,2.2,4.8,2.1,6.1,2.4c4.4,0.4,18.7,0.6,18.7,0.6s11.6,0,19.3-0.6c1.1-0.1,3.4-0.1,5.5-2.3c1.6-1.7,2.2-5.5,2.2-5.5
			s0.5-4.5,0.5-8.9v-4.2C55,12.8,54.5,8.3,54.5,8.3z M21.8,26.5V11l14.9,7.8L21.8,26.5z"/>
	</g>
</g>
</svg>
