<?xml version="1.0" encoding="utf-8"?>
<!-- Generator: Adobe Illustrator 23.1.0, SVG Export Plug-In . SVG Version: 6.00 Build 0)  -->
<svg version="1.1" id="Ebene_1" xmlns="http://www.w3.org/2000/svg" xmlns:xlink="http://www.w3.org/1999/xlink" x="0px" y="0px"
	 width="2899.5px" height="1204.5px" viewBox="0 0 2899.5 1204.5" style="enable-background:new 0 0 2899.5 1204.5;"
	 xml:space="preserve">
<style type="text/css">
	.st0{opacity:0.54;fill:#E9F91C;}
	.st1{opacity:0.58;fill:#48FF96;}
	.st2{opacity:0.22;fill:#3E5FFF;stroke:#727272;stroke-miterlimit:10;}
	.st3{fill:#48FF96;}
	.st4{fill:#FFD517;}
	.st5{fill:#210B20;}
	.st6{opacity:0.17;fill:none;stroke:#353535;stroke-width:10;stroke-miterlimit:10;}
	.st7{fill:#EAEAEA;}
	.st8{fill:#55E574;}
	.st9{fill:#B7B7B7;}
	.st10{fill:#1081E0;stroke:#161616;stroke-width:10.2307;stroke-miterlimit:10;}
	.st11{fill:#FFFFFF;}
	.st12{fill:#D75A4A;}
	.st13{fill:none;stroke:#353535;stroke-width:11;stroke-miterlimit:10;}
	.st14{fill:#353535;}
	.st15{opacity:0.36;}
	.st16{fill:none;stroke:#939393;stroke-width:3;stroke-miterlimit:10;}
	.st17{fill:none;stroke:#939393;stroke-width:3;stroke-miterlimit:10;stroke-dasharray:11.7726,11.7726;}
	.st18{fill:none;stroke:#939393;stroke-width:3;stroke-miterlimit:10;stroke-dasharray:11.7837,11.7837;}
	.st19{fill:none;stroke:#939393;stroke-width:3;stroke-miterlimit:10;stroke-dasharray:12.2766,12.2766;}
</style>
<circle class="st0" cx="2259.5" cy="350" r="350"/>
<circle class="st1" cx="2549.5" cy="854" r="350"/>
<circle class="st2" cx="1966.5" cy="854" r="350"/>
<path class="st3" d="M2235.32,698.96c7.92,0.54,15.92,0.82,23.98,0.82c137.72,0,256.85-79.54,313.98-195.19
	c-7.92-0.54-15.92-0.82-23.98-0.82C2411.58,503.78,2292.45,583.32,2235.32,698.96z"/>
<path class="st4" d="M2312.11,367.58c-13.85,13.85-12.12,41.81-12.12,41.81h-70.26c0,0,1.48-27.96-12.12-41.81
	c-15.09-13.36-24.74-32.66-24.74-54.18c0-39.58,32.16-71.75,71.75-71.75s71.75,32.16,71.75,71.75
	C2336.36,334.92,2326.95,354.22,2312.11,367.58L2312.11,367.58z"/>
<g>
	<path class="st5" d="M2315.82,370.05c16.08-14.6,25.23-35.13,25.23-56.65c0-42.06-34.39-76.45-76.45-76.45
		s-76.45,34.39-76.45,76.45c0,22.02,9.65,43.05,25.98,57.4c12.12,12.12,10.89,37.85,10.89,38.1c0,1.24,0.49,2.47,1.24,3.46
		c0.99,0.99,2.23,1.48,3.46,1.48h70.01c1.24,0,2.47-0.49,3.46-1.48c0.99-0.99,1.24-2.23,1.24-3.46c0-0.25-1.24-25.98,10.89-38.1
		C2315.57,370.55,2315.82,370.3,2315.82,370.05z M2308.89,363.87c-0.49,0.25-0.74,0.74-0.99,1.24
		c-10.89,11.63-12.62,30.68-12.86,39.58h-60.61c-0.25-9.15-2.23-28.95-13.85-40.57c-14.6-12.86-23.01-31.17-23.01-50.47
		c0-37.11,30.18-67.05,67.05-67.05c37.11,0,67.05,30.18,67.05,67.05C2331.66,332.69,2323.49,351.25,2308.89,363.87z"/>
	<path class="st5" d="M2264.61,256.74c-2.47,0-4.7,1.98-4.7,4.7c0,2.47,1.98,4.7,4.7,4.7c27.71,0,50.22,22.51,50.22,50.22
		c0,2.47,1.98,4.7,4.7,4.7c2.47,0,4.7-1.98,4.7-4.7C2324.23,283.46,2297.51,256.74,2264.61,256.74z"/>
	<path class="st5" d="M2306.67,431.41c0-6.43-5.2-11.38-11.38-11.38h-61.11c-6.43,0-11.38,5.2-11.38,11.38
		c0,6.43,5.2,11.38,11.38,11.38h60.86C2301.47,442.79,2306.67,437.84,2306.67,431.41z M2295.04,433.39h-60.86
		c-1.24,0-1.98-0.99-1.98-1.98c0-1.24,0.99-1.98,1.98-1.98h60.86c1.24,0,1.98,0.99,1.98,1.98
		C2297.27,432.64,2296.28,433.39,2295.04,433.39z"/>
	<path class="st5" d="M2286.13,447.73h-42.8c-6.43,0-11.38,5.2-11.38,11.38c0,6.43,5.2,11.38,11.38,11.38h42.8
		c6.43,0,11.38-5.2,11.38-11.38S2292.32,447.73,2286.13,447.73z M2286.13,461.09h-42.8c-1.24,0-1.98-0.99-1.98-1.98
		c0-1.24,0.99-1.98,1.98-1.98h42.8c1.24,0,1.98,0.99,1.98,1.98C2288.11,460.35,2287.37,461.09,2286.13,461.09z"/>
	<path class="st5" d="M2269.31,209.49v-31.67c0-2.47-1.98-4.7-4.7-4.7c-2.47,0-4.7,1.98-4.7,4.7v31.91c0,2.47,1.98,4.7,4.7,4.7
		C2267.33,214.19,2269.31,212.21,2269.31,209.49z"/>
	<path class="st5" d="M2342.54,196.62c-2.23-1.48-4.95-0.74-6.43,1.24l-17.57,26.47c-1.48,2.23-0.74,4.95,1.24,6.43
		c0.74,0.49,1.73,0.74,2.47,0.74c1.48,0,2.97-0.74,3.96-1.98l17.57-26.47C2345.26,201.08,2344.52,198.11,2342.54,196.62z"/>
	<path class="st5" d="M2208.7,230.52c0.74,0,1.73-0.25,2.47-0.74c2.23-1.48,2.72-4.21,1.48-6.43l-17.07-26.72
		c-1.48-2.23-4.21-2.72-6.43-1.48c-2.23,1.48-2.72,4.21-1.48,6.43l17.07,26.72C2205.73,229.78,2207.21,230.52,2208.7,230.52z"/>
	<path class="st5" d="M2143.14,252.78l27.96,15.09c0.74,0.49,1.48,0.49,2.23,0.49c1.73,0,3.22-0.99,4.21-2.47
		c1.24-2.23,0.49-5.2-1.98-6.43l-27.96-15.09c-2.23-1.24-5.2-0.49-6.43,1.98C2140.17,248.83,2140.91,251.55,2143.14,252.78z"/>
	<path class="st5" d="M2355.9,268.62c0.74,0,1.48-0.25,2.23-0.49l27.96-15.09c2.23-1.24,3.22-3.96,1.98-6.43
		c-1.24-2.23-3.96-3.22-6.43-1.98l-27.96,15.09c-2.23,1.24-3.22,3.96-1.98,6.43C2352.44,267.63,2354.17,268.62,2355.9,268.62z"/>
</g>
<path class="st6" d="M2071.73,968.89c53.65,35.75,118.09,56.59,187.41,56.59s133.75-20.84,187.41-56.59"/>
<path class="st6" d="M2107.75,384.32c-32.67,16.37-62.33,37.87-87.91,63.45c-61.24,61.24-99.12,145.84-99.12,239.29
	c0,6.61,0.2,13.17,0.57,19.69"/>
<path class="st6" d="M2596.98,706.75c0.37-6.52,0.57-13.08,0.57-19.69c0-93.45-37.88-178.05-99.12-239.29
	c-25.78-25.78-55.69-47.41-88.66-63.83"/>
<g id="Programing-2">
	<path class="st7" d="M2657.78,735.5h-169.04c-4.45,0-8.05,3.6-8.05,8.05v16.1h185.14v-16.1
		C2665.83,739.1,2662.22,735.5,2657.78,735.5z"/>
	<path class="st8" d="M2480.69,759.65v112.69c0,4.45,3.6,8.05,8.05,8.05h169.04c4.45,0,8.05-3.6,8.05-8.05V759.65H2480.69z"/>
	<path class="st9" d="M2653.75,912.59h-160.99c-4.45,0-8.05,3.6-8.05,8.05v40.25c0,4.45,3.6,8.05,8.05,8.05h160.99
		c4.45,0,8.05-3.6,8.05-8.05v-40.25C2661.8,916.19,2658.2,912.59,2653.75,912.59z"/>
	<path d="M2496.79,924.66h8.05v8.05h-8.05V924.66z"/>
	<path d="M2512.89,924.66h8.05v8.05h-8.05V924.66z"/>
	<path d="M2528.99,924.66h8.05v8.05h-8.05V924.66z"/>
	<path d="M2545.08,924.66h8.05v8.05h-8.05V924.66z"/>
	<path d="M2561.18,924.66h8.05v8.05h-8.05V924.66z"/>
	<path d="M2577.28,924.66h8.05v8.05h-8.05V924.66z"/>
	<path d="M2593.38,924.66h8.05v8.05h-8.05V924.66z"/>
	<path d="M2609.48,924.66h8.05v8.05h-8.05V924.66z"/>
	<path d="M2625.58,924.66h8.05v8.05h-8.05V924.66z"/>
	<path d="M2641.68,924.66h8.05v8.05h-8.05V924.66z"/>
	<path d="M2496.79,936.73h8.05v8.05h-8.05V936.73z"/>
	<path d="M2512.89,936.73h8.05v8.05h-8.05V936.73z"/>
	<path d="M2528.99,936.73h8.05v8.05h-8.05V936.73z"/>
	<path d="M2545.08,936.73h8.05v8.05h-8.05V936.73z"/>
	<path d="M2561.18,936.73h8.05v8.05h-8.05V936.73z"/>
	<path d="M2577.28,936.73h8.05v8.05h-8.05V936.73z"/>
	<path d="M2593.38,936.73h8.05v8.05h-8.05V936.73z"/>
	<path d="M2609.48,936.73h8.05v8.05h-8.05V936.73z"/>
	<path d="M2625.58,936.73h8.05v8.05h-8.05V936.73z"/>
	<path d="M2641.68,936.73h8.05v8.05h-8.05V936.73z"/>
	<path d="M2512.89,948.81h8.05v8.05h-8.05V948.81z"/>
	<path d="M2528.99,948.81h8.05v8.05h-8.05V948.81z"/>
	<path d="M2545.08,948.81h56.35v8.05h-56.35V948.81z"/>
	<path d="M2609.48,948.81h8.05v8.05h-8.05V948.81z"/>
	<path d="M2625.58,948.81h8.05v8.05h-8.05V948.81z"/>
	<path d="M2641.68,948.81h8.05v8.05h-8.05V948.81z"/>
	<path d="M2492.76,743.55h8.05v8.05h-8.05V743.55z"/>
	<path d="M2508.86,743.55h8.05v8.05h-8.05V743.55z"/>
	<path d="M2524.96,743.55h8.05v8.05h-8.05V743.55z"/>
	<path d="M2504.84,783.79c-2.22,0-4.02,1.8-4.02,4.02v76.47c0,2.22,1.8,4.02,4.02,4.02s4.02-1.8,4.02-4.02v-76.47
		C2508.86,785.6,2507.06,783.79,2504.84,783.79z"/>
	<path d="M2533.01,799.89c2.22,0,4.03-1.8,4.03-4.02c0-1.35-0.67-2.61-1.79-3.35l-7.07-4.7l7.05-4.7c1.85-1.23,2.35-3.73,1.11-5.58
		c-1.23-1.85-3.73-2.35-5.58-1.11l-12.07,8.05c-1.85,1.23-2.35,3.73-1.12,5.58c0.29,0.44,0.67,0.82,1.12,1.12l12.07,8.05
		C2531.43,799.66,2532.21,799.9,2533.01,799.89L2533.01,799.89z"/>
	<path d="M2561.86,798.1c1.23,1.85,3.73,2.35,5.58,1.12c0,0,0,0,0,0l12.07-8.05c1.85-1.23,2.35-3.73,1.12-5.58
		c-0.29-0.44-0.67-0.82-1.12-1.12l-12.07-8.05c-1.85-1.23-4.35-0.73-5.58,1.11c-1.23,1.85-0.73,4.35,1.11,5.58l7.06,4.7l-7.05,4.7
		C2561.13,793.75,2560.63,796.25,2561.86,798.1C2561.86,798.1,2561.86,798.1,2561.86,798.1L2561.86,798.1z"/>
	<path d="M2543.81,803.71c2.11,0.7,4.39-0.44,5.09-2.55l8.05-24.15c0.7-2.11-0.44-4.39-2.55-5.1s-4.39,0.44-5.1,2.55l0,0
		l-8.05,24.15C2540.55,800.73,2541.69,803.01,2543.81,803.71C2543.81,803.71,2543.81,803.71,2543.81,803.71z"/>
	<path d="M2520.94,811.97h24.15v8.05h-24.15V811.97z"/>
	<path d="M2553.13,811.97h8.05v8.05h-8.05V811.97z"/>
	<path d="M2537.03,828.07h48.3v8.05h-48.3V828.07z"/>
	<path d="M2609.48,828.07h36.22v8.05h-36.22V828.07z"/>
	<path d="M2537.03,844.16h8.05v8.05h-8.05V844.16z"/>
	<path d="M2553.13,844.16h48.3v8.05h-48.3V844.16z"/>
	<path d="M2609.48,844.16h16.1v8.05h-16.1V844.16z"/>
	<path d="M2520.94,860.26h24.15v8.05h-24.15V860.26z"/>
	<path d="M2553.13,860.26h8.05v8.05h-8.05V860.26z"/>
	<path d="M2593.38,828.07h8.05v8.05h-8.05V828.07z"/>
	<path d="M2681.93,799.89h-12.07v-56.35c0-6.67-5.41-12.07-12.07-12.07h-169.04c-6.67,0-12.07,5.41-12.07,12.07v128.79
		c0,6.67,5.41,12.07,12.07,12.07h169.04c6.67,0,12.07-5.41,12.07-12.07v-64.4h12.07c2.22,0,4.02,1.8,4.02,4.02v76.47
		c0,2.22-1.8,4.02-4.02,4.02h-156.97c-3.48-0.48-7.02,0.35-9.94,2.31c-1.47,1.54-2.24,3.61-2.14,5.74v8.05h-20.12
		c-6.67,0-12.07,5.41-12.07,12.07v40.25c0,6.67,5.41,12.07,12.07,12.07h160.99c6.67,0,12.07-5.41,12.07-12.07v-40.25
		c0-6.67-5.41-12.07-12.07-12.07h-132.82v-8.05c0.76-0.09,160.99,0,160.99,0c6.67,0,12.07-5.41,12.07-12.07v-76.47
		C2694,805.3,2688.59,799.89,2681.93,799.89z M2488.74,739.52h169.04c2.22,0,4.02,1.8,4.02,4.02v12.07h-177.09v-12.07
		C2484.71,741.32,2486.51,739.52,2488.74,739.52z M2657.78,876.36h-169.04c-2.22,0-4.02-1.8-4.02-4.02V763.67h177.09v108.67
		C2661.8,874.56,2660,876.36,2657.78,876.36z M2657.78,920.64v40.25c0,2.22-1.8,4.02-4.02,4.02h-160.99c-2.22,0-4.02-1.8-4.02-4.02
		v-40.25c0-2.22,1.8-4.02,4.02-4.02h160.99C2655.98,916.61,2657.78,918.41,2657.78,920.64z"/>
</g>
<circle class="st10" cx="1953.5" cy="864.11" r="127.5"/>
<polygon class="st11" points="1885.97,931.82 1930.87,841.57 1976.04,886.57 "/>
<polygon class="st12" points="2021.12,796.5 1930.96,841.57 1976.04,886.65 "/>
<path class="st4" d="M711.66,369.98c-13.85,13.85-12.12,41.81-12.12,41.81h-70.26c0,0,1.48-27.96-12.12-41.81
	c-15.09-13.36-24.74-32.66-24.74-54.18c0-39.58,32.16-71.75,71.75-71.75c39.58,0,71.75,32.16,71.75,71.75
	C735.9,337.32,726.5,356.62,711.66,369.98L711.66,369.98z"/>
<g>
	<path class="st5" d="M715.37,372.45c16.08-14.6,25.23-35.13,25.23-56.65c0-42.06-34.39-76.45-76.45-76.45
		c-42.06,0-76.45,34.39-76.45,76.45c0,22.02,9.65,43.05,25.98,57.4c12.12,12.12,10.89,37.85,10.89,38.1c0,1.24,0.49,2.47,1.24,3.46
		c0.99,0.99,2.23,1.48,3.46,1.48h70.01c1.24,0,2.47-0.49,3.46-1.48c0.99-0.99,1.24-2.23,1.24-3.46c0-0.25-1.24-25.98,10.89-38.1
		C715.12,372.94,715.37,372.7,715.37,372.45z M708.44,366.27c-0.49,0.25-0.74,0.74-0.99,1.24c-10.89,11.63-12.62,30.68-12.86,39.58
		h-60.61c-0.25-9.15-2.23-28.95-13.85-40.57c-14.6-12.86-23.01-31.17-23.01-50.47c0-37.11,30.18-67.05,67.05-67.05
		c37.11,0,67.05,30.18,67.05,67.05C731.2,335.09,723.04,353.65,708.44,366.27z"/>
	<path class="st5" d="M664.16,259.14c-2.47,0-4.7,1.98-4.7,4.7c0,2.47,1.98,4.7,4.7,4.7c27.71,0,50.22,22.51,50.22,50.22
		c0,2.47,1.98,4.7,4.7,4.7c2.47,0,4.7-1.98,4.7-4.7C723.78,285.86,697.06,259.14,664.16,259.14z"/>
	<path class="st5" d="M706.22,433.81c0-6.43-5.2-11.38-11.38-11.38h-61.11c-6.43,0-11.38,5.2-11.38,11.38
		c0,6.43,5.2,11.38,11.38,11.38h60.86C701.02,445.19,706.22,440.24,706.22,433.81z M694.59,435.78h-60.86
		c-1.24,0-1.98-0.99-1.98-1.98c0-1.24,0.99-1.98,1.98-1.98h60.86c1.24,0,1.98,0.99,1.98,1.98
		C696.81,435.04,695.82,435.78,694.59,435.78z"/>
	<path class="st5" d="M685.68,450.13h-42.8c-6.43,0-11.38,5.2-11.38,11.38c0,6.43,5.2,11.38,11.38,11.38h42.8
		c6.43,0,11.38-5.2,11.38-11.38S691.87,450.13,685.68,450.13z M685.68,463.49h-42.8c-1.24,0-1.98-0.99-1.98-1.98
		c0-1.24,0.99-1.98,1.98-1.98h42.8c1.24,0,1.98,0.99,1.98,1.98C687.66,462.75,686.92,463.49,685.68,463.49z"/>
	<path class="st5" d="M668.86,211.89v-31.67c0-2.47-1.98-4.7-4.7-4.7c-2.47,0-4.7,1.98-4.7,4.7v31.91c0,2.47,1.98,4.7,4.7,4.7
		C666.88,216.59,668.86,214.61,668.86,211.89z"/>
	<path class="st5" d="M742.09,199.02c-2.23-1.48-4.95-0.74-6.43,1.24l-17.57,26.47c-1.48,2.23-0.74,4.95,1.24,6.43
		c0.74,0.49,1.73,0.74,2.47,0.74c1.48,0,2.97-0.74,3.96-1.98l17.57-26.47C744.81,203.48,744.07,200.51,742.09,199.02z"/>
	<path class="st5" d="M608.25,232.92c0.74,0,1.73-0.25,2.47-0.74c2.23-1.48,2.72-4.21,1.48-6.43l-17.07-26.72
		c-1.48-2.23-4.21-2.72-6.43-1.48c-2.23,1.48-2.72,4.21-1.48,6.43l17.07,26.72C605.28,232.17,606.76,232.92,608.25,232.92z"/>
	<path class="st5" d="M542.68,255.18l27.96,15.09c0.74,0.49,1.48,0.49,2.23,0.49c1.73,0,3.22-0.99,4.21-2.47
		c1.24-2.23,0.49-5.2-1.98-6.43l-27.96-15.09c-2.23-1.24-5.2-0.49-6.43,1.98C539.72,251.22,540.46,253.95,542.68,255.18z"/>
	<path class="st5" d="M755.45,271.02c0.74,0,1.48-0.25,2.23-0.49l27.96-15.09c2.23-1.24,3.22-3.96,1.98-6.43
		c-1.24-2.23-3.96-3.22-6.43-1.98l-27.96,15.09c-2.23,1.24-3.22,3.96-1.98,6.43C751.98,270.03,753.72,271.02,755.45,271.02z"/>
</g>
<g>
	<g>
		<path class="st13" d="M529.88,1002.5c39.7,16.36,83.2,25.38,128.8,25.38c69.31,0,133.75-20.84,187.41-56.59"/>
		<g>
			<path class="st14" d="M471.28,971.29c22.34,24.72,47.58,60.17,59.2,89.84l7.4-55.14l40.95-37.64
				C547.84,975.83,504.33,975.45,471.28,971.29z"/>
		</g>
	</g>
</g>
<g>
	<g>
		<path class="st13" d="M451.15,422.14c-11.17,8.68-21.77,18.04-31.76,28.03c-61.24,61.24-99.12,145.84-99.12,239.29
			c0,6.61,0.2,13.17,0.57,19.69"/>
		<g>
			<path class="st14" d="M507.3,386.72c-32.54,7.18-75.83,11.54-107.37,6.95l44.24,33.73l12.42,54.22
				C465.45,450.99,487.32,413.37,507.3,386.72z"/>
		</g>
	</g>
</g>
<g>
	<g>
		<path class="st13" d="M993.91,642.81c-10.31-74.79-45.06-141.77-95.93-192.64c-25.78-25.78-55.69-47.41-88.66-63.83"/>
		<g>
			<path class="st14" d="M996.53,709.15c10.06-31.76,27.93-71.44,47.69-96.45l-51.33,21.44l-53.16-16.36
				C961.81,640.76,983.44,678.51,996.53,709.15z"/>
		</g>
	</g>
</g>
<g id="Programing-2_1_">
	<path class="st7" d="M1057.33,737.9H888.29c-4.45,0-8.05,3.6-8.05,8.05v16.1h185.14v-16.1
		C1065.37,741.5,1061.77,737.9,1057.33,737.9z"/>
	<path class="st8" d="M880.24,762.04v112.69c0,4.45,3.6,8.05,8.05,8.05h169.04c4.45,0,8.05-3.6,8.05-8.05V762.04H880.24z"/>
	<path class="st9" d="M1053.3,914.98H892.31c-4.45,0-8.05,3.6-8.05,8.05v40.25c0,4.45,3.6,8.05,8.05,8.05h160.99
		c4.45,0,8.05-3.6,8.05-8.05v-40.25C1061.35,918.59,1057.75,914.98,1053.3,914.98z"/>
	<path d="M896.34,927.06h8.05v8.05h-8.05V927.06z"/>
	<path d="M912.43,927.06h8.05v8.05h-8.05V927.06z"/>
	<path d="M928.53,927.06h8.05v8.05h-8.05V927.06z"/>
	<path d="M944.63,927.06h8.05v8.05h-8.05V927.06z"/>
	<path d="M960.73,927.06h8.05v8.05h-8.05V927.06z"/>
	<path d="M976.83,927.06h8.05v8.05h-8.05V927.06z"/>
	<path d="M992.93,927.06h8.05v8.05h-8.05V927.06z"/>
	<path d="M1009.03,927.06h8.05v8.05h-8.05V927.06z"/>
	<path d="M1025.13,927.06h8.05v8.05h-8.05V927.06z"/>
	<path d="M1041.23,927.06h8.05v8.05h-8.05V927.06z"/>
	<path d="M896.34,939.13h8.05v8.05h-8.05V939.13z"/>
	<path d="M912.43,939.13h8.05v8.05h-8.05V939.13z"/>
	<path d="M928.53,939.13h8.05v8.05h-8.05V939.13z"/>
	<path d="M944.63,939.13h8.05v8.05h-8.05V939.13z"/>
	<path d="M960.73,939.13h8.05v8.05h-8.05V939.13z"/>
	<path d="M976.83,939.13h8.05v8.05h-8.05V939.13z"/>
	<path d="M992.93,939.13h8.05v8.05h-8.05V939.13z"/>
	<path d="M1009.03,939.13h8.05v8.05h-8.05V939.13z"/>
	<path d="M1025.13,939.13h8.05v8.05h-8.05V939.13z"/>
	<path d="M1041.23,939.13h8.05v8.05h-8.05V939.13z"/>
	<path d="M912.43,951.21h8.05v8.05h-8.05V951.21z"/>
	<path d="M928.53,951.21h8.05v8.05h-8.05V951.21z"/>
	<path d="M944.63,951.21h56.35v8.05h-56.35V951.21z"/>
	<path d="M1009.03,951.21h8.05v8.05h-8.05V951.21z"/>
	<path d="M1025.13,951.21h8.05v8.05h-8.05V951.21z"/>
	<path d="M1041.23,951.21h8.05v8.05h-8.05V951.21z"/>
	<path d="M892.31,745.94h8.05v8.05h-8.05V745.94z"/>
	<path d="M908.41,745.94h8.05v8.05h-8.05V745.94z"/>
	<path d="M924.51,745.94h8.05v8.05h-8.05V745.94z"/>
	<path d="M904.38,786.19c-2.22,0-4.02,1.8-4.02,4.02v76.47c0,2.22,1.8,4.02,4.02,4.02c2.22,0,4.02-1.8,4.02-4.02v-76.47
		C908.41,787.99,906.61,786.19,904.38,786.19z"/>
	<path d="M932.56,802.29c2.22,0,4.03-1.8,4.03-4.02c0-1.35-0.67-2.61-1.79-3.35l-7.07-4.7l7.05-4.7c1.85-1.23,2.35-3.73,1.11-5.58
		c-1.23-1.85-3.73-2.35-5.58-1.11l-12.07,8.05c-1.85,1.23-2.35,3.73-1.12,5.58c0.29,0.44,0.67,0.82,1.12,1.12l12.07,8.05
		C930.98,802.06,931.76,802.29,932.56,802.29L932.56,802.29z"/>
	<path d="M961.41,800.5c1.23,1.85,3.73,2.35,5.58,1.12c0,0,0,0,0,0l12.07-8.05c1.85-1.23,2.35-3.73,1.12-5.58
		c-0.29-0.44-0.67-0.82-1.12-1.12l-12.07-8.05c-1.85-1.23-4.35-0.73-5.58,1.11c-1.23,1.85-0.73,4.35,1.11,5.58l7.06,4.7l-7.05,4.7
		C960.68,796.15,960.18,798.64,961.41,800.5C961.41,800.5,961.41,800.5,961.41,800.5L961.41,800.5z"/>
	<path d="M943.36,806.11c2.11,0.7,4.39-0.44,5.09-2.55l8.05-24.15c0.7-2.11-0.44-4.39-2.55-5.1c-2.11-0.7-4.39,0.44-5.1,2.55l0,0
		l-8.05,24.15C940.1,803.13,941.24,805.41,943.36,806.11C943.35,806.11,943.36,806.11,943.36,806.11z"/>
	<path d="M920.48,814.37h24.15v8.05h-24.15V814.37z"/>
	<path d="M952.68,814.37h8.05v8.05h-8.05V814.37z"/>
	<path d="M936.58,830.46h48.3v8.05h-48.3V830.46z"/>
	<path d="M1009.03,830.46h36.22v8.05h-36.22V830.46z"/>
	<path d="M936.58,846.56h8.05v8.05h-8.05V846.56z"/>
	<path d="M952.68,846.56h48.3v8.05h-48.3V846.56z"/>
	<path d="M1009.03,846.56h16.1v8.05h-16.1V846.56z"/>
	<path d="M920.48,862.66h24.15v8.05h-24.15V862.66z"/>
	<path d="M952.68,862.66h8.05v8.05h-8.05V862.66z"/>
	<path d="M992.93,830.46h8.05v8.05h-8.05V830.46z"/>
	<path d="M1081.47,802.29h-12.07v-56.35c0-6.67-5.41-12.07-12.07-12.07H888.29c-6.67,0-12.07,5.41-12.07,12.07v128.79
		c0,6.67,5.41,12.07,12.07,12.07h169.04c6.67,0,12.07-5.41,12.07-12.07v-64.4h12.07c2.22,0,4.02,1.8,4.02,4.02v76.47
		c0,2.22-1.8,4.02-4.02,4.02H924.51c-3.48-0.48-7.02,0.35-9.94,2.31c-1.47,1.54-2.24,3.61-2.14,5.74v8.05h-20.12
		c-6.67,0-12.07,5.41-12.07,12.07v40.25c0,6.67,5.41,12.07,12.07,12.07h160.99c6.67,0,12.07-5.41,12.07-12.07v-40.25
		c0-6.67-5.41-12.07-12.07-12.07H920.48v-8.05c0.76-0.09,160.99,0,160.99,0c6.67,0,12.07-5.41,12.07-12.07v-76.47
		C1093.55,807.7,1088.14,802.29,1081.47,802.29z M888.29,741.92h169.04c2.22,0,4.02,1.8,4.02,4.02v12.07H884.26v-12.07
		C884.26,743.72,886.06,741.92,888.29,741.92z M1057.33,878.76H888.29c-2.22,0-4.02-1.8-4.02-4.02V766.07h177.09v108.67
		C1061.35,876.96,1059.55,878.76,1057.33,878.76z M1057.33,923.03v40.25c0,2.22-1.8,4.02-4.02,4.02H892.31
		c-2.22,0-4.02-1.8-4.02-4.02v-40.25c0-2.22,1.8-4.02,4.02-4.02h160.99C1055.52,919.01,1057.33,920.81,1057.33,923.03z"/>
</g>
<circle class="st10" cx="353.05" cy="866.51" r="127.5"/>
<polygon class="st11" points="285.52,934.22 330.42,843.97 375.59,888.97 "/>
<polygon class="st12" points="420.67,798.89 330.51,843.97 375.59,889.05 "/>
<g class="st15">
	<path d="M1275.13,742.16l-121.95-366.36h71.06l77.86,244.41l77.86-244.41H1451l-121.95,366.36H1275.13z"/>
	<path d="M1594.41,747.17c-26.37,0-51.57-3.99-75.59-11.97c-24.02-7.97-44.77-19.11-62.24-33.39l32-56.95
		c14.11,11.59,30.4,20.54,48.88,26.83c18.48,6.3,37.46,9.45,56.95,9.45c22.51,0,39.98-3.82,52.41-11.47
		c12.43-7.64,18.65-18.43,18.65-32.38v-0.25c0-10.58-3.11-18.68-9.32-24.31c-6.22-5.63-14.41-9.78-24.57-12.47
		c-10.17-2.68-21.21-4.95-33.13-6.8c-14.28-2.52-28.72-5.46-43.34-8.82c-14.61-3.36-28.06-8.52-40.32-15.5
		c-12.26-6.97-22.13-17.05-29.61-30.24c-7.48-13.18-11.21-30.87-11.21-53.04v-0.25c0-35.78,11.76-63.45,35.28-83.02
		c23.52-19.57,56.78-29.36,99.78-29.36c19.82,0,39.98,3.32,60.47,9.95c20.49,6.64,39.56,16.09,57.2,28.35l-29.23,58.46
		c-29.4-20.49-58.88-30.74-88.44-30.74c-21.17,0-37.54,3.49-49.13,10.46c-11.59,6.97-17.39,16.76-17.39,29.36v0.25
		c0,11.76,3.44,20.66,10.33,26.71c6.89,6.05,15.87,10.54,26.96,13.48c11.09,2.94,23.01,5.67,35.78,8.19
		c14.11,2.69,28.13,6.01,42.08,9.95c13.94,3.95,26.71,9.62,38.3,17.01c11.59,7.39,20.83,17.55,27.72,30.49
		c6.89,12.94,10.33,29.73,10.33,50.39v0.51c0,35.28-12.18,62.61-36.54,82.02C1673.11,737.47,1638.76,747.17,1594.41,747.17z"/>
</g>
<g>
	<g>
		<line class="st16" x1="665" y1="700.5" x2="659.89" y2="697.36"/>
		<line class="st17" x1="649.85" y1="691.2" x2="273.63" y2="460.22"/>
		<line class="st16" x1="268.61" y1="457.14" x2="263.5" y2="454"/>
	</g>
</g>
<g>
	<g>
		<line class="st16" x1="1025.5" y1="472" x2="1020.44" y2="475.23"/>
		<line class="st18" x1="1010.51" y1="481.56" x2="677.68" y2="693.83"/>
		<line class="st16" x1="672.71" y1="697" x2="667.65" y2="700.22"/>
	</g>
</g>
<g>
	<g>
		<line class="st16" x1="663.43" y1="1120" x2="663.43" y2="1114"/>
		<line class="st19" x1="663.43" y1="1101.72" x2="663.43" y2="715.01"/>
		<line class="st16" x1="663.43" y1="708.87" x2="663.43" y2="702.87"/>
	</g>
</g>
</svg>
