<?xml version="1.0" encoding="utf-8"?>
<!-- Generator: Adobe Illustrator 23.1.0, SVG Export Plug-In . SVG Version: 6.00 Build 0)  -->
<svg version="1.1" id="Ebene_1" xmlns="http://www.w3.org/2000/svg" xmlns:xlink="http://www.w3.org/1999/xlink" x="0px" y="0px"
	 width="2720px" height="1268px" viewBox="0 0 2720 1268" style="enable-background:new 0 0 2720 1268;" xml:space="preserve">
<style type="text/css">
	.st0{opacity:0.86;fill:#6AE184;}
	.st1{fill:#A8FF8C;}
	.st2{fill:#389D9C;}
	.st3{fill:#385868;}
	.st4{opacity:0.22;fill:#3D2ECE;stroke:#2E8CFF;stroke-width:3.5659;stroke-miterlimit:10;}
	.st5{fill:#C5C6EF;}
	.st6{fill:#1081E0;stroke:#161616;stroke-width:15.1676;stroke-miterlimit:10;}
	.st7{fill:#D75A4A;}
	.st8{fill:#FFFFFF;}
	.st9{fill:#FFD517;}
	.st10{fill:#210B20;}
	.st11{fill:#EAEAEA;}
	.st12{fill:#55E574;}
	.st13{fill:#B7B7B7;}
</style>
<g id="Layer_2_2_">
	<g id="Layer_1-2_2_">
		<path class="st0" d="M1603.29,600.97c-0.15,21.48,1.08,42.96,3.67,64.28c3.22,31.24,9.38,62.1,18.4,92.18l2.01-0.52
			c66.58,204.9,257.14,343.95,472.59,344.82h3.74h2.36c53.27,0.27,106.24-8.01,156.88-24.54l194.83,129.51
			c21.5,14.33,50.54,8.53,64.88-12.97c7.01-10.51,9.47-23.4,6.82-35.76l-47.89-224.56c182.55-206.3,163.3-521.53-43-704.08
			c-90.65-80.22-207.39-124.73-328.44-125.25h-2.32h-3.81C1828.54,103.03,1604.36,325.49,1603.29,600.97z"/>
		<path class="st1" d="M2533.12,1178.8c5.37,25.29-10.78,50.15-36.07,55.52c-12.31,2.61-25.15,0.16-35.63-6.8l-5.65-3.74
			c12.97-11.07,18.74-28.42,14.97-45.05l-47.89-224.56c182.52-206.33,163.22-521.55-43.11-704.07
			c-83.88-74.2-190.28-118.01-302.08-124.39c9.88-0.59,19.82-0.83,29.87-0.8h3.78h2.32c275.47,1.07,497.92,225.25,496.85,500.72
			c-0.47,121.11-44.99,237.91-125.25,328.61L2533.12,1178.8z"/>
		<path class="st2" d="M2125.92,104.09c20.52,0.09,41.02,1.43,61.37,4.02c-273.72,33.04-468.82,281.71-435.78,555.43
			c0.09,0.75,0.18,1.49,0.28,2.24c3.19,31.24,9.34,62.1,18.37,92.18l2.01-0.52c59.65,183.44,219.63,316.11,410.94,340.8
			c-236.57,28.34-460.14-114.62-533.68-341.25l-2.01,0.52c-9.02-30.08-15.17-60.94-18.37-92.18
			c-34.36-273.46,159.47-522.99,432.93-557.35C2083.18,105.31,2104.54,104.01,2125.92,104.09z"/>
		<path class="st3" d="M2495.45,1238.97c-14.05-0.03-27.77-4.23-39.44-12.06l-185.13-123.06c-49.68,14.97-101.32,22.44-153.21,22.18
			h-2.08H2114c-0.8,0-1.56,0-2.43,0c-217.71-0.48-412.26-136.01-488.15-340.07l-2.98,0.76l-6.55-22.25
			c-9.42-31.46-15.87-63.74-19.27-96.41c-2.75-22.28-4.08-44.71-3.99-67.16l0,0c1.01-287.74,235.48-521.07,522.94-521.07h8.25
			c288.43,1.14,522.18,236.76,521.04,525.19c-0.45,122.75-44.09,241.42-123.27,335.22l45.36,212.75
			c8.17,38.47-16.39,76.29-54.86,84.46c-4.82,1.02-9.73,1.54-14.65,1.55V1238.97z M2278.34,1050.48l204.64,136.02
			c10.35,6.87,24.31,4.04,31.18-6.31c3.33-5.02,4.51-11.16,3.27-17.05l-50.46-236.59l8.14-9.18
			c76.37-86.24,118.72-197.33,119.14-312.52c1.04-261.64-211.01-475.36-472.62-476.5h-8.01c-261.38,0-473.54,211.38-474.49,472.76
			c-0.08,20.46,1.15,40.9,3.67,61.2v0.52c2.29,21.92,6.1,43.65,11.4,65.05l0.97-0.24l6.93,21.69
			c63.02,195.15,244.5,327.56,449.58,328.01h1.25c0.8,0,1.59,0,2.43,0h2.08c50.77,0.28,101.26-7.59,149.54-23.32L2278.34,1050.48z"
			/>
	</g>
</g>
<path class="st4" d="M1176.34,651.26c-3.57,21.83-8.54,43.4-14.88,64.59c-8.6,31.15-20.12,61.42-34.4,90.4l-1.95-0.86
	c-102.6,196.62-319.85,305.15-538.68,269.11l-3.8-0.62l-2.39-0.39c-54.1-8.83-106.43-26.28-154.99-51.7l-219.69,98.16
	c-24.22,10.96-52.74,0.21-63.71-24.01c-5.4-11.93-5.71-25.54-0.85-37.7l86.94-219.67C77.93,598.05,151.3,281.48,391.81,131.47
	c105.79-65.98,231.98-91.2,355-70.94l2.36,0.39l3.87,0.64c279.73,45.94,469.25,309.94,423.32,589.67
	C1176.35,651.24,1176.34,651.25,1176.34,651.26z"/>
<path class="st5" d="M730.84,57.87c-20.86-3.44-41.92-5.59-63.05-6.46c248.48,73.2,403.53,320.01,361.62,575.63
	c-3.59,21.84-8.57,43.42-14.92,64.62c-8.58,31.14-20.1,61.4-34.4,90.37l-1.95-0.9c-91.89,175.98-276.94,283.27-475.31,275.58
	c235.23,69.19,486.54-37.69,599.87-255.12l1.95,0.9c14.3-28.97,25.81-59.22,34.4-90.37c81.53-271.62-72.57-557.91-344.19-639.44
	C773.86,66.39,752.47,61.44,730.84,57.87z"/>
<path class="st3" d="M162.34,1146.34c-39.91-6.72-66.81-44.53-60.08-84.44c0.85-5.04,2.23-9.98,4.1-14.74l82.36-208.1
	c-64.39-108.69-88.46-236.57-68-361.23C168.84,184.92,446.3-14.36,739.34,33.79l6.23,1.02c292.9,48.12,492.18,325.59,444.04,618.63
	c-3.74,22.79-8.93,45.32-15.53,67.45c-9.03,32.57-21.09,64.22-36.02,94.54l-10.75,21.43l-2.9-1.27
	C1012.57,1029.7,792.01,1134.02,571,1097.33l-3.8-0.62l-2.39-0.39c-52.69-8.6-103.8-25-151.66-48.66l-209.12,93.21
	C190.97,1146.74,176.47,1148.64,162.34,1146.34z M731.2,83.33C465.29,39.64,213.63,220.25,169.98,485.92
	c-19.28,116.95,4.69,236.91,67.42,337.47l6.7,10.71l-91.58,231.41c-4.68,11.89,1.16,25.33,13.05,30.01
	c5.77,2.27,12.22,2.13,17.89-0.39l230.89-103l10.75,5.63c46.16,24.16,95.9,40.75,147.32,49.14c2.08,0.34,3.52,0.58,4.89,0.8
	l1.3,0.21c208.17,34.57,414.93-68.78,512.21-256.04l10.64-20.8l0.94,0.41c9.05-20.87,16.63-42.35,22.7-64.28l0.09-0.53
	c6.02-20.16,10.74-40.69,14.14-61.46C1183,379.55,1002.39,127.92,736.72,84.28l-1.37-0.23C734.36,83.92,732.85,83.68,731.2,83.33z"
	/>
<g id="Ebene_2">
	<circle class="st6" cx="771.61" cy="741.03" r="189.03"/>
	<polygon class="st7" points="860.86,640.78 727.19,707.61 794.03,774.44 	"/>
	<polygon class="st8" points="660.49,841.41 727.06,707.61 794.03,774.32 	"/>
</g>
<g id="Ebene_3">
	<path class="st9" d="M582.81,428.07C563.29,447.59,565.72,487,565.72,487h-99.03c0,0,2.09-39.41-17.08-58.93
		c-21.27-18.83-34.87-46.03-34.87-76.37c0-55.79,45.33-101.13,101.13-101.13C571.66,250.57,617,295.9,617,351.7
		C616.97,382.03,603.73,409.24,582.81,428.07L582.81,428.07z"/>
	<g>
		<path class="st10" d="M588.04,434.43c22.66-20.58,35.56-49.52,35.56-79.85c0-59.28-48.47-107.76-107.76-107.76
			S408.09,295.3,408.09,354.58c0,31.04,13.6,60.68,36.62,80.91c17.08,17.08,15.35,53.35,15.35,53.7c0,1.75,0.69,3.48,1.75,4.88
			c1.4,1.4,3.14,2.09,4.88,2.09h98.68c1.75,0,3.48-0.69,4.88-2.09c1.4-1.4,1.75-3.14,1.75-4.88c0-0.35-1.75-36.62,15.35-53.7
			C587.68,435.12,588.04,434.78,588.04,434.43z M578.27,425.72c-0.69,0.35-1.04,1.04-1.4,1.75c-15.35,16.39-17.79,43.24-18.13,55.79
			h-85.43c-0.35-12.9-3.14-40.81-19.52-57.18c-20.58-18.13-32.43-43.93-32.43-71.14c0-52.31,42.54-94.51,94.51-94.51
			c52.31,0,94.51,42.54,94.51,94.51C610.35,381.77,598.85,407.93,578.27,425.72z"/>
		<path class="st10" d="M515.86,274.72c-3.48,0-6.62,2.79-6.62,6.62c0,3.48,2.79,6.62,6.62,6.62c39.06,0,70.79,31.73,70.79,70.79
			c0,3.48,2.79,6.62,6.62,6.62c3.48,0,6.62-2.79,6.62-6.62C599.89,312.38,562.23,274.72,515.86,274.72z"/>
		<path class="st10" d="M575.14,520.92c0-9.06-7.33-16.04-16.04-16.04h-86.13c-9.06,0-16.04,7.33-16.04,16.04
			c0,9.06,7.33,16.04,16.04,16.04h85.78C567.81,536.96,575.14,529.98,575.14,520.92z M558.75,523.69h-85.78
			c-1.75,0-2.79-1.4-2.79-2.79c0-1.75,1.4-2.79,2.79-2.79h85.78c1.75,0,2.79,1.4,2.79,2.79
			C561.88,522.65,560.48,523.69,558.75,523.69z"/>
		<path class="st10" d="M546.19,543.92h-60.33c-9.06,0-16.04,7.33-16.04,16.04c0,9.06,7.33,16.04,16.04,16.04h60.33
			c9.06,0,16.04-7.33,16.04-16.04C562.23,551.25,554.91,543.92,546.19,543.92z M546.19,562.75h-60.33c-1.75,0-2.79-1.4-2.79-2.79
			c0-1.75,1.4-2.79,2.79-2.79h60.33c1.75,0,2.79,1.4,2.79,2.79C548.98,561.71,547.94,562.75,546.19,562.75z"/>
		<path class="st10" d="M522.48,208.12v-44.64c0-3.48-2.79-6.62-6.62-6.62c-3.48,0-6.62,2.79-6.62,6.62v44.98
			c0,3.48,2.79,6.62,6.62,6.62C519.69,214.74,522.48,211.95,522.48,208.12z"/>
		<path class="st10" d="M625.7,189.98c-3.14-2.09-6.98-1.04-9.06,1.75l-24.77,37.31c-2.09,3.14-1.04,6.98,1.75,9.06
			c1.04,0.69,2.44,1.04,3.48,1.04c2.09,0,4.19-1.04,5.58-2.79l24.77-37.31C629.53,196.27,628.49,192.08,625.7,189.98z"/>
		<path class="st10" d="M437.05,237.76c1.04,0,2.44-0.35,3.48-1.04c3.14-2.09,3.83-5.93,2.09-9.06l-24.06-37.66
			c-2.09-3.14-5.93-3.83-9.06-2.09c-3.14,2.09-3.83,5.93-2.09,9.06l24.06,37.66C432.87,236.7,434.95,237.76,437.05,237.76z"/>
		<path class="st10" d="M344.63,269.14l39.41,21.27c1.04,0.69,2.09,0.69,3.14,0.69c2.44,0,4.54-1.4,5.93-3.48
			c1.75-3.14,0.69-7.33-2.79-9.06l-39.41-21.27c-3.14-1.75-7.33-0.69-9.06,2.79C340.46,263.56,341.5,267.4,344.63,269.14z"/>
		<path class="st10" d="M644.53,291.46c1.04,0,2.09-0.35,3.14-0.69l39.41-21.27c3.14-1.75,4.54-5.58,2.79-9.06
			c-1.75-3.14-5.58-4.54-9.06-2.79l-39.41,21.27c-3.14,1.75-4.54,5.58-2.79,9.06C639.64,290.07,642.09,291.46,644.53,291.46z"/>
	</g>
	<g id="Programing-2_1_">
		<path class="st11" d="M2248.59,434.99h-258.69c-6.81,0-12.32,5.51-12.32,12.32v24.64h283.33v-24.64
			C2260.89,440.5,2255.38,434.99,2248.59,434.99z"/>
		<path class="st12" d="M1977.57,471.93v172.46c0,6.81,5.51,12.32,12.32,12.32h258.69c6.81,0,12.32-5.51,12.32-12.32V471.93H1977.57
			z"/>
		<path class="st13" d="M2242.42,705.99h-246.37c-6.81,0-12.32,5.51-12.32,12.32v61.6c0,6.81,5.51,12.32,12.32,12.32h246.37
			c6.81,0,12.32-5.51,12.32-12.32v-61.6C2254.74,711.51,2249.23,705.99,2242.42,705.99z"/>
		<path d="M2002.21,724.48h12.32v12.32h-12.32V724.48z"/>
		<path d="M2026.83,724.48h12.32v12.32h-12.32V724.48z"/>
		<path d="M2051.47,724.48h12.32v12.32h-12.32V724.48z"/>
		<path d="M2076.11,724.48h12.32v12.32h-12.32V724.48z"/>
		<path d="M2100.75,724.48h12.32v12.32h-12.32V724.48z"/>
		<path d="M2125.39,724.48h12.32v12.32h-12.32V724.48z"/>
		<path d="M2150.03,724.48h12.32v12.32h-12.32V724.48z"/>
		<path d="M2174.67,724.48h12.32v12.32h-12.32V724.48z"/>
		<path d="M2199.31,724.48h12.32v12.32h-12.32V724.48z"/>
		<path d="M2223.95,724.48h12.32v12.32h-12.32V724.48z"/>
		<path d="M2002.21,742.95h12.32v12.32h-12.32V742.95z"/>
		<path d="M2026.83,742.95h12.32v12.32h-12.32V742.95z"/>
		<path d="M2051.47,742.95h12.32v12.32h-12.32V742.95z"/>
		<path d="M2076.11,742.95h12.32v12.32h-12.32V742.95z"/>
		<path d="M2100.75,742.95h12.32v12.32h-12.32V742.95z"/>
		<path d="M2125.39,742.95h12.32v12.32h-12.32V742.95z"/>
		<path d="M2150.03,742.95h12.32v12.32h-12.32V742.95z"/>
		<path d="M2174.67,742.95h12.32v12.32h-12.32V742.95z"/>
		<path d="M2199.31,742.95h12.32v12.32h-12.32V742.95z"/>
		<path d="M2223.95,742.95h12.32v12.32h-12.32V742.95z"/>
		<path d="M2026.83,761.43h12.32v12.32h-12.32V761.43z"/>
		<path d="M2051.47,761.43h12.32v12.32h-12.32V761.43z"/>
		<path d="M2076.11,761.43h86.24v12.32h-86.24V761.43z"/>
		<path d="M2174.67,761.43h12.32v12.32h-12.32V761.43z"/>
		<path d="M2199.31,761.43h12.32v12.32h-12.32V761.43z"/>
		<path d="M2223.95,761.43h12.32v12.32h-12.32V761.43z"/>
		<path d="M2014.52,508.89c-3.4,0-6.15,2.75-6.15,6.15v117.03c0,3.4,2.75,6.15,6.15,6.15c3.4,0,6.15-2.75,6.15-6.15V515.04
			C2020.68,511.65,2017.93,508.89,2014.52,508.89z"/>
		<path d="M2057.64,533.53c3.4,0,6.17-2.75,6.17-6.15c0-2.07-1.03-3.99-2.74-5.13l-10.82-7.19l10.79-7.19
			c2.83-1.88,3.6-5.71,1.7-8.54c-1.88-2.83-5.71-3.6-8.54-1.7l-18.47,12.32c-2.83,1.88-3.6,5.71-1.71,8.54
			c0.44,0.67,1.03,1.25,1.71,1.71l18.47,12.32C2055.22,533.18,2056.42,533.53,2057.64,533.53L2057.64,533.53z"/>
		<path d="M2101.79,530.79c1.88,2.83,5.71,3.6,8.54,1.71l0,0l18.47-12.32c2.83-1.88,3.6-5.71,1.71-8.54
			c-0.44-0.67-1.03-1.25-1.71-1.71l-18.47-12.32c-2.83-1.88-6.66-1.12-8.54,1.7c-1.88,2.83-1.12,6.66,1.7,8.54l10.8,7.19
			l-10.79,7.19C2100.68,524.13,2099.91,527.95,2101.79,530.79L2101.79,530.79L2101.79,530.79z"/>
		<path d="M2074.17,539.38c3.23,1.07,6.72-0.67,7.79-3.9l12.32-36.96c1.07-3.23-0.67-6.72-3.9-7.8c-3.23-1.07-6.72,0.67-7.8,3.9l0,0
			l-12.32,36.96C2069.18,534.82,2070.92,538.31,2074.17,539.38C2074.15,539.38,2074.17,539.38,2074.17,539.38z"/>
		<path d="M2039.15,552.02h36.96v12.32h-36.96V552.02z"/>
		<path d="M2088.43,552.02h12.32v12.32h-12.32V552.02z"/>
		<path d="M2063.79,576.64h73.92v12.32h-73.92V576.64z"/>
		<path d="M2063.79,601.28h12.32v12.32h-12.32V601.28z"/>
		<path d="M2088.43,601.28h73.92v12.32h-73.92V601.28z"/>
		<path d="M2039.15,625.92h36.96v12.32h-36.96V625.92z"/>
		<path d="M2088.43,625.92h12.32v12.32h-12.32V625.92z"/>
		<path d="M2150.03,576.64h12.32v12.32h-12.32V576.64z"/>
		<path d="M2285.53,533.53h-18.47v-86.24c0-10.21-8.28-18.47-18.47-18.47h-258.69c-10.21,0-18.47,8.28-18.47,18.47v197.1
			c0,10.21,8.28,18.47,18.47,18.47h258.69c10.21,0,18.47-8.28,18.47-18.47v-98.56h18.47c3.4,0,6.15,2.75,6.15,6.15v117.03
			c0,3.4-2.75,6.15-6.15,6.15h-240.21c-5.33-0.73-10.74,0.54-15.21,3.54c-2.25,2.36-3.43,5.52-3.28,8.78v12.32h-30.79
			c-10.21,0-18.47,8.28-18.47,18.47v61.6c0,10.21,8.28,18.47,18.47,18.47h246.37c10.21,0,18.47-8.28,18.47-18.47v-61.6
			c0-10.21-8.28-18.47-18.47-18.47h-203.26v-12.32c1.16-0.14,246.37,0,246.37,0c10.21,0,18.47-8.28,18.47-18.47V551.99
			C2304.02,541.81,2295.74,533.53,2285.53,533.53z M1989.89,441.14h258.69c3.4,0,6.15,2.75,6.15,6.15v18.47h-271.01v-18.47
			C1983.72,443.9,1986.48,441.14,1989.89,441.14z M2248.59,650.56h-258.69c-3.4,0-6.15-2.75-6.15-6.15V478.1h271.01v166.31
			C2254.74,647.8,2251.98,650.56,2248.59,650.56z M2248.59,718.31v61.6c0,3.4-2.75,6.15-6.15,6.15h-246.39
			c-3.4,0-6.15-2.75-6.15-6.15v-61.6c0-3.4,2.75-6.15,6.15-6.15h246.37C2245.82,712.16,2248.59,714.91,2248.59,718.31z"/>
	</g>
</g>
</svg>
