<?xml version="1.0" encoding="utf-8"?>
<!-- Generator: Adobe Illustrator 23.1.0, SVG Export Plug-In . SVG Version: 6.00 Build 0)  -->
<svg version="1.1" id="Ebene_1" xmlns="http://www.w3.org/2000/svg" xmlns:xlink="http://www.w3.org/1999/xlink" x="0px" y="0px"
	 width="982px" height="879px" viewBox="0 0 982 879" style="enable-background:new 0 0 982 879;" xml:space="preserve">
<style type="text/css">
	.st0{opacity:0.54;fill:#E9F91C;enable-background:new    ;}
	.st1{opacity:0.58;fill:#48FF96;enable-background:new    ;}
	.st2{opacity:0.22;fill:#3E5FFF;stroke:#727272;stroke-width:0.6455;stroke-miterlimit:10;enable-background:new    ;}
	.st3{fill:#FFD517;}
	.st4{fill:#210B20;}
	.st5{opacity:0.17;fill:none;stroke:#353535;stroke-width:9.4688;stroke-miterlimit:10;enable-background:new    ;}
	.st6{opacity:0.17;fill:none;stroke:#353535;stroke-width:6.4555;stroke-miterlimit:10;enable-background:new    ;}
	.st7{opacity:0.17;fill:none;stroke:#353535;stroke-width:9.8289;stroke-miterlimit:10;enable-background:new    ;}
	.st8{fill:#EAEAEA;}
	.st9{fill:#55E574;}
	.st10{fill:#B7B7B7;}
	.st11{fill:#1081E0;stroke:#161616;stroke-width:6.6044;stroke-miterlimit:10;}
	.st12{fill:#FFFFFF;}
	.st13{fill:#D75A4A;}
</style>
<circle class="st0" cx="431.54" cy="242.7" r="225.94"/>
<circle class="st1" cx="736.75" cy="639.06" r="225.94"/>
<circle class="st2" cx="242.4" cy="568.06" r="225.94"/>
<path class="st3" d="M465.5,254.05c-8.94,8.94-7.82,26.99-7.82,26.99h-45.36c0,0,0.96-18.05-7.82-26.99
	c-9.74-8.62-15.97-21.08-15.97-34.98c0-25.55,20.76-46.32,46.32-46.32c25.56,0,46.32,20.76,46.32,46.32
	C481.16,232.97,475.08,245.43,465.5,254.05L465.5,254.05z"/>
<g>
	<path class="st4" d="M467.9,255.65c10.38-9.42,16.29-22.68,16.29-36.57c0-27.15-22.2-49.35-49.35-49.35
		c-27.15,0-49.35,22.2-49.35,49.35c0,14.21,6.23,27.79,16.77,37.05c7.82,7.82,7.03,24.43,7.03,24.6c0,0.8,0.32,1.59,0.8,2.23
		c0.64,0.64,1.44,0.96,2.23,0.96h45.19c0.8,0,1.59-0.32,2.23-0.96c0.64-0.64,0.8-1.44,0.8-2.23c0-0.16-0.8-16.77,7.03-24.6
		C467.74,255.97,467.9,255.81,467.9,255.65z M463.42,251.66c-0.32,0.16-0.48,0.48-0.64,0.8c-7.03,7.51-8.15,19.81-8.3,25.55h-39.13
		c-0.16-5.91-1.44-18.69-8.94-26.19c-9.43-8.3-14.85-20.12-14.85-32.58c0-23.96,19.48-43.28,43.28-43.28
		c23.96,0,43.28,19.48,43.28,43.28C478.12,231.53,472.85,243.51,463.42,251.66z"/>
	<path class="st4" d="M434.84,182.5c-1.59,0-3.03,1.28-3.03,3.03c0,1.59,1.28,3.03,3.03,3.03c17.89,0,32.42,14.53,32.42,32.42
		c0,1.59,1.28,3.03,3.03,3.03c1.59,0,3.03-1.28,3.03-3.03C473.33,199.75,456.08,182.5,434.84,182.5z"/>
	<path class="st4" d="M461.99,295.26c0-4.15-3.36-7.35-7.35-7.35H415.2c-4.15,0-7.35,3.36-7.35,7.35c0,4.15,3.36,7.35,7.35,7.35
		h39.29C458.63,302.6,461.99,299.41,461.99,295.26z M454.48,296.54H415.2c-0.8,0-1.28-0.64-1.28-1.28c0-0.8,0.64-1.28,1.28-1.28
		h39.29c0.8,0,1.28,0.64,1.28,1.28C455.92,296.05,455.28,296.54,454.48,296.54z"/>
	<path class="st4" d="M448.73,305.79H421.1c-4.15,0-7.35,3.36-7.35,7.35c0,4.15,3.36,7.35,7.35,7.35h27.63
		c4.15,0,7.35-3.36,7.35-7.35S452.73,305.79,448.73,305.79z M448.73,314.42H421.1c-0.8,0-1.28-0.64-1.28-1.28
		c0-0.8,0.64-1.28,1.28-1.28h27.63c0.8,0,1.28,0.64,1.28,1.28C450.01,313.94,449.53,314.42,448.73,314.42z"/>
	<path class="st4" d="M437.87,152v-20.44c0-1.59-1.28-3.03-3.03-3.03c-1.59,0-3.03,1.28-3.03,3.03v20.6c0,1.59,1.28,3.03,3.03,3.03
		C436.6,155.03,437.87,153.75,437.87,152z"/>
	<path class="st4" d="M485.15,143.69c-1.44-0.96-3.2-0.48-4.15,0.8l-11.34,17.09c-0.96,1.44-0.48,3.2,0.8,4.15
		c0.48,0.32,1.12,0.48,1.59,0.48c0.96,0,1.92-0.48,2.56-1.28l11.34-17.09C486.9,146.57,486.43,144.65,485.15,143.69z"/>
	<path class="st4" d="M398.75,165.57c0.48,0,1.12-0.16,1.59-0.48c1.44-0.96,1.76-2.72,0.96-4.15l-11.02-17.25
		c-0.96-1.44-2.72-1.76-4.15-0.96c-1.44,0.96-1.76,2.72-0.96,4.15l11.02,17.25C396.83,165.1,397.79,165.57,398.75,165.57z"/>
	<path class="st4" d="M356.43,179.94l18.05,9.74c0.48,0.32,0.96,0.32,1.44,0.32c1.12,0,2.08-0.64,2.72-1.59
		c0.8-1.44,0.32-3.36-1.28-4.15l-18.05-9.74c-1.44-0.8-3.36-0.32-4.15,1.28C354.51,177.39,354.99,179.15,356.43,179.94z"/>
	<path class="st4" d="M493.77,190.17c0.48,0,0.96-0.16,1.44-0.32l18.05-9.74c1.44-0.8,2.08-2.56,1.28-4.15
		c-0.8-1.44-2.56-2.08-4.15-1.28l-18.05,9.74c-1.44,0.8-2.08,2.56-1.28,4.15C491.54,189.53,492.66,190.17,493.77,190.17z"/>
</g>
<path class="st5" d="M309.28,649.54C357.24,687.3,416.5,711.81,481.93,717c65.43,5.2,127.81-9.64,181.14-39.37"/>
<path class="st6" d="M333.58,264.86c-21.09,10.57-40.24,24.45-56.75,40.96c-39.53,39.53-63.99,94.15-63.99,154.47
	c0,4.27,0.13,8.5,0.37,12.71"/>
<path class="st7" d="M747.3,528.93c-0.93-6.35-2.03-12.71-3.34-19.07c-18.44-89.98-71.61-163.96-142.67-210.85
	c-29.91-19.74-62.98-34.66-97.97-43.96"/>
<g id="Programing-2">
	<path class="st8" d="M806.65,562.56H697.53c-2.87,0-5.2,2.32-5.2,5.2v10.39h119.52v-10.39
		C811.85,564.89,809.52,562.56,806.65,562.56z"/>
	<path class="st9" d="M692.33,578.15v72.75c0,2.87,2.32,5.2,5.2,5.2h109.12c2.87,0,5.2-2.32,5.2-5.2v-72.75H692.33z"/>
	<path class="st10" d="M804.05,676.88H700.12c-2.87,0-5.2,2.32-5.2,5.2v25.98c0,2.87,2.32,5.2,5.2,5.2h103.93
		c2.87,0,5.2-2.32,5.2-5.2v-25.98C809.24,679.21,806.92,676.88,804.05,676.88z"/>
	<path d="M702.72,684.67h5.2v5.2h-5.2V684.67z"/>
	<path d="M713.12,684.67h5.2v5.2h-5.2V684.67z"/>
	<path d="M723.51,684.67h5.2v5.2h-5.2V684.67z"/>
	<path d="M733.9,684.67h5.2v5.2h-5.2V684.67z"/>
	<path d="M744.29,684.67h5.2v5.2h-5.2V684.67z"/>
	<path d="M754.68,684.67h5.2v5.2h-5.2V684.67z"/>
	<path d="M765.08,684.67h5.2v5.2h-5.2V684.67z"/>
	<path d="M775.47,684.67h5.2v5.2h-5.2V684.67z"/>
	<path d="M785.86,684.67h5.2v5.2h-5.2V684.67z"/>
	<path d="M796.26,684.67h5.2v5.2h-5.2V684.67z"/>
	<path d="M702.72,692.47h5.2v5.2h-5.2V692.47z"/>
	<path d="M713.12,692.47h5.2v5.2h-5.2V692.47z"/>
	<path d="M723.51,692.47h5.2v5.2h-5.2V692.47z"/>
	<path d="M733.9,692.47h5.2v5.2h-5.2V692.47z"/>
	<path d="M744.29,692.47h5.2v5.2h-5.2V692.47z"/>
	<path d="M754.68,692.47h5.2v5.2h-5.2V692.47z"/>
	<path d="M765.08,692.47h5.2v5.2h-5.2V692.47z"/>
	<path d="M775.47,692.47h5.2v5.2h-5.2V692.47z"/>
	<path d="M785.86,692.47h5.2v5.2h-5.2V692.47z"/>
	<path d="M796.26,692.47h5.2v5.2h-5.2V692.47z"/>
	<path d="M713.12,700.26h5.2v5.2h-5.2V700.26z"/>
	<path d="M723.51,700.26h5.2v5.2h-5.2V700.26z"/>
	<path d="M733.9,700.26h36.38v5.2H733.9V700.26z"/>
	<path d="M775.47,700.26h5.2v5.2h-5.2V700.26z"/>
	<path d="M785.86,700.26h5.2v5.2h-5.2V700.26z"/>
	<path d="M796.26,700.26h5.2v5.2h-5.2V700.26z"/>
	<path d="M700.12,567.76h5.2v5.2h-5.2V567.76z"/>
	<path d="M710.51,567.76h5.2v5.2h-5.2V567.76z"/>
	<path d="M720.91,567.76h5.2v5.2h-5.2V567.76z"/>
	<path d="M707.92,593.74c-1.43,0-2.6,1.16-2.6,2.6v49.36c0,1.43,1.16,2.6,2.6,2.6c1.43,0,2.6-1.16,2.6-2.6v-49.36
		C710.51,594.9,709.35,593.74,707.92,593.74z"/>
	<path d="M726.1,604.13c1.43,0,2.6-1.16,2.6-2.6c0-0.87-0.43-1.68-1.16-2.16l-4.56-3.03l4.55-3.03c1.19-0.79,1.52-2.41,0.72-3.6
		c-0.79-1.19-2.41-1.52-3.6-0.72l-7.79,5.2c-1.19,0.79-1.52,2.41-0.72,3.6c0.19,0.28,0.43,0.53,0.72,0.72l7.79,5.2
		C725.08,603.98,725.59,604.14,726.1,604.13L726.1,604.13z"/>
	<path d="M744.73,602.97c0.79,1.19,2.41,1.52,3.6,0.72l0,0l7.79-5.2c1.19-0.79,1.52-2.41,0.72-3.6c-0.19-0.28-0.43-0.53-0.72-0.72
		l-7.79-5.2c-1.19-0.79-2.81-0.47-3.6,0.72c-0.79,1.19-0.47,2.81,0.72,3.6l4.56,3.03l-4.55,3.03
		C744.26,600.17,743.93,601.78,744.73,602.97L744.73,602.97L744.73,602.97z"/>
	<path d="M733.08,606.59c1.36,0.45,2.83-0.28,3.29-1.65l5.2-15.59c0.45-1.36-0.28-2.83-1.65-3.29c-1.36-0.46-2.83,0.28-3.29,1.65
		l0,0l-5.2,15.59C730.97,604.67,731.71,606.14,733.08,606.59L733.08,606.59z"/>
	<path d="M718.31,611.93h15.59v5.2h-15.59V611.93z"/>
	<path d="M739.09,611.93h5.2v5.2h-5.2V611.93z"/>
	<path d="M728.7,622.32h31.18v5.2H728.7V622.32z"/>
	<path d="M775.47,622.32h23.38v5.2h-23.38V622.32z"/>
	<path d="M728.7,632.71h5.2v5.2h-5.2V632.71z"/>
	<path d="M739.09,632.71h31.18v5.2h-31.18V632.71z"/>
	<path d="M775.47,632.71h10.39v5.2h-10.39V632.71z"/>
	<path d="M718.31,643.1h15.59v5.2h-15.59V643.1z"/>
	<path d="M739.09,643.1h5.2v5.2h-5.2V643.1z"/>
	<path d="M765.08,622.32h5.2v5.2h-5.2V622.32z"/>
	<path d="M822.24,604.13h-7.79v-36.38c0-4.31-3.49-7.79-7.79-7.79H697.53c-4.31,0-7.79,3.49-7.79,7.79v83.14
		c0,4.31,3.49,7.79,7.79,7.79h109.12c4.31,0,7.79-3.49,7.79-7.79v-41.57h7.79c1.43,0,2.6,1.16,2.6,2.6v49.36
		c0,1.43-1.16,2.6-2.6,2.6H720.91c-2.25-0.31-4.53,0.23-6.42,1.49c-0.95,0.99-1.45,2.33-1.38,3.71v5.2h-12.99
		c-4.31,0-7.79,3.49-7.79,7.79v25.98c0,4.31,3.49,7.79,7.79,7.79h103.93c4.31,0,7.79-3.49,7.79-7.79v-25.98
		c0-4.31-3.49-7.79-7.79-7.79h-85.74v-5.2c0.49-0.06,103.93,0,103.93,0c4.31,0,7.79-3.49,7.79-7.79v-49.36
		C830.03,607.62,826.54,604.13,822.24,604.13z M697.53,565.16h109.12c1.43,0,2.6,1.16,2.6,2.6v7.79H694.92v-7.79
		C694.92,566.32,696.09,565.16,697.53,565.16z M806.65,653.49H697.53c-1.43,0-2.6-1.16-2.6-2.6v-70.15h114.32v70.15
		C809.24,652.33,808.08,653.49,806.65,653.49z M806.65,682.08v25.98c0,1.43-1.16,2.6-2.6,2.6H700.13c-1.43,0-2.6-1.16-2.6-2.6
		v-25.98c0-1.43,1.16-2.6,2.6-2.6h103.93C805.49,679.48,806.65,680.64,806.65,682.08z"/>
</g>
<circle class="st11" cx="234" cy="574.59" r="82.31"/>
<polygon class="st12" points="190.41,618.3 219.4,560.04 248.56,589.08 "/>
<polygon class="st13" points="277.66,530.94 219.45,560.04 248.56,589.14 "/>
</svg>
