<?xml version="1.0" encoding="utf-8"?>
<!-- Generator: Adobe Illustrator 23.1.0, SVG Export Plug-In . SVG Version: 6.00 Build 0)  -->
<svg version="1.1" id="Ebene_1" xmlns="http://www.w3.org/2000/svg" xmlns:xlink="http://www.w3.org/1999/xlink" x="0px" y="0px"
	 width="1920px" height="1080px" viewBox="0 0 1920 1080" style="enable-background:new 0 0 1920 1080;" xml:space="preserve">
<style type="text/css">
	.st0{fill:#ABABC6;}
	.st1{fill:#0A0A0A;}
	.st2{fill:#419AD6;}
	.st3{fill:#12CEDD;}
</style>
<ellipse class="st0" cx="942" cy="439.5" rx="453" ry="331.5"/>
<g>
	<g>
		<path class="st1" d="M827.24,151.16v34.08h-4.78v-34.08H827.24z"/>
		<path class="st1" d="M835.21,185.24v-24.33h4.78v24.33H835.21z M849.97,185.24V170.5c0-1.7-0.45-3.03-1.34-3.97
			s-2.14-1.42-3.75-1.42c-1.56,0-2.77,0.41-3.62,1.24s-1.28,1.99-1.28,3.49l-0.49-4.69c0.75-1.47,1.73-2.6,2.94-3.4
			s2.55-1.2,4.02-1.2c2.64,0,4.68,0.86,6.13,2.59s2.17,4.17,2.17,7.32v14.77H849.97z"/>
		<path class="st1" d="M860.14,164.99v-4.08h12.16v4.08H860.14z M862.72,185.24v-27.63c0-2.14,0.45-3.75,1.36-4.83
			s2.32-1.62,4.24-1.62h3.98v4.55h-3.42c-0.48,0-0.84,0.18-1.05,0.55s-0.33,0.8-0.33,1.3v27.68H862.72z"/>
		<path class="st1" d="M886.56,185.59c-3.19,0-5.66-0.93-7.41-2.78s-2.63-4.46-2.63-7.82v-3.96c0-3.33,0.88-5.91,2.63-7.73
			s4.22-2.74,7.41-2.74s5.66,0.91,7.41,2.74s2.63,4.41,2.63,7.73v4.03c0,3.34-0.88,5.93-2.63,7.77S889.75,185.59,886.56,185.59z
			 M886.54,181.04c1.67,0,2.97-0.52,3.89-1.56s1.38-2.51,1.38-4.42v-4.03c0-1.89-0.46-3.35-1.38-4.38s-2.22-1.55-3.89-1.55
			s-2.96,0.52-3.87,1.55s-1.36,2.49-1.36,4.38v4.03c0,1.91,0.45,3.38,1.36,4.42S884.86,181.04,886.54,181.04z"/>
		<path class="st1" d="M903.39,185.24v-24.33h4.78v24.33H903.39z M916.77,166.68c-0.86-1.05-2.13-1.57-3.82-1.57
			c-1.53,0-2.71,0.42-3.54,1.25s-1.24,2-1.24,3.48l-0.49-4.69c0.73-1.44,1.7-2.56,2.89-3.38s2.51-1.22,3.95-1.22
			c2.22,0,4.01,0.63,5.37,1.9L916.77,166.68z"/>
		<path class="st1" d="M923.87,185.24v-24.33h4.78v24.33H923.87z M938.4,185.24V170.5c0-1.7-0.42-3.03-1.27-3.97
			s-2.04-1.42-3.59-1.42c-1.56,0-2.77,0.41-3.62,1.24s-1.28,1.99-1.28,3.49l-0.49-4.69c0.75-1.47,1.73-2.6,2.94-3.4
			s2.55-1.2,4.02-1.2c2.56,0,4.55,0.86,5.95,2.59s2.11,4.17,2.11,7.32v14.77H938.4z M952.93,185.24V170.5c0-1.7-0.45-3.03-1.34-3.97
			s-2.14-1.42-3.75-1.42c-1.48,0-2.63,0.45-3.45,1.36s-1.22,2.19-1.22,3.84l-0.96-4.69c0.77-1.61,1.78-2.86,3.04-3.74
			s2.64-1.32,4.16-1.32c2.64,0,4.68,0.86,6.13,2.59s2.17,4.17,2.17,7.32v14.77H952.93z"/>
		<path class="st1" d="M972.76,185.59c-2.98,0-5.22-0.62-6.71-1.85s-2.24-3.13-2.24-5.67c0-2.41,0.68-4.21,2.04-5.41
			s3.41-1.8,6.16-1.8h6.91l0.33,3.84h-7.22c-1.23,0-2.16,0.28-2.79,0.83s-0.94,1.4-0.94,2.54c0,1.25,0.41,2.17,1.24,2.75
			s2.07,0.88,3.73,0.88c1.81,0,3.17-0.2,4.08-0.59s1.36-1,1.36-1.83l0.49,3.42c-0.42,0.66-0.95,1.2-1.57,1.62s-1.34,0.74-2.16,0.95
			S973.76,185.59,972.76,185.59z M978.71,185.24v-15.42c0-1.59-0.43-2.83-1.28-3.71s-2.06-1.32-3.62-1.32
			c-2.03,0-3.8,0.56-5.32,1.69l-3.49-2.39c0.92-1.11,2.14-1.97,3.64-2.59s3.18-0.93,5.03-0.93c3.05,0,5.41,0.79,7.08,2.37
			s2.51,3.8,2.51,6.68v15.63H978.71z"/>
		<path class="st1" d="M988.65,165.22v-4.31h10.97v4.31H988.65z M996.86,185.24c-2,0-3.45-0.55-4.35-1.66s-1.35-2.7-1.35-4.78
			v-24.96h4.78v25.01c0,0.58,0.12,1.03,0.35,1.36s0.58,0.49,1.03,0.49h2.3v4.55H996.86z"/>
		<path class="st1" d="M1006.18,155.94v-4.78h4.78v4.78H1006.18z M1006.18,185.24v-24.33h4.78v24.33H1006.18z"/>
		<path class="st1" d="M1027.56,185.59c-3.19,0-5.66-0.93-7.41-2.78s-2.63-4.46-2.63-7.82v-3.96c0-3.33,0.88-5.91,2.63-7.73
			s4.22-2.74,7.41-2.74s5.66,0.91,7.41,2.74s2.63,4.41,2.63,7.73v4.03c0,3.34-0.88,5.93-2.63,7.77S1030.75,185.59,1027.56,185.59z
			 M1027.54,181.04c1.67,0,2.97-0.52,3.89-1.56s1.38-2.51,1.38-4.42v-4.03c0-1.89-0.46-3.35-1.38-4.38s-2.22-1.55-3.89-1.55
			s-2.96,0.52-3.87,1.55s-1.36,2.49-1.36,4.38v4.03c0,1.91,0.45,3.38,1.36,4.42S1025.86,181.04,1027.54,181.04z"/>
		<path class="st1" d="M1044.39,185.24v-24.33h4.78v24.33H1044.39z M1059.15,185.24V170.5c0-1.7-0.45-3.03-1.34-3.97
			s-2.14-1.42-3.75-1.42c-1.56,0-2.77,0.41-3.62,1.24s-1.28,1.99-1.28,3.49l-0.49-4.69c0.75-1.47,1.73-2.6,2.94-3.4
			s2.55-1.2,4.02-1.2c2.64,0,4.68,0.86,6.13,2.59s2.17,4.17,2.17,7.32v14.77H1059.15z"/>
	</g>
</g>
<ellipse class="st2" cx="942.71" cy="491.21" rx="343.89" ry="226.1"/>
<ellipse class="st3" cx="940.59" cy="567.5" rx="204.34" ry="128.5"/>
<g>
	<g>
		<path class="st1" d="M824.55,342.85v-34.08h4.78v34.08H824.55z M827.6,335.07l0.7-7.05l15.16-19.24h5.77L827.6,335.07z
			 M844.8,342.85l-10.83-18.19l3.77-3.49l12.91,21.68H844.8z"/>
		<path class="st1" d="M854.88,342.85v-24.33h4.78v24.33H854.88z M869.65,342.85v-14.74c0-1.7-0.45-3.03-1.34-3.97
			s-2.14-1.42-3.75-1.42c-1.56,0-2.77,0.41-3.62,1.24s-1.28,1.99-1.28,3.49l-0.49-4.69c0.75-1.47,1.73-2.6,2.94-3.4
			s2.55-1.2,4.02-1.2c2.64,0,4.68,0.86,6.13,2.59s2.17,4.17,2.17,7.32v14.77H869.65z"/>
		<path class="st1" d="M891.02,343.2c-3.19,0-5.66-0.93-7.41-2.78s-2.63-4.46-2.63-7.82v-3.96c0-3.33,0.88-5.91,2.63-7.73
			s4.22-2.74,7.41-2.74s5.66,0.91,7.41,2.74s2.63,4.41,2.63,7.73v4.03c0,3.34-0.88,5.93-2.63,7.77S894.21,343.2,891.02,343.2z
			 M891,338.65c1.67,0,2.97-0.52,3.89-1.56s1.38-2.51,1.38-4.42v-4.03c0-1.89-0.46-3.35-1.38-4.38s-2.22-1.55-3.89-1.55
			s-2.96,0.52-3.87,1.55s-1.36,2.49-1.36,4.38v4.03c0,1.91,0.45,3.38,1.36,4.42S889.33,338.65,891,338.65z"/>
		<path class="st1" d="M916.94,342.85h-3.75l-7.45-24.33h4.83l4.71,17.37l6.47-17.37h2.55l6.23,17.37l4.45-17.37h4.83l-7.45,24.33
			h-3.75l-5.77-16.73L916.94,342.85z"/>
		<path class="st1" d="M949.76,308.77v27.68c0,0.58,0.13,1.03,0.39,1.36s0.62,0.49,1.09,0.49h2.25v4.55h-2.81
			c-1.8,0-3.2-0.56-4.2-1.69s-1.5-2.71-1.5-4.76v-27.63H949.76z"/>
		<path class="st1" d="M969.07,343.2c-3.39,0-6.02-0.94-7.88-2.82c-1.86-1.88-2.79-4.57-2.79-8.07v-2.74c0-3.63,0.89-6.43,2.68-8.41
			c1.79-1.98,4.31-2.98,7.56-2.98c3.06,0,5.43,1.13,7.11,3.39s2.52,5.41,2.52,9.46v1.59h-16.41v-3.84h11.86
			c-0.14-1.97-0.65-3.51-1.54-4.62s-2.07-1.66-3.55-1.66c-1.8,0-3.2,0.59-4.2,1.78s-1.5,2.87-1.5,5.04v3.09
			c0,2.02,0.53,3.56,1.59,4.64s2.57,1.62,4.52,1.62c2.05,0,3.86-0.74,5.44-2.23l3.14,3.14c-1.2,1.16-2.55,2.05-4.05,2.68
			S970.58,343.2,969.07,343.2z"/>
		<path class="st1" d="M992.55,343.27c-2.69,0-4.76-0.86-6.22-2.59s-2.19-4.16-2.19-7.3v-5.37c0-3.16,0.71-5.6,2.13-7.32
			s3.44-2.59,6.05-2.59c1.44,0,2.75,0.38,3.95,1.13s2.16,1.8,2.89,3.16l-0.49,4.97c0-1.03-0.19-1.91-0.56-2.64s-0.92-1.29-1.63-1.68
			s-1.57-0.59-2.59-0.59c-1.58,0-2.8,0.49-3.67,1.48s-1.3,2.37-1.3,4.15v5.3c0,1.77,0.43,3.13,1.3,4.09s2.09,1.44,3.67,1.44
			c1.02,0,1.88-0.2,2.59-0.6s1.25-0.97,1.63-1.71s0.56-1.64,0.56-2.71l0.33,5.13c-0.44,1.09-1.19,2.07-2.26,2.94
			S994.27,343.27,992.55,343.27z M998.67,342.85v-34.08h4.78v34.08H998.67z"/>
		<path class="st1" d="M1018.66,343.27c-2.69,0-4.76-0.86-6.22-2.59s-2.19-4.16-2.19-7.3v-5.37c0-3.16,0.71-5.6,2.13-7.32
			s3.44-2.59,6.05-2.59c1.44,0,2.75,0.38,3.95,1.13s2.16,1.8,2.89,3.16l-0.49,4.97c0-1.03-0.19-1.91-0.56-2.64s-0.92-1.29-1.63-1.68
			s-1.57-0.59-2.59-0.59c-1.58,0-2.8,0.49-3.67,1.48s-1.3,2.37-1.3,4.15v5.3c0,1.77,0.43,3.13,1.3,4.09s2.09,1.44,3.67,1.44
			c1.02,0,1.88-0.2,2.59-0.6s1.25-0.97,1.63-1.71s0.56-1.64,0.56-2.71l0.33,5.13c-0.44,1.09-1.19,2.07-2.26,2.94
			S1020.38,343.27,1018.66,343.27z M1019.11,352.74c-1.83,0-3.46-0.34-4.91-1.01s-2.57-1.63-3.36-2.88l3.23-2.93
			c1.3,1.8,2.95,2.7,4.97,2.7c1.83,0,3.24-0.5,4.24-1.51s1.5-2.43,1.5-4.28v-24.3h4.78v23.6c0,3.38-0.91,5.99-2.73,7.84
			S1022.44,352.74,1019.11,352.74z"/>
		<path class="st1" d="M1047.02,343.2c-3.39,0-6.02-0.94-7.88-2.82s-2.79-4.57-2.79-8.07v-2.74c0-3.63,0.89-6.43,2.68-8.41
			s4.31-2.98,7.56-2.98c3.06,0,5.43,1.13,7.11,3.39s2.52,5.41,2.52,9.46v1.59h-16.41v-3.84h11.86c-0.14-1.97-0.65-3.51-1.54-4.62
			s-2.07-1.66-3.55-1.66c-1.8,0-3.2,0.59-4.2,1.78s-1.5,2.87-1.5,5.04v3.09c0,2.02,0.53,3.56,1.59,4.64s2.57,1.62,4.52,1.62
			c2.05,0,3.86-0.74,5.44-2.23l3.14,3.14c-1.2,1.16-2.55,2.05-4.05,2.68S1048.54,343.2,1047.02,343.2z"/>
	</g>
</g>
<g>
	<g>
		<path class="st1" d="M800.29,542.2c-3.8,0-6.74-1.11-8.82-3.32c-2.09-2.21-3.13-5.33-3.13-9.36v-21.75h4.78v21.91
			c0,2.48,0.63,4.41,1.88,5.77s3.02,2.04,5.3,2.04c2.3,0,4.07-0.68,5.33-2.04s1.89-3.28,1.89-5.77v-21.91h4.78v21.75
			c0,4.03-1.05,7.15-3.14,9.36C807.05,541.1,804.1,542.2,800.29,542.2z"/>
		<path class="st1" d="M819.79,541.85v-24.33h4.78v24.33H819.79z M834.55,541.85v-14.74c0-1.7-0.45-3.03-1.34-3.97
			s-2.14-1.42-3.75-1.42c-1.56,0-2.77,0.41-3.62,1.24s-1.28,1.99-1.28,3.49l-0.49-4.69c0.75-1.47,1.73-2.6,2.94-3.4
			s2.55-1.2,4.02-1.2c2.64,0,4.68,0.86,6.13,2.59s2.17,4.17,2.17,7.32v14.77H834.55z"/>
		<path class="st1" d="M854.31,542.27c-2.69,0-4.76-0.86-6.22-2.59c-1.46-1.73-2.19-4.16-2.19-7.3v-5.37c0-3.16,0.71-5.6,2.13-7.32
			s3.44-2.59,6.05-2.59c1.44,0,2.75,0.38,3.95,1.13s2.16,1.8,2.89,3.16l-0.49,4.97c0-1.03-0.19-1.91-0.56-2.64s-0.92-1.29-1.63-1.68
			s-1.57-0.59-2.59-0.59c-1.58,0-2.8,0.49-3.67,1.48s-1.3,2.37-1.3,4.15v5.3c0,1.77,0.43,3.13,1.3,4.09s2.09,1.44,3.67,1.44
			c1.02,0,1.88-0.2,2.59-0.6s1.25-0.97,1.63-1.71s0.56-1.64,0.56-2.71l0.33,5.13c-0.44,1.09-1.19,2.07-2.26,2.94
			C857.43,541.84,856.03,542.27,854.31,542.27z M860.43,541.85v-34.08h4.78v34.08H860.43z"/>
		<path class="st1" d="M882.91,542.2c-3.39,0-6.02-0.94-7.88-2.82c-1.86-1.88-2.79-4.57-2.79-8.07v-2.74c0-3.63,0.89-6.43,2.68-8.41
			s4.31-2.98,7.56-2.98c3.06,0,5.43,1.13,7.11,3.39s2.52,5.41,2.52,9.46v1.59h-16.41v-3.84h11.86c-0.14-1.97-0.65-3.51-1.54-4.62
			s-2.07-1.66-3.55-1.66c-1.8,0-3.2,0.59-4.2,1.78s-1.5,2.87-1.5,5.04v3.09c0,2.02,0.53,3.56,1.59,4.64s2.57,1.62,4.52,1.62
			c2.05,0,3.86-0.74,5.44-2.23l3.14,3.14c-1.2,1.16-2.55,2.05-4.05,2.68C885.93,541.88,884.42,542.2,882.91,542.2z"/>
		<path class="st1" d="M898.68,541.85v-24.33h4.78v24.33H898.68z M912.06,523.29c-0.86-1.05-2.13-1.57-3.82-1.57
			c-1.53,0-2.71,0.42-3.54,1.25s-1.24,2-1.24,3.48l-0.49-4.69c0.73-1.44,1.7-2.56,2.89-3.38s2.51-1.22,3.95-1.22
			c2.22,0,4.01,0.63,5.37,1.9L912.06,523.29z"/>
		<path class="st1" d="M926.59,542.2c-2.06,0-3.93-0.32-5.61-0.95c-1.68-0.63-3.18-1.58-4.51-2.85l2.84-3.49c2.56,2,5.07,3,7.52,3
			c1.97,0,3.45-0.29,4.43-0.88s1.48-1.46,1.48-2.64c0-0.91-0.32-1.55-0.95-1.92s-1.46-0.62-2.5-0.73s-2.13-0.21-3.28-0.3
			c-0.98-0.06-1.96-0.18-2.93-0.35s-1.85-0.47-2.65-0.9s-1.43-1.07-1.91-1.91s-0.71-1.98-0.71-3.4c0-2.58,0.81-4.51,2.43-5.79
			s4.05-1.92,7.3-1.92c1.81,0,3.52,0.26,5.12,0.79s3.11,1.31,4.51,2.36l-2.88,3.49c-2.27-1.56-4.48-2.34-6.66-2.34
			c-1.77,0-3.09,0.28-3.96,0.83s-1.31,1.39-1.31,2.5c0,0.75,0.28,1.29,0.84,1.61s1.3,0.53,2.23,0.62s1.91,0.17,2.98,0.23
			c1.02,0.06,2.04,0.18,3.08,0.34s2,0.48,2.87,0.95s1.58,1.16,2.11,2.09s0.8,2.18,0.8,3.77c0,2.61-0.89,4.56-2.66,5.86
			C932.82,541.55,930.16,542.2,926.59,542.2z"/>
		<path class="st1" d="M940.54,521.83v-4.31h10.97v4.31H940.54z M948.74,541.85c-2,0-3.45-0.55-4.35-1.66
			c-0.9-1.11-1.35-2.7-1.35-4.78v-24.96h4.78v25.01c0,0.58,0.12,1.03,0.35,1.36s0.58,0.49,1.03,0.49h2.3v4.55H948.74z"/>
		<path class="st1" d="M965.85,542.2c-2.98,0-5.22-0.62-6.71-1.85c-1.49-1.23-2.24-3.13-2.24-5.67c0-2.41,0.68-4.21,2.04-5.41
			s3.41-1.8,6.16-1.8h6.91l0.33,3.84h-7.22c-1.23,0-2.16,0.28-2.79,0.83s-0.94,1.4-0.94,2.54c0,1.25,0.41,2.17,1.24,2.75
			s2.07,0.88,3.73,0.88c1.81,0,3.17-0.2,4.08-0.59s1.36-1,1.36-1.83l0.49,3.42c-0.42,0.66-0.95,1.2-1.57,1.62
			c-0.63,0.42-1.34,0.74-2.16,0.95S966.85,542.2,965.85,542.2z M971.8,541.85v-15.42c0-1.59-0.43-2.83-1.28-3.71
			s-2.06-1.32-3.62-1.32c-2.03,0-3.8,0.56-5.32,1.69l-3.49-2.39c0.92-1.11,2.14-1.97,3.64-2.59c1.51-0.62,3.18-0.93,5.03-0.93
			c3.05,0,5.41,0.79,7.08,2.37s2.51,3.8,2.51,6.68v15.63H971.8z"/>
		<path class="st1" d="M983.62,541.85v-24.33h4.78v24.33H983.62z M998.38,541.85v-14.74c0-1.7-0.45-3.03-1.34-3.97
			s-2.14-1.42-3.75-1.42c-1.56,0-2.77,0.41-3.62,1.24s-1.28,1.99-1.28,3.49l-0.49-4.69c0.75-1.47,1.73-2.6,2.94-3.4
			s2.55-1.2,4.02-1.2c2.64,0,4.68,0.86,6.13,2.59s2.17,4.17,2.17,7.32v14.77H998.38z"/>
		<path class="st1" d="M1018.14,542.27c-2.69,0-4.76-0.86-6.22-2.59c-1.46-1.73-2.19-4.16-2.19-7.3v-5.37c0-3.16,0.71-5.6,2.13-7.32
			s3.44-2.59,6.05-2.59c1.44,0,2.75,0.38,3.95,1.13s2.16,1.8,2.89,3.16l-0.49,4.97c0-1.03-0.19-1.91-0.56-2.64s-0.92-1.29-1.63-1.68
			s-1.57-0.59-2.59-0.59c-1.58,0-2.8,0.49-3.67,1.48s-1.3,2.37-1.3,4.15v5.3c0,1.77,0.43,3.13,1.3,4.09s2.09,1.44,3.67,1.44
			c1.02,0,1.88-0.2,2.59-0.6s1.25-0.97,1.63-1.71s0.56-1.64,0.56-2.71l0.33,5.13c-0.44,1.09-1.19,2.07-2.26,2.94
			C1021.25,541.84,1019.86,542.27,1018.14,542.27z M1024.26,541.85v-34.08h4.78v34.08H1024.26z"/>
		<path class="st1" d="M1036.54,512.55v-4.78h4.78v4.78H1036.54z M1036.54,541.85v-24.33h4.78v24.33H1036.54z"/>
		<path class="st1" d="M1048.58,541.85v-24.33h4.78v24.33H1048.58z M1063.35,541.85v-14.74c0-1.7-0.45-3.03-1.34-3.97
			s-2.14-1.42-3.75-1.42c-1.56,0-2.77,0.41-3.62,1.24s-1.28,1.99-1.28,3.49l-0.49-4.69c0.75-1.47,1.73-2.6,2.94-3.4
			s2.55-1.2,4.02-1.2c2.64,0,4.68,0.86,6.13,2.59s2.17,4.17,2.17,7.32v14.77H1063.35z"/>
		<path class="st1" d="M1083.11,542.27c-2.69,0-4.76-0.86-6.22-2.59c-1.46-1.73-2.19-4.16-2.19-7.3v-5.37c0-3.16,0.71-5.6,2.13-7.32
			s3.44-2.59,6.05-2.59c1.44,0,2.75,0.38,3.95,1.13s2.16,1.8,2.89,3.16l-0.49,4.97c0-1.03-0.19-1.91-0.56-2.64s-0.92-1.29-1.63-1.68
			s-1.57-0.59-2.59-0.59c-1.58,0-2.8,0.49-3.67,1.48s-1.3,2.37-1.3,4.15v5.3c0,1.77,0.43,3.13,1.3,4.09s2.09,1.44,3.67,1.44
			c1.02,0,1.88-0.2,2.59-0.6s1.25-0.97,1.63-1.71s0.56-1.64,0.56-2.71l0.33,5.13c-0.44,1.09-1.19,2.07-2.26,2.94
			C1086.22,541.84,1084.83,542.27,1083.11,542.27z M1083.55,551.74c-1.83,0-3.46-0.34-4.91-1.01s-2.57-1.63-3.36-2.88l3.23-2.93
			c1.3,1.8,2.95,2.7,4.97,2.7c1.83,0,3.24-0.5,4.24-1.51s1.5-2.43,1.5-4.28v-24.3h4.78v23.6c0,3.38-0.91,5.99-2.73,7.84
			S1086.88,551.74,1083.55,551.74z"/>
	</g>
</g>
<g>
	<g>
		<path d="M887.79,239.27l7.14-28.08h2.25l7.14,28.08l6.9-28.08h3.64l-8.87,32.66h-3.32l-6.47-25.74l-6.74,25.74h-3.32l-8.87-32.66
			h3.64L887.79,239.27z"/>
		<path d="M919.13,243.85v-32.66h3.23v32.66H919.13z M934.62,243.85v-14.2c0-2.07-0.54-3.67-1.63-4.81
			c-1.09-1.14-2.62-1.71-4.59-1.71c-1.92,0-3.4,0.51-4.46,1.52s-1.58,2.44-1.58,4.3l-0.47-4.49c0.87-1.6,2-2.73,3.4-3.37
			c1.4-0.64,2.94-0.97,4.62-0.97c2.53,0,4.49,0.83,5.87,2.48c1.38,1.65,2.08,3.99,2.08,7.02v14.22H934.62z"/>
		<path d="M952.28,244.19c-2.73,0-4.84-0.63-6.33-1.89c-1.5-1.26-2.25-3.03-2.25-5.32c0-2.2,0.69-3.9,2.07-5.11
			c1.38-1.21,3.31-1.81,5.79-1.81h7.75l0.31,3.01h-8.04c-1.5,0-2.65,0.34-3.47,1.02c-0.82,0.68-1.22,1.64-1.22,2.89
			c0,1.32,0.51,2.34,1.54,3.07c1.03,0.73,2.47,1.09,4.35,1.09c2.01,0,3.56-0.2,4.67-0.61c1.11-0.4,1.66-0.97,1.66-1.71l0.47,3.05
			c-0.46,0.49-1.06,0.91-1.79,1.26c-0.73,0.34-1.56,0.61-2.49,0.79C954.36,244.1,953.36,244.19,952.28,244.19z M959.11,243.85
			v-14.78c0-1.89-0.51-3.35-1.52-4.39c-1.01-1.04-2.44-1.56-4.3-1.56c-2.34,0-4.37,0.69-6.09,2.07l-2.36-1.62
			c0.88-1.06,2.05-1.89,3.49-2.48c1.44-0.59,3.05-0.89,4.82-0.89c2.92,0,5.18,0.76,6.78,2.27c1.6,1.51,2.4,3.65,2.4,6.4v14.98
			H959.11z"/>
		<path d="M967.51,223.32v-2.79h10.51v2.79H967.51z M975.37,243.85c-1.92,0-3.31-0.53-4.17-1.59c-0.86-1.06-1.29-2.59-1.29-4.58
			v-23.92h3.23v23.97c0,0.99,0.22,1.76,0.67,2.3c0.45,0.55,1.12,0.82,2,0.82h2.2v3.01H975.37z"/>
		<path d="M995.99,236.37c0-1.92,0.23-3.56,0.7-4.93s1.04-2.57,1.72-3.6c0.68-1.03,1.37-1.98,2.05-2.85
			c0.69-0.87,1.27-1.76,1.73-2.66c0.46-0.91,0.7-1.94,0.7-3.09v-0.02c0-1.72-0.43-3.06-1.29-4.02c-0.86-0.96-2.07-1.44-3.63-1.44
			c-1.65,0-2.92,0.57-3.82,1.7c-0.9,1.13-1.36,2.72-1.37,4.77v0.02h-3.3v-0.02c0.1-2.98,0.89-5.29,2.37-6.92
			c1.47-1.63,3.5-2.45,6.08-2.45c2.7,0,4.78,0.73,6.27,2.19s2.22,3.52,2.22,6.19v0.02c0,1.51-0.24,2.8-0.73,3.85
			c-0.49,1.06-1.09,2.02-1.8,2.89c-0.71,0.87-1.42,1.76-2.13,2.68c-0.71,0.92-1.31,1.99-1.8,3.2c-0.49,1.21-0.73,2.71-0.73,4.49
			H995.99z M996.01,243.85v-3.23h3.23v3.23H996.01z"/>
	</g>
</g>
<g>
	<g>
		<path d="M876.27,401.21v-32.66h3.23v32.66H876.27z M878.45,386.63v-3.12h19.47v3.12H878.45z M896.17,401.21v-32.66h3.23v32.66
			H896.17z"/>
		<path d="M915.98,401.54c-3.05,0-5.42-0.89-7.1-2.66c-1.68-1.77-2.52-4.27-2.52-7.49v-3.8c0-3.19,0.84-5.66,2.52-7.41
			c1.68-1.75,4.04-2.63,7.1-2.63s5.42,0.88,7.1,2.63c1.68,1.75,2.52,4.22,2.52,7.41v3.86c0,3.2-0.84,5.69-2.52,7.45
			C921.41,400.66,919.04,401.54,915.98,401.54z M915.96,398.53c2.04,0,3.61-0.62,4.73-1.85c1.12-1.24,1.67-2.98,1.67-5.22v-3.86
			c0-2.23-0.56-3.96-1.67-5.19c-1.12-1.23-2.69-1.84-4.73-1.84c-2.02,0-3.59,0.61-4.69,1.84c-1.11,1.23-1.66,2.96-1.66,5.19v3.86
			c0,2.25,0.55,3.99,1.66,5.22C912.38,397.92,913.94,398.53,915.96,398.53z"/>
		<path d="M940.38,401.21h-2.92l-7.37-23.31h3.44l5.82,19.11l6.2-19.11h1.89l6.31,19.11l5.57-19.11h3.44l-7.37,23.31h-2.92
			l-5.97-17.38L940.38,401.21z"/>
		<path d="M979.37,393.73c0-1.92,0.23-3.56,0.7-4.93s1.04-2.57,1.72-3.6c0.68-1.03,1.37-1.98,2.05-2.85
			c0.69-0.87,1.27-1.76,1.73-2.66c0.46-0.91,0.7-1.94,0.7-3.09v-0.02c0-1.72-0.43-3.06-1.29-4.02c-0.86-0.96-2.07-1.44-3.63-1.44
			c-1.65,0-2.92,0.57-3.82,1.7c-0.9,1.13-1.36,2.72-1.37,4.77v0.02h-3.3v-0.02c0.1-2.98,0.89-5.29,2.37-6.92
			c1.47-1.63,3.5-2.45,6.08-2.45c2.7,0,4.78,0.73,6.27,2.19s2.22,3.52,2.22,6.19v0.02c0,1.51-0.24,2.8-0.73,3.85
			c-0.49,1.06-1.09,2.02-1.8,2.89c-0.71,0.87-1.42,1.76-2.13,2.68c-0.71,0.92-1.31,1.99-1.8,3.2c-0.49,1.21-0.73,2.71-0.73,4.49
			H979.37z M979.39,401.21v-3.23h3.23v3.23H979.39z"/>
	</g>
</g>
<g>
	<g>
		<path d="M894.91,594.62l7.14-28.08h2.25l7.14,28.08l6.9-28.08h3.64l-8.87,32.66h-3.32l-6.47-25.74l-6.74,25.74h-3.32l-8.87-32.66
			h3.64L894.91,594.62z"/>
		<path d="M926.24,599.21v-32.66h3.23v32.66H926.24z M941.74,599.21v-14.2c0-2.07-0.54-3.67-1.63-4.81
			c-1.09-1.14-2.62-1.71-4.59-1.71c-1.92,0-3.4,0.51-4.46,1.52s-1.58,2.44-1.58,4.3l-0.47-4.49c0.87-1.6,2-2.72,3.4-3.37
			c1.4-0.64,2.94-0.97,4.62-0.97c2.53,0,4.49,0.83,5.87,2.48c1.38,1.65,2.08,3.99,2.08,7.02v14.22H941.74z"/>
		<path d="M958.76,601.12l-9.3-25.22h3.32l7.66,21.63L958.76,601.12z M966.78,575.89h3.32l-9.93,28.77
			c-0.64,1.57-1.47,2.68-2.47,3.31c-1,0.64-2.42,0.95-4.25,0.95h-0.92v-3.05h0.92c1.2,0,2.15-0.27,2.85-0.82
			c0.7-0.55,1.32-1.49,1.84-2.82L966.78,575.89z"/>
		<path d="M985.83,591.73c0-1.92,0.23-3.56,0.7-4.93s1.04-2.57,1.72-3.61c0.68-1.03,1.37-1.98,2.05-2.85
			c0.69-0.87,1.27-1.75,1.73-2.66s0.7-1.94,0.7-3.09v-0.02c0-1.72-0.43-3.06-1.29-4.02c-0.86-0.96-2.07-1.44-3.63-1.44
			c-1.65,0-2.92,0.57-3.82,1.7s-1.36,2.72-1.37,4.77v0.02h-3.3v-0.02c0.1-2.98,0.89-5.29,2.37-6.92c1.47-1.63,3.5-2.45,6.08-2.45
			c2.7,0,4.78,0.73,6.27,2.19s2.22,3.52,2.22,6.19v0.02c0,1.51-0.24,2.8-0.73,3.85c-0.49,1.06-1.09,2.02-1.8,2.89
			c-0.71,0.87-1.42,1.76-2.13,2.68c-0.71,0.92-1.31,1.99-1.8,3.2c-0.49,1.21-0.73,2.71-0.73,4.49H985.83z M985.85,599.21v-3.23h3.23
			v3.23H985.85z"/>
	</g>
</g>
</svg>
