<?xml version="1.0" encoding="utf-8"?>
<!-- Generator: Adobe Illustrator 23.1.0, SVG Export Plug-In . SVG Version: 6.00 Build 0)  -->
<svg version="1.1" id="Ebene_1" xmlns="http://www.w3.org/2000/svg" xmlns:xlink="http://www.w3.org/1999/xlink" x="0px" y="0px"
	 width="1371px" height="682px" viewBox="0 0 1371 682" style="enable-background:new 0 0 1371 682;" xml:space="preserve">
<style type="text/css">
	.st0{fill:#ABABC6;}
	.st1{fill:#0A0A0A;}
	.st2{fill:#419AD6;}
	.st3{fill:#12CEDD;}
</style>
<ellipse class="st0" cx="668" cy="342.5" rx="453" ry="331.5"/>
<g>
	<g>
		<path class="st1" d="M553.24,54.16v34.08h-4.78V54.16H553.24z"/>
		<path class="st1" d="M561.21,88.24V63.91h4.78v24.33H561.21z M575.97,88.24V73.5c0-1.7-0.45-3.03-1.34-3.97s-2.14-1.42-3.75-1.42
			c-1.56,0-2.77,0.41-3.62,1.24s-1.28,1.99-1.28,3.49l-0.49-4.69c0.75-1.47,1.73-2.6,2.94-3.4s2.55-1.2,4.02-1.2
			c2.64,0,4.68,0.86,6.13,2.59s2.17,4.17,2.17,7.32v14.77H575.97z"/>
		<path class="st1" d="M586.14,67.99v-4.08h12.16v4.08H586.14z M588.72,88.24V60.61c0-2.14,0.45-3.75,1.36-4.83s2.32-1.62,4.24-1.62
			h3.98v4.55h-3.42c-0.48,0-0.84,0.18-1.05,0.55s-0.33,0.8-0.33,1.3v27.68H588.72z"/>
		<path class="st1" d="M612.56,88.59c-3.19,0-5.66-0.93-7.41-2.78s-2.63-4.46-2.63-7.82v-3.96c0-3.33,0.88-5.91,2.63-7.73
			s4.22-2.74,7.41-2.74s5.66,0.91,7.41,2.74s2.63,4.41,2.63,7.73v4.03c0,3.34-0.88,5.93-2.63,7.77S615.75,88.59,612.56,88.59z
			 M612.54,84.04c1.67,0,2.97-0.52,3.89-1.56s1.38-2.51,1.38-4.42v-4.03c0-1.89-0.46-3.35-1.38-4.38s-2.22-1.55-3.89-1.55
			s-2.96,0.52-3.87,1.55s-1.36,2.49-1.36,4.38v4.03c0,1.91,0.45,3.38,1.36,4.42S610.86,84.04,612.54,84.04z"/>
		<path class="st1" d="M629.39,88.24V63.91h4.78v24.33H629.39z M642.77,69.68c-0.86-1.05-2.13-1.57-3.82-1.57
			c-1.53,0-2.71,0.42-3.54,1.25s-1.24,2-1.24,3.48l-0.49-4.69c0.73-1.44,1.7-2.56,2.89-3.38s2.51-1.22,3.95-1.22
			c2.22,0,4.01,0.63,5.37,1.9L642.77,69.68z"/>
		<path class="st1" d="M649.87,88.24V63.91h4.78v24.33H649.87z M664.4,88.24V73.5c0-1.7-0.42-3.03-1.27-3.97s-2.04-1.42-3.59-1.42
			c-1.56,0-2.77,0.41-3.62,1.24s-1.28,1.99-1.28,3.49l-0.49-4.69c0.75-1.47,1.73-2.6,2.94-3.4s2.55-1.2,4.02-1.2
			c2.56,0,4.55,0.86,5.95,2.59s2.11,4.17,2.11,7.32v14.77H664.4z M678.93,88.24V73.5c0-1.7-0.45-3.03-1.34-3.97
			s-2.14-1.42-3.75-1.42c-1.48,0-2.63,0.45-3.45,1.36s-1.22,2.19-1.22,3.84l-0.96-4.69c0.77-1.61,1.78-2.86,3.04-3.74
			s2.64-1.32,4.16-1.32c2.64,0,4.68,0.86,6.13,2.59s2.17,4.17,2.17,7.32v14.77H678.93z"/>
		<path class="st1" d="M698.76,88.59c-2.98,0-5.22-0.62-6.71-1.85s-2.24-3.13-2.24-5.67c0-2.41,0.68-4.21,2.04-5.41
			s3.41-1.8,6.16-1.8h6.91l0.33,3.84h-7.22c-1.23,0-2.16,0.28-2.79,0.83s-0.94,1.4-0.94,2.54c0,1.25,0.41,2.17,1.24,2.75
			s2.07,0.88,3.73,0.88c1.81,0,3.17-0.2,4.08-0.59s1.36-1,1.36-1.83l0.49,3.42c-0.42,0.66-0.95,1.2-1.57,1.62s-1.34,0.74-2.16,0.95
			S699.76,88.59,698.76,88.59z M704.71,88.24V72.82c0-1.59-0.43-2.83-1.28-3.71s-2.06-1.32-3.62-1.32c-2.03,0-3.8,0.56-5.32,1.69
			L691,67.07c0.92-1.11,2.14-1.97,3.64-2.59s3.18-0.93,5.03-0.93c3.05,0,5.41,0.79,7.08,2.37s2.51,3.8,2.51,6.68v15.63H704.71z"/>
		<path class="st1" d="M714.65,68.22v-4.31h10.97v4.31H714.65z M722.86,88.24c-2,0-3.45-0.55-4.35-1.66s-1.35-2.7-1.35-4.78V56.83
			h4.78v25.01c0,0.58,0.12,1.03,0.35,1.36s0.58,0.49,1.03,0.49h2.3v4.55H722.86z"/>
		<path class="st1" d="M732.18,58.94v-4.78h4.78v4.78H732.18z M732.18,88.24V63.91h4.78v24.33H732.18z"/>
		<path class="st1" d="M753.56,88.59c-3.19,0-5.66-0.93-7.41-2.78s-2.63-4.46-2.63-7.82v-3.96c0-3.33,0.88-5.91,2.63-7.73
			s4.22-2.74,7.41-2.74s5.66,0.91,7.41,2.74s2.63,4.41,2.63,7.73v4.03c0,3.34-0.88,5.93-2.63,7.77S756.75,88.59,753.56,88.59z
			 M753.54,84.04c1.67,0,2.97-0.52,3.89-1.56s1.38-2.51,1.38-4.42v-4.03c0-1.89-0.46-3.35-1.38-4.38s-2.22-1.55-3.89-1.55
			s-2.96,0.52-3.87,1.55s-1.36,2.49-1.36,4.38v4.03c0,1.91,0.45,3.38,1.36,4.42S751.86,84.04,753.54,84.04z"/>
		<path class="st1" d="M770.39,88.24V63.91h4.78v24.33H770.39z M785.15,88.24V73.5c0-1.7-0.45-3.03-1.34-3.97s-2.14-1.42-3.75-1.42
			c-1.56,0-2.77,0.41-3.62,1.24s-1.28,1.99-1.28,3.49l-0.49-4.69c0.75-1.47,1.73-2.6,2.94-3.4s2.55-1.2,4.02-1.2
			c2.64,0,4.68,0.86,6.13,2.59s2.17,4.17,2.17,7.32v14.77H785.15z"/>
	</g>
</g>
<ellipse class="st2" cx="668.71" cy="394.21" rx="343.89" ry="226.1"/>
<ellipse class="st3" cx="666.59" cy="470.5" rx="204.34" ry="128.5"/>
<g>
	<g>
		<path class="st1" d="M550.55,245.85v-34.08h4.78v34.08H550.55z M553.6,238.07l0.7-7.05l15.16-19.24h5.77L553.6,238.07z
			 M570.8,245.85l-10.83-18.19l3.77-3.49l12.91,21.68H570.8z"/>
		<path class="st1" d="M580.88,245.85v-24.33h4.78v24.33H580.88z M595.65,245.85v-14.74c0-1.7-0.45-3.03-1.34-3.97
			s-2.14-1.42-3.75-1.42c-1.56,0-2.77,0.41-3.62,1.24s-1.28,1.99-1.28,3.49l-0.49-4.69c0.75-1.47,1.73-2.6,2.94-3.4
			s2.55-1.2,4.02-1.2c2.64,0,4.68,0.86,6.13,2.59s2.17,4.17,2.17,7.32v14.77H595.65z"/>
		<path class="st1" d="M617.02,246.2c-3.19,0-5.66-0.93-7.41-2.78s-2.63-4.46-2.63-7.82v-3.96c0-3.33,0.88-5.91,2.63-7.73
			s4.22-2.74,7.41-2.74s5.66,0.91,7.41,2.74s2.63,4.41,2.63,7.73v4.03c0,3.34-0.88,5.93-2.63,7.77S620.21,246.2,617.02,246.2z
			 M617,241.65c1.67,0,2.97-0.52,3.89-1.56s1.38-2.51,1.38-4.42v-4.03c0-1.89-0.46-3.35-1.38-4.38s-2.22-1.55-3.89-1.55
			s-2.96,0.52-3.87,1.55s-1.36,2.49-1.36,4.38v4.03c0,1.91,0.45,3.38,1.36,4.42S615.33,241.65,617,241.65z"/>
		<path class="st1" d="M642.94,245.85h-3.75l-7.45-24.33h4.83l4.71,17.37l6.47-17.37h2.55l6.23,17.37l4.45-17.37h4.83l-7.45,24.33
			h-3.75l-5.77-16.73L642.94,245.85z"/>
		<path class="st1" d="M675.76,211.77v27.68c0,0.58,0.13,1.03,0.39,1.36s0.62,0.49,1.09,0.49h2.25v4.55h-2.81
			c-1.8,0-3.2-0.56-4.2-1.69s-1.5-2.71-1.5-4.76v-27.63H675.76z"/>
		<path class="st1" d="M695.07,246.2c-3.39,0-6.02-0.94-7.88-2.82c-1.86-1.88-2.79-4.57-2.79-8.07v-2.74c0-3.63,0.89-6.43,2.68-8.41
			c1.79-1.98,4.31-2.98,7.56-2.98c3.06,0,5.43,1.13,7.11,3.39s2.52,5.41,2.52,9.46v1.59h-16.41v-3.84h11.86
			c-0.14-1.97-0.65-3.51-1.54-4.62s-2.07-1.66-3.55-1.66c-1.8,0-3.2,0.59-4.2,1.78s-1.5,2.87-1.5,5.04v3.09
			c0,2.02,0.53,3.56,1.59,4.64s2.57,1.62,4.52,1.62c2.05,0,3.86-0.74,5.44-2.23l3.14,3.14c-1.2,1.16-2.55,2.05-4.05,2.68
			S696.58,246.2,695.07,246.2z"/>
		<path class="st1" d="M718.55,246.27c-2.69,0-4.76-0.86-6.22-2.59s-2.19-4.16-2.19-7.3v-5.37c0-3.16,0.71-5.6,2.13-7.32
			s3.44-2.59,6.05-2.59c1.44,0,2.75,0.38,3.95,1.13s2.16,1.8,2.89,3.16l-0.49,4.97c0-1.03-0.19-1.91-0.56-2.64s-0.92-1.29-1.63-1.68
			s-1.57-0.59-2.59-0.59c-1.58,0-2.8,0.49-3.67,1.48s-1.3,2.37-1.3,4.15v5.3c0,1.77,0.43,3.13,1.3,4.09s2.09,1.44,3.67,1.44
			c1.02,0,1.88-0.2,2.59-0.6s1.25-0.97,1.63-1.71s0.56-1.64,0.56-2.71l0.33,5.13c-0.44,1.09-1.19,2.07-2.26,2.94
			S720.27,246.27,718.55,246.27z M724.67,245.85v-34.08h4.78v34.08H724.67z"/>
		<path class="st1" d="M744.66,246.27c-2.69,0-4.76-0.86-6.22-2.59s-2.19-4.16-2.19-7.3v-5.37c0-3.16,0.71-5.6,2.13-7.32
			s3.44-2.59,6.05-2.59c1.44,0,2.75,0.38,3.95,1.13s2.16,1.8,2.89,3.16l-0.49,4.97c0-1.03-0.19-1.91-0.56-2.64s-0.92-1.29-1.63-1.68
			s-1.57-0.59-2.59-0.59c-1.58,0-2.8,0.49-3.67,1.48s-1.3,2.37-1.3,4.15v5.3c0,1.77,0.43,3.13,1.3,4.09s2.09,1.44,3.67,1.44
			c1.02,0,1.88-0.2,2.59-0.6s1.25-0.97,1.63-1.71s0.56-1.64,0.56-2.71l0.33,5.13c-0.44,1.09-1.19,2.07-2.26,2.94
			S746.38,246.27,744.66,246.27z M745.11,255.74c-1.83,0-3.46-0.34-4.91-1.01s-2.57-1.63-3.36-2.88l3.23-2.93
			c1.3,1.8,2.95,2.7,4.97,2.7c1.83,0,3.24-0.5,4.24-1.51s1.5-2.43,1.5-4.28v-24.3h4.78v23.6c0,3.38-0.91,5.99-2.73,7.84
			S748.44,255.74,745.11,255.74z"/>
		<path class="st1" d="M773.02,246.2c-3.39,0-6.02-0.94-7.88-2.82s-2.79-4.57-2.79-8.07v-2.74c0-3.63,0.89-6.43,2.68-8.41
			s4.31-2.98,7.56-2.98c3.06,0,5.43,1.13,7.11,3.39s2.52,5.41,2.52,9.46v1.59h-16.41v-3.84h11.86c-0.14-1.97-0.65-3.51-1.54-4.62
			s-2.07-1.66-3.55-1.66c-1.8,0-3.2,0.59-4.2,1.78s-1.5,2.87-1.5,5.04v3.09c0,2.02,0.53,3.56,1.59,4.64s2.57,1.62,4.52,1.62
			c2.05,0,3.86-0.74,5.44-2.23l3.14,3.14c-1.2,1.16-2.55,2.05-4.05,2.68S774.54,246.2,773.02,246.2z"/>
	</g>
</g>
<g>
	<g>
		<path class="st1" d="M526.29,445.2c-3.8,0-6.74-1.11-8.82-3.32c-2.09-2.21-3.13-5.33-3.13-9.36v-21.75h4.78v21.91
			c0,2.48,0.63,4.41,1.88,5.77s3.02,2.04,5.3,2.04c2.3,0,4.07-0.68,5.33-2.04s1.89-3.28,1.89-5.77v-21.91h4.78v21.75
			c0,4.03-1.05,7.15-3.14,9.36C533.05,444.1,530.1,445.2,526.29,445.2z"/>
		<path class="st1" d="M545.79,444.85v-24.33h4.78v24.33H545.79z M560.55,444.85v-14.74c0-1.7-0.45-3.03-1.34-3.97
			s-2.14-1.42-3.75-1.42c-1.56,0-2.77,0.41-3.62,1.24s-1.28,1.99-1.28,3.49l-0.49-4.69c0.75-1.47,1.73-2.6,2.94-3.4
			s2.55-1.2,4.02-1.2c2.64,0,4.68,0.86,6.13,2.59s2.17,4.17,2.17,7.32v14.77H560.55z"/>
		<path class="st1" d="M580.31,445.27c-2.69,0-4.76-0.86-6.22-2.59c-1.46-1.73-2.19-4.16-2.19-7.3v-5.37c0-3.16,0.71-5.6,2.13-7.32
			s3.44-2.59,6.05-2.59c1.44,0,2.75,0.38,3.95,1.13s2.16,1.8,2.89,3.16l-0.49,4.97c0-1.03-0.19-1.91-0.56-2.64s-0.92-1.29-1.63-1.68
			s-1.57-0.59-2.59-0.59c-1.58,0-2.8,0.49-3.67,1.48s-1.3,2.37-1.3,4.15v5.3c0,1.77,0.43,3.13,1.3,4.09s2.09,1.44,3.67,1.44
			c1.02,0,1.88-0.2,2.59-0.6s1.25-0.97,1.63-1.71s0.56-1.64,0.56-2.71l0.33,5.13c-0.44,1.09-1.19,2.07-2.26,2.94
			C583.43,444.84,582.03,445.27,580.31,445.27z M586.43,444.85v-34.08h4.78v34.08H586.43z"/>
		<path class="st1" d="M608.91,445.2c-3.39,0-6.02-0.94-7.88-2.82c-1.86-1.88-2.79-4.57-2.79-8.07v-2.74c0-3.63,0.89-6.43,2.68-8.41
			s4.31-2.98,7.56-2.98c3.06,0,5.43,1.13,7.11,3.39s2.52,5.41,2.52,9.46v1.59h-16.41v-3.84h11.86c-0.14-1.97-0.65-3.51-1.54-4.62
			s-2.07-1.66-3.55-1.66c-1.8,0-3.2,0.59-4.2,1.78s-1.5,2.87-1.5,5.04v3.09c0,2.02,0.53,3.56,1.59,4.64s2.57,1.62,4.52,1.62
			c2.05,0,3.86-0.74,5.44-2.23l3.14,3.14c-1.2,1.16-2.55,2.05-4.05,2.68C611.93,444.88,610.42,445.2,608.91,445.2z"/>
		<path class="st1" d="M624.68,444.85v-24.33h4.78v24.33H624.68z M638.06,426.29c-0.86-1.05-2.13-1.57-3.82-1.57
			c-1.53,0-2.71,0.42-3.54,1.25s-1.24,2-1.24,3.48l-0.49-4.69c0.73-1.44,1.7-2.56,2.89-3.38s2.51-1.22,3.95-1.22
			c2.22,0,4.01,0.63,5.37,1.9L638.06,426.29z"/>
		<path class="st1" d="M652.59,445.2c-2.06,0-3.93-0.32-5.61-0.95c-1.68-0.63-3.18-1.58-4.51-2.85l2.84-3.49c2.56,2,5.07,3,7.52,3
			c1.97,0,3.45-0.29,4.43-0.88s1.48-1.46,1.48-2.64c0-0.91-0.32-1.55-0.95-1.92s-1.46-0.62-2.5-0.73s-2.13-0.21-3.28-0.3
			c-0.98-0.06-1.96-0.18-2.93-0.35s-1.85-0.47-2.65-0.9s-1.43-1.07-1.91-1.91s-0.71-1.98-0.71-3.4c0-2.58,0.81-4.51,2.43-5.79
			s4.05-1.92,7.3-1.92c1.81,0,3.52,0.26,5.12,0.79s3.11,1.31,4.51,2.36l-2.88,3.49c-2.27-1.56-4.48-2.34-6.66-2.34
			c-1.77,0-3.09,0.28-3.96,0.83s-1.31,1.39-1.31,2.5c0,0.75,0.28,1.29,0.84,1.61s1.3,0.53,2.23,0.62s1.91,0.17,2.98,0.23
			c1.02,0.06,2.04,0.18,3.08,0.34s2,0.48,2.87,0.95s1.58,1.16,2.11,2.09s0.8,2.18,0.8,3.77c0,2.61-0.89,4.56-2.66,5.86
			C658.82,444.55,656.16,445.2,652.59,445.2z"/>
		<path class="st1" d="M666.54,424.83v-4.31h10.97v4.31H666.54z M674.74,444.85c-2,0-3.45-0.55-4.35-1.66
			c-0.9-1.11-1.35-2.7-1.35-4.78v-24.96h4.78v25.01c0,0.58,0.12,1.03,0.35,1.36s0.58,0.49,1.03,0.49h2.3v4.55H674.74z"/>
		<path class="st1" d="M691.85,445.2c-2.98,0-5.22-0.62-6.71-1.85c-1.49-1.23-2.24-3.13-2.24-5.67c0-2.41,0.68-4.21,2.04-5.41
			s3.41-1.8,6.16-1.8h6.91l0.33,3.84h-7.22c-1.23,0-2.16,0.28-2.79,0.83s-0.94,1.4-0.94,2.54c0,1.25,0.41,2.17,1.24,2.75
			s2.07,0.88,3.73,0.88c1.81,0,3.17-0.2,4.08-0.59s1.36-1,1.36-1.83l0.49,3.42c-0.42,0.66-0.95,1.2-1.57,1.62
			c-0.63,0.42-1.34,0.74-2.16,0.95S692.85,445.2,691.85,445.2z M697.8,444.85v-15.42c0-1.59-0.43-2.83-1.28-3.71
			s-2.06-1.32-3.62-1.32c-2.03,0-3.8,0.56-5.32,1.69l-3.49-2.39c0.92-1.11,2.14-1.97,3.64-2.59c1.51-0.62,3.18-0.93,5.03-0.93
			c3.05,0,5.41,0.79,7.08,2.37s2.51,3.8,2.51,6.68v15.63H697.8z"/>
		<path class="st1" d="M709.62,444.85v-24.33h4.78v24.33H709.62z M724.38,444.85v-14.74c0-1.7-0.45-3.03-1.34-3.97
			s-2.14-1.42-3.75-1.42c-1.56,0-2.77,0.41-3.62,1.24s-1.28,1.99-1.28,3.49l-0.49-4.69c0.75-1.47,1.73-2.6,2.94-3.4
			s2.55-1.2,4.02-1.2c2.64,0,4.68,0.86,6.13,2.59s2.17,4.17,2.17,7.32v14.77H724.38z"/>
		<path class="st1" d="M744.14,445.27c-2.69,0-4.76-0.86-6.22-2.59c-1.46-1.73-2.19-4.16-2.19-7.3v-5.37c0-3.16,0.71-5.6,2.13-7.32
			s3.44-2.59,6.05-2.59c1.44,0,2.75,0.38,3.95,1.13s2.16,1.8,2.89,3.16l-0.49,4.97c0-1.03-0.19-1.91-0.56-2.64s-0.92-1.29-1.63-1.68
			s-1.57-0.59-2.59-0.59c-1.58,0-2.8,0.49-3.67,1.48s-1.3,2.37-1.3,4.15v5.3c0,1.77,0.43,3.13,1.3,4.09s2.09,1.44,3.67,1.44
			c1.02,0,1.88-0.2,2.59-0.6s1.25-0.97,1.63-1.71s0.56-1.64,0.56-2.71l0.33,5.13c-0.44,1.09-1.19,2.07-2.26,2.94
			C747.25,444.84,745.86,445.27,744.14,445.27z M750.26,444.85v-34.08h4.78v34.08H750.26z"/>
		<path class="st1" d="M762.54,415.55v-4.78h4.78v4.78H762.54z M762.54,444.85v-24.33h4.78v24.33H762.54z"/>
		<path class="st1" d="M774.58,444.85v-24.33h4.78v24.33H774.58z M789.35,444.85v-14.74c0-1.7-0.45-3.03-1.34-3.97
			s-2.14-1.42-3.75-1.42c-1.56,0-2.77,0.41-3.62,1.24s-1.28,1.99-1.28,3.49l-0.49-4.69c0.75-1.47,1.73-2.6,2.94-3.4
			s2.55-1.2,4.02-1.2c2.64,0,4.68,0.86,6.13,2.59s2.17,4.17,2.17,7.32v14.77H789.35z"/>
		<path class="st1" d="M809.11,445.27c-2.69,0-4.76-0.86-6.22-2.59c-1.46-1.73-2.19-4.16-2.19-7.3v-5.37c0-3.16,0.71-5.6,2.13-7.32
			s3.44-2.59,6.05-2.59c1.44,0,2.75,0.38,3.95,1.13s2.16,1.8,2.89,3.16l-0.49,4.97c0-1.03-0.19-1.91-0.56-2.64s-0.92-1.29-1.63-1.68
			s-1.57-0.59-2.59-0.59c-1.58,0-2.8,0.49-3.67,1.48s-1.3,2.37-1.3,4.15v5.3c0,1.77,0.43,3.13,1.3,4.09s2.09,1.44,3.67,1.44
			c1.02,0,1.88-0.2,2.59-0.6s1.25-0.97,1.63-1.71s0.56-1.64,0.56-2.71l0.33,5.13c-0.44,1.09-1.19,2.07-2.26,2.94
			C812.22,444.84,810.83,445.27,809.11,445.27z M809.55,454.74c-1.83,0-3.46-0.34-4.91-1.01s-2.57-1.63-3.36-2.88l3.23-2.93
			c1.3,1.8,2.95,2.7,4.97,2.7c1.83,0,3.24-0.5,4.24-1.51s1.5-2.43,1.5-4.28v-24.3h4.78v23.6c0,3.38-0.91,5.99-2.73,7.84
			S812.88,454.74,809.55,454.74z"/>
	</g>
</g>
<g>
	<g>
		<path d="M613.79,142.27l7.14-28.08h2.25l7.14,28.08l6.9-28.08h3.64l-8.87,32.66h-3.32l-6.47-25.74l-6.74,25.74h-3.32l-8.87-32.66
			h3.64L613.79,142.27z"/>
		<path d="M645.13,146.85v-32.66h3.23v32.66H645.13z M660.62,146.85v-14.2c0-2.07-0.54-3.67-1.63-4.81
			c-1.09-1.14-2.62-1.71-4.59-1.71c-1.92,0-3.4,0.51-4.46,1.52s-1.58,2.44-1.58,4.3l-0.47-4.49c0.87-1.6,2-2.73,3.4-3.37
			c1.4-0.64,2.94-0.97,4.62-0.97c2.53,0,4.49,0.83,5.87,2.48c1.38,1.65,2.08,3.99,2.08,7.02v14.22H660.62z"/>
		<path d="M678.28,147.19c-2.73,0-4.84-0.63-6.33-1.89c-1.5-1.26-2.25-3.03-2.25-5.32c0-2.2,0.69-3.9,2.07-5.11
			c1.38-1.21,3.31-1.81,5.79-1.81h7.75l0.31,3.01h-8.04c-1.5,0-2.65,0.34-3.47,1.02c-0.82,0.68-1.22,1.64-1.22,2.89
			c0,1.32,0.51,2.34,1.54,3.07c1.03,0.73,2.47,1.09,4.35,1.09c2.01,0,3.56-0.2,4.67-0.61c1.11-0.4,1.66-0.97,1.66-1.71l0.47,3.05
			c-0.46,0.49-1.06,0.91-1.79,1.26c-0.73,0.34-1.56,0.61-2.49,0.79C680.36,147.1,679.36,147.19,678.28,147.19z M685.11,146.85
			v-14.78c0-1.89-0.51-3.35-1.52-4.39c-1.01-1.04-2.44-1.56-4.3-1.56c-2.34,0-4.37,0.69-6.09,2.07l-2.36-1.62
			c0.88-1.06,2.05-1.89,3.49-2.48c1.44-0.59,3.05-0.89,4.82-0.89c2.92,0,5.18,0.76,6.78,2.27c1.6,1.51,2.4,3.65,2.4,6.4v14.98
			H685.11z"/>
		<path d="M693.51,126.32v-2.79h10.51v2.79H693.51z M701.37,146.85c-1.92,0-3.31-0.53-4.17-1.59c-0.86-1.06-1.29-2.59-1.29-4.58
			v-23.92h3.23v23.97c0,0.99,0.22,1.76,0.67,2.3c0.45,0.55,1.12,0.82,2,0.82h2.2v3.01H701.37z"/>
		<path d="M721.99,139.37c0-1.92,0.23-3.56,0.7-4.93s1.04-2.57,1.72-3.6c0.68-1.03,1.37-1.98,2.05-2.85
			c0.69-0.87,1.27-1.76,1.73-2.66c0.46-0.91,0.7-1.94,0.7-3.09v-0.02c0-1.72-0.43-3.06-1.29-4.02c-0.86-0.96-2.07-1.44-3.63-1.44
			c-1.65,0-2.92,0.57-3.82,1.7c-0.9,1.13-1.36,2.72-1.37,4.77v0.02h-3.3v-0.02c0.1-2.98,0.89-5.29,2.37-6.92
			c1.47-1.63,3.5-2.45,6.08-2.45c2.7,0,4.78,0.73,6.27,2.19s2.22,3.52,2.22,6.19v0.02c0,1.51-0.24,2.8-0.73,3.85
			c-0.49,1.06-1.09,2.02-1.8,2.89c-0.71,0.87-1.42,1.76-2.13,2.68c-0.71,0.92-1.31,1.99-1.8,3.2c-0.49,1.21-0.73,2.71-0.73,4.49
			H721.99z M722.01,146.85v-3.23h3.23v3.23H722.01z"/>
	</g>
</g>
<g>
	<g>
		<path d="M602.27,304.21v-32.66h3.23v32.66H602.27z M604.45,289.63v-3.12h19.47v3.12H604.45z M622.17,304.21v-32.66h3.23v32.66
			H622.17z"/>
		<path d="M641.98,304.54c-3.05,0-5.42-0.89-7.1-2.66c-1.68-1.77-2.52-4.27-2.52-7.49v-3.8c0-3.19,0.84-5.66,2.52-7.41
			c1.68-1.75,4.04-2.63,7.1-2.63s5.42,0.88,7.1,2.63c1.68,1.75,2.52,4.22,2.52,7.41v3.86c0,3.2-0.84,5.69-2.52,7.45
			C647.41,303.66,645.04,304.54,641.98,304.54z M641.96,301.53c2.04,0,3.61-0.62,4.73-1.85c1.12-1.24,1.67-2.98,1.67-5.22v-3.86
			c0-2.23-0.56-3.96-1.67-5.19c-1.12-1.23-2.69-1.84-4.73-1.84c-2.02,0-3.59,0.61-4.69,1.84c-1.11,1.23-1.66,2.96-1.66,5.19v3.86
			c0,2.25,0.55,3.99,1.66,5.22C638.38,300.92,639.94,301.53,641.96,301.53z"/>
		<path d="M666.38,304.21h-2.92l-7.37-23.31h3.44l5.82,19.11l6.2-19.11h1.89l6.31,19.11l5.57-19.11h3.44l-7.37,23.31h-2.92
			l-5.97-17.38L666.38,304.21z"/>
		<path d="M705.37,296.73c0-1.92,0.23-3.56,0.7-4.93s1.04-2.57,1.72-3.6c0.68-1.03,1.37-1.98,2.05-2.85
			c0.69-0.87,1.27-1.76,1.73-2.66c0.46-0.91,0.7-1.94,0.7-3.09v-0.02c0-1.72-0.43-3.06-1.29-4.02c-0.86-0.96-2.07-1.44-3.63-1.44
			c-1.65,0-2.92,0.57-3.82,1.7c-0.9,1.13-1.36,2.72-1.37,4.77v0.02h-3.3v-0.02c0.1-2.98,0.89-5.29,2.37-6.92
			c1.47-1.63,3.5-2.45,6.08-2.45c2.7,0,4.78,0.73,6.27,2.19s2.22,3.52,2.22,6.19v0.02c0,1.51-0.24,2.8-0.73,3.85
			c-0.49,1.06-1.09,2.02-1.8,2.89c-0.71,0.87-1.42,1.76-2.13,2.68c-0.71,0.92-1.31,1.99-1.8,3.2c-0.49,1.21-0.73,2.71-0.73,4.49
			H705.37z M705.39,304.21v-3.23h3.23v3.23H705.39z"/>
	</g>
</g>
<g>
	<g>
		<path d="M620.91,497.62l7.14-28.08h2.25l7.14,28.08l6.9-28.08h3.64l-8.87,32.66h-3.32l-6.47-25.74l-6.74,25.74h-3.32l-8.87-32.66
			h3.64L620.91,497.62z"/>
		<path d="M652.24,502.21v-32.66h3.23v32.66H652.24z M667.74,502.21v-14.2c0-2.07-0.54-3.67-1.63-4.81
			c-1.09-1.14-2.62-1.71-4.59-1.71c-1.92,0-3.4,0.51-4.46,1.52s-1.58,2.44-1.58,4.3l-0.47-4.49c0.87-1.6,2-2.72,3.4-3.37
			c1.4-0.64,2.94-0.97,4.62-0.97c2.53,0,4.49,0.83,5.87,2.48c1.38,1.65,2.08,3.99,2.08,7.02v14.22H667.74z"/>
		<path d="M684.76,504.12l-9.3-25.22h3.32l7.66,21.63L684.76,504.12z M692.78,478.89h3.32l-9.93,28.77
			c-0.64,1.57-1.47,2.68-2.47,3.31c-1,0.64-2.42,0.95-4.25,0.95h-0.92v-3.05h0.92c1.2,0,2.15-0.27,2.85-0.82
			c0.7-0.55,1.32-1.49,1.84-2.82L692.78,478.89z"/>
		<path d="M711.83,494.73c0-1.92,0.23-3.56,0.7-4.93s1.04-2.57,1.72-3.61c0.68-1.03,1.37-1.98,2.05-2.85
			c0.69-0.87,1.27-1.75,1.73-2.66s0.7-1.94,0.7-3.09v-0.02c0-1.72-0.43-3.06-1.29-4.02c-0.86-0.96-2.07-1.44-3.63-1.44
			c-1.65,0-2.92,0.57-3.82,1.7s-1.36,2.72-1.37,4.77v0.02h-3.3v-0.02c0.1-2.98,0.89-5.29,2.37-6.92c1.47-1.63,3.5-2.45,6.08-2.45
			c2.7,0,4.78,0.73,6.27,2.19s2.22,3.52,2.22,6.19v0.02c0,1.51-0.24,2.8-0.73,3.85c-0.49,1.06-1.09,2.02-1.8,2.89
			c-0.71,0.87-1.42,1.76-2.13,2.68c-0.71,0.92-1.31,1.99-1.8,3.2c-0.49,1.21-0.73,2.71-0.73,4.49H711.83z M711.85,502.21v-3.23h3.23
			v3.23H711.85z"/>
	</g>
</g>
</svg>
