<?xml version="1.0" encoding="utf-8"?>
<!-- Generator: Adobe Illustrator 23.1.0, SVG Export Plug-In . SVG Version: 6.00 Build 0)  -->
<svg version="1.1" id="Ebene_1" xmlns="http://www.w3.org/2000/svg" xmlns:xlink="http://www.w3.org/1999/xlink" x="0px" y="0px"
	 width="977px" height="679px" viewBox="0 0 977 679" style="enable-background:new 0 0 977 679;" xml:space="preserve">
<style type="text/css">
	.st0{fill:#C6C6CE;}
	.st1{fill:#0A0A0A;}
	.st2{fill:#65A9CE;}
	.st3{fill:#12CEDD;}
</style>
<ellipse class="st0" cx="492" cy="342.5" rx="453" ry="331.5"/>
<g>
	<g>
		<path class="st1" d="M377.2,54.2v34.1h-4.8V54.2H377.2z"/>
		<path class="st1" d="M385.2,88.2V63.9h4.8v24.3H385.2z M400,88.2V73.5c0-1.7-0.5-3-1.3-4s-2.1-1.4-3.8-1.4c-1.6,0-2.8,0.4-3.6,1.2
			s-1.3,2-1.3,3.5l-0.5-4.7c0.8-1.5,1.7-2.6,2.9-3.4s2.5-1.2,4-1.2c2.6,0,4.7,0.9,6.1,2.6s2.2,4.2,2.2,7.3v14.8L400,88.2L400,88.2z"
			/>
		<path class="st1" d="M410.1,68v-4.1h12.2V68H410.1z M412.7,88.2V60.6c0-2.1,0.5-3.8,1.4-4.8s2.3-1.6,4.2-1.6h4v4.5h-3.4
			c-0.5,0-0.8,0.2-1,0.5s-0.3,0.8-0.3,1.3v27.7H412.7z"/>
		<path class="st1" d="M436.6,88.6c-3.2,0-5.7-0.9-7.4-2.8s-2.6-4.5-2.6-7.8v-4c0-3.3,0.9-5.9,2.6-7.7s4.2-2.7,7.4-2.7
			s5.7,0.9,7.4,2.7s2.6,4.4,2.6,7.7v4c0,3.3-0.9,5.9-2.6,7.8S439.8,88.6,436.6,88.6z M436.5,84c1.7,0,3-0.5,3.9-1.6s1.4-2.5,1.4-4.4
			v-4c0-1.9-0.5-3.3-1.4-4.4s-2.2-1.6-3.9-1.6s-3,0.5-3.9,1.6s-1.4,2.5-1.4,4.4v4c0,1.9,0.5,3.4,1.4,4.4S434.9,84,436.5,84z"/>
		<path class="st1" d="M453.4,88.2V63.9h4.8v24.3H453.4z M466.8,69.7c-0.9-1.1-2.1-1.6-3.8-1.6c-1.5,0-2.7,0.4-3.5,1.3
			s-1.2,2-1.2,3.5l-0.5-4.7c0.7-1.4,1.7-2.6,2.9-3.4s2.5-1.2,4-1.2c2.2,0,4,0.6,5.4,1.9L466.8,69.7z"/>
		<path class="st1" d="M473.9,88.2V63.9h4.8v24.3H473.9z M488.4,88.2V73.5c0-1.7-0.4-3-1.3-4s-2-1.4-3.6-1.4c-1.6,0-2.8,0.4-3.6,1.2
			s-1.3,2-1.3,3.5l-0.5-4.7c0.8-1.5,1.7-2.6,2.9-3.4s2.5-1.2,4-1.2c2.6,0,4.5,0.9,6,2.6s2.1,4.2,2.1,7.3v14.8L488.4,88.2L488.4,88.2
			z M502.9,88.2V73.5c0-1.7-0.5-3-1.3-4s-2.1-1.4-3.8-1.4c-1.5,0-2.6,0.4-3.5,1.4s-1.2,2.2-1.2,3.8l-1-4.7c0.8-1.6,1.8-2.9,3-3.7
			s2.6-1.3,4.2-1.3c2.6,0,4.7,0.9,6.1,2.6s2.2,4.2,2.2,7.3v14.8C507.7,88.2,502.9,88.2,502.9,88.2z"/>
		<path class="st1" d="M522.8,88.6c-3,0-5.2-0.6-6.7-1.8s-2.2-3.1-2.2-5.7c0-2.4,0.7-4.2,2-5.4s3.4-1.8,6.2-1.8h6.9l0.3,3.8H522
			c-1.2,0-2.2,0.3-2.8,0.8s-0.9,1.4-0.9,2.5c0,1.3,0.4,2.2,1.2,2.8s2.1,0.9,3.7,0.9c1.8,0,3.2-0.2,4.1-0.6s1.4-1,1.4-1.8l0.5,3.4
			c-0.4,0.7-1,1.2-1.6,1.6s-1.3,0.7-2.2,0.9S523.8,88.6,522.8,88.6z M528.7,88.2V72.8c0-1.6-0.4-2.8-1.3-3.7s-2.1-1.3-3.6-1.3
			c-2,0-3.8,0.6-5.3,1.7l-3.5-2.4c0.9-1.1,2.1-2,3.6-2.6s3.2-0.9,5-0.9c3,0,5.4,0.8,7.1,2.4s2.5,3.8,2.5,6.7v15.6L528.7,88.2
			L528.7,88.2z"/>
		<path class="st1" d="M538.7,68.2v-4.3h11v4.3H538.7z M546.9,88.2c-2,0-3.5-0.6-4.3-1.7s-1.3-2.7-1.3-4.8v-25h4.8v25
			c0,0.6,0.1,1,0.3,1.4s0.6,0.5,1,0.5h2.3v4.6C549.6,88.2,546.9,88.2,546.9,88.2z"/>
		<path class="st1" d="M556.2,58.9v-4.8h4.8v4.8H556.2z M556.2,88.2V63.9h4.8v24.3H556.2z"/>
		<path class="st1" d="M577.6,88.6c-3.2,0-5.7-0.9-7.4-2.8s-2.6-4.5-2.6-7.8v-4c0-3.3,0.9-5.9,2.6-7.7s4.2-2.7,7.4-2.7
			s5.7,0.9,7.4,2.7s2.6,4.4,2.6,7.7v4c0,3.3-0.9,5.9-2.6,7.8S580.8,88.6,577.6,88.6z M577.5,84c1.7,0,3-0.5,3.9-1.6s1.4-2.5,1.4-4.4
			v-4c0-1.9-0.5-3.3-1.4-4.4s-2.2-1.6-3.9-1.6s-3,0.5-3.9,1.6s-1.4,2.5-1.4,4.4v4c0,1.9,0.5,3.4,1.4,4.4S575.9,84,577.5,84z"/>
		<path class="st1" d="M594.4,88.2V63.9h4.8v24.3H594.4z M609.2,88.2V73.5c0-1.7-0.5-3-1.3-4s-2.1-1.4-3.8-1.4
			c-1.6,0-2.8,0.4-3.6,1.2s-1.3,2-1.3,3.5l-0.5-4.7c0.8-1.5,1.7-2.6,2.9-3.4s2.5-1.2,4-1.2c2.6,0,4.7,0.9,6.1,2.6s2.2,4.2,2.2,7.3
			v14.8L609.2,88.2L609.2,88.2z"/>
	</g>
</g>
<ellipse class="st2" cx="492.7" cy="394.2" rx="343.9" ry="226.1"/>
<ellipse class="st3" cx="490.6" cy="470.5" rx="204.3" ry="128.5"/>
<g>
	<g>
		<path class="st1" d="M374.5,248.9v-34.1h4.8v34.1H374.5z M377.6,241.1l0.7-7.1l15.2-19.2h5.8L377.6,241.1z M394.8,248.9L384,230.7
			l3.8-3.5l12.9,21.7H394.8z"/>
		<path class="st1" d="M404.9,248.9v-24.3h4.8v24.3H404.9z M419.7,248.9v-14.7c0-1.7-0.5-3-1.3-4s-2.1-1.4-3.8-1.4
			c-1.6,0-2.8,0.4-3.6,1.2s-1.3,2-1.3,3.5l-0.5-4.7c0.8-1.5,1.7-2.6,2.9-3.4s2.5-1.2,4-1.2c2.6,0,4.7,0.9,6.1,2.6s2.2,4.2,2.2,7.3
			v14.8L419.7,248.9L419.7,248.9z"/>
		<path class="st1" d="M441,249.2c-3.2,0-5.7-0.9-7.4-2.8s-2.6-4.5-2.6-7.8v-4c0-3.3,0.9-5.9,2.6-7.7s4.2-2.7,7.4-2.7
			s5.7,0.9,7.4,2.7s2.6,4.4,2.6,7.7v4c0,3.3-0.9,5.9-2.6,7.8S444.2,249.2,441,249.2z M441,244.6c1.7,0,3-0.5,3.9-1.6
			s1.4-2.5,1.4-4.4v-4c0-1.9-0.5-3.4-1.4-4.4s-2.2-1.6-3.9-1.6s-3,0.5-3.9,1.6s-1.4,2.5-1.4,4.4v4c0,1.9,0.5,3.4,1.4,4.4
			S439.3,244.6,441,244.6z"/>
		<path class="st1" d="M466.9,248.9h-3.8l-7.5-24.3h4.8l4.7,17.4l6.5-17.4h2.5l6.2,17.4l4.5-17.4h4.8l-7.5,24.3h-3.8l-5.8-16.7
			L466.9,248.9z"/>
		<path class="st1" d="M499.8,214.8v27.7c0,0.6,0.1,1,0.4,1.4s0.6,0.5,1.1,0.5h2.3v4.6h-2.8c-1.8,0-3.2-0.6-4.2-1.7
			s-1.5-2.7-1.5-4.8v-27.6L499.8,214.8L499.8,214.8z"/>
		<path class="st1" d="M519.1,249.2c-3.4,0-6-0.9-7.9-2.8s-2.8-4.6-2.8-8.1v-2.7c0-3.6,0.9-6.4,2.7-8.4c1.8-2,4.3-3,7.6-3
			c3.1,0,5.4,1.1,7.1,3.4s2.5,5.4,2.5,9.5v1.6h-16.4v-3.8h11.9c-0.1-2-0.7-3.5-1.5-4.6s-2.1-1.7-3.5-1.7c-1.8,0-3.2,0.6-4.2,1.8
			s-1.5,2.9-1.5,5v3.1c0,2,0.5,3.6,1.6,4.6s2.6,1.6,4.5,1.6c2,0,3.9-0.7,5.4-2.2l3.1,3.1c-1.2,1.2-2.5,2.1-4,2.7
			S520.6,249.2,519.1,249.2z"/>
		<path class="st1" d="M542.5,249.3c-2.7,0-4.8-0.9-6.2-2.6s-2.2-4.2-2.2-7.3V234c0-3.2,0.7-5.6,2.1-7.3s3.4-2.6,6-2.6
			c1.4,0,2.8,0.4,4,1.1s2.2,1.8,2.9,3.2l-0.5,5c0-1-0.2-1.9-0.6-2.6s-0.9-1.3-1.6-1.7s-1.6-0.6-2.6-0.6c-1.6,0-2.8,0.5-3.7,1.5
			s-1.3,2.4-1.3,4.1v5.3c0,1.8,0.4,3.1,1.3,4.1s2.1,1.4,3.7,1.4c1,0,1.9-0.2,2.6-0.6s1.3-1,1.6-1.7s0.6-1.6,0.6-2.7l0.3,5.1
			c-0.4,1.1-1.2,2.1-2.3,2.9S544.3,249.3,542.5,249.3z M548.7,248.9v-34.1h4.8v34.1H548.7z"/>
		<path class="st1" d="M568.7,249.3c-2.7,0-4.8-0.9-6.2-2.6s-2.2-4.2-2.2-7.3V234c0-3.2,0.7-5.6,2.1-7.3s3.4-2.6,6-2.6
			c1.4,0,2.8,0.4,4,1.1s2.2,1.8,2.9,3.2l-0.5,5c0-1-0.2-1.9-0.6-2.6s-0.9-1.3-1.6-1.7s-1.6-0.6-2.6-0.6c-1.6,0-2.8,0.5-3.7,1.5
			s-1.3,2.4-1.3,4.1v5.3c0,1.8,0.4,3.1,1.3,4.1s2.1,1.4,3.7,1.4c1,0,1.9-0.2,2.6-0.6s1.3-1,1.6-1.7s0.6-1.6,0.6-2.7l0.3,5.1
			c-0.4,1.1-1.2,2.1-2.3,2.9S570.4,249.3,568.7,249.3z M569.1,258.7c-1.8,0-3.5-0.3-4.9-1s-2.6-1.6-3.4-2.9l3.2-2.9
			c1.3,1.8,3,2.7,5,2.7c1.8,0,3.2-0.5,4.2-1.5s1.5-2.4,1.5-4.3v-24.3h4.8v23.6c0,3.4-0.9,6-2.7,7.8S572.4,258.7,569.1,258.7z"/>
		<path class="st1" d="M597,249.2c-3.4,0-6-0.9-7.9-2.8s-2.8-4.6-2.8-8.1v-2.7c0-3.6,0.9-6.4,2.7-8.4s4.3-3,7.6-3
			c3.1,0,5.4,1.1,7.1,3.4s2.5,5.4,2.5,9.5v1.6h-16.4v-3.8h11.9c-0.1-2-0.7-3.5-1.5-4.6s-2.1-1.7-3.5-1.7c-1.8,0-3.2,0.6-4.2,1.8
			s-1.5,2.9-1.5,5v3.1c0,2,0.5,3.6,1.6,4.6s2.6,1.6,4.5,1.6c2,0,3.9-0.7,5.4-2.2l3.1,3.1c-1.2,1.2-2.5,2.1-4,2.7
			S598.5,249.2,597,249.2z"/>
	</g>
</g>
<g>
	<g>
		<path class="st1" d="M353.3,448.2c-3.8,0-6.7-1.1-8.8-3.3c-2.1-2.2-3.1-5.3-3.1-9.4v-21.8h4.8v21.9c0,2.5,0.6,4.4,1.9,5.8
			s3,2,5.3,2c2.3,0,4.1-0.7,5.3-2s1.9-3.3,1.9-5.8v-21.9h4.8v21.8c0,4-1,7.1-3.1,9.4C360,447.1,357.1,448.2,353.3,448.2z"/>
		<path class="st1" d="M372.8,447.9v-24.3h4.8v24.3H372.8z M387.5,447.9v-14.7c0-1.7-0.5-3-1.3-4s-2.1-1.4-3.8-1.4
			c-1.6,0-2.8,0.4-3.6,1.2s-1.3,2-1.3,3.5l-0.5-4.7c0.8-1.5,1.7-2.6,2.9-3.4s2.5-1.2,4-1.2c2.6,0,4.7,0.9,6.1,2.6s2.2,4.2,2.2,7.3
			v14.8L387.5,447.9L387.5,447.9z"/>
		<path class="st1" d="M407.3,448.3c-2.7,0-4.8-0.9-6.2-2.6c-1.5-1.7-2.2-4.2-2.2-7.3V433c0-3.2,0.7-5.6,2.1-7.3s3.4-2.6,6-2.6
			c1.4,0,2.8,0.4,4,1.1s2.2,1.8,2.9,3.2l-0.5,5c0-1-0.2-1.9-0.6-2.6s-0.9-1.3-1.6-1.7s-1.6-0.6-2.6-0.6c-1.6,0-2.8,0.5-3.7,1.5
			s-1.3,2.4-1.3,4.1v5.3c0,1.8,0.4,3.1,1.3,4.1s2.1,1.4,3.7,1.4c1,0,1.9-0.2,2.6-0.6s1.3-1,1.6-1.7s0.6-1.6,0.6-2.7l0.3,5.1
			c-0.4,1.1-1.2,2.1-2.3,2.9C410.4,447.8,409,448.3,407.3,448.3z M413.4,447.9v-34.1h4.8v34.1L413.4,447.9L413.4,447.9z"/>
		<path class="st1" d="M435.9,448.2c-3.4,0-6-0.9-7.9-2.8s-2.8-4.6-2.8-8.1v-2.7c0-3.6,0.9-6.4,2.7-8.4s4.3-3,7.6-3
			c3.1,0,5.4,1.1,7.1,3.4s2.5,5.4,2.5,9.5v1.6h-16.4v-3.8h11.9c-0.1-2-0.7-3.5-1.5-4.6s-2.1-1.7-3.5-1.7c-1.8,0-3.2,0.6-4.2,1.8
			s-1.5,2.9-1.5,5v3.1c0,2,0.5,3.6,1.6,4.6s2.6,1.6,4.5,1.6c2,0,3.9-0.7,5.4-2.2l3.1,3.1c-1.2,1.2-2.5,2-4,2.7
			C438.9,447.9,437.4,448.2,435.9,448.2z"/>
		<path class="st1" d="M451.7,447.9v-24.3h4.8v24.3H451.7z M465.1,429.3c-0.9-1-2.1-1.6-3.8-1.6c-1.5,0-2.7,0.4-3.5,1.3
			s-1.2,2-1.2,3.5l-0.5-4.7c0.7-1.4,1.7-2.6,2.9-3.4s2.5-1.2,4-1.2c2.2,0,4,0.6,5.4,1.9L465.1,429.3z"/>
		<path class="st1" d="M479.6,448.2c-2.1,0-3.9-0.3-5.6-1s-3.2-1.6-4.5-2.9l2.8-3.5c2.6,2,5.1,3,7.5,3c2,0,3.5-0.3,4.4-0.9
			s1.5-1.5,1.5-2.6c0-0.9-0.3-1.5-1-1.9s-1.5-0.6-2.5-0.7s-2.1-0.2-3.3-0.3c-1-0.1-2-0.2-2.9-0.4s-1.8-0.5-2.7-0.9s-1.4-1.1-1.9-1.9
			s-0.7-2-0.7-3.4c0-2.6,0.8-4.5,2.4-5.8s4-1.9,7.3-1.9c1.8,0,3.5,0.3,5.1,0.8s3.1,1.3,4.5,2.4l-2.9,3.5c-2.3-1.6-4.5-2.3-6.7-2.3
			c-1.8,0-3.1,0.3-4,0.8s-1.3,1.4-1.3,2.5c0,0.8,0.3,1.3,0.8,1.6s1.3,0.5,2.2,0.6s1.9,0.2,3,0.2c1,0.1,2,0.2,3.1,0.3s2,0.5,2.9,1
			s1.6,1.2,2.1,2.1s0.8,2.2,0.8,3.8c0,2.6-0.9,4.6-2.7,5.9C485.8,447.5,483.2,448.2,479.6,448.2z"/>
		<path class="st1" d="M493.5,427.8v-4.3h11v4.3H493.5z M501.7,447.9c-2,0-3.5-0.5-4.3-1.7c-0.9-1.1-1.3-2.7-1.3-4.8v-25h4.8v25
			c0,0.6,0.1,1,0.3,1.4s0.6,0.5,1,0.5h2.3v4.5L501.7,447.9L501.7,447.9z"/>
		<path class="st1" d="M518.8,448.2c-3,0-5.2-0.6-6.7-1.9c-1.5-1.2-2.2-3.1-2.2-5.7c0-2.4,0.7-4.2,2-5.4s3.4-1.8,6.2-1.8h6.9
			l0.3,3.8h-7.2c-1.2,0-2.2,0.3-2.8,0.8s-0.9,1.4-0.9,2.5c0,1.3,0.4,2.2,1.2,2.8s2.1,0.9,3.7,0.9c1.8,0,3.2-0.2,4.1-0.6
			s1.4-1,1.4-1.8l0.5,3.4c-0.4,0.7-1,1.2-1.6,1.6c-0.6,0.4-1.3,0.7-2.2,1S519.8,448.2,518.8,448.2z M524.8,447.9v-15.4
			c0-1.6-0.4-2.8-1.3-3.7s-2.1-1.3-3.6-1.3c-2,0-3.8,0.6-5.3,1.7l-3.5-2.4c0.9-1.1,2.1-2,3.6-2.6c1.5-0.6,3.2-0.9,5-0.9
			c3,0,5.4,0.8,7.1,2.4s2.5,3.8,2.5,6.7v15.6L524.8,447.9L524.8,447.9z"/>
		<path class="st1" d="M536.6,447.9v-24.3h4.8v24.3H536.6z M551.4,447.9v-14.7c0-1.7-0.5-3-1.3-4s-2.1-1.4-3.8-1.4
			c-1.6,0-2.8,0.4-3.6,1.2s-1.3,2-1.3,3.5l-0.5-4.7c0.8-1.5,1.7-2.6,2.9-3.4s2.5-1.2,4-1.2c2.6,0,4.7,0.9,6.1,2.6s2.2,4.2,2.2,7.3
			v14.8L551.4,447.9L551.4,447.9z"/>
		<path class="st1" d="M571.1,448.3c-2.7,0-4.8-0.9-6.2-2.6c-1.5-1.7-2.2-4.2-2.2-7.3V433c0-3.2,0.7-5.6,2.1-7.3s3.4-2.6,6-2.6
			c1.4,0,2.8,0.4,4,1.1s2.2,1.8,2.9,3.2l-0.5,5c0-1-0.2-1.9-0.6-2.6s-0.9-1.3-1.6-1.7s-1.6-0.6-2.6-0.6c-1.6,0-2.8,0.5-3.7,1.5
			s-1.3,2.4-1.3,4.1v5.3c0,1.8,0.4,3.1,1.3,4.1s2.1,1.4,3.7,1.4c1,0,1.9-0.2,2.6-0.6s1.3-1,1.6-1.7s0.6-1.6,0.6-2.7l0.3,5.1
			c-0.4,1.1-1.2,2.1-2.3,2.9C574.3,447.8,572.9,448.3,571.1,448.3z M577.3,447.9v-34.1h4.8v34.1L577.3,447.9L577.3,447.9z"/>
		<path class="st1" d="M589.5,418.5v-4.8h4.8v4.8H589.5z M589.5,447.9v-24.3h4.8v24.3H589.5z"/>
		<path class="st1" d="M601.6,447.9v-24.3h4.8v24.3H601.6z M616.3,447.9v-14.7c0-1.7-0.5-3-1.3-4s-2.1-1.4-3.8-1.4
			c-1.6,0-2.8,0.4-3.6,1.2s-1.3,2-1.3,3.5l-0.5-4.7c0.8-1.5,1.7-2.6,2.9-3.4s2.5-1.2,4-1.2c2.6,0,4.7,0.9,6.1,2.6s2.2,4.2,2.2,7.3
			v14.8L616.3,447.9L616.3,447.9z"/>
		<path class="st1" d="M636.1,448.3c-2.7,0-4.8-0.9-6.2-2.6c-1.5-1.7-2.2-4.2-2.2-7.3V433c0-3.2,0.7-5.6,2.1-7.3s3.4-2.6,6-2.6
			c1.4,0,2.8,0.4,4,1.1s2.2,1.8,2.9,3.2l-0.5,5c0-1-0.2-1.9-0.6-2.6s-0.9-1.3-1.6-1.7s-1.6-0.6-2.6-0.6c-1.6,0-2.8,0.5-3.7,1.5
			s-1.3,2.4-1.3,4.1v5.3c0,1.8,0.4,3.1,1.3,4.1s2.1,1.4,3.7,1.4c1,0,1.9-0.2,2.6-0.6s1.3-1,1.6-1.7s0.6-1.6,0.6-2.7l0.3,5.1
			c-0.4,1.1-1.2,2.1-2.3,2.9C639.2,447.8,637.8,448.3,636.1,448.3z M636.5,457.7c-1.8,0-3.5-0.3-4.9-1s-2.6-1.6-3.4-2.9l3.2-2.9
			c1.3,1.8,3,2.7,5,2.7c1.8,0,3.2-0.5,4.2-1.5s1.5-2.4,1.5-4.3v-24.3h4.8v23.6c0,3.4-0.9,6-2.7,7.8S639.9,457.7,636.5,457.7z"/>
	</g>
</g>
<g>
	<g>
		<path d="M437.8,142.3l7.1-28.1h2.3l7.1,28.1l6.9-28.1h3.6l-8.9,32.7h-3.3l-6.5-25.7l-6.7,25.7h-3.3l-8.9-32.7h3.6L437.8,142.3z"/>
		<path d="M469.1,146.9v-32.7h3.2v32.7H469.1z M484.6,146.9v-14.2c0-2.1-0.5-3.7-1.6-4.8s-2.6-1.7-4.6-1.7c-1.9,0-3.4,0.5-4.5,1.5
			s-1.6,2.4-1.6,4.3l-0.5-4.5c0.9-1.6,2-2.7,3.4-3.4s2.9-1,4.6-1c2.5,0,4.5,0.8,5.9,2.5s2.1,4,2.1,7v14.2L484.6,146.9L484.6,146.9z"
			/>
		<path d="M502.3,147.2c-2.7,0-4.8-0.6-6.3-1.9c-1.5-1.3-2.3-3-2.3-5.3c0-2.2,0.7-3.9,2.1-5.1s3.3-1.8,5.8-1.8h7.8l0.3,3h-8
			c-1.5,0-2.7,0.3-3.5,1c-0.8,0.7-1.2,1.6-1.2,2.9c0,1.3,0.5,2.3,1.5,3.1c1,0.7,2.5,1.1,4.3,1.1c2,0,3.6-0.2,4.7-0.6
			c1.1-0.4,1.7-1,1.7-1.7l0.5,3.1c-0.5,0.5-1.1,0.9-1.8,1.3c-0.7,0.3-1.6,0.6-2.5,0.8C504.4,147.1,503.4,147.2,502.3,147.2z
			 M509.1,146.9v-14.8c0-1.9-0.5-3.4-1.5-4.4c-1-1-2.4-1.6-4.3-1.6c-2.3,0-4.4,0.7-6.1,2.1l-2.4-1.6c0.9-1.1,2-1.9,3.5-2.5
			c1.4-0.6,3-0.9,4.8-0.9c2.9,0,5.2,0.8,6.8,2.3c1.6,1.5,2.4,3.7,2.4,6.4v15H509.1z"/>
		<path d="M517.5,126.3v-2.8H528v2.8H517.5z M525.4,146.9c-1.9,0-3.3-0.5-4.2-1.6s-1.3-2.6-1.3-4.6v-23.9h3.2v24
			c0,1,0.2,1.8,0.7,2.3c0.5,0.6,1.1,0.8,2,0.8h2.2v3L525.4,146.9L525.4,146.9z"/>
		<path d="M546,139.4c0-1.9,0.2-3.6,0.7-4.9s1-2.6,1.7-3.6s1.4-2,2-2.8c0.7-0.9,1.3-1.8,1.7-2.7c0.5-0.9,0.7-1.9,0.7-3.1v0
			c0-1.7-0.4-3.1-1.3-4s-2.1-1.4-3.6-1.4c-1.7,0-2.9,0.6-3.8,1.7s-1.4,2.7-1.4,4.8v0h-3.3v0c0.1-3,0.9-5.3,2.4-6.9
			c1.5-1.6,3.5-2.4,6.1-2.4c2.7,0,4.8,0.7,6.3,2.2s2.2,3.5,2.2,6.2v0c0,1.5-0.2,2.8-0.7,3.8c-0.5,1.1-1.1,2-1.8,2.9
			c-0.7,0.9-1.4,1.8-2.1,2.7s-1.3,2-1.8,3.2c-0.5,1.2-0.7,2.7-0.7,4.5H546z M546,146.9v-3.2h3.2v3.2H546z"/>
	</g>
</g>
<g>
	<g>
		<path d="M428.3,311.2v-32.7h3.2v32.7H428.3z M430.5,296.6v-3.1h19.5v3.1H430.5z M448.2,311.2v-32.7h3.2v32.7H448.2z"/>
		<path d="M468,311.5c-3,0-5.4-0.9-7.1-2.7s-2.5-4.3-2.5-7.5v-3.8c0-3.2,0.8-5.7,2.5-7.4s4-2.6,7.1-2.6s5.4,0.9,7.1,2.6
			s2.5,4.2,2.5,7.4v3.9c0,3.2-0.8,5.7-2.5,7.5C473.4,310.7,471,311.5,468,311.5z M468,308.5c2,0,3.6-0.6,4.7-1.9
			c1.1-1.2,1.7-3,1.7-5.2v-3.9c0-2.2-0.6-4-1.7-5.2c-1.1-1.2-2.7-1.8-4.7-1.8c-2,0-3.6,0.6-4.7,1.8c-1.1,1.2-1.7,3-1.7,5.2v3.9
			c0,2.3,0.5,4,1.7,5.2C464.4,307.9,465.9,308.5,468,308.5z"/>
		<path d="M492.4,311.2h-2.9l-7.4-23.3h3.4l5.8,19.1l6.2-19.1h1.9l6.3,19.1l5.6-19.1h3.4l-7.4,23.3h-2.9l-6-17.4L492.4,311.2z"/>
		<path d="M531.4,303.7c0-1.9,0.2-3.6,0.7-4.9s1-2.6,1.7-3.6s1.4-2,2-2.9c0.7-0.9,1.3-1.8,1.7-2.7c0.5-0.9,0.7-1.9,0.7-3.1v0
			c0-1.7-0.4-3.1-1.3-4s-2.1-1.4-3.6-1.4c-1.7,0-2.9,0.6-3.8,1.7s-1.4,2.7-1.4,4.8v0h-3.3v0c0.1-3,0.9-5.3,2.4-6.9
			c1.5-1.6,3.5-2.5,6.1-2.5c2.7,0,4.8,0.7,6.3,2.2s2.2,3.5,2.2,6.2v0c0,1.5-0.2,2.8-0.7,3.9c-0.5,1.1-1.1,2-1.8,2.9
			c-0.7,0.9-1.4,1.8-2.1,2.7c-0.7,0.9-1.3,2-1.8,3.2c-0.5,1.2-0.7,2.7-0.7,4.5H531.4z M531.4,311.2V308h3.2v3.2H531.4z"/>
	</g>
</g>
<g>
	<g>
		<path d="M449.9,501.6l7.1-28.1h2.3l7.1,28.1l6.9-28.1h3.6l-8.9,32.7h-3.3l-6.5-25.7l-6.7,25.7h-3.3l-8.9-32.7h3.6L449.9,501.6z"/>
		<path d="M481.2,506.2v-32.7h3.2v32.7H481.2z M496.7,506.2V492c0-2.1-0.5-3.7-1.6-4.8c-1.1-1.1-2.6-1.7-4.6-1.7
			c-1.9,0-3.4,0.5-4.5,1.5s-1.6,2.4-1.6,4.3l-0.5-4.5c0.9-1.6,2-2.7,3.4-3.4c1.4-0.6,2.9-1,4.6-1c2.5,0,4.5,0.8,5.9,2.5
			c1.4,1.6,2.1,4,2.1,7v14.2L496.7,506.2L496.7,506.2z"/>
		<path d="M513.8,508.1l-9.3-25.2h3.3l7.7,21.6L513.8,508.1z M521.8,482.9h3.3l-9.9,28.8c-0.6,1.6-1.5,2.7-2.5,3.3
			c-1,0.6-2.4,1-4.3,1h-0.9v-3.1h0.9c1.2,0,2.2-0.3,2.8-0.8c0.7-0.6,1.3-1.5,1.8-2.8L521.8,482.9z"/>
		<path d="M540.8,498.7c0-1.9,0.2-3.6,0.7-4.9s1-2.6,1.7-3.6c0.7-1,1.4-2,2-2.9c0.7-0.9,1.3-1.8,1.7-2.7s0.7-1.9,0.7-3.1v0
			c0-1.7-0.4-3.1-1.3-4s-2.1-1.4-3.6-1.4c-1.7,0-2.9,0.6-3.8,1.7s-1.4,2.7-1.4,4.8v0h-3.3v0c0.1-3,0.9-5.3,2.4-6.9
			c1.5-1.6,3.5-2.5,6.1-2.5c2.7,0,4.8,0.7,6.3,2.2s2.2,3.5,2.2,6.2v0c0,1.5-0.2,2.8-0.7,3.9c-0.5,1.1-1.1,2-1.8,2.9
			c-0.7,0.9-1.4,1.8-2.1,2.7c-0.7,0.9-1.3,2-1.8,3.2c-0.5,1.2-0.7,2.7-0.7,4.5L540.8,498.7L540.8,498.7z M540.8,506.2V503h3.2v3.2
			H540.8z"/>
	</g>
</g>
</svg>
