<?xml version="1.0" encoding="utf-8"?>
<!-- Generator: Adobe Illustrator 23.1.0, SVG Export Plug-In . SVG Version: 6.00 Build 0)  -->
<svg version="1.1" id="Ebene_1" xmlns="http://www.w3.org/2000/svg" xmlns:xlink="http://www.w3.org/1999/xlink" x="0px" y="0px"
	 width="2771.59px" height="1063px" viewBox="0 0 2771.59 1063" style="enable-background:new 0 0 2771.59 1063;"
	 xml:space="preserve">
<style type="text/css">
	.st0{opacity:0.54;fill:#E9F91C;}
	.st1{opacity:0.58;fill:#48FF96;}
	.st2{opacity:0.22;fill:#3E5FFF;stroke:#727272;stroke-miterlimit:10;}
	.st3{fill:#444444;}
	.st4{fill:#4F4F4F;}
</style>
<circle class="st0" cx="350" cy="350" r="350"/>
<circle class="st1" cx="588" cy="705" r="350"/>
<circle class="st2" cx="889.5" cy="370.5" r="350"/>
<g>
	<g>
		<path class="st3" d="M419.8,280.07v319.48h-62.4V280.07H419.8z"/>
		<path class="st3" d="M481.33,599.55V371.47h60.21v228.08H481.33z M613.16,599.55V461.34c0-11.28-3.22-19.96-9.67-26.04
			c-6.45-6.08-15.46-9.12-27.03-9.12c-11.13,0-19.74,3.11-25.82,9.34c-6.08,6.23-9.12,14.98-9.12,26.26l-4.61-50.54
			c6.59-13.77,14.61-24.39,24.06-31.86s21.72-11.21,36.8-11.21c24.02,0,42.63,8.1,55.81,24.28c13.18,16.19,19.78,39.08,19.78,68.66
			v138.43H613.16z"/>
		<path class="st3" d="M715.11,422.89v-51.42h111.62v51.42H715.11z M796.41,599.55c-20.36,0-35.08-5.2-44.17-15.6
			c-9.08-10.4-13.62-25.34-13.62-44.82V305.12h60.21v219.07c0,5.42,1.1,9.67,3.3,12.74s5.42,4.61,9.67,4.61h14.94v58.01H796.41z"/>
		<path class="st3" d="M979.45,602.85c-33.25,0-58.96-8.9-77.12-26.7c-18.17-17.8-27.25-42.96-27.25-75.48v-25.71
			c0-33.98,8.75-60.28,26.26-78.88c17.5-18.6,42.22-27.91,74.16-27.91c30.03,0,53.32,11.1,69.87,33.29
			c16.55,22.19,24.83,53.43,24.83,93.71v14.94H914.19v-40.65h101.07l-0.66-5.27c-1.61-13.04-5.71-23.18-12.3-30.43
			s-15.53-10.88-26.81-10.88c-14.5,0-25.75,4.32-33.73,12.96c-7.99,8.65-11.98,20.87-11.98,36.69v29c0,15.53,4.36,27.54,13.07,36.04
			c8.71,8.5,20.91,12.74,36.58,12.74c16.84,0,32-5.49,45.48-16.48l39.33,34.94c-11.87,10.84-25.2,19.23-39.99,25.16
			C1009.47,599.88,994.53,602.85,979.45,602.85z"/>
		<path class="st3" d="M1193.02,602.85c-24.47,0-43.36-8.6-56.69-25.82c-13.33-17.21-20-41.49-20-72.84v-36.47
			c0-31.64,6.66-56.14,20-73.5c13.33-17.36,32.22-26.04,56.69-26.04c12.16,0,23.25,3.63,33.29,10.88
			c10.03,7.25,18.13,17.54,24.28,30.87l-4.61,50.54c0-7.76-1.32-14.35-3.96-19.78c-2.64-5.42-6.48-9.56-11.54-12.41
			s-11.17-4.28-18.35-4.28c-11.28,0-20.03,3.85-26.26,11.54c-6.23,7.69-9.34,18.49-9.34,32.41v36.25c0,13.62,3.11,24.17,9.34,31.64
			c6.22,7.47,14.98,11.21,26.26,11.21c7.18,0,13.29-1.39,18.35-4.17c5.05-2.78,8.9-6.81,11.54-12.08s3.96-11.65,3.96-19.12
			l3.08,52.08c-4.69,12.45-11.87,22.08-21.53,28.89C1217.85,599.44,1206.35,602.85,1193.02,602.85z M1203.79,692.28
			c-18.17,0-34.39-3.15-48.67-9.45c-14.28-6.3-25.38-15.31-33.29-27.03l40.43-37.13c10.84,11.57,24.46,17.36,40.87,17.36
			c12.16,0,22.34-3.37,30.54-10.11c8.2-6.74,12.3-16.33,12.3-28.78V371.47h60.21v221.26c0,31.64-8.9,56.14-26.7,73.5
			C1261.68,683.6,1236.45,692.28,1203.79,692.28z"/>
		<path class="st3" d="M1365.51,599.55V371.47h64.6v228.08H1365.51z M1493.83,434.98c-5.86-5.86-14.36-8.79-25.49-8.79
			c-12.16,0-21.57,3.92-28.23,11.76c-6.67,7.84-10,18.71-10,32.63l-4.61-59.33c6.3-13.48,14.43-24.02,24.39-31.64
			c9.96-7.61,21.02-11.43,33.18-11.43c19.04,0,34.35,5.93,45.92,17.8L1493.83,434.98z"/>
		<path class="st3" d="M1619.51,602.85c-24.32,0-42.55-5.79-54.71-17.36c-12.16-11.57-18.24-29.3-18.24-53.17
			c0-22.56,6.77-39.48,20.32-50.76c13.55-11.28,33.87-16.92,60.97-16.92h57.13l3.08,45.92h-59.99c-9.08,0-15.9,1.8-20.43,5.38
			c-4.54,3.59-6.81,9.05-6.81,16.37c0,7.47,2.86,13,8.57,16.59c5.71,3.59,14.35,5.38,25.93,5.38c15.96,0,27.91-1.83,35.82-5.49
			c7.91-3.66,11.87-9.37,11.87-17.14l4.61,33.18c-0.88,8.65-4.76,15.79-11.65,21.42c-6.89,5.64-15.38,9.82-25.49,12.52
			C1640.38,601.49,1630.06,602.85,1619.51,602.85z M1683.01,599.55V454.97c0-10.55-3.52-18.68-10.55-24.39s-16.99-8.57-29.88-8.57
			c-18.17,0-33.99,5.27-47.46,15.82l-37.35-36.69c8.93-10.4,20.91-18.49,35.93-24.28c15.01-5.79,31.6-8.68,49.77-8.68
			c30.03,0,53.25,7.4,69.65,22.19c16.4,14.8,24.61,35.67,24.61,62.62v146.56H1683.01z"/>
		<path class="st3" d="M1779.47,422.89v-51.42h111.62v51.42H1779.47z M1860.77,599.55c-20.36,0-35.08-5.2-44.17-15.6
			c-9.08-10.4-13.62-25.34-13.62-44.82V305.12h60.21v219.07c0,5.42,1.1,9.67,3.3,12.74s5.42,4.61,9.67,4.61h14.94v58.01H1860.77z"/>
		<path class="st3" d="M1940.53,340.27v-60.21h60.21v60.21H1940.53z M1940.53,599.55V371.47h60.21v228.08H1940.53z"/>
		<path class="st3" d="M2148.61,602.85c-31.35,0-55.59-8.68-72.73-26.04c-17.14-17.36-25.71-41.78-25.71-73.28V466.4
			c0-31.2,8.57-55.37,25.71-72.51s41.38-25.71,72.73-25.71c31.35,0,55.59,8.57,72.73,25.71s25.71,41.31,25.71,72.51v37.79
			c0,31.35-8.57,55.63-25.71,72.84C2204.2,594.24,2179.96,602.85,2148.61,602.85z M2148.39,544.84c12.16,0,21.61-3.55,28.35-10.66
			c6.74-7.1,10.11-17.1,10.11-29.99V466.4c0-12.74-3.37-22.63-10.11-29.66c-6.74-7.03-16.19-10.55-28.35-10.55
			c-12.16,0-21.53,3.52-28.13,10.55s-9.89,16.92-9.89,29.66v37.79c0,12.89,3.29,22.89,9.89,29.99
			C2126.86,541.29,2136.23,544.84,2148.39,544.84z"/>
		<path class="st3" d="M2301.98,599.55V371.47h60.21v228.08H2301.98z M2433.82,599.55V461.34c0-11.28-3.22-19.96-9.67-26.04
			c-6.45-6.08-15.46-9.12-27.03-9.12c-11.13,0-19.74,3.11-25.82,9.34c-6.08,6.23-9.12,14.98-9.12,26.26l-4.61-50.54
			c6.59-13.77,14.61-24.39,24.06-31.86c9.45-7.47,21.72-11.21,36.8-11.21c24.02,0,42.63,8.1,55.81,24.28
			c13.18,16.19,19.78,39.08,19.78,68.66v138.43H2433.82z"/>
	</g>
</g>
<g>
	<g>
		<path class="st4" d="M980.12,869.61V790.1H988v79.52H980.12z M985.86,838.77v-7.33h25.43c4.7,0,8.49-1.55,11.35-4.65
			c2.86-3.1,4.29-7.2,4.29-12.3c0-5.14-1.43-9.27-4.29-12.39c-2.86-3.12-6.64-4.68-11.35-4.68h-25.43v-7.33h25.05
			c4.78,0,8.96,1.01,12.55,3.04c3.59,2.02,6.38,4.87,8.37,8.53c1.99,3.66,2.98,7.94,2.98,12.82c0,4.89-0.99,9.15-2.98,12.8
			c-1.99,3.65-4.78,6.47-8.37,8.48c-3.59,2.01-7.77,3.01-12.55,3.01H985.86z"/>
		<path class="st4" d="M1071.72,870.43c-7.91,0-14.04-2.21-18.38-6.64c-4.34-4.43-6.51-10.69-6.51-18.79v-6.4
			c0-8.46,2.08-15,6.23-19.63c4.16-4.63,10.04-6.95,17.66-6.95c7.15,0,12.68,2.28,16.6,6.84c3.92,4.56,5.88,10.99,5.88,19.3v6.51
			h-41.02v-7.11h33.69v-0.55c0-5.61-1.32-9.96-3.96-13.04c-2.64-3.08-6.37-4.62-11.18-4.62c-5.29,0-9.37,1.62-12.25,4.87
			c-2.88,3.25-4.32,7.84-4.32,13.78v7.22c0,5.69,1.53,10.09,4.59,13.21s7.38,4.68,12.96,4.68c5.5,0,10.39-2.1,14.66-6.29l5.36,5.14
			c-2.81,2.7-5.96,4.79-9.46,6.26S1075.26,870.43,1071.72,870.43z"/>
		<path class="st4" d="M1130.29,870.43c-7.44,0-13.2-2.16-17.28-6.48c-4.08-4.32-6.13-10.4-6.13-18.24v-9.24
			c0-7.77,2.04-13.78,6.13-18.05c4.08-4.27,9.84-6.4,17.28-6.4s13.2,2.13,17.28,6.4c4.08,4.27,6.13,10.28,6.13,18.05v9.41
			c0,7.8-2.04,13.85-6.13,18.13C1143.49,868.29,1137.73,870.43,1130.29,870.43z M1130.24,863.11c4.96,0,8.8-1.5,11.51-4.51
			c2.72-3.01,4.07-7.25,4.07-12.71v-9.41c0-5.43-1.36-9.64-4.07-12.63c-2.72-2.99-6.55-4.48-11.51-4.48c-4.92,0-8.73,1.5-11.43,4.48
			c-2.7,2.99-4.05,7.2-4.05,12.63v9.41c0,5.47,1.35,9.71,4.05,12.71C1121.51,861.6,1125.32,863.11,1130.24,863.11z"/>
		<path class="st4" d="M1169.56,892.69v-79.84h7.88v79.84H1169.56z M1194.99,870.43c-4.34,0-8.1-0.71-11.29-2.13
			c-3.19-1.42-5.53-3.96-7.03-7.6l0.77-11.87c0,2.41,0.56,4.75,1.7,7.03c1.13,2.28,2.77,4.15,4.92,5.61
			c2.15,1.46,4.76,2.19,7.82,2.19c4.74,0,8.4-1.41,10.99-4.24c2.59-2.83,3.88-6.79,3.88-11.89v-12.3c0-5.21-1.29-9.25-3.88-12.11
			c-2.59-2.86-6.25-4.29-10.99-4.29c-3.06,0-5.67,0.72-7.82,2.16c-2.15,1.44-3.79,3.27-4.92,5.5c-1.13,2.22-1.7,4.52-1.7,6.89
			l-1.15-10.94c2.04-3.86,4.74-6.56,8.09-8.09c3.35-1.53,7.07-2.3,11.16-2.3c6.09,0,10.79,2.01,14.11,6.04
			c3.32,4.03,4.98,9.73,4.98,17.09v12.36c0,7.29-1.71,12.93-5.14,16.93C1206.05,868.44,1201.22,870.43,1194.99,870.43z"/>
		<path class="st4" d="M1238.35,790.1v64.59c0,2.41,0.58,4.28,1.75,5.61c1.17,1.33,2.83,2,4.98,2h5.25v7.33h-6.56
			c-4.19,0-7.46-1.31-9.79-3.94c-2.33-2.63-3.5-6.33-3.5-11.1V790.1H1238.35z"/>
		<path class="st4" d="M1286.7,870.43c-7.91,0-14.04-2.21-18.38-6.64c-4.34-4.43-6.51-10.69-6.51-18.79v-6.4
			c0-8.46,2.08-15,6.23-19.63c4.16-4.63,10.04-6.95,17.66-6.95c7.15,0,12.68,2.28,16.6,6.84c3.92,4.56,5.88,10.99,5.88,19.3v6.51
			h-41.02v-7.11h33.69v-0.55c0-5.61-1.32-9.96-3.96-13.04c-2.64-3.08-6.37-4.62-11.18-4.62c-5.29,0-9.37,1.62-12.25,4.87
			c-2.88,3.25-4.32,7.84-4.32,13.78v7.22c0,5.69,1.53,10.09,4.59,13.21s7.38,4.68,12.96,4.68c5.5,0,10.39-2.1,14.66-6.29l5.36,5.14
			c-2.81,2.7-5.96,4.79-9.46,6.26S1290.23,870.43,1286.7,870.43z"/>
		<path class="st4" d="M1370.04,870.43c-5.94,0-10.99-1.15-15.15-3.45s-7.33-5.62-9.52-9.98c-2.19-4.36-3.28-9.65-3.28-15.89v-22.53
			c0-6.23,1.09-11.53,3.28-15.89c2.19-4.36,5.36-7.68,9.52-9.98s9.21-3.45,15.15-3.45c5.94,0,10.99,1.15,15.15,3.45
			s7.33,5.62,9.52,9.98c2.19,4.36,3.28,9.65,3.28,15.89v22.53c0,6.23-1.09,11.53-3.28,15.89c-2.19,4.36-5.36,7.68-9.52,9.98
			S1375.98,870.43,1370.04,870.43z M1370.04,863.11c6.38,0,11.32-1.89,14.82-5.66s5.25-9.09,5.25-15.94v-23.3
			c0-6.85-1.75-12.17-5.25-15.94s-8.44-5.66-14.82-5.66c-6.38,0-11.32,1.89-14.82,5.66s-5.25,9.09-5.25,15.94v23.3
			c0,6.85,1.75,12.17,5.25,15.94S1363.66,863.11,1370.04,863.11z"/>
		<path class="st4" d="M1434.52,859.39l17.12-46.54h8.37l-22.37,56.77h-6.23l-22.48-56.77h8.37L1434.52,859.39z"/>
		<path class="st4" d="M1494.73,870.43c-7.91,0-14.04-2.21-18.38-6.64c-4.34-4.43-6.51-10.69-6.51-18.79v-6.4
			c0-8.46,2.08-15,6.23-19.63c4.16-4.63,10.04-6.95,17.66-6.95c7.15,0,12.68,2.28,16.6,6.84c3.92,4.56,5.88,10.99,5.88,19.3v6.51
			h-41.02v-7.11h33.69v-0.55c0-5.61-1.32-9.96-3.96-13.04c-2.64-3.08-6.37-4.62-11.18-4.62c-5.29,0-9.37,1.62-12.25,4.87
			c-2.88,3.25-4.32,7.84-4.32,13.78v7.22c0,5.69,1.53,10.09,4.59,13.21s7.38,4.68,12.96,4.68c5.5,0,10.39-2.1,14.66-6.29l5.36,5.14
			c-2.81,2.7-5.96,4.79-9.46,6.26S1498.27,870.43,1494.73,870.43z"/>
		<path class="st4" d="M1531.53,869.61v-56.77h7.88v56.77H1531.53z M1564.95,823.02c-2.37-2.44-5.89-3.66-10.55-3.66
			c-4.78,0-8.47,1.28-11.07,3.83c-2.61,2.55-3.91,6.05-3.91,10.5l-1.15-10.94c2.08-3.35,4.79-5.98,8.15-7.88
			c3.35-1.9,7.05-2.84,11.1-2.84c5.18,0,9.35,1.48,12.52,4.43L1564.95,823.02z"/>
		<path class="st4" d="M1599.57,869.61V790.1h7.88v79.52H1599.57z M1605.31,838.77v-7.33h25.43c4.7,0,8.49-1.55,11.35-4.65
			c2.86-3.1,4.29-7.2,4.29-12.3c0-5.14-1.43-9.27-4.29-12.39c-2.86-3.12-6.64-4.68-11.35-4.68h-25.43v-7.33h25.05
			c4.78,0,8.96,1.01,12.55,3.04c3.59,2.02,6.38,4.87,8.37,8.53c1.99,3.66,2.98,7.94,2.98,12.82c0,4.89-0.99,9.15-2.98,12.8
			c-1.99,3.65-4.78,6.47-8.37,8.48c-3.59,2.01-7.77,3.01-12.55,3.01H1605.31z"/>
		<path class="st4" d="M1667.38,869.61v-56.77h7.88v56.77H1667.38z M1700.79,823.02c-2.37-2.44-5.89-3.66-10.55-3.66
			c-4.78,0-8.47,1.28-11.07,3.83c-2.61,2.55-3.91,6.05-3.91,10.5l-1.15-10.94c2.08-3.35,4.79-5.98,8.15-7.88
			c3.35-1.9,7.05-2.84,11.1-2.84c5.18,0,9.35,1.48,12.52,4.43L1700.79,823.02z"/>
		<path class="st4" d="M1736.94,870.43c-7.44,0-13.2-2.16-17.28-6.48c-4.08-4.32-6.13-10.4-6.13-18.24v-9.24
			c0-7.77,2.04-13.78,6.13-18.05c4.08-4.27,9.84-6.4,17.28-6.4s13.2,2.13,17.28,6.4c4.08,4.27,6.13,10.28,6.13,18.05v9.41
			c0,7.8-2.04,13.85-6.13,18.13C1750.14,868.29,1744.38,870.43,1736.94,870.43z M1736.89,863.11c4.96,0,8.8-1.5,11.51-4.51
			c2.72-3.01,4.07-7.25,4.07-12.71v-9.41c0-5.43-1.36-9.64-4.07-12.63c-2.72-2.99-6.55-4.48-11.51-4.48c-4.92,0-8.73,1.5-11.43,4.48
			c-2.7,2.99-4.05,7.2-4.05,12.63v9.41c0,5.47,1.35,9.71,4.05,12.71C1728.15,861.6,1731.96,863.11,1736.89,863.11z"/>
		<path class="st4" d="M1799.12,870.43c-8.2,0-14.35-2.05-18.43-6.15c-4.08-4.1-6.13-10.27-6.13-18.51v-9.35
			c0-8.13,2.04-14.23,6.13-18.29c4.08-4.06,10.23-6.1,18.43-6.1c4.67,0,8.7,0.76,12.11,2.27c3.41,1.51,6.23,3.78,8.45,6.81
			l-5.85,5.2c-3.86-4.63-8.71-6.95-14.55-6.95c-5.61,0-9.83,1.41-12.63,4.24c-2.81,2.83-4.21,7.1-4.21,12.82v9.35
			c0,5.98,1.4,10.46,4.21,13.43c2.81,2.97,7.02,4.46,12.63,4.46c6.13,0,11.23-2.21,15.31-6.62l5.09,4.48
			c-2.22,2.99-5.05,5.22-8.48,6.7C1807.78,869.7,1803.75,870.43,1799.12,870.43z"/>
		<path class="st4" d="M1854.41,870.43c-7.91,0-14.04-2.21-18.38-6.64c-4.34-4.43-6.51-10.69-6.51-18.79v-6.4
			c0-8.46,2.08-15,6.23-19.63c4.16-4.63,10.04-6.95,17.66-6.95c7.15,0,12.68,2.28,16.6,6.84c3.92,4.56,5.88,10.99,5.88,19.3v6.51
			h-41.02v-7.11h33.69v-0.55c0-5.61-1.32-9.96-3.96-13.04c-2.64-3.08-6.37-4.62-11.18-4.62c-5.29,0-9.37,1.62-12.25,4.87
			c-2.88,3.25-4.32,7.84-4.32,13.78v7.22c0,5.69,1.53,10.09,4.59,13.21s7.38,4.68,12.96,4.68c5.5,0,10.39-2.1,14.66-6.29l5.36,5.14
			c-2.81,2.7-5.96,4.79-9.46,6.26S1857.95,870.43,1854.41,870.43z"/>
		<path class="st4" d="M1908.55,870.43c-4.45,0-8.69-0.72-12.71-2.16c-4.03-1.44-7.48-3.49-10.36-6.15l4.54-5.52
			c6.45,4.74,12.81,7.11,19.09,7.11c5.43,0,9.63-0.93,12.61-2.79c2.97-1.86,4.46-4.48,4.46-7.88c0-2.84-0.9-4.87-2.71-6.07
			s-4.15-1.98-7.03-2.32c-2.88-0.35-5.96-0.67-9.24-0.96c-2.3-0.15-4.58-0.41-6.84-0.79c-2.26-0.38-4.32-1.05-6.18-2
			c-1.86-0.95-3.35-2.35-4.46-4.21c-1.11-1.86-1.67-4.36-1.67-7.49c0-5.47,1.98-9.7,5.93-12.69c3.96-2.99,9.54-4.48,16.76-4.48
			c3.75,0,7.45,0.55,11.07,1.64c3.63,1.09,6.88,2.63,9.76,4.59l-4.54,5.41c-5.54-3.28-10.9-4.92-16.08-4.92
			c-4.96,0-8.8,0.89-11.51,2.68c-2.72,1.79-4.07,4.3-4.07,7.55c0,2.48,0.81,4.26,2.43,5.33c1.62,1.08,3.75,1.78,6.4,2.11
			c2.64,0.33,5.5,0.58,8.56,0.77c2.37,0.15,4.77,0.4,7.19,0.77c2.42,0.37,4.66,1.06,6.7,2.08c2.04,1.02,3.68,2.56,4.92,4.62
			c1.24,2.06,1.86,4.86,1.86,8.39c0,5.51-2.17,9.78-6.51,12.82C1922.59,868.91,1916.46,870.43,1908.55,870.43z"/>
		<path class="st4" d="M1962.8,870.43c-4.45,0-8.69-0.72-12.71-2.16c-4.03-1.44-7.48-3.49-10.36-6.15l4.54-5.52
			c6.45,4.74,12.81,7.11,19.09,7.11c5.43,0,9.63-0.93,12.61-2.79c2.97-1.86,4.46-4.48,4.46-7.88c0-2.84-0.9-4.87-2.71-6.07
			s-4.15-1.98-7.03-2.32c-2.88-0.35-5.96-0.67-9.24-0.96c-2.3-0.15-4.58-0.41-6.84-0.79c-2.26-0.38-4.32-1.05-6.18-2
			c-1.86-0.95-3.35-2.35-4.46-4.21c-1.11-1.86-1.67-4.36-1.67-7.49c0-5.47,1.98-9.7,5.93-12.69c3.96-2.99,9.54-4.48,16.76-4.48
			c3.75,0,7.45,0.55,11.07,1.64c3.63,1.09,6.88,2.63,9.76,4.59l-4.54,5.41c-5.54-3.28-10.9-4.92-16.08-4.92
			c-4.96,0-8.8,0.89-11.51,2.68c-2.72,1.79-4.07,4.3-4.07,7.55c0,2.48,0.81,4.26,2.43,5.33c1.62,1.08,3.75,1.78,6.4,2.11
			c2.64,0.33,5.5,0.58,8.56,0.77c2.37,0.15,4.77,0.4,7.19,0.77c2.42,0.37,4.66,1.06,6.7,2.08c2.04,1.02,3.68,2.56,4.92,4.62
			c1.24,2.06,1.86,4.86,1.86,8.39c0,5.51-2.17,9.78-6.51,12.82C1976.84,868.91,1970.71,870.43,1962.8,870.43z"/>
		<path class="st4" d="M2020.5,797.97v-7.88h7.88v7.88H2020.5z M2020.5,869.61v-56.77h7.88v56.77H2020.5z"/>
		<path class="st4" d="M2046.96,869.61v-56.77h7.88v56.77H2046.96z M2084.7,869.61v-34.56c0-5.03-1.32-8.93-3.96-11.7
			c-2.64-2.77-6.37-4.16-11.18-4.16c-4.67,0-8.29,1.23-10.86,3.69s-3.86,5.95-3.86,10.47l-1.15-10.94c2.11-3.9,4.88-6.63,8.29-8.2
			c3.41-1.57,7.15-2.35,11.24-2.35c6.16,0,10.93,2.01,14.3,6.04c3.37,4.03,5.06,9.73,5.06,17.09v34.62H2084.7z"/>
		<path class="st4" d="M979.03,1004.01v-56.77h7.88v56.77H979.03z M1014.57,1004.01v-34.4c0-5.03-1.19-8.93-3.58-11.7
			c-2.39-2.77-5.79-4.16-10.2-4.16c-4.45,0-7.88,1.25-10.28,3.75c-2.41,2.5-3.61,6.03-3.61,10.58l-1.15-10.94
			c1.97-3.97,4.53-6.75,7.68-8.34c3.15-1.59,6.64-2.38,10.47-2.38c5.91,0,10.47,2.01,13.7,6.04c3.23,4.03,4.84,9.73,4.84,17.09
			v34.45H1014.57z M1050.12,1004.01v-34.4c0-5.03-1.2-8.93-3.61-11.7c-2.41-2.77-5.8-4.16-10.17-4.16c-4.41,0-7.83,1.35-10.25,4.05
			c-2.42,2.7-3.64,6.49-3.64,11.38l-3.34-8.2c1.79-4.63,4.29-8.21,7.52-10.75c3.23-2.53,7.15-3.8,11.79-3.8
			c6.23,0,11.06,2.01,14.46,6.04c3.41,4.03,5.11,9.73,5.11,17.09v34.45H1050.12z"/>
		<path class="st4" d="M1096.71,1004.83c-7.44,0-13.2-2.16-17.28-6.48c-4.08-4.32-6.13-10.4-6.13-18.24v-9.24
			c0-7.77,2.04-13.78,6.13-18.05c4.08-4.27,9.84-6.4,17.28-6.4s13.2,2.13,17.28,6.4c4.08,4.27,6.13,10.28,6.13,18.05v9.41
			c0,7.8-2.04,13.85-6.13,18.13C1109.91,1002.69,1104.15,1004.83,1096.71,1004.83z M1096.66,997.51c4.96,0,8.8-1.5,11.51-4.51
			c2.72-3.01,4.07-7.25,4.07-12.71v-9.41c0-5.43-1.36-9.64-4.07-12.63c-2.72-2.99-6.55-4.48-11.51-4.48c-4.92,0-8.73,1.5-11.43,4.48
			c-2.7,2.99-4.05,7.2-4.05,12.63v9.41c0,5.47,1.35,9.71,4.05,12.71C1087.93,996,1091.74,997.51,1096.66,997.51z"/>
		<path class="st4" d="M1153.97,1004.83c-6.23,0-11.07-2-14.49-5.99c-3.43-3.99-5.14-9.63-5.14-16.93v-12.36
			c0-7.36,1.66-13.06,4.98-17.09c3.32-4.03,8.02-6.04,14.11-6.04c4.08,0,7.8,0.77,11.16,2.3c3.35,1.53,6.05,4.23,8.09,8.09
			l-1.15,10.94c0-2.44-0.57-4.77-1.7-6.97c-1.13-2.21-2.77-4.02-4.92-5.44c-2.15-1.42-4.76-2.13-7.82-2.13
			c-4.74,0-8.4,1.43-10.99,4.29c-2.59,2.86-3.88,6.9-3.88,12.11v12.3c0,5.1,1.29,9.07,3.88,11.89c2.59,2.83,6.25,4.24,10.99,4.24
			c3.06,0,5.67-0.73,7.82-2.19c2.15-1.46,3.79-3.33,4.92-5.61c1.13-2.28,1.7-4.62,1.7-7.03l0.77,11.87c-1.5,3.65-3.84,6.18-7.03,7.6
			C1162.07,1004.12,1158.31,1004.83,1153.97,1004.83z M1171.53,1004.01V924.5h7.88v79.52H1171.53z"/>
		<path class="st4" d="M1220.69,1004.83c-7.91,0-14.04-2.21-18.38-6.64c-4.34-4.43-6.51-10.69-6.51-18.79v-6.4
			c0-8.46,2.08-15,6.23-19.63c4.16-4.63,10.04-6.95,17.66-6.95c7.15,0,12.68,2.28,16.6,6.84c3.92,4.56,5.88,10.99,5.88,19.3v6.51
			h-41.02v-7.11h33.69v-0.55c0-5.61-1.32-9.96-3.96-13.04c-2.64-3.08-6.37-4.62-11.18-4.62c-5.29,0-9.37,1.62-12.25,4.87
			c-2.88,3.25-4.32,7.84-4.32,13.78v7.22c0,5.69,1.53,10.09,4.59,13.21s7.38,4.68,12.96,4.68c5.5,0,10.39-2.1,14.66-6.29l5.36,5.14
			c-2.81,2.7-5.96,4.79-9.46,6.26S1224.23,1004.83,1220.69,1004.83z"/>
		<path class="st4" d="M1257.5,1004.01v-56.77h7.88v56.77H1257.5z M1290.91,957.42c-2.37-2.44-5.89-3.66-10.55-3.66
			c-4.78,0-8.47,1.28-11.07,3.83c-2.61,2.55-3.91,6.05-3.91,10.5l-1.15-10.94c2.08-3.35,4.79-5.98,8.15-7.88
			c3.35-1.9,7.05-2.84,11.1-2.84c5.18,0,9.35,1.48,12.52,4.43L1290.91,957.42z"/>
		<path class="st4" d="M1305.29,1004.01v-56.77h7.88v56.77H1305.29z M1343.03,1004.01v-34.56c0-5.03-1.32-8.93-3.96-11.7
			c-2.64-2.77-6.37-4.16-11.18-4.16c-4.67,0-8.29,1.23-10.86,3.69s-3.86,5.95-3.86,10.47l-1.15-10.94c2.11-3.9,4.88-6.63,8.29-8.2
			c3.41-1.57,7.15-2.35,11.24-2.35c6.16,0,10.93,2.01,14.3,6.04c3.37,4.03,5.06,9.73,5.06,17.09v34.62H1343.03z"/>
		<path class="st4" d="M1404.33,1004.83c-4.45,0-8.69-0.72-12.71-2.16c-4.03-1.44-7.48-3.49-10.36-6.15l4.54-5.52
			c6.45,4.74,12.81,7.11,19.09,7.11c5.43,0,9.63-0.93,12.61-2.79c2.97-1.86,4.46-4.48,4.46-7.88c0-2.84-0.9-4.87-2.71-6.07
			s-4.15-1.98-7.03-2.32c-2.88-0.35-5.96-0.67-9.24-0.96c-2.3-0.15-4.58-0.41-6.84-0.79c-2.26-0.38-4.32-1.05-6.18-2
			c-1.86-0.95-3.35-2.35-4.46-4.21c-1.11-1.86-1.67-4.36-1.67-7.49c0-5.47,1.98-9.7,5.93-12.69c3.96-2.99,9.54-4.48,16.76-4.48
			c3.75,0,7.45,0.55,11.07,1.64c3.63,1.09,6.88,2.63,9.76,4.59l-4.54,5.41c-5.54-3.28-10.9-4.92-16.08-4.92
			c-4.96,0-8.8,0.89-11.51,2.68c-2.72,1.79-4.07,4.3-4.07,7.55c0,2.48,0.81,4.26,2.43,5.33c1.62,1.08,3.75,1.78,6.4,2.11
			c2.64,0.33,5.5,0.58,8.56,0.77c2.37,0.15,4.77,0.4,7.19,0.77c2.42,0.37,4.66,1.06,6.7,2.08c2.04,1.02,3.68,2.56,4.92,4.62
			c1.24,2.06,1.86,4.86,1.86,8.39c0,5.51-2.17,9.78-6.51,12.82C1418.37,1003.31,1412.24,1004.83,1404.33,1004.83z"/>
		<path class="st4" d="M1463.01,1004.83c-7.44,0-13.2-2.16-17.28-6.48c-4.08-4.32-6.13-10.4-6.13-18.24v-9.24
			c0-7.77,2.04-13.78,6.13-18.05c4.08-4.27,9.84-6.4,17.28-6.4s13.2,2.13,17.28,6.4c4.08,4.27,6.13,10.28,6.13,18.05v9.41
			c0,7.8-2.04,13.85-6.13,18.13C1476.21,1002.69,1470.45,1004.83,1463.01,1004.83z M1462.96,997.51c4.96,0,8.8-1.5,11.51-4.51
			c2.72-3.01,4.07-7.25,4.07-12.71v-9.41c0-5.43-1.36-9.64-4.07-12.63c-2.72-2.99-6.55-4.48-11.51-4.48c-4.92,0-8.73,1.5-11.43,4.48
			c-2.7,2.99-4.05,7.2-4.05,12.63v9.41c0,5.47,1.35,9.71,4.05,12.71C1454.22,996,1458.03,997.51,1462.96,997.51z"/>
		<path class="st4" d="M1497.9,954.03v-6.78h28.38v6.78H1497.9z M1503.92,1004.01v-64.48c0-5.03,1.08-8.79,3.25-11.29
			c2.17-2.5,5.44-3.75,9.82-3.75h9.3v7.33h-7.98c-2.19,0-3.82,0.63-4.89,1.89c-1.08,1.26-1.61,3.16-1.61,5.71v64.59H1503.92z"/>
		<path class="st4" d="M1533.39,954.03v-6.78h25.59v6.78H1533.39z M1552.53,1004.01c-4.67,0-8.05-1.29-10.14-3.88
			c-2.1-2.59-3.14-6.31-3.14-11.16v-58.24h7.88v58.35c0,2.41,0.55,4.28,1.64,5.61c1.09,1.33,2.72,2,4.87,2h5.36v7.33H1552.53z"/>
		<path class="st4" d="M1594.42,1004.01h-7.11l-17.94-56.77h8.37l14.16,46.54l15.09-46.54h4.59l15.37,46.54l13.56-46.54h8.37
			l-17.94,56.77h-7.11l-14.55-42.33L1594.42,1004.01z"/>
		<path class="st4" d="M1679.08,1004.83c-6.64,0-11.78-1.53-15.42-4.59c-3.65-3.06-5.47-7.38-5.47-12.96
			c0-5.36,1.68-9.51,5.03-12.44c3.35-2.93,8.06-4.4,14.11-4.4h18.87l0.77,7.33h-19.58c-3.65,0-6.46,0.83-8.45,2.49
			c-1.99,1.66-2.98,4-2.98,7.03c0,3.21,1.25,5.7,3.75,7.46c2.5,1.77,6.02,2.65,10.58,2.65c4.89,0,8.68-0.49,11.38-1.48
			c2.7-0.98,4.05-2.37,4.05-4.16l1.15,7.44c-1.13,1.2-2.58,2.22-4.35,3.06c-1.77,0.84-3.79,1.48-6.07,1.91
			C1684.16,1004.62,1681.71,1004.83,1679.08,1004.83z M1695.71,1004.01v-35.98c0-4.59-1.23-8.16-3.69-10.69
			c-2.46-2.53-5.95-3.8-10.47-3.8c-5.69,0-10.63,1.68-14.82,5.03l-5.74-3.94c2.15-2.59,4.99-4.6,8.5-6.04
			c3.52-1.44,7.43-2.16,11.73-2.16c7.11,0,12.61,1.84,16.52,5.52c3.9,3.68,5.85,8.88,5.85,15.59v36.48H1695.71z"/>
		<path class="st4" d="M1720.53,1004.01v-56.77h7.88v56.77H1720.53z M1753.95,957.42c-2.37-2.44-5.89-3.66-10.55-3.66
			c-4.78,0-8.47,1.28-11.07,3.83c-2.61,2.55-3.91,6.05-3.91,10.5l-1.15-10.94c2.08-3.35,4.79-5.98,8.15-7.88
			c3.35-1.9,7.05-2.84,11.1-2.84c5.18,0,9.35,1.48,12.52,4.43L1753.95,957.42z"/>
		<path class="st4" d="M1792.12,1004.83c-7.91,0-14.04-2.21-18.38-6.64c-4.34-4.43-6.51-10.69-6.51-18.79v-6.4
			c0-8.46,2.08-15,6.23-19.63c4.16-4.63,10.04-6.95,17.66-6.95c7.15,0,12.68,2.28,16.6,6.84c3.92,4.56,5.88,10.99,5.88,19.3v6.51
			h-41.02v-7.11h33.69v-0.55c0-5.61-1.32-9.96-3.96-13.04c-2.64-3.08-6.37-4.62-11.18-4.62c-5.29,0-9.37,1.62-12.25,4.87
			c-2.88,3.25-4.32,7.84-4.32,13.78v7.22c0,5.69,1.53,10.09,4.59,13.21s7.38,4.68,12.96,4.68c5.5,0,10.39-2.1,14.66-6.29l5.36,5.14
			c-2.81,2.7-5.96,4.79-9.46,6.26S1795.66,1004.83,1792.12,1004.83z"/>
		<path class="st4" d="M1866.06,1004.83c-6.23,0-11.07-2-14.49-5.99c-3.43-3.99-5.14-9.63-5.14-16.93v-12.36
			c0-7.36,1.66-13.06,4.98-17.09c3.32-4.03,8.02-6.04,14.11-6.04c4.08,0,7.8,0.77,11.16,2.3c3.35,1.53,6.05,4.23,8.09,8.09
			l-1.15,10.94c0-2.44-0.57-4.77-1.7-6.97c-1.13-2.21-2.77-4.02-4.92-5.44c-2.15-1.42-4.76-2.13-7.82-2.13
			c-4.74,0-8.4,1.43-10.99,4.29c-2.59,2.86-3.88,6.9-3.88,12.11v12.3c0,5.1,1.29,9.07,3.88,11.89c2.59,2.83,6.25,4.24,10.99,4.24
			c3.06,0,5.67-0.73,7.82-2.19c2.15-1.46,3.79-3.33,4.92-5.61c1.13-2.28,1.7-4.62,1.7-7.03l0.77,11.87c-1.5,3.65-3.84,6.18-7.03,7.6
			C1874.16,1004.12,1870.4,1004.83,1866.06,1004.83z M1883.61,1004.01V924.5h7.88v79.52H1883.61z"/>
		<path class="st4" d="M1932.78,1004.83c-7.91,0-14.04-2.21-18.38-6.64c-4.34-4.43-6.51-10.69-6.51-18.79v-6.4
			c0-8.46,2.08-15,6.23-19.63c4.16-4.63,10.04-6.95,17.66-6.95c7.15,0,12.68,2.28,16.6,6.84c3.92,4.56,5.88,10.99,5.88,19.3v6.51
			h-41.02v-7.11h33.69v-0.55c0-5.61-1.32-9.96-3.96-13.04c-2.64-3.08-6.37-4.62-11.18-4.62c-5.29,0-9.37,1.62-12.25,4.87
			c-2.88,3.25-4.32,7.84-4.32,13.78v7.22c0,5.69,1.53,10.09,4.59,13.21s7.38,4.68,12.96,4.68c5.5,0,10.39-2.1,14.66-6.29l5.36,5.14
			c-2.81,2.7-5.96,4.79-9.46,6.26S1936.31,1004.83,1932.78,1004.83z"/>
		<path class="st4" d="M1989.16,993.79l17.12-46.54h8.37l-22.37,56.77h-6.23l-22.48-56.77h8.37L1989.16,993.79z"/>
		<path class="st4" d="M2049.37,1004.83c-7.91,0-14.04-2.21-18.38-6.64c-4.34-4.43-6.51-10.69-6.51-18.79v-6.4
			c0-8.46,2.08-15,6.23-19.63c4.16-4.63,10.04-6.95,17.66-6.95c7.15,0,12.68,2.28,16.6,6.84c3.92,4.56,5.88,10.99,5.88,19.3v6.51
			h-41.02v-7.11h33.69v-0.55c0-5.61-1.32-9.96-3.96-13.04c-2.64-3.08-6.37-4.62-11.18-4.62c-5.29,0-9.37,1.62-12.25,4.87
			c-2.88,3.25-4.32,7.84-4.32,13.78v7.22c0,5.69,1.53,10.09,4.59,13.21s7.38,4.68,12.96,4.68c5.5,0,10.39-2.1,14.66-6.29l5.36,5.14
			c-2.81,2.7-5.96,4.79-9.46,6.26S2052.91,1004.83,2049.37,1004.83z"/>
		<path class="st4" d="M2094.05,924.5v64.59c0,2.41,0.58,4.28,1.75,5.61c1.17,1.33,2.83,2,4.98,2h5.25v7.33h-6.56
			c-4.19,0-7.46-1.31-9.79-3.94c-2.33-2.63-3.5-6.33-3.5-11.1V924.5H2094.05z"/>
		<path class="st4" d="M2140.37,1004.83c-7.44,0-13.2-2.16-17.28-6.48c-4.08-4.32-6.13-10.4-6.13-18.24v-9.24
			c0-7.77,2.04-13.78,6.13-18.05c4.08-4.27,9.84-6.4,17.28-6.4s13.2,2.13,17.28,6.4c4.08,4.27,6.13,10.28,6.13,18.05v9.41
			c0,7.8-2.04,13.85-6.13,18.13C2153.57,1002.69,2147.81,1004.83,2140.37,1004.83z M2140.32,997.51c4.96,0,8.8-1.5,11.51-4.51
			c2.72-3.01,4.07-7.25,4.07-12.71v-9.41c0-5.43-1.36-9.64-4.07-12.63c-2.72-2.99-6.55-4.48-11.51-4.48c-4.92,0-8.73,1.5-11.43,4.48
			c-2.7,2.99-4.05,7.2-4.05,12.63v9.41c0,5.47,1.35,9.71,4.05,12.71C2131.58,996,2135.39,997.51,2140.32,997.51z"/>
		<path class="st4" d="M2179.64,1027.09v-79.84h7.88v79.84H2179.64z M2205.07,1004.83c-4.34,0-8.1-0.71-11.29-2.13
			c-3.19-1.42-5.53-3.96-7.03-7.6l0.77-11.87c0,2.41,0.56,4.75,1.7,7.03c1.13,2.28,2.77,4.15,4.92,5.61
			c2.15,1.46,4.76,2.19,7.82,2.19c4.74,0,8.4-1.41,10.99-4.24c2.59-2.83,3.88-6.79,3.88-11.89v-12.3c0-5.21-1.29-9.25-3.88-12.11
			c-2.59-2.86-6.25-4.29-10.99-4.29c-3.06,0-5.67,0.72-7.82,2.16c-2.15,1.44-3.79,3.27-4.92,5.5c-1.13,2.22-1.7,4.52-1.7,6.89
			l-1.15-10.94c2.04-3.86,4.74-6.56,8.09-8.09c3.35-1.53,7.07-2.3,11.16-2.3c6.09,0,10.79,2.01,14.11,6.04
			c3.32,4.03,4.98,9.73,4.98,17.09v12.36c0,7.29-1.71,12.93-5.14,16.93C2216.13,1002.84,2211.3,1004.83,2205.07,1004.83z"/>
		<path class="st4" d="M2240.56,1004.01v-56.77h7.88v56.77H2240.56z M2276.1,1004.01v-34.4c0-5.03-1.19-8.93-3.58-11.7
			c-2.39-2.77-5.79-4.16-10.2-4.16c-4.45,0-7.88,1.25-10.28,3.75c-2.41,2.5-3.61,6.03-3.61,10.58l-1.15-10.94
			c1.97-3.97,4.53-6.75,7.68-8.34c3.15-1.59,6.64-2.38,10.47-2.38c5.91,0,10.47,2.01,13.7,6.04c3.23,4.03,4.84,9.73,4.84,17.09
			v34.45H2276.1z M2311.65,1004.01v-34.4c0-5.03-1.2-8.93-3.61-11.7c-2.41-2.77-5.8-4.16-10.17-4.16c-4.41,0-7.83,1.35-10.25,4.05
			c-2.42,2.7-3.64,6.49-3.64,11.38l-3.34-8.2c1.79-4.63,4.29-8.21,7.52-10.75c3.23-2.53,7.16-3.8,11.79-3.8
			c6.23,0,11.06,2.01,14.46,6.04c3.41,4.03,5.11,9.73,5.11,17.09v34.45H2311.65z"/>
		<path class="st4" d="M2360.27,1004.83c-7.91,0-14.04-2.21-18.38-6.64s-6.51-10.69-6.51-18.79v-6.4c0-8.46,2.08-15,6.23-19.63
			c4.16-4.63,10.04-6.95,17.66-6.95c7.15,0,12.68,2.28,16.6,6.84c3.92,4.56,5.88,10.99,5.88,19.3v6.51h-41.02v-7.11h33.69v-0.55
			c0-5.61-1.32-9.96-3.96-13.04c-2.64-3.08-6.37-4.62-11.18-4.62c-5.29,0-9.37,1.62-12.25,4.87c-2.88,3.25-4.32,7.84-4.32,13.78
			v7.22c0,5.69,1.53,10.09,4.59,13.21s7.38,4.68,12.96,4.68c5.5,0,10.39-2.1,14.66-6.29l5.36,5.14c-2.81,2.7-5.96,4.79-9.46,6.26
			S2363.8,1004.83,2360.27,1004.83z"/>
		<path class="st4" d="M2397.07,1004.01v-56.77h7.88v56.77H2397.07z M2434.81,1004.01v-34.56c0-5.03-1.32-8.93-3.96-11.7
			c-2.64-2.77-6.37-4.16-11.18-4.16c-4.67,0-8.29,1.23-10.86,3.69s-3.86,5.95-3.86,10.47l-1.15-10.94c2.11-3.9,4.88-6.63,8.29-8.2
			c3.41-1.57,7.16-2.35,11.24-2.35c6.16,0,10.93,2.01,14.3,6.04c3.37,4.03,5.06,9.73,5.06,17.09v34.62H2434.81z"/>
		<path class="st4" d="M2455.26,954.03v-6.78h25.59v6.78H2455.26z M2474.4,1004.01c-4.67,0-8.05-1.29-10.14-3.88
			c-2.1-2.59-3.14-6.31-3.14-11.16v-58.24h7.88v58.35c0,2.41,0.55,4.28,1.64,5.61c1.09,1.33,2.72,2,4.87,2h5.36v7.33H2474.4z"/>
	</g>
</g>
</svg>
