<?xml version="1.0" encoding="utf-8"?>
<!-- Generator: Adobe Illustrator 23.1.0, SVG Export Plug-In . SVG Version: 6.00 Build 0)  -->
<svg version="1.1" id="Ebene_1" xmlns="http://www.w3.org/2000/svg" xmlns:xlink="http://www.w3.org/1999/xlink" x="0px" y="0px"
	 width="1283.5px" height="1204.5px" viewBox="0 0 1283.5 1204.5" style="enable-background:new 0 0 1283.5 1204.5;"
	 xml:space="preserve">
<style type="text/css">
	.st0{opacity:0.54;fill:#E9F91C;}
	.st1{opacity:0.58;fill:#48FF96;}
	.st2{opacity:0.22;fill:#3E5FFF;stroke:#727272;stroke-miterlimit:10;}
	.st3{fill:#48FF96;}
	.st4{fill:#FFD517;}
	.st5{fill:#210B20;}
	.st6{opacity:0.17;fill:none;stroke:#353535;stroke-width:10;stroke-miterlimit:10;}
	.st7{fill:#EAEAEA;}
	.st8{fill:#55E574;}
	.st9{fill:#B7B7B7;}
	.st10{fill:#1081E0;stroke:#161616;stroke-width:10.2307;stroke-miterlimit:10;}
	.st11{fill:#FFFFFF;}
	.st12{fill:#D75A4A;}
</style>
<circle class="st0" cx="643.5" cy="350" r="350"/>
<circle class="st1" cx="933.5" cy="854" r="350"/>
<circle class="st2" cx="350.5" cy="854" r="350"/>
<path class="st3" d="M619.32,698.96c7.92,0.54,15.92,0.82,23.98,0.82c137.72,0,256.85-79.54,313.98-195.19
	c-7.92-0.54-15.92-0.82-23.98-0.82C795.58,503.78,676.45,583.32,619.32,698.96z"/>
<path class="st4" d="M696.11,367.58c-13.85,13.85-12.12,41.81-12.12,41.81h-70.26c0,0,1.48-27.96-12.12-41.81
	c-15.09-13.36-24.74-32.66-24.74-54.18c0-39.58,32.16-71.75,71.75-71.75s71.75,32.16,71.75,71.75
	C720.36,334.92,710.95,354.22,696.11,367.58L696.11,367.58z"/>
<g>
	<path class="st5" d="M699.82,370.05c16.08-14.6,25.23-35.13,25.23-56.65c0-42.06-34.39-76.45-76.45-76.45s-76.45,34.39-76.45,76.45
		c0,22.02,9.65,43.05,25.98,57.4c12.12,12.12,10.89,37.85,10.89,38.1c0,1.24,0.49,2.47,1.24,3.46c0.99,0.99,2.23,1.48,3.46,1.48
		h70.01c1.24,0,2.47-0.49,3.46-1.48c0.99-0.99,1.24-2.23,1.24-3.46c0-0.25-1.24-25.98,10.89-38.1
		C699.57,370.55,699.82,370.3,699.82,370.05z M692.89,363.87c-0.49,0.25-0.74,0.74-0.99,1.24c-10.89,11.63-12.62,30.68-12.86,39.58
		h-60.61c-0.25-9.15-2.23-28.95-13.85-40.57c-14.6-12.86-23.01-31.17-23.01-50.47c0-37.11,30.18-67.05,67.05-67.05
		c37.11,0,67.05,30.18,67.05,67.05C715.66,332.69,707.49,351.25,692.89,363.87z"/>
	<path class="st5" d="M648.61,256.74c-2.47,0-4.7,1.98-4.7,4.7c0,2.47,1.98,4.7,4.7,4.7c27.71,0,50.22,22.51,50.22,50.22
		c0,2.47,1.98,4.7,4.7,4.7c2.47,0,4.7-1.98,4.7-4.7C708.23,283.46,681.51,256.74,648.61,256.74z"/>
	<path class="st5" d="M690.67,431.41c0-6.43-5.2-11.38-11.38-11.38h-61.11c-6.43,0-11.38,5.2-11.38,11.38
		c0,6.43,5.2,11.38,11.38,11.38h60.86C685.47,442.79,690.67,437.84,690.67,431.41z M679.04,433.39h-60.86
		c-1.24,0-1.98-0.99-1.98-1.98c0-1.24,0.99-1.98,1.98-1.98h60.86c1.24,0,1.98,0.99,1.98,1.98
		C681.27,432.64,680.28,433.39,679.04,433.39z"/>
	<path class="st5" d="M670.13,447.73h-42.8c-6.43,0-11.38,5.2-11.38,11.38c0,6.43,5.2,11.38,11.38,11.38h42.8
		c6.43,0,11.38-5.2,11.38-11.38S676.32,447.73,670.13,447.73z M670.13,461.09h-42.8c-1.24,0-1.98-0.99-1.98-1.98
		c0-1.24,0.99-1.98,1.98-1.98h42.8c1.24,0,1.98,0.99,1.98,1.98C672.11,460.35,671.37,461.09,670.13,461.09z"/>
	<path class="st5" d="M653.31,209.49v-31.67c0-2.47-1.98-4.7-4.7-4.7c-2.47,0-4.7,1.98-4.7,4.7v31.91c0,2.47,1.98,4.7,4.7,4.7
		C651.33,214.19,653.31,212.21,653.31,209.49z"/>
	<path class="st5" d="M726.54,196.62c-2.23-1.48-4.95-0.74-6.43,1.24l-17.57,26.47c-1.48,2.23-0.74,4.95,1.24,6.43
		c0.74,0.49,1.73,0.74,2.47,0.74c1.48,0,2.97-0.74,3.96-1.98l17.57-26.47C729.26,201.08,728.52,198.11,726.54,196.62z"/>
	<path class="st5" d="M592.7,230.52c0.74,0,1.73-0.25,2.47-0.74c2.23-1.48,2.72-4.21,1.48-6.43l-17.07-26.72
		c-1.48-2.23-4.21-2.72-6.43-1.48c-2.23,1.48-2.72,4.21-1.48,6.43l17.07,26.72C589.73,229.78,591.21,230.52,592.7,230.52z"/>
	<path class="st5" d="M527.14,252.78l27.96,15.09c0.74,0.49,1.48,0.49,2.23,0.49c1.73,0,3.22-0.99,4.21-2.47
		c1.24-2.23,0.49-5.2-1.98-6.43l-27.96-15.09c-2.23-1.24-5.2-0.49-6.43,1.98C524.17,248.83,524.91,251.55,527.14,252.78z"/>
	<path class="st5" d="M739.9,268.62c0.74,0,1.48-0.25,2.23-0.49l27.96-15.09c2.23-1.24,3.22-3.96,1.98-6.43
		c-1.24-2.23-3.96-3.22-6.43-1.98l-27.96,15.09c-2.23,1.24-3.22,3.96-1.98,6.43C736.44,267.63,738.17,268.62,739.9,268.62z"/>
</g>
<path class="st6" d="M455.73,968.89c53.65,35.75,118.09,56.59,187.41,56.59s133.75-20.84,187.41-56.59"/>
<path class="st6" d="M491.75,384.32c-32.67,16.37-62.33,37.87-87.91,63.45c-61.24,61.24-99.12,145.84-99.12,239.29
	c0,6.61,0.2,13.17,0.57,19.69"/>
<path class="st6" d="M980.98,706.75c0.37-6.52,0.57-13.08,0.57-19.69c0-93.45-37.88-178.05-99.12-239.29
	c-25.78-25.78-55.69-47.41-88.66-63.83"/>
<g id="Programing-2">
	<path class="st7" d="M1041.78,735.5H872.74c-4.45,0-8.05,3.6-8.05,8.05v16.1h185.14v-16.1
		C1049.83,739.1,1046.22,735.5,1041.78,735.5z"/>
	<path class="st8" d="M864.69,759.65v112.69c0,4.45,3.6,8.05,8.05,8.05h169.04c4.45,0,8.05-3.6,8.05-8.05V759.65H864.69z"/>
	<path class="st9" d="M1037.75,912.59H876.76c-4.45,0-8.05,3.6-8.05,8.05v40.25c0,4.45,3.6,8.05,8.05,8.05h160.99
		c4.45,0,8.05-3.6,8.05-8.05v-40.25C1045.8,916.19,1042.2,912.59,1037.75,912.59z"/>
	<path d="M880.79,924.66h8.05v8.05h-8.05V924.66z"/>
	<path d="M896.89,924.66h8.05v8.05h-8.05V924.66z"/>
	<path d="M912.99,924.66h8.05v8.05h-8.05V924.66z"/>
	<path d="M929.08,924.66h8.05v8.05h-8.05V924.66z"/>
	<path d="M945.18,924.66h8.05v8.05h-8.05V924.66z"/>
	<path d="M961.28,924.66h8.05v8.05h-8.05V924.66z"/>
	<path d="M977.38,924.66h8.05v8.05h-8.05V924.66z"/>
	<path d="M993.48,924.66h8.05v8.05h-8.05V924.66z"/>
	<path d="M1009.58,924.66h8.05v8.05h-8.05V924.66z"/>
	<path d="M1025.68,924.66h8.05v8.05h-8.05V924.66z"/>
	<path d="M880.79,936.73h8.05v8.05h-8.05V936.73z"/>
	<path d="M896.89,936.73h8.05v8.05h-8.05V936.73z"/>
	<path d="M912.99,936.73h8.05v8.05h-8.05V936.73z"/>
	<path d="M929.08,936.73h8.05v8.05h-8.05V936.73z"/>
	<path d="M945.18,936.73h8.05v8.05h-8.05V936.73z"/>
	<path d="M961.28,936.73h8.05v8.05h-8.05V936.73z"/>
	<path d="M977.38,936.73h8.05v8.05h-8.05V936.73z"/>
	<path d="M993.48,936.73h8.05v8.05h-8.05V936.73z"/>
	<path d="M1009.58,936.73h8.05v8.05h-8.05V936.73z"/>
	<path d="M1025.68,936.73h8.05v8.05h-8.05V936.73z"/>
	<path d="M896.89,948.81h8.05v8.05h-8.05V948.81z"/>
	<path d="M912.99,948.81h8.05v8.05h-8.05V948.81z"/>
	<path d="M929.08,948.81h56.35v8.05h-56.35V948.81z"/>
	<path d="M993.48,948.81h8.05v8.05h-8.05V948.81z"/>
	<path d="M1009.58,948.81h8.05v8.05h-8.05V948.81z"/>
	<path d="M1025.68,948.81h8.05v8.05h-8.05V948.81z"/>
	<path d="M876.76,743.55h8.05v8.05h-8.05V743.55z"/>
	<path d="M892.86,743.55h8.05v8.05h-8.05V743.55z"/>
	<path d="M908.96,743.55h8.05v8.05h-8.05V743.55z"/>
	<path d="M888.84,783.79c-2.22,0-4.02,1.8-4.02,4.02v76.47c0,2.22,1.8,4.02,4.02,4.02c2.22,0,4.02-1.8,4.02-4.02v-76.47
		C892.86,785.6,891.06,783.79,888.84,783.79z"/>
	<path d="M917.01,799.89c2.22,0,4.03-1.8,4.03-4.02c0-1.35-0.67-2.61-1.79-3.35l-7.07-4.7l7.05-4.7c1.85-1.23,2.35-3.73,1.11-5.58
		c-1.23-1.85-3.73-2.35-5.58-1.11l-12.07,8.05c-1.85,1.23-2.35,3.73-1.12,5.58c0.29,0.44,0.67,0.82,1.12,1.12l12.07,8.05
		C915.43,799.66,916.21,799.9,917.01,799.89L917.01,799.89z"/>
	<path d="M945.86,798.1c1.23,1.85,3.73,2.35,5.58,1.12c0,0,0,0,0,0l12.07-8.05c1.85-1.23,2.35-3.73,1.12-5.58
		c-0.29-0.44-0.67-0.82-1.12-1.12l-12.07-8.05c-1.85-1.23-4.35-0.73-5.58,1.11c-1.23,1.85-0.73,4.35,1.11,5.58l7.06,4.7l-7.05,4.7
		C945.13,793.75,944.63,796.25,945.86,798.1C945.86,798.1,945.86,798.1,945.86,798.1L945.86,798.1z"/>
	<path d="M927.81,803.71c2.11,0.7,4.39-0.44,5.09-2.55l8.05-24.15c0.7-2.11-0.44-4.39-2.55-5.1c-2.11-0.7-4.39,0.44-5.1,2.55l0,0
		l-8.05,24.15C924.55,800.73,925.69,803.01,927.81,803.71C927.81,803.71,927.81,803.71,927.81,803.71z"/>
	<path d="M904.94,811.97h24.15v8.05h-24.15V811.97z"/>
	<path d="M937.13,811.97h8.05v8.05h-8.05V811.97z"/>
	<path d="M921.03,828.07h48.3v8.05h-48.3V828.07z"/>
	<path d="M993.48,828.07h36.22v8.05h-36.22V828.07z"/>
	<path d="M921.03,844.16h8.05v8.05h-8.05V844.16z"/>
	<path d="M937.13,844.16h48.3v8.05h-48.3V844.16z"/>
	<path d="M993.48,844.16h16.1v8.05h-16.1V844.16z"/>
	<path d="M904.94,860.26h24.15v8.05h-24.15V860.26z"/>
	<path d="M937.13,860.26h8.05v8.05h-8.05V860.26z"/>
	<path d="M977.38,828.07h8.05v8.05h-8.05V828.07z"/>
	<path d="M1065.93,799.89h-12.07v-56.35c0-6.67-5.41-12.07-12.07-12.07H872.74c-6.67,0-12.07,5.41-12.07,12.07v128.79
		c0,6.67,5.41,12.07,12.07,12.07h169.04c6.67,0,12.07-5.41,12.07-12.07v-64.4h12.07c2.22,0,4.02,1.8,4.02,4.02v76.47
		c0,2.22-1.8,4.02-4.02,4.02H908.96c-3.48-0.48-7.02,0.35-9.94,2.31c-1.47,1.54-2.24,3.61-2.14,5.74v8.05h-20.12
		c-6.67,0-12.07,5.41-12.07,12.07v40.25c0,6.67,5.41,12.07,12.07,12.07h160.99c6.67,0,12.07-5.41,12.07-12.07v-40.25
		c0-6.67-5.41-12.07-12.07-12.07H904.94v-8.05c0.76-0.09,160.99,0,160.99,0c6.67,0,12.07-5.41,12.07-12.07v-76.47
		C1078,805.3,1072.59,799.89,1065.93,799.89z M872.74,739.52h169.04c2.22,0,4.02,1.8,4.02,4.02v12.07H868.71v-12.07
		C868.71,741.32,870.51,739.52,872.74,739.52z M1041.78,876.36H872.74c-2.22,0-4.02-1.8-4.02-4.02V763.67h177.09v108.67
		C1045.8,874.56,1044,876.36,1041.78,876.36z M1041.78,920.64v40.25c0,2.22-1.8,4.02-4.02,4.02H876.76c-2.22,0-4.02-1.8-4.02-4.02
		v-40.25c0-2.22,1.8-4.02,4.02-4.02h160.99C1039.98,916.61,1041.78,918.41,1041.78,920.64z"/>
</g>
<circle class="st10" cx="337.5" cy="864.11" r="127.5"/>
<polygon class="st11" points="269.97,931.82 314.87,841.57 360.04,886.57 "/>
<polygon class="st12" points="405.12,796.5 314.96,841.57 360.04,886.65 "/>
</svg>
