<?xml version="1.0" encoding="utf-8"?>
<!-- Generator: Adobe Illustrator 23.1.0, SVG Export Plug-In . SVG Version: 6.00 Build 0)  -->
<svg version="1.1" id="Ebene_1" xmlns="http://www.w3.org/2000/svg" xmlns:xlink="http://www.w3.org/1999/xlink" x="0px" y="0px"
	 width="2899.5px" height="1204.5px" viewBox="0 0 2899.5 1204.5" style="enable-background:new 0 0 2899.5 1204.5;"
	 xml:space="preserve">
<style type="text/css">
	.st0{opacity:0.54;fill:#E9F91C;}
	.st1{opacity:0.58;fill:#48FF96;}
	.st2{opacity:0.22;fill:#3E5FFF;stroke:#727272;stroke-miterlimit:10;}
	.st3{fill:#444444;}
	.st4{fill:#4F4F4F;}
</style>
<circle class="st0" cx="397" cy="378.5" r="350"/>
<circle class="st1" cx="647" cy="823.5" r="350"/>
<circle class="st2" cx="936.5" cy="399" r="350"/>
<g>
	<g>
		<path class="st3" d="M466.8,308.57v319.48h-62.4V308.57H466.8z"/>
		<path class="st3" d="M528.33,628.05V399.97h60.21v228.08H528.33z M660.16,628.05V489.84c0-11.28-3.22-19.96-9.67-26.04
			c-6.45-6.08-15.46-9.12-27.03-9.12c-11.13,0-19.74,3.11-25.82,9.34c-6.08,6.23-9.12,14.98-9.12,26.26l-4.61-50.54
			c6.59-13.77,14.61-24.39,24.06-31.86s21.72-11.21,36.8-11.21c24.02,0,42.63,8.1,55.81,24.28c13.18,16.19,19.78,39.08,19.78,68.66
			v138.43H660.16z"/>
		<path class="st3" d="M762.11,451.39v-51.42h111.62v51.42H762.11z M843.41,628.05c-20.36,0-35.08-5.2-44.17-15.6
			c-9.08-10.4-13.62-25.34-13.62-44.82V333.62h60.21v219.07c0,5.42,1.1,9.67,3.3,12.74s5.42,4.61,9.67,4.61h14.94v58.01H843.41z"/>
		<path class="st3" d="M1026.45,631.35c-33.25,0-58.96-8.9-77.12-26.7c-18.17-17.8-27.25-42.96-27.25-75.48v-25.71
			c0-33.98,8.75-60.28,26.26-78.88c17.5-18.6,42.22-27.91,74.16-27.91c30.03,0,53.32,11.1,69.87,33.29
			c16.55,22.19,24.83,53.43,24.83,93.71v14.94H961.19v-40.65h101.07l-0.66-5.27c-1.61-13.04-5.71-23.18-12.3-30.43
			s-15.53-10.88-26.81-10.88c-14.5,0-25.75,4.32-33.73,12.96c-7.99,8.65-11.98,20.87-11.98,36.69v29c0,15.53,4.36,27.54,13.07,36.04
			c8.71,8.5,20.91,12.74,36.58,12.74c16.84,0,32-5.49,45.48-16.48l39.33,34.94c-11.87,10.84-25.2,19.23-39.99,25.16
			C1056.47,628.38,1041.53,631.35,1026.45,631.35z"/>
		<path class="st3" d="M1240.02,631.35c-24.47,0-43.36-8.6-56.69-25.82c-13.33-17.21-20-41.49-20-72.84v-36.47
			c0-31.64,6.66-56.14,20-73.5c13.33-17.36,32.22-26.04,56.69-26.04c12.16,0,23.25,3.63,33.29,10.88
			c10.03,7.25,18.13,17.54,24.28,30.87l-4.61,50.54c0-7.76-1.32-14.35-3.96-19.78c-2.64-5.42-6.48-9.56-11.54-12.41
			s-11.17-4.28-18.35-4.28c-11.28,0-20.03,3.85-26.26,11.54c-6.23,7.69-9.34,18.49-9.34,32.41v36.25c0,13.62,3.11,24.17,9.34,31.64
			c6.22,7.47,14.98,11.21,26.26,11.21c7.18,0,13.29-1.39,18.35-4.17c5.05-2.78,8.9-6.81,11.54-12.08s3.96-11.65,3.96-19.12
			l3.08,52.08c-4.69,12.45-11.87,22.08-21.53,28.89C1264.85,627.94,1253.35,631.35,1240.02,631.35z M1250.79,720.78
			c-18.17,0-34.39-3.15-48.67-9.45c-14.28-6.3-25.38-15.31-33.29-27.03l40.43-37.13c10.84,11.57,24.46,17.36,40.87,17.36
			c12.16,0,22.34-3.37,30.54-10.11c8.2-6.74,12.3-16.33,12.3-28.78V399.97h60.21v221.26c0,31.64-8.9,56.14-26.7,73.5
			C1308.68,712.1,1283.45,720.78,1250.79,720.78z"/>
		<path class="st3" d="M1412.51,628.05V399.97h64.6v228.08H1412.51z M1540.83,463.48c-5.86-5.86-14.36-8.79-25.49-8.79
			c-12.16,0-21.57,3.92-28.23,11.76c-6.67,7.84-10,18.71-10,32.63l-4.61-59.33c6.3-13.48,14.43-24.02,24.39-31.64
			c9.96-7.61,21.02-11.43,33.18-11.43c19.04,0,34.35,5.93,45.92,17.8L1540.83,463.48z"/>
		<path class="st3" d="M1666.51,631.35c-24.32,0-42.55-5.79-54.71-17.36c-12.16-11.57-18.24-29.3-18.24-53.17
			c0-22.56,6.77-39.48,20.32-50.76c13.55-11.28,33.87-16.92,60.97-16.92h57.13l3.08,45.92h-59.99c-9.08,0-15.9,1.8-20.43,5.38
			c-4.54,3.59-6.81,9.05-6.81,16.37c0,7.47,2.86,13,8.57,16.59c5.71,3.59,14.35,5.38,25.93,5.38c15.96,0,27.91-1.83,35.82-5.49
			c7.91-3.66,11.87-9.37,11.87-17.14l4.61,33.18c-0.88,8.65-4.76,15.79-11.65,21.42c-6.89,5.64-15.38,9.82-25.49,12.52
			C1687.38,629.99,1677.06,631.35,1666.51,631.35z M1730.01,628.05V483.47c0-10.55-3.52-18.68-10.55-24.39s-16.99-8.57-29.88-8.57
			c-18.17,0-33.99,5.27-47.46,15.82l-37.35-36.69c8.93-10.4,20.91-18.49,35.93-24.28c15.01-5.79,31.6-8.68,49.77-8.68
			c30.03,0,53.25,7.4,69.65,22.19c16.4,14.8,24.61,35.67,24.61,62.62v146.56H1730.01z"/>
		<path class="st3" d="M1826.47,451.39v-51.42h111.62v51.42H1826.47z M1907.77,628.05c-20.36,0-35.08-5.2-44.17-15.6
			c-9.08-10.4-13.62-25.34-13.62-44.82V333.62h60.21v219.07c0,5.42,1.1,9.67,3.3,12.74s5.42,4.61,9.67,4.61h14.94v58.01H1907.77z"/>
		<path class="st3" d="M1987.53,368.77v-60.21h60.21v60.21H1987.53z M1987.53,628.05V399.97h60.21v228.08H1987.53z"/>
		<path class="st3" d="M2195.61,631.35c-31.35,0-55.59-8.68-72.73-26.04c-17.14-17.36-25.71-41.78-25.71-73.28V494.9
			c0-31.2,8.57-55.37,25.71-72.51s41.38-25.71,72.73-25.71c31.35,0,55.59,8.57,72.73,25.71s25.71,41.31,25.71,72.51v37.79
			c0,31.35-8.57,55.63-25.71,72.84C2251.2,622.74,2226.96,631.35,2195.61,631.35z M2195.39,573.34c12.16,0,21.61-3.55,28.35-10.66
			c6.74-7.1,10.11-17.1,10.11-29.99V494.9c0-12.74-3.37-22.63-10.11-29.66c-6.74-7.03-16.19-10.55-28.35-10.55
			c-12.16,0-21.53,3.52-28.13,10.55s-9.89,16.92-9.89,29.66v37.79c0,12.89,3.29,22.89,9.89,29.99
			C2173.86,569.79,2183.23,573.34,2195.39,573.34z"/>
		<path class="st3" d="M2348.98,628.05V399.97h60.21v228.08H2348.98z M2480.82,628.05V489.84c0-11.28-3.22-19.96-9.67-26.04
			c-6.45-6.08-15.46-9.12-27.03-9.12c-11.13,0-19.74,3.11-25.82,9.34c-6.08,6.23-9.12,14.98-9.12,26.26l-4.61-50.54
			c6.59-13.77,14.61-24.39,24.06-31.86c9.45-7.47,21.72-11.21,36.8-11.21c24.02,0,42.63,8.1,55.81,24.28
			c13.18,16.19,19.78,39.08,19.78,68.66v138.43H2480.82z"/>
	</g>
</g>
<g>
	<g>
		<path class="st4" d="M1052.65,841.13v-6.78h25.59v6.78H1052.65z M1071.79,891.11c-4.67,0-8.05-1.29-10.14-3.88
			c-2.1-2.59-3.14-6.31-3.14-11.16v-58.24h7.88v58.35c0,2.41,0.55,4.28,1.64,5.61c1.09,1.33,2.72,2,4.87,2h5.36v7.33H1071.79z"/>
		<path class="st4" d="M1093.56,891.11V811.6h7.88v79.52H1093.56z M1131.29,891.11v-34.56c0-5.03-1.32-8.93-3.96-11.7
			c-2.64-2.77-6.37-4.16-11.18-4.16c-4.67,0-8.29,1.23-10.86,3.69s-3.86,5.95-3.86,10.47l-1.15-10.94c2.11-3.9,4.88-6.63,8.29-8.2
			c3.41-1.57,7.15-2.35,11.24-2.35c6.16,0,10.93,2.01,14.3,6.04c3.37,4.03,5.06,9.73,5.06,17.09v34.62H1131.29z"/>
		<path class="st4" d="M1179.91,891.93c-7.91,0-14.04-2.21-18.38-6.64c-4.34-4.43-6.51-10.69-6.51-18.79v-6.4
			c0-8.46,2.08-15,6.23-19.63c4.16-4.63,10.04-6.95,17.66-6.95c7.15,0,12.68,2.28,16.6,6.84c3.92,4.56,5.88,10.99,5.88,19.3v6.51
			h-41.02v-7.11h33.69v-0.55c0-5.61-1.32-9.96-3.96-13.04c-2.64-3.08-6.37-4.62-11.18-4.62c-5.29,0-9.37,1.62-12.25,4.87
			c-2.88,3.25-4.32,7.84-4.32,13.78v7.22c0,5.69,1.53,10.09,4.59,13.21s7.38,4.68,12.96,4.68c5.5,0,10.39-2.1,14.66-6.29l5.36,5.14
			c-2.81,2.7-5.96,4.79-9.46,6.26S1183.45,891.93,1179.91,891.93z"/>
		<path class="st4" d="M1235.85,891.11v-56.77h7.88v56.77H1235.85z M1273.59,891.11v-34.56c0-5.03-1.32-8.93-3.96-11.7
			c-2.64-2.77-6.37-4.16-11.18-4.16c-4.67,0-8.29,1.23-10.86,3.69s-3.86,5.95-3.86,10.47l-1.15-10.94c2.11-3.9,4.88-6.63,8.29-8.2
			c3.41-1.57,7.15-2.35,11.24-2.35c6.16,0,10.93,2.01,14.3,6.04c3.37,4.03,5.06,9.73,5.06,17.09v34.62H1273.59z"/>
		<path class="st4" d="M1322.21,891.93c-7.91,0-14.04-2.21-18.38-6.64c-4.34-4.43-6.51-10.69-6.51-18.79v-6.4
			c0-8.46,2.08-15,6.23-19.63c4.16-4.63,10.04-6.95,17.66-6.95c7.15,0,12.68,2.28,16.6,6.84c3.92,4.56,5.88,10.99,5.88,19.3v6.51
			h-41.02v-7.11h33.69v-0.55c0-5.61-1.32-9.96-3.96-13.04c-2.64-3.08-6.37-4.62-11.18-4.62c-5.29,0-9.37,1.62-12.25,4.87
			c-2.88,3.25-4.32,7.84-4.32,13.78v7.22c0,5.69,1.53,10.09,4.59,13.21s7.38,4.68,12.96,4.68c5.5,0,10.39-2.1,14.66-6.29l5.36,5.14
			c-2.81,2.7-5.96,4.79-9.46,6.26S1325.74,891.93,1322.21,891.93z"/>
		<path class="st4" d="M1382.8,891.93c-7.91,0-14.04-2.21-18.38-6.64c-4.34-4.43-6.51-10.69-6.51-18.79v-6.4
			c0-8.46,2.08-15,6.23-19.63c4.16-4.63,10.04-6.95,17.66-6.95c7.15,0,12.68,2.28,16.6,6.84c3.92,4.56,5.88,10.99,5.88,19.3v6.51
			h-41.02v-7.11h33.69v-0.55c0-5.61-1.32-9.96-3.96-13.04c-2.64-3.08-6.37-4.62-11.18-4.62c-5.29,0-9.37,1.62-12.25,4.87
			c-2.88,3.25-4.32,7.84-4.32,13.78v7.22c0,5.69,1.53,10.09,4.59,13.21s7.38,4.68,12.96,4.68c5.5,0,10.39-2.1,14.66-6.29l5.36,5.14
			c-2.81,2.7-5.96,4.79-9.46,6.26S1386.34,891.93,1382.8,891.93z"/>
		<path class="st4" d="M1437.6,891.93c-6.23,0-11.07-2-14.49-5.99c-3.43-3.99-5.14-9.63-5.14-16.93v-12.36
			c0-7.36,1.66-13.06,4.98-17.09c3.32-4.03,8.02-6.04,14.11-6.04c4.08,0,7.8,0.77,11.16,2.3c3.35,1.53,6.05,4.23,8.09,8.09
			l-1.15,10.94c0-2.44-0.57-4.77-1.7-6.97c-1.13-2.21-2.77-4.02-4.92-5.44c-2.15-1.42-4.76-2.13-7.82-2.13
			c-4.74,0-8.4,1.43-10.99,4.29c-2.59,2.86-3.88,6.9-3.88,12.11v12.3c0,5.1,1.29,9.07,3.88,11.89c2.59,2.83,6.25,4.24,10.99,4.24
			c3.06,0,5.67-0.73,7.82-2.19c2.15-1.46,3.79-3.33,4.92-5.61c1.13-2.28,1.7-4.62,1.7-7.03l0.77,11.87c-1.5,3.65-3.84,6.18-7.03,7.6
			C1445.7,891.22,1441.94,891.93,1437.6,891.93z M1455.15,891.11V811.6h7.88v79.52H1455.15z"/>
		<path class="st4" d="M1495.29,841.13v-6.78h28.38v6.78H1495.29z M1501.31,891.11v-64.48c0-5.03,1.08-8.79,3.25-11.29
			c2.17-2.5,5.44-3.75,9.82-3.75h9.3v7.33h-7.98c-2.19,0-3.82,0.63-4.89,1.89c-1.08,1.26-1.61,3.16-1.61,5.71v64.59H1501.31z"/>
		<path class="st4" d="M1556.92,891.93c-7.44,0-13.2-2.16-17.28-6.48c-4.08-4.32-6.13-10.4-6.13-18.24v-9.24
			c0-7.77,2.04-13.78,6.13-18.05c4.08-4.27,9.84-6.4,17.28-6.4s13.2,2.13,17.28,6.4c4.08,4.27,6.13,10.28,6.13,18.05v9.41
			c0,7.8-2.04,13.85-6.13,18.13C1570.12,889.79,1564.36,891.93,1556.92,891.93z M1556.87,884.61c4.96,0,8.8-1.5,11.51-4.51
			c2.72-3.01,4.07-7.25,4.07-12.71v-9.41c0-5.43-1.36-9.64-4.07-12.63c-2.72-2.99-6.55-4.48-11.51-4.48c-4.92,0-8.73,1.5-11.43,4.48
			c-2.7,2.99-4.05,7.2-4.05,12.63v9.41c0,5.47,1.35,9.71,4.05,12.71C1548.14,883.1,1551.95,884.61,1556.87,884.61z"/>
		<path class="st4" d="M1596.19,891.11v-56.77h7.88v56.77H1596.19z M1629.6,844.52c-2.37-2.44-5.89-3.66-10.55-3.66
			c-4.78,0-8.47,1.28-11.07,3.83c-2.61,2.55-3.91,6.05-3.91,10.5l-1.15-10.94c2.08-3.35,4.79-5.98,8.15-7.88
			c3.35-1.9,7.05-2.84,11.1-2.84c5.18,0,9.35,1.48,12.52,4.43L1629.6,844.52z"/>
		<path class="st4" d="M1681.28,891.93c-6.64,0-11.78-1.53-15.42-4.59c-3.65-3.06-5.47-7.38-5.47-12.96c0-5.36,1.68-9.51,5.03-12.44
			c3.35-2.93,8.06-4.4,14.11-4.4h18.87l0.77,7.33h-19.58c-3.65,0-6.46,0.83-8.45,2.49c-1.99,1.66-2.98,4-2.98,7.03
			c0,3.21,1.25,5.7,3.75,7.46c2.5,1.77,6.02,2.65,10.58,2.65c4.89,0,8.68-0.49,11.38-1.48c2.7-0.98,4.05-2.37,4.05-4.16l1.15,7.44
			c-1.13,1.2-2.58,2.22-4.35,3.06c-1.77,0.84-3.79,1.48-6.07,1.91C1686.36,891.72,1683.91,891.93,1681.28,891.93z M1697.91,891.11
			v-35.98c0-4.59-1.23-8.16-3.69-10.69c-2.46-2.53-5.95-3.8-10.47-3.8c-5.69,0-10.63,1.68-14.82,5.03l-5.74-3.94
			c2.15-2.59,4.99-4.6,8.5-6.04c3.52-1.44,7.43-2.16,11.73-2.16c7.11,0,12.61,1.84,16.52,5.52c3.9,3.68,5.85,8.88,5.85,15.59v36.48
			H1697.91z"/>
		<path class="st4" d="M1764.79,891.93c-8.2,0-14.35-2.05-18.43-6.15c-4.08-4.1-6.13-10.27-6.13-18.51v-9.35
			c0-8.13,2.04-14.23,6.13-18.29c4.08-4.06,10.23-6.1,18.43-6.1c4.67,0,8.7,0.76,12.11,2.27c3.41,1.51,6.23,3.78,8.45,6.81
			l-5.85,5.2c-3.86-4.63-8.71-6.95-14.55-6.95c-5.61,0-9.83,1.41-12.63,4.24c-2.81,2.83-4.21,7.1-4.21,12.82v9.35
			c0,5.98,1.4,10.46,4.21,13.43c2.81,2.97,7.02,4.46,12.63,4.46c6.13,0,11.23-2.21,15.31-6.62l5.09,4.48
			c-2.22,2.99-5.05,5.22-8.48,6.7C1773.45,891.2,1769.42,891.93,1764.79,891.93z"/>
		<path class="st4" d="M1818.06,891.93c-7.44,0-13.2-2.16-17.28-6.48c-4.08-4.32-6.13-10.4-6.13-18.24v-9.24
			c0-7.77,2.04-13.78,6.13-18.05c4.08-4.27,9.84-6.4,17.28-6.4s13.2,2.13,17.28,6.4c4.08,4.27,6.13,10.28,6.13,18.05v9.41
			c0,7.8-2.04,13.85-6.13,18.13C1831.26,889.79,1825.5,891.93,1818.06,891.93z M1818,884.61c4.96,0,8.8-1.5,11.51-4.51
			c2.72-3.01,4.07-7.25,4.07-12.71v-9.41c0-5.43-1.36-9.64-4.07-12.63c-2.72-2.99-6.55-4.48-11.51-4.48c-4.92,0-8.73,1.5-11.43,4.48
			c-2.7,2.99-4.05,7.2-4.05,12.63v9.41c0,5.47,1.35,9.71,4.05,12.71C1809.27,883.1,1813.08,884.61,1818,884.61z"/>
		<path class="st4" d="M1857.32,891.11v-56.77h7.88v56.77H1857.32z M1892.87,891.11v-34.4c0-5.03-1.19-8.93-3.58-11.7
			c-2.39-2.77-5.79-4.16-10.2-4.16c-4.45,0-7.88,1.25-10.28,3.75c-2.41,2.5-3.61,6.03-3.61,10.58l-1.15-10.94
			c1.97-3.97,4.53-6.75,7.68-8.34c3.15-1.59,6.64-2.38,10.47-2.38c5.91,0,10.47,2.01,13.7,6.04c3.23,4.03,4.84,9.73,4.84,17.09
			v34.45H1892.87z M1928.42,891.11v-34.4c0-5.03-1.2-8.93-3.61-11.7c-2.41-2.77-5.8-4.16-10.17-4.16c-4.41,0-7.83,1.35-10.25,4.05
			c-2.42,2.7-3.64,6.49-3.64,11.38l-3.34-8.2c1.79-4.63,4.29-8.21,7.52-10.75c3.23-2.53,7.15-3.8,11.79-3.8
			c6.23,0,11.06,2.01,14.46,6.04c3.41,4.03,5.11,9.73,5.11,17.09v34.45H1928.42z"/>
		<path class="st4" d="M1953.25,891.11v-56.77h7.88v56.77H1953.25z M1988.79,891.11v-34.4c0-5.03-1.19-8.93-3.58-11.7
			c-2.39-2.77-5.79-4.16-10.2-4.16c-4.45,0-7.88,1.25-10.28,3.75c-2.41,2.5-3.61,6.03-3.61,10.58l-1.15-10.94
			c1.97-3.97,4.53-6.75,7.68-8.34c3.15-1.59,6.64-2.38,10.47-2.38c5.91,0,10.47,2.01,13.7,6.04c3.23,4.03,4.84,9.73,4.84,17.09
			v34.45H1988.79z M2024.34,891.11v-34.4c0-5.03-1.2-8.93-3.61-11.7c-2.41-2.77-5.8-4.16-10.17-4.16c-4.41,0-7.83,1.35-10.25,4.05
			c-2.42,2.7-3.64,6.49-3.64,11.38l-3.34-8.2c1.79-4.63,4.29-8.21,7.52-10.75c3.23-2.53,7.15-3.8,11.79-3.8
			c6.23,0,11.06,2.01,14.46,6.04c3.41,4.03,5.11,9.73,5.11,17.09v34.45H2024.34z"/>
		<path class="st4" d="M2070.93,891.93c-7.44,0-13.2-2.16-17.28-6.48c-4.08-4.32-6.13-10.4-6.13-18.24v-9.24
			c0-7.77,2.04-13.78,6.13-18.05c4.08-4.27,9.84-6.4,17.28-6.4s13.2,2.13,17.28,6.4c4.08,4.27,6.13,10.28,6.13,18.05v9.41
			c0,7.8-2.04,13.85-6.13,18.13C2084.13,889.79,2078.37,891.93,2070.93,891.93z M2070.88,884.61c4.96,0,8.8-1.5,11.51-4.51
			c2.72-3.01,4.07-7.25,4.07-12.71v-9.41c0-5.43-1.36-9.64-4.07-12.63c-2.72-2.99-6.55-4.48-11.51-4.48c-4.92,0-8.73,1.5-11.43,4.48
			c-2.7,2.99-4.05,7.2-4.05,12.63v9.41c0,5.47,1.35,9.71,4.05,12.71C2062.15,883.1,2065.96,884.61,2070.88,884.61z"/>
		<path class="st4" d="M2110.2,891.11v-56.77h7.88v56.77H2110.2z M2147.93,891.11v-34.56c0-5.03-1.32-8.93-3.96-11.7
			c-2.64-2.77-6.37-4.16-11.18-4.16c-4.67,0-8.29,1.23-10.86,3.69s-3.86,5.95-3.86,10.47l-1.15-10.94c2.11-3.9,4.88-6.63,8.29-8.2
			c3.41-1.57,7.15-2.35,11.24-2.35c6.16,0,10.93,2.01,14.3,6.04c3.37,4.03,5.06,9.73,5.06,17.09v34.62H2147.93z"/>
		<path class="st4" d="M2209.89,891.93c-6.23,0-11.07-2-14.49-5.99c-3.43-3.99-5.14-9.63-5.14-16.93v-12.36
			c0-7.36,1.66-13.06,4.98-17.09c3.32-4.03,8.02-6.04,14.11-6.04c4.08,0,7.8,0.77,11.16,2.3c3.35,1.53,6.05,4.23,8.09,8.09
			l-1.15,10.94c0-2.44-0.57-4.77-1.7-6.97c-1.13-2.21-2.77-4.02-4.92-5.44c-2.15-1.42-4.76-2.13-7.82-2.13
			c-4.74,0-8.4,1.43-10.99,4.29c-2.59,2.86-3.88,6.9-3.88,12.11v12.3c0,5.1,1.29,9.07,3.88,11.89c2.59,2.83,6.25,4.24,10.99,4.24
			c3.06,0,5.67-0.73,7.82-2.19c2.15-1.46,3.79-3.33,4.92-5.61c1.13-2.28,1.7-4.62,1.7-7.03l0.77,11.87c-1.5,3.65-3.84,6.18-7.03,7.6
			C2218,891.22,2214.23,891.93,2209.89,891.93z M2210.93,914.19c-4.3,0-8.13-0.78-11.48-2.35c-3.35-1.57-5.96-3.81-7.82-6.73
			l5.36-4.81c3.65,4.67,8.24,7,13.78,7c5.29,0,9.39-1.47,12.3-4.4c2.92-2.94,4.38-7.06,4.38-12.39v-56.16h7.88v55.07
			c0,7.88-2.12,13.97-6.37,18.29C2224.7,912.03,2218.7,914.19,2210.93,914.19z"/>
		<path class="st4" d="M2252.28,891.11v-56.77h7.88v56.77H2252.28z M2285.69,844.52c-2.37-2.44-5.89-3.66-10.55-3.66
			c-4.78,0-8.47,1.28-11.07,3.83c-2.61,2.55-3.91,6.05-3.91,10.5l-1.15-10.94c2.08-3.35,4.79-5.98,8.15-7.88
			c3.35-1.9,7.05-2.84,11.1-2.84c5.18,0,9.35,1.48,12.52,4.43L2285.69,844.52z"/>
		<path class="st4" d="M2321.84,891.93c-7.44,0-13.2-2.16-17.28-6.48c-4.08-4.32-6.13-10.4-6.13-18.24v-9.24
			c0-7.77,2.04-13.78,6.13-18.05c4.08-4.27,9.84-6.4,17.28-6.4s13.2,2.13,17.28,6.4c4.08,4.27,6.13,10.28,6.13,18.05v9.41
			c0,7.8-2.04,13.85-6.13,18.13C2335.04,889.79,2329.28,891.93,2321.84,891.93z M2321.78,884.61c4.96,0,8.8-1.5,11.51-4.51
			c2.72-3.01,4.07-7.25,4.07-12.71v-9.41c0-5.43-1.36-9.64-4.07-12.63c-2.72-2.99-6.55-4.48-11.51-4.48c-4.92,0-8.73,1.5-11.43,4.48
			c-2.7,2.99-4.05,7.2-4.05,12.63v9.41c0,5.47,1.35,9.71,4.05,12.71C2313.05,883.1,2316.86,884.61,2321.78,884.61z"/>
		<path class="st4" d="M2368.98,834.35v34.51c0,5,1.29,8.87,3.88,11.62c2.59,2.75,6.25,4.13,10.99,4.13c4.7,0,8.34-1.26,10.91-3.77
			s3.86-6.07,3.86-10.66l0.77,11.87c-1.24,2.55-3.41,4.84-6.51,6.86s-7.15,3.04-12.14,3.04c-6.27,0-11.11-2.01-14.52-6.04
			c-3.41-4.03-5.11-9.71-5.11-17.04v-34.51H2368.98z M2398.62,891.11v-56.77h7.82v56.77H2398.62z"/>
		<path class="st4" d="M2423.39,891.11v-56.77h7.88v56.77H2423.39z M2461.13,891.11v-34.56c0-5.03-1.32-8.93-3.96-11.7
			c-2.64-2.77-6.37-4.16-11.18-4.16c-4.67,0-8.29,1.23-10.86,3.69s-3.86,5.95-3.86,10.47l-1.15-10.94c2.11-3.9,4.88-6.63,8.29-8.2
			c3.41-1.57,7.16-2.35,11.24-2.35c6.16,0,10.93,2.01,14.3,6.04c3.37,4.03,5.06,9.73,5.06,17.09v34.62H2461.13z"/>
		<path class="st4" d="M2503.95,891.93c-6.23,0-11.07-2-14.49-5.99s-5.14-9.63-5.14-16.93v-12.36c0-7.36,1.66-13.06,4.98-17.09
			c3.32-4.03,8.02-6.04,14.11-6.04c4.08,0,7.8,0.77,11.16,2.3s6.05,4.23,8.09,8.09l-1.15,10.94c0-2.44-0.57-4.77-1.7-6.97
			c-1.13-2.21-2.77-4.02-4.92-5.44s-4.76-2.13-7.82-2.13c-4.74,0-8.4,1.43-10.99,4.29c-2.59,2.86-3.88,6.9-3.88,12.11v12.3
			c0,5.1,1.29,9.07,3.88,11.89c2.59,2.83,6.25,4.24,10.99,4.24c3.06,0,5.67-0.73,7.82-2.19c2.15-1.46,3.79-3.33,4.92-5.61
			c1.13-2.28,1.7-4.62,1.7-7.03l0.77,11.87c-1.5,3.65-3.84,6.18-7.03,7.6S2508.29,891.93,2503.95,891.93z M2521.5,891.11V811.6h7.88
			v79.52H2521.5z"/>
		<path class="st4" d="M1058.67,953.87V946h7.88v7.88H1058.67z M1058.67,1025.51v-56.77h7.88v56.77H1058.67z"/>
		<path class="st4" d="M1085.14,1025.51v-56.77h7.88v56.77H1085.14z M1122.87,1025.51v-34.56c0-5.03-1.32-8.93-3.96-11.7
			c-2.64-2.77-6.37-4.16-11.18-4.16c-4.67,0-8.29,1.23-10.86,3.69s-3.86,5.95-3.86,10.47l-1.15-10.94c2.11-3.9,4.88-6.63,8.29-8.2
			c3.41-1.57,7.15-2.35,11.24-2.35c6.16,0,10.93,2.01,14.3,6.04c3.37,4.03,5.06,9.73,5.06,17.09v34.62H1122.87z"/>
		<path class="st4" d="M1184.17,1026.33c-4.45,0-8.69-0.72-12.71-2.16c-4.03-1.44-7.48-3.49-10.36-6.15l4.54-5.52
			c6.45,4.74,12.81,7.11,19.09,7.11c5.43,0,9.63-0.93,12.61-2.79c2.97-1.86,4.46-4.48,4.46-7.88c0-2.84-0.9-4.87-2.71-6.07
			s-4.15-1.98-7.03-2.32c-2.88-0.35-5.96-0.67-9.24-0.96c-2.3-0.15-4.58-0.41-6.84-0.79c-2.26-0.38-4.32-1.05-6.18-2
			c-1.86-0.95-3.35-2.35-4.46-4.21c-1.11-1.86-1.67-4.36-1.67-7.49c0-5.47,1.98-9.7,5.93-12.69c3.96-2.99,9.54-4.48,16.76-4.48
			c3.75,0,7.45,0.55,11.07,1.64c3.63,1.09,6.88,2.63,9.76,4.59l-4.54,5.41c-5.54-3.28-10.9-4.92-16.08-4.92
			c-4.96,0-8.8,0.89-11.51,2.68c-2.72,1.79-4.07,4.3-4.07,7.55c0,2.48,0.81,4.26,2.43,5.33c1.62,1.08,3.75,1.78,6.4,2.11
			c2.64,0.33,5.5,0.58,8.56,0.77c2.37,0.15,4.77,0.4,7.19,0.77c2.42,0.37,4.66,1.06,6.7,2.08c2.04,1.02,3.68,2.56,4.92,4.62
			c1.24,2.06,1.86,4.86,1.86,8.39c0,5.51-2.17,9.78-6.51,12.82C1198.21,1024.81,1192.09,1026.33,1184.17,1026.33z"/>
		<path class="st4" d="M1242.85,1026.33c-7.44,0-13.2-2.16-17.28-6.48c-4.08-4.32-6.13-10.4-6.13-18.24v-9.24
			c0-7.77,2.04-13.78,6.13-18.05c4.08-4.27,9.84-6.4,17.28-6.4s13.2,2.13,17.28,6.4c4.08,4.27,6.13,10.28,6.13,18.05v9.41
			c0,7.8-2.04,13.85-6.13,18.13C1256.05,1024.19,1250.29,1026.33,1242.85,1026.33z M1242.8,1019.01c4.96,0,8.8-1.5,11.51-4.51
			c2.72-3.01,4.07-7.25,4.07-12.71v-9.41c0-5.43-1.36-9.64-4.07-12.63c-2.72-2.99-6.55-4.48-11.51-4.48c-4.92,0-8.73,1.5-11.43,4.48
			c-2.7,2.99-4.05,7.2-4.05,12.63v9.41c0,5.47,1.35,9.71,4.05,12.71C1234.07,1017.5,1237.88,1019.01,1242.8,1019.01z"/>
		<path class="st4" d="M1277.75,975.53v-6.78h28.38v6.78H1277.75z M1283.76,1025.51v-64.48c0-5.03,1.08-8.79,3.25-11.29
			c2.17-2.5,5.44-3.75,9.82-3.75h9.3v7.33h-7.98c-2.19,0-3.82,0.63-4.89,1.89c-1.08,1.26-1.61,3.16-1.61,5.71v64.59H1283.76z"/>
		<path class="st4" d="M1313.24,975.53v-6.78h25.59v6.78H1313.24z M1332.38,1025.51c-4.67,0-8.05-1.29-10.14-3.88
			c-2.1-2.59-3.14-6.31-3.14-11.16v-58.24h7.88v58.35c0,2.41,0.55,4.28,1.64,5.61c1.09,1.33,2.72,2,4.87,2h5.36v7.33H1332.38z"/>
		<path class="st4" d="M1374.27,1025.51h-7.11l-17.94-56.77h8.37l14.16,46.54l15.09-46.54h4.59l15.37,46.54l13.56-46.54h8.37
			l-17.94,56.77h-7.11l-14.55-42.33L1374.27,1025.51z"/>
		<path class="st4" d="M1458.92,1026.33c-6.64,0-11.78-1.53-15.42-4.59c-3.65-3.06-5.47-7.38-5.47-12.96
			c0-5.36,1.68-9.51,5.03-12.44c3.35-2.93,8.06-4.4,14.11-4.4h18.87l0.77,7.33h-19.58c-3.65,0-6.46,0.83-8.45,2.49
			c-1.99,1.66-2.98,4-2.98,7.03c0,3.21,1.25,5.7,3.75,7.46c2.5,1.77,6.02,2.65,10.58,2.65c4.89,0,8.68-0.49,11.38-1.48
			c2.7-0.98,4.05-2.37,4.05-4.16l1.15,7.44c-1.13,1.2-2.58,2.22-4.35,3.06c-1.77,0.84-3.79,1.48-6.07,1.91
			C1464,1026.12,1461.55,1026.33,1458.92,1026.33z M1475.55,1025.51v-35.98c0-4.59-1.23-8.16-3.69-10.69
			c-2.46-2.53-5.95-3.8-10.47-3.8c-5.69,0-10.63,1.68-14.82,5.03l-5.74-3.94c2.15-2.59,4.99-4.6,8.5-6.04
			c3.52-1.44,7.43-2.16,11.73-2.16c7.11,0,12.61,1.84,16.52,5.52c3.9,3.68,5.85,8.88,5.85,15.59v36.48H1475.55z"/>
		<path class="st4" d="M1500.38,1025.51v-56.77h7.88v56.77H1500.38z M1533.79,978.92c-2.37-2.44-5.89-3.66-10.55-3.66
			c-4.78,0-8.47,1.28-11.07,3.83c-2.61,2.55-3.91,6.05-3.91,10.5l-1.15-10.94c2.08-3.35,4.79-5.98,8.15-7.88
			c3.35-1.9,7.05-2.84,11.1-2.84c5.18,0,9.35,1.48,12.52,4.43L1533.79,978.92z"/>
		<path class="st4" d="M1571.96,1026.33c-7.91,0-14.04-2.21-18.38-6.64c-4.34-4.43-6.51-10.69-6.51-18.79v-6.4
			c0-8.46,2.08-15,6.23-19.63c4.16-4.63,10.04-6.95,17.66-6.95c7.15,0,12.68,2.28,16.6,6.84c3.92,4.56,5.88,10.99,5.88,19.3v6.51
			h-41.02v-7.11h33.69v-0.55c0-5.61-1.32-9.96-3.96-13.04c-2.64-3.08-6.37-4.62-11.18-4.62c-5.29,0-9.37,1.62-12.25,4.87
			c-2.88,3.25-4.32,7.84-4.32,13.78v7.22c0,5.69,1.53,10.09,4.59,13.21s7.38,4.68,12.96,4.68c5.5,0,10.39-2.1,14.66-6.29l5.36,5.14
			c-2.81,2.7-5.96,4.79-9.46,6.26S1575.5,1026.33,1571.96,1026.33z"/>
		<path class="st4" d="M1645.9,1026.33c-6.23,0-11.07-2-14.49-5.99c-3.43-3.99-5.14-9.63-5.14-16.93v-12.36
			c0-7.36,1.66-13.06,4.98-17.09c3.32-4.03,8.02-6.04,14.11-6.04c4.08,0,7.8,0.77,11.16,2.3c3.35,1.53,6.05,4.23,8.09,8.09
			l-1.15,10.94c0-2.44-0.57-4.77-1.7-6.97c-1.13-2.21-2.77-4.02-4.92-5.44c-2.15-1.42-4.76-2.13-7.82-2.13
			c-4.74,0-8.4,1.43-10.99,4.29c-2.59,2.86-3.88,6.9-3.88,12.11v12.3c0,5.1,1.29,9.07,3.88,11.89c2.59,2.83,6.25,4.24,10.99,4.24
			c3.06,0,5.67-0.73,7.82-2.19c2.15-1.46,3.79-3.33,4.92-5.61c1.13-2.28,1.7-4.62,1.7-7.03l0.77,11.87c-1.5,3.65-3.84,6.18-7.03,7.6
			C1654,1025.62,1650.24,1026.33,1645.9,1026.33z M1663.46,1025.51V946h7.88v79.52H1663.46z"/>
		<path class="st4" d="M1712.62,1026.33c-7.91,0-14.04-2.21-18.38-6.64c-4.34-4.43-6.51-10.69-6.51-18.79v-6.4
			c0-8.46,2.08-15,6.23-19.63c4.16-4.63,10.04-6.95,17.66-6.95c7.15,0,12.68,2.28,16.6,6.84c3.92,4.56,5.88,10.99,5.88,19.3v6.51
			h-41.02v-7.11h33.69v-0.55c0-5.61-1.32-9.96-3.96-13.04c-2.64-3.08-6.37-4.62-11.18-4.62c-5.29,0-9.37,1.62-12.25,4.87
			c-2.88,3.25-4.32,7.84-4.32,13.78v7.22c0,5.69,1.53,10.09,4.59,13.21s7.38,4.68,12.96,4.68c5.5,0,10.39-2.1,14.66-6.29l5.36,5.14
			c-2.81,2.7-5.96,4.79-9.46,6.26S1716.16,1026.33,1712.62,1026.33z"/>
		<path class="st4" d="M1769,1015.29l17.12-46.54h8.37l-22.37,56.77h-6.23l-22.48-56.77h8.37L1769,1015.29z"/>
		<path class="st4" d="M1829.21,1026.33c-7.91,0-14.04-2.21-18.38-6.64c-4.34-4.43-6.51-10.69-6.51-18.79v-6.4
			c0-8.46,2.08-15,6.23-19.63c4.16-4.63,10.04-6.95,17.66-6.95c7.15,0,12.68,2.28,16.6,6.84c3.92,4.56,5.88,10.99,5.88,19.3v6.51
			h-41.02v-7.11h33.69v-0.55c0-5.61-1.32-9.96-3.96-13.04c-2.64-3.08-6.37-4.62-11.18-4.62c-5.29,0-9.37,1.62-12.25,4.87
			c-2.88,3.25-4.32,7.84-4.32,13.78v7.22c0,5.69,1.53,10.09,4.59,13.21s7.38,4.68,12.96,4.68c5.5,0,10.39-2.1,14.66-6.29l5.36,5.14
			c-2.81,2.7-5.96,4.79-9.46,6.26S1832.75,1026.33,1829.21,1026.33z"/>
		<path class="st4" d="M1873.89,946v64.59c0,2.41,0.58,4.28,1.75,5.61c1.17,1.33,2.83,2,4.98,2h5.25v7.33h-6.56
			c-4.19,0-7.46-1.31-9.79-3.94c-2.33-2.63-3.5-6.33-3.5-11.1V946H1873.89z"/>
		<path class="st4" d="M1920.21,1026.33c-7.44,0-13.2-2.16-17.28-6.48c-4.08-4.32-6.13-10.4-6.13-18.24v-9.24
			c0-7.77,2.04-13.78,6.13-18.05c4.08-4.27,9.84-6.4,17.28-6.4s13.2,2.13,17.28,6.4c4.08,4.27,6.13,10.28,6.13,18.05v9.41
			c0,7.8-2.04,13.85-6.13,18.13C1933.41,1024.19,1927.65,1026.33,1920.21,1026.33z M1920.16,1019.01c4.96,0,8.8-1.5,11.51-4.51
			c2.72-3.01,4.07-7.25,4.07-12.71v-9.41c0-5.43-1.36-9.64-4.07-12.63c-2.72-2.99-6.55-4.48-11.51-4.48c-4.92,0-8.73,1.5-11.43,4.48
			c-2.7,2.99-4.05,7.2-4.05,12.63v9.41c0,5.47,1.35,9.71,4.05,12.71C1911.43,1017.5,1915.24,1019.01,1920.16,1019.01z"/>
		<path class="st4" d="M1959.48,1048.59v-79.84h7.88v79.84H1959.48z M1984.91,1026.33c-4.34,0-8.1-0.71-11.29-2.13
			c-3.19-1.42-5.53-3.96-7.03-7.6l0.77-11.87c0,2.41,0.56,4.75,1.7,7.03c1.13,2.28,2.77,4.15,4.92,5.61
			c2.15,1.46,4.76,2.19,7.82,2.19c4.74,0,8.4-1.41,10.99-4.24c2.59-2.83,3.88-6.79,3.88-11.89v-12.3c0-5.21-1.29-9.25-3.88-12.11
			c-2.59-2.86-6.25-4.29-10.99-4.29c-3.06,0-5.67,0.72-7.82,2.16c-2.15,1.44-3.79,3.27-4.92,5.5c-1.13,2.22-1.7,4.52-1.7,6.89
			l-1.15-10.94c2.04-3.86,4.74-6.56,8.09-8.09c3.35-1.53,7.07-2.3,11.16-2.3c6.09,0,10.79,2.01,14.11,6.04
			c3.32,4.03,4.98,9.73,4.98,17.09v12.36c0,7.29-1.71,12.93-5.14,16.93C1995.97,1024.34,1991.14,1026.33,1984.91,1026.33z"/>
		<path class="st4" d="M2020.4,1025.51v-56.77h7.88v56.77H2020.4z M2055.95,1025.51v-34.4c0-5.03-1.19-8.93-3.58-11.7
			c-2.39-2.77-5.79-4.16-10.2-4.16c-4.45,0-7.88,1.25-10.28,3.75c-2.41,2.5-3.61,6.03-3.61,10.58l-1.15-10.94
			c1.97-3.97,4.53-6.75,7.68-8.34c3.15-1.59,6.64-2.38,10.47-2.38c5.91,0,10.47,2.01,13.7,6.04c3.23,4.03,4.84,9.73,4.84,17.09
			v34.45H2055.95z M2091.5,1025.51v-34.4c0-5.03-1.2-8.93-3.61-11.7c-2.41-2.77-5.8-4.16-10.17-4.16c-4.41,0-7.83,1.35-10.25,4.05
			c-2.42,2.7-3.64,6.49-3.64,11.38l-3.34-8.2c1.79-4.63,4.29-8.21,7.52-10.75c3.23-2.53,7.15-3.8,11.79-3.8
			c6.23,0,11.06,2.01,14.46,6.04c3.41,4.03,5.11,9.73,5.11,17.09v34.45H2091.5z"/>
		<path class="st4" d="M2140.11,1026.33c-7.91,0-14.04-2.21-18.38-6.64c-4.34-4.43-6.51-10.69-6.51-18.79v-6.4
			c0-8.46,2.08-15,6.23-19.63c4.16-4.63,10.04-6.95,17.66-6.95c7.15,0,12.68,2.28,16.6,6.84c3.92,4.56,5.88,10.99,5.88,19.3v6.51
			h-41.02v-7.11h33.69v-0.55c0-5.61-1.32-9.96-3.96-13.04c-2.64-3.08-6.37-4.62-11.18-4.62c-5.29,0-9.37,1.62-12.25,4.87
			c-2.88,3.25-4.32,7.84-4.32,13.78v7.22c0,5.69,1.53,10.09,4.59,13.21s7.38,4.68,12.96,4.68c5.5,0,10.39-2.1,14.66-6.29l5.36,5.14
			c-2.81,2.7-5.96,4.79-9.46,6.26S2143.65,1026.33,2140.11,1026.33z"/>
		<path class="st4" d="M2176.92,1025.51v-56.77h7.88v56.77H2176.92z M2214.65,1025.51v-34.56c0-5.03-1.32-8.93-3.96-11.7
			c-2.64-2.77-6.37-4.16-11.18-4.16c-4.67,0-8.29,1.23-10.86,3.69s-3.86,5.95-3.86,10.47l-1.15-10.94c2.11-3.9,4.88-6.63,8.29-8.2
			c3.41-1.57,7.15-2.35,11.24-2.35c6.16,0,10.93,2.01,14.3,6.04c3.37,4.03,5.06,9.73,5.06,17.09v34.62H2214.65z"/>
		<path class="st4" d="M2235.1,975.53v-6.78h25.59v6.78H2235.1z M2254.25,1025.51c-4.67,0-8.05-1.29-10.14-3.88
			c-2.1-2.59-3.14-6.31-3.14-11.16v-58.24h7.88v58.35c0,2.41,0.55,4.28,1.64,5.61c1.09,1.33,2.72,2,4.87,2h5.36v7.33H2254.25z"/>
	</g>
</g>
</svg>
