<?xml version="1.0" encoding="utf-8"?>
<!-- Generator: Adobe Illustrator 23.1.0, SVG Export Plug-In . SVG Version: 6.00 Build 0)  -->
<svg version="1.1" id="Ebene_1" xmlns="http://www.w3.org/2000/svg" xmlns:xlink="http://www.w3.org/1999/xlink" x="0px" y="0px"
	 width="600px" height="68px" viewBox="0 0 600 68" style="enable-background:new 0 0 600 68;" xml:space="preserve">
<style type="text/css">
	.st0{fill:#545454;}
</style>
<g>
	<g>
		<path class="st0" d="M8.55,46.42c-1.65,0-3.15-0.23-4.52-0.7c-1.37-0.47-2.61-1.17-3.71-2.11l1.98-2.44
			c0.86,0.75,1.82,1.31,2.86,1.69c1.04,0.38,2.17,0.56,3.39,0.56c1.65,0,2.92-0.3,3.83-0.91s1.36-1.47,1.36-2.59v-0.02
			c0-0.86-0.23-1.53-0.69-1.98c-0.46-0.46-1.06-0.8-1.8-1.02c-0.75-0.22-1.56-0.41-2.45-0.55c-0.84-0.16-1.7-0.33-2.57-0.53
			c-0.87-0.2-1.67-0.5-2.4-0.92c-0.73-0.42-1.32-1.02-1.77-1.8c-0.45-0.79-0.67-1.85-0.67-3.18v-0.02c0-2.11,0.7-3.75,2.11-4.91
			c1.41-1.16,3.39-1.74,5.95-1.74c1.22,0,2.41,0.2,3.58,0.59c1.17,0.39,2.3,0.99,3.41,1.79l-1.81,2.53
			c-1.72-1.27-3.44-1.91-5.17-1.91c-1.55,0-2.76,0.31-3.62,0.93c-0.86,0.62-1.29,1.5-1.29,2.63v0.02c0,0.85,0.25,1.5,0.75,1.95
			c0.5,0.44,1.15,0.77,1.96,0.99c0.81,0.22,1.67,0.42,2.6,0.61c0.83,0.17,1.67,0.37,2.5,0.6c0.83,0.23,1.59,0.57,2.27,1.02
			c0.68,0.44,1.23,1.05,1.64,1.82c0.41,0.77,0.62,1.78,0.62,3.02v0.03c0,2.09-0.73,3.71-2.19,4.86
			C13.24,45.85,11.19,46.42,8.55,46.42z"/>
		<path class="st0" d="M21.11,52.78V29.97h3.19v22.81H21.11z M28.37,46.42c-1.01,0-1.89-0.24-2.64-0.73s-1.3-1.17-1.66-2.05
			l0.22-3.39c0,0.7,0.13,1.29,0.38,1.78c0.25,0.49,0.61,0.86,1.09,1.13c0.47,0.26,1.05,0.39,1.73,0.39c1.05,0,1.87-0.32,2.45-0.96
			s0.87-1.54,0.87-2.71v-3.52c0-1.19-0.29-2.11-0.87-2.77s-1.39-0.98-2.45-0.98c-0.68,0-1.25,0.13-1.73,0.38
			c-0.47,0.25-0.84,0.62-1.09,1.1s-0.38,1.07-0.38,1.74l-0.33-3.13c0.49-0.95,1.13-1.68,1.92-2.2c0.79-0.52,1.67-0.77,2.64-0.77
			c1.74,0,3.08,0.58,4.03,1.73c0.95,1.15,1.42,2.78,1.42,4.88v3.53c0,2.08-0.49,3.7-1.47,4.84C31.53,45.85,30.15,46.42,28.37,46.42z
			"/>
		<path class="st0" d="M45.31,46.42c-2.26,0-4.01-0.63-5.25-1.88c-1.24-1.25-1.86-3.05-1.86-5.38v-1.83c0-2.42,0.6-4.29,1.79-5.61
			c1.19-1.32,2.87-1.98,5.04-1.98c2.04,0,3.62,0.75,4.74,2.26c1.12,1.51,1.68,3.61,1.68,6.3v1.06H40.51V36.8h7.91
			c-0.09-1.31-0.44-2.34-1.02-3.08c-0.59-0.74-1.38-1.11-2.37-1.11c-1.2,0-2.13,0.4-2.8,1.19c-0.67,0.79-1,1.91-1,3.36v2.06
			c0,1.34,0.35,2.38,1.06,3.09c0.71,0.72,1.71,1.08,3.02,1.08c1.36,0,2.57-0.49,3.63-1.48L51.03,44c-0.8,0.77-1.7,1.37-2.7,1.79
			S46.32,46.42,45.31,46.42z"/>
		<path class="st0" d="M62.37,46.42c-2.23,0-3.96-0.61-5.18-1.84c-1.22-1.23-1.84-2.96-1.84-5.2v-2.67c0-2.22,0.61-3.93,1.84-5.15
			c1.22-1.21,2.95-1.82,5.18-1.82c1.26,0,2.4,0.23,3.43,0.68c1.03,0.45,1.84,1.09,2.45,1.91l-2.3,2.06
			c-0.95-1.08-2.13-1.63-3.53-1.63c-1.23,0-2.18,0.34-2.86,1.03c-0.68,0.69-1.02,1.66-1.02,2.91v2.67c0,1.33,0.34,2.36,1.02,3.09
			c0.68,0.72,1.63,1.09,2.86,1.09c1.43,0,2.6-0.58,3.53-1.73l2.3,2.06c-0.61,0.81-1.43,1.44-2.45,1.88
			C64.77,46.2,63.63,46.42,62.37,46.42z"/>
		<path class="st0" d="M71.37,26.66v-3.19h3.19v3.19H71.37z M71.37,46.19V29.97h3.19v16.22H71.37z"/>
		<path class="st0" d="M84.59,46.42c-1.99,0-3.48-0.41-4.48-1.23c-1-0.82-1.49-2.08-1.49-3.78c0-1.6,0.45-2.81,1.36-3.61
			c0.91-0.8,2.28-1.2,4.11-1.2h4.61l0.22,2.56h-4.81c-0.82,0-1.44,0.19-1.86,0.55c-0.42,0.37-0.63,0.94-0.63,1.7
			c0,0.83,0.28,1.45,0.83,1.84c0.55,0.39,1.38,0.59,2.48,0.59c1.21,0,2.11-0.13,2.72-0.39c0.6-0.26,0.91-0.67,0.91-1.22l0.33,2.28
			c-0.28,0.44-0.63,0.8-1.05,1.08c-0.42,0.28-0.9,0.49-1.44,0.63C85.86,46.35,85.26,46.42,84.59,46.42z M88.56,46.19V35.91
			c0-1.06-0.28-1.89-0.85-2.48c-0.57-0.59-1.37-0.88-2.41-0.88c-1.35,0-2.54,0.38-3.55,1.13l-2.33-1.59
			c0.61-0.74,1.42-1.31,2.43-1.73c1-0.41,2.12-0.62,3.35-0.62c2.03,0,3.6,0.53,4.72,1.58c1.11,1.05,1.67,2.54,1.67,4.45v10.42H88.56
			z"/>
		<path class="st0" d="M99.62,23.47v18.45c0,0.39,0.09,0.69,0.26,0.91s0.41,0.33,0.73,0.33h1.5v3.03h-1.88
			c-1.2,0-2.13-0.38-2.8-1.13c-0.67-0.75-1-1.81-1-3.17V23.47H99.62z"/>
		<path class="st0" d="M105.7,26.66v-3.19h3.19v3.19H105.7z M105.7,46.19V29.97h3.19v16.22H105.7z"/>
		<path class="st0" d="M124.92,29.97v2.69l-7.8,10.58h8.22v2.95h-12.08v-2.75l8-10.52h-7.78v-2.95H124.92z"/>
		<path class="st0" d="M134.75,46.42c-1.99,0-3.48-0.41-4.48-1.23c-1-0.82-1.49-2.08-1.49-3.78c0-1.6,0.45-2.81,1.36-3.61
			c0.91-0.8,2.28-1.2,4.11-1.2h4.61l0.22,2.56h-4.81c-0.82,0-1.44,0.19-1.86,0.55c-0.42,0.37-0.63,0.94-0.63,1.7
			c0,0.83,0.28,1.45,0.83,1.84c0.55,0.39,1.38,0.59,2.48,0.59c1.21,0,2.11-0.13,2.72-0.39c0.6-0.26,0.91-0.67,0.91-1.22l0.33,2.28
			c-0.28,0.44-0.63,0.8-1.05,1.08c-0.42,0.28-0.9,0.49-1.44,0.63C136.02,46.35,135.42,46.42,134.75,46.42z M138.72,46.19V35.91
			c0-1.06-0.28-1.89-0.85-2.48c-0.57-0.59-1.37-0.88-2.41-0.88c-1.35,0-2.54,0.38-3.55,1.13l-2.33-1.59
			c0.61-0.74,1.42-1.31,2.43-1.73c1-0.41,2.12-0.62,3.35-0.62c2.03,0,3.6,0.53,4.72,1.58c1.11,1.05,1.67,2.54,1.67,4.45v10.42
			H138.72z"/>
		<path class="st0" d="M145.34,32.85v-2.88h7.31v2.88H145.34z M150.81,46.19c-1.33,0-2.3-0.37-2.9-1.11c-0.6-0.74-0.9-1.8-0.9-3.19
			V25.25h3.19v16.67c0,0.39,0.08,0.69,0.23,0.91s0.39,0.33,0.69,0.33h1.53v3.03H150.81z"/>
		<path class="st0" d="M157.03,26.66v-3.19h3.19v3.19H157.03z M157.03,46.19V29.97h3.19v16.22H157.03z"/>
		<path class="st0" d="M171.28,46.42c-2.13,0-3.77-0.62-4.94-1.85c-1.17-1.23-1.75-2.97-1.75-5.21v-2.64c0-2.22,0.58-3.94,1.75-5.16
			c1.17-1.22,2.81-1.83,4.94-1.83s3.77,0.61,4.94,1.83c1.17,1.22,1.75,2.94,1.75,5.16v2.69c0,2.23-0.58,3.96-1.75,5.18
			C175.05,45.81,173.4,46.42,171.28,46.42z M171.26,43.39c1.11,0,1.98-0.35,2.59-1.04c0.61-0.69,0.92-1.67,0.92-2.95v-2.69
			c0-1.26-0.31-2.23-0.92-2.92c-0.61-0.69-1.48-1.03-2.59-1.03c-1.11,0-1.97,0.34-2.58,1.03c-0.6,0.69-0.91,1.66-0.91,2.92v2.69
			c0,1.27,0.3,2.25,0.91,2.95C169.29,43.05,170.15,43.39,171.26,43.39z"/>
		<path class="st0" d="M182.5,46.19V29.97h3.19v16.22H182.5z M192.34,46.19v-9.83c0-1.14-0.3-2.02-0.89-2.65
			c-0.59-0.63-1.43-0.95-2.5-0.95c-1.04,0-1.85,0.28-2.41,0.83c-0.57,0.55-0.85,1.33-0.85,2.33l-0.33-3.13
			c0.5-0.98,1.15-1.73,1.96-2.27c0.81-0.53,1.7-0.8,2.68-0.8c1.76,0,3.12,0.58,4.09,1.73c0.96,1.15,1.45,2.78,1.45,4.88v9.84H192.34
			z"/>
		<path class="st0" d="M205.33,46.42c-1.38,0-2.62-0.21-3.74-0.63c-1.12-0.42-2.12-1.05-3.01-1.9l1.89-2.33c1.71,1.33,3.38,2,5.02,2
			c1.31,0,2.3-0.2,2.95-0.59s0.98-0.98,0.98-1.76c0-0.6-0.21-1.03-0.63-1.28s-0.98-0.41-1.66-0.48c-0.69-0.07-1.42-0.14-2.19-0.2
			c-0.66-0.04-1.31-0.12-1.95-0.23c-0.65-0.11-1.23-0.31-1.77-0.6c-0.53-0.29-0.96-0.71-1.27-1.27c-0.32-0.56-0.48-1.32-0.48-2.27
			c0-1.72,0.54-3,1.62-3.86c1.08-0.85,2.7-1.28,4.87-1.28c1.21,0,2.35,0.17,3.41,0.52c1.07,0.35,2.07,0.87,3.01,1.57l-1.92,2.33
			c-1.51-1.04-2.99-1.56-4.44-1.56c-1.18,0-2.06,0.19-2.64,0.55c-0.58,0.37-0.88,0.92-0.88,1.66c0,0.5,0.19,0.86,0.56,1.07
			c0.38,0.21,0.87,0.35,1.48,0.41c0.61,0.06,1.28,0.11,1.98,0.16c0.68,0.04,1.36,0.12,2.05,0.23c0.69,0.11,1.33,0.32,1.91,0.63
			c0.58,0.31,1.05,0.78,1.41,1.39c0.35,0.61,0.53,1.45,0.53,2.52c0,1.74-0.59,3.04-1.77,3.91C209.48,45.99,207.7,46.42,205.33,46.42
			z"/>
		<path class="st0" d="M233.51,36.21c-1.3,0-2.31,0.32-3.02,0.97c-0.71,0.65-1.06,1.56-1.06,2.73c0,1.16,0.38,2.05,1.13,2.7
			c0.75,0.64,1.82,0.96,3.2,0.96c1.97,0,3.49-0.78,4.58-2.33c1.08-1.55,1.63-3.74,1.63-6.56H243c0,2.49-0.39,4.61-1.17,6.36
			s-1.91,3.09-3.39,4.01c-1.48,0.92-3.27,1.38-5.38,1.38c-2.14,0-3.79-0.57-4.96-1.7c-1.17-1.14-1.76-2.74-1.76-4.81
			c0-1.85,0.51-3.34,1.53-4.45c1.02-1.11,2.46-1.76,4.33-1.94L233.51,36.21z M240.65,46.19L232,37.16c-1.09-1.1-1.94-2.3-2.54-3.59
			c-0.6-1.29-0.9-2.64-0.9-4.03c0-1.98,0.53-3.52,1.59-4.61s2.56-1.64,4.5-1.64c1.93,0,3.42,0.52,4.48,1.57
			c1.06,1.05,1.59,2.53,1.59,4.45h-3.19c0-0.93-0.25-1.64-0.75-2.15c-0.5-0.5-1.21-0.76-2.13-0.76c-0.92,0-1.63,0.27-2.14,0.82
			c-0.51,0.55-0.77,1.32-0.77,2.32c0,0.92,0.22,1.86,0.67,2.84c0.45,0.97,1.08,1.9,1.89,2.77l10.39,11.05H240.65z"/>
		<path class="st0" d="M265.75,46.42c-1.65,0-3.15-0.23-4.52-0.7c-1.37-0.47-2.61-1.17-3.71-2.11l1.98-2.44
			c0.86,0.75,1.82,1.31,2.86,1.69c1.04,0.38,2.17,0.56,3.39,0.56c1.65,0,2.92-0.3,3.83-0.91s1.36-1.47,1.36-2.59v-0.02
			c0-0.86-0.23-1.53-0.69-1.98c-0.46-0.46-1.06-0.8-1.8-1.02c-0.75-0.22-1.56-0.41-2.45-0.55c-0.84-0.16-1.7-0.33-2.57-0.53
			c-0.87-0.2-1.67-0.5-2.4-0.92c-0.73-0.42-1.32-1.02-1.77-1.8c-0.45-0.79-0.67-1.85-0.67-3.18v-0.02c0-2.11,0.7-3.75,2.11-4.91
			c1.41-1.16,3.39-1.74,5.95-1.74c1.22,0,2.41,0.2,3.58,0.59c1.17,0.39,2.3,0.99,3.41,1.79l-1.81,2.53
			c-1.72-1.27-3.44-1.91-5.17-1.91c-1.55,0-2.76,0.31-3.62,0.93c-0.86,0.62-1.29,1.5-1.29,2.63v0.02c0,0.85,0.25,1.5,0.75,1.95
			c0.5,0.44,1.15,0.77,1.96,0.99c0.81,0.22,1.67,0.42,2.6,0.61c0.83,0.17,1.67,0.37,2.5,0.6c0.83,0.23,1.59,0.57,2.27,1.02
			c0.68,0.44,1.23,1.05,1.64,1.82c0.41,0.77,0.62,1.78,0.62,3.02v0.03c0,2.09-0.73,3.71-2.19,4.86
			C270.45,45.85,268.39,46.42,265.75,46.42z"/>
		<path class="st0" d="M283.06,47.52l-6.47-17.55h3.25l4.98,14.09L283.06,47.52z M287.7,29.97h3.25l-6.91,20.02
			c-0.45,1.09-1.02,1.86-1.72,2.3c-0.7,0.44-1.68,0.66-2.95,0.66h-0.64v-3.06h0.64c0.59,0,1.06-0.12,1.41-0.36
			c0.35-0.24,0.65-0.65,0.91-1.23L287.7,29.97z"/>
		<path class="st0" d="M298.72,46.42c-1.38,0-2.62-0.21-3.74-0.63c-1.12-0.42-2.12-1.05-3.01-1.9l1.89-2.33c1.71,1.33,3.38,2,5.02,2
			c1.31,0,2.3-0.2,2.95-0.59s0.98-0.98,0.98-1.76c0-0.6-0.21-1.03-0.63-1.28s-0.98-0.41-1.66-0.48c-0.69-0.07-1.42-0.14-2.19-0.2
			c-0.66-0.04-1.31-0.12-1.95-0.23c-0.65-0.11-1.23-0.31-1.77-0.6c-0.53-0.29-0.96-0.71-1.27-1.27c-0.32-0.56-0.48-1.32-0.48-2.27
			c0-1.72,0.54-3,1.62-3.86c1.08-0.85,2.7-1.28,4.87-1.28c1.21,0,2.35,0.17,3.41,0.52c1.07,0.35,2.07,0.87,3.01,1.57l-1.92,2.33
			c-1.51-1.04-2.99-1.56-4.44-1.56c-1.18,0-2.06,0.19-2.64,0.55c-0.58,0.37-0.88,0.92-0.88,1.66c0,0.5,0.19,0.86,0.56,1.07
			c0.38,0.21,0.87,0.35,1.48,0.41c0.61,0.06,1.28,0.11,1.98,0.16c0.68,0.04,1.36,0.12,2.05,0.23c0.69,0.11,1.33,0.32,1.91,0.63
			c0.58,0.31,1.05,0.78,1.41,1.39c0.35,0.61,0.53,1.45,0.53,2.52c0,1.74-0.59,3.04-1.77,3.91
			C302.87,45.99,301.09,46.42,298.72,46.42z"/>
		<path class="st0" d="M308.01,32.85v-2.88h7.31v2.88H308.01z M313.48,46.19c-1.33,0-2.3-0.37-2.9-1.11c-0.6-0.74-0.9-1.8-0.9-3.19
			V25.25h3.19v16.67c0,0.39,0.08,0.69,0.23,0.91s0.38,0.33,0.69,0.33h1.53v3.03H313.48z"/>
		<path class="st0" d="M326.5,46.42c-2.26,0-4.01-0.63-5.25-1.88c-1.24-1.25-1.86-3.05-1.86-5.38v-1.83c0-2.42,0.6-4.29,1.79-5.61
			c1.19-1.32,2.87-1.98,5.04-1.98c2.04,0,3.62,0.75,4.74,2.26c1.12,1.51,1.68,3.61,1.68,6.3v1.06H321.7V36.8h7.91
			c-0.09-1.31-0.44-2.34-1.02-3.08c-0.59-0.74-1.38-1.11-2.37-1.11c-1.2,0-2.13,0.4-2.8,1.19c-0.67,0.79-1,1.91-1,3.36v2.06
			c0,1.34,0.35,2.38,1.06,3.09c0.71,0.72,1.71,1.08,3.02,1.08c1.36,0,2.57-0.49,3.63-1.48l2.09,2.09c-0.8,0.77-1.7,1.37-2.7,1.79
			S327.51,46.42,326.5,46.42z"/>
		<path class="st0" d="M337.01,46.19V29.97h3.19v16.22H337.01z M346.7,46.19v-9.83c0-1.14-0.28-2.02-0.84-2.65
			c-0.56-0.63-1.36-0.95-2.39-0.95c-1.04,0-1.85,0.28-2.41,0.83c-0.57,0.55-0.85,1.33-0.85,2.33l-0.33-3.13
			c0.5-0.98,1.15-1.73,1.96-2.27c0.81-0.53,1.7-0.8,2.68-0.8c1.71,0,3.03,0.58,3.97,1.73c0.94,1.15,1.41,2.78,1.41,4.88v9.84H346.7z
			 M356.39,46.19v-9.83c0-1.14-0.3-2.02-0.89-2.65c-0.59-0.63-1.43-0.95-2.5-0.95c-0.99,0-1.76,0.3-2.3,0.91
			c-0.54,0.6-0.81,1.46-0.81,2.56l-0.64-3.13c0.51-1.07,1.18-1.9,2.02-2.49c0.84-0.59,1.76-0.88,2.77-0.88
			c1.76,0,3.12,0.58,4.09,1.73c0.96,1.15,1.45,2.78,1.45,4.88v9.84H356.39z"/>
		<path class="st0" d="M369.37,46.42c-1.38,0-2.62-0.21-3.74-0.63c-1.12-0.42-2.12-1.05-3.01-1.9l1.89-2.33c1.71,1.33,3.38,2,5.02,2
			c1.31,0,2.3-0.2,2.95-0.59s0.98-0.98,0.98-1.76c0-0.6-0.21-1.03-0.63-1.28s-0.98-0.41-1.66-0.48c-0.69-0.07-1.42-0.14-2.19-0.2
			c-0.66-0.04-1.31-0.12-1.95-0.23c-0.65-0.11-1.23-0.31-1.77-0.6c-0.53-0.29-0.96-0.71-1.27-1.27c-0.32-0.56-0.48-1.32-0.48-2.27
			c0-1.72,0.54-3,1.62-3.86c1.08-0.85,2.7-1.28,4.87-1.28c1.21,0,2.35,0.17,3.41,0.52c1.07,0.35,2.07,0.87,3.01,1.57l-1.92,2.33
			c-1.51-1.04-2.99-1.56-4.44-1.56c-1.18,0-2.06,0.19-2.64,0.55c-0.58,0.37-0.88,0.92-0.88,1.66c0,0.5,0.19,0.86,0.56,1.07
			c0.38,0.21,0.87,0.35,1.48,0.41c0.61,0.06,1.28,0.11,1.98,0.16c0.68,0.04,1.36,0.12,2.05,0.23c0.69,0.11,1.33,0.32,1.91,0.63
			c0.58,0.31,1.05,0.78,1.41,1.39c0.35,0.61,0.53,1.45,0.53,2.52c0,1.74-0.59,3.04-1.77,3.91
			C373.53,45.99,371.75,46.42,369.37,46.42z"/>
		<path class="st0" d="M382.58,26.5v-3.03h16.03v3.03H382.58z M389,46.19V25.33h3.19v20.86H389z"/>
		<path class="st0" d="M400.79,46.19V23.47h3.19v22.72H400.79z M410.64,46.19v-9.88c0-1.15-0.3-2.03-0.89-2.66s-1.43-0.94-2.5-0.94
			c-1.04,0-1.85,0.27-2.41,0.81c-0.57,0.54-0.85,1.31-0.85,2.3l-0.33-3.13c0.5-0.96,1.15-1.7,1.96-2.23
			c0.81-0.53,1.7-0.79,2.68-0.79c1.76,0,3.12,0.58,4.09,1.73c0.96,1.15,1.45,2.78,1.45,4.88v9.89H410.64z"/>
		<path class="st0" d="M418.67,26.66v-3.19h3.19v3.19H418.67z M418.67,46.19V29.97h3.19v16.22H418.67z"/>
		<path class="st0" d="M426.7,46.19V29.97h3.19v16.22H426.7z M436.54,46.19v-9.83c0-1.14-0.3-2.02-0.89-2.65
			c-0.59-0.63-1.43-0.95-2.5-0.95c-1.04,0-1.85,0.28-2.41,0.83c-0.57,0.55-0.85,1.33-0.85,2.33l-0.33-3.13
			c0.5-0.98,1.15-1.73,1.96-2.27c0.81-0.53,1.7-0.8,2.68-0.8c1.76,0,3.12,0.58,4.09,1.73c0.96,1.15,1.45,2.78,1.45,4.88v9.84H436.54
			z"/>
		<path class="st0" d="M444.58,46.19V23.47h3.19v22.72H444.58z M445.75,43.82l0.2-3.78l8.34-10.06h3.75L445.75,43.82z M455.37,46.19
			l-5.66-9.36l2.05-2.13l7.08,11.48H455.37z"/>
		<path class="st0" d="M461.5,26.66v-3.19h3.19v3.19H461.5z M461.5,46.19V29.97h3.19v16.22H461.5z"/>
		<path class="st0" d="M469.53,46.19V29.97h3.19v16.22H469.53z M479.37,46.19v-9.83c0-1.14-0.3-2.02-0.89-2.65
			c-0.59-0.63-1.43-0.95-2.5-0.95c-1.04,0-1.85,0.28-2.41,0.83c-0.57,0.55-0.85,1.33-0.85,2.33l-0.33-3.13
			c0.5-0.98,1.15-1.73,1.96-2.27c0.81-0.53,1.7-0.8,2.68-0.8c1.76,0,3.12,0.58,4.09,1.73c0.96,1.15,1.45,2.78,1.45,4.88v9.84H479.37
			z"/>
		<path class="st0" d="M492.54,46.47c-1.79,0-3.17-0.58-4.15-1.73c-0.97-1.15-1.46-2.77-1.46-4.87V36.3c0-2.1,0.47-3.73,1.42-4.88
			c0.95-1.15,2.29-1.73,4.03-1.73c0.96,0,1.84,0.25,2.63,0.75s1.44,1.2,1.93,2.11l-0.33,3.31c0-0.69-0.13-1.27-0.38-1.76
			s-0.61-0.86-1.09-1.12c-0.47-0.26-1.05-0.39-1.73-0.39c-1.05,0-1.87,0.33-2.45,0.98s-0.87,1.58-0.87,2.77v3.53
			c0,1.18,0.29,2.09,0.87,2.73s1.39,0.96,2.45,0.96c0.68,0,1.25-0.13,1.73-0.4c0.47-0.27,0.84-0.65,1.09-1.14
			c0.25-0.49,0.38-1.1,0.38-1.8l0.22,3.42c-0.29,0.73-0.79,1.38-1.51,1.96C494.62,46.18,493.69,46.47,492.54,46.47z M492.84,52.78
			c-1.22,0-2.31-0.22-3.27-0.67c-0.96-0.45-1.71-1.09-2.24-1.92l2.16-1.95c0.86,1.2,1.97,1.8,3.31,1.8c1.22,0,2.16-0.34,2.83-1.01
			c0.67-0.67,1-1.62,1-2.85v-16.2h3.19v15.73c0,2.25-0.61,3.99-1.82,5.23C496.78,52.17,495.06,52.78,492.84,52.78z"/>
	</g>
</g>
</svg>
