<?xml version="1.0" encoding="utf-8"?>
<!-- Generator: Adobe Illustrator 23.1.0, SVG Export Plug-In . SVG Version: 6.00 Build 0)  -->
<svg version="1.1" id="Ebene_1" xmlns="http://www.w3.org/2000/svg" xmlns:xlink="http://www.w3.org/1999/xlink" x="0px" y="0px"
	 width="2899.5px" height="1204.5px" viewBox="0 0 2899.5 1204.5" style="enable-background:new 0 0 2899.5 1204.5;"
	 xml:space="preserve">
<style type="text/css">
	.st0{opacity:0.54;fill:#E9F91C;enable-background:new    ;}
	.st1{opacity:0.58;fill:#48FF96;enable-background:new    ;}
	.st2{opacity:0.22;fill:#3E5FFF;stroke:#727272;stroke-miterlimit:10;enable-background:new    ;}
	.st3{fill:#48FF96;}
	.st4{fill:#FFD517;}
	.st5{fill:#210B20;}
	.st6{opacity:0.17;fill:none;stroke:#353535;stroke-width:10;stroke-miterlimit:10;enable-background:new    ;}
	.st7{fill:#EAEAEA;}
	.st8{fill:#55E574;}
	.st9{fill:#B7B7B7;}
	.st10{fill:#1081E0;stroke:#161616;stroke-width:10.2307;stroke-miterlimit:10;}
	.st11{fill:#FFFFFF;}
	.st12{fill:#D75A4A;}
	.st13{fill:none;stroke:#353535;stroke-width:11;stroke-miterlimit:10;}
	.st14{fill:#353535;}
	.st15{fill:none;stroke:#939393;stroke-width:3;stroke-miterlimit:10;}
	.st16{fill:none;stroke:#939393;stroke-width:3;stroke-miterlimit:10;stroke-dasharray:11.7726,11.7726;}
	.st17{fill:none;stroke:#939393;stroke-width:3;stroke-miterlimit:10;stroke-dasharray:11.7837,11.7837;}
	.st18{fill:none;stroke:#939393;stroke-width:3;stroke-miterlimit:10;stroke-dasharray:12.2766,12.2766;}
</style>
<circle class="st0" cx="2199.83" cy="353.63" r="350"/>
<circle class="st1" cx="2489.83" cy="857.63" r="350"/>
<circle class="st2" cx="1906.83" cy="857.63" r="350"/>
<path class="st3" d="M2175.65,702.59c7.92,0.54,15.92,0.82,23.98,0.82c137.72,0,256.85-79.54,313.98-195.19
	c-7.92-0.54-15.92-0.82-23.98-0.82C2351.91,507.41,2232.78,586.95,2175.65,702.59z"/>
<path class="st4" d="M2252.44,371.21c-13.85,13.85-12.12,41.81-12.12,41.81h-70.26c0,0,1.48-27.96-12.12-41.81
	c-15.09-13.36-24.74-32.66-24.74-54.18c0-39.58,32.16-71.75,71.75-71.75s71.75,32.16,71.75,71.75
	C2276.69,338.55,2267.28,357.85,2252.44,371.21L2252.44,371.21z"/>
<g>
	<path class="st5" d="M2256.15,373.68c16.08-14.6,25.23-35.13,25.23-56.65c0-42.06-34.39-76.45-76.45-76.45
		s-76.45,34.39-76.45,76.45c0,22.02,9.65,43.05,25.98,57.4c12.12,12.12,10.89,37.85,10.89,38.1c0,1.24,0.49,2.47,1.24,3.46
		c0.99,0.99,2.23,1.48,3.46,1.48h70.01c1.24,0,2.47-0.49,3.46-1.48c0.99-0.99,1.24-2.23,1.24-3.46c0-0.25-1.24-25.98,10.89-38.1
		C2255.9,374.18,2256.15,373.93,2256.15,373.68z M2249.22,367.5c-0.49,0.25-0.74,0.74-0.99,1.24
		c-10.89,11.63-12.62,30.68-12.86,39.58h-60.61c-0.25-9.15-2.23-28.95-13.85-40.57c-14.6-12.86-23.01-31.17-23.01-50.47
		c0-37.11,30.18-67.05,67.05-67.05c37.11,0,67.05,30.18,67.05,67.05C2271.99,336.32,2263.82,354.88,2249.22,367.5z"/>
	<path class="st5" d="M2204.94,260.37c-2.47,0-4.7,1.98-4.7,4.7c0,2.47,1.98,4.7,4.7,4.7c27.71,0,50.22,22.51,50.22,50.22
		c0,2.47,1.98,4.7,4.7,4.7c2.47,0,4.7-1.98,4.7-4.7C2264.56,287.09,2237.84,260.37,2204.94,260.37z"/>
	<path class="st5" d="M2247,435.04c0-6.43-5.2-11.38-11.38-11.38h-61.11c-6.43,0-11.38,5.2-11.38,11.38
		c0,6.43,5.2,11.38,11.38,11.38h60.86C2241.8,446.42,2247,441.47,2247,435.04z M2235.37,437.02h-60.86c-1.24,0-1.98-0.99-1.98-1.98
		c0-1.24,0.99-1.98,1.98-1.98h60.86c1.24,0,1.98,0.99,1.98,1.98C2237.6,436.27,2236.61,437.02,2235.37,437.02z"/>
	<path class="st5" d="M2226.46,451.36h-42.8c-6.43,0-11.38,5.2-11.38,11.38c0,6.43,5.2,11.38,11.38,11.38h42.8
		c6.43,0,11.38-5.2,11.38-11.38S2232.65,451.36,2226.46,451.36z M2226.46,464.72h-42.8c-1.24,0-1.98-0.99-1.98-1.98
		c0-1.24,0.99-1.98,1.98-1.98h42.8c1.24,0,1.98,0.99,1.98,1.98C2228.44,463.98,2227.7,464.72,2226.46,464.72z"/>
	<path class="st5" d="M2209.64,213.12v-31.67c0-2.47-1.98-4.7-4.7-4.7c-2.47,0-4.7,1.98-4.7,4.7v31.91c0,2.47,1.98,4.7,4.7,4.7
		C2207.66,217.82,2209.64,215.84,2209.64,213.12z"/>
	<path class="st5" d="M2282.87,200.25c-2.23-1.48-4.95-0.74-6.43,1.24l-17.57,26.47c-1.48,2.23-0.74,4.95,1.24,6.43
		c0.74,0.49,1.73,0.74,2.47,0.74c1.48,0,2.97-0.74,3.96-1.98l17.57-26.47C2285.59,204.71,2284.85,201.74,2282.87,200.25z"/>
	<path class="st5" d="M2149.03,234.15c0.74,0,1.73-0.25,2.47-0.74c2.23-1.48,2.72-4.21,1.48-6.43l-17.07-26.72
		c-1.48-2.23-4.21-2.72-6.43-1.48c-2.23,1.48-2.72,4.21-1.48,6.43l17.07,26.72C2146.06,233.41,2147.54,234.15,2149.03,234.15z"/>
	<path class="st5" d="M2083.47,256.41l27.96,15.09c0.74,0.49,1.48,0.49,2.23,0.49c1.73,0,3.22-0.99,4.21-2.47
		c1.24-2.23,0.49-5.2-1.98-6.43L2087.93,248c-2.23-1.24-5.2-0.49-6.43,1.98C2080.5,252.46,2081.24,255.18,2083.47,256.41z"/>
	<path class="st5" d="M2296.23,272.25c0.74,0,1.48-0.25,2.23-0.49l27.96-15.09c2.23-1.24,3.22-3.96,1.98-6.43
		c-1.24-2.23-3.96-3.22-6.43-1.98l-27.96,15.09c-2.23,1.24-3.22,3.96-1.98,6.43C2292.77,271.26,2294.5,272.25,2296.23,272.25z"/>
</g>
<path class="st6" d="M2012.06,972.52c53.65,35.75,118.09,56.59,187.41,56.59s133.75-20.84,187.41-56.59"/>
<path class="st6" d="M2048.08,387.95c-32.67,16.37-62.33,37.87-87.91,63.45c-61.24,61.24-99.12,145.84-99.12,239.29
	c0,6.61,0.2,13.17,0.57,19.69"/>
<path class="st6" d="M2537.31,710.38c0.37-6.52,0.57-13.08,0.57-19.69c0-93.45-37.88-178.05-99.12-239.29
	c-25.78-25.78-55.69-47.41-88.66-63.83"/>
<g id="Programing-2">
	<path class="st7" d="M2598.11,739.13h-169.04c-4.45,0-8.05,3.6-8.05,8.05v16.1h185.14v-16.1
		C2606.16,742.73,2602.55,739.13,2598.11,739.13z"/>
	<path class="st8" d="M2421.02,763.28v112.69c0,4.45,3.6,8.05,8.05,8.05h169.04c4.45,0,8.05-3.6,8.05-8.05V763.28H2421.02z"/>
	<path class="st9" d="M2594.08,916.22h-160.99c-4.45,0-8.05,3.6-8.05,8.05v40.25c0,4.45,3.6,8.05,8.05,8.05h160.99
		c4.45,0,8.05-3.6,8.05-8.05v-40.25C2602.13,919.82,2598.53,916.22,2594.08,916.22z"/>
	<path d="M2437.12,928.29h8.05v8.05h-8.05V928.29z"/>
	<path d="M2453.22,928.29h8.05v8.05h-8.05V928.29z"/>
	<path d="M2469.32,928.29h8.05v8.05h-8.05V928.29z"/>
	<path d="M2485.41,928.29h8.05v8.05h-8.05V928.29z"/>
	<path d="M2501.51,928.29h8.05v8.05h-8.05V928.29z"/>
	<path d="M2517.61,928.29h8.05v8.05h-8.05V928.29z"/>
	<path d="M2533.71,928.29h8.05v8.05h-8.05V928.29z"/>
	<path d="M2549.81,928.29h8.05v8.05h-8.05V928.29z"/>
	<path d="M2565.91,928.29h8.05v8.05h-8.05V928.29z"/>
	<path d="M2582.01,928.29h8.05v8.05h-8.05V928.29z"/>
	<path d="M2437.12,940.36h8.05v8.05h-8.05V940.36z"/>
	<path d="M2453.22,940.36h8.05v8.05h-8.05V940.36z"/>
	<path d="M2469.32,940.36h8.05v8.05h-8.05V940.36z"/>
	<path d="M2485.41,940.36h8.05v8.05h-8.05V940.36z"/>
	<path d="M2501.51,940.36h8.05v8.05h-8.05V940.36z"/>
	<path d="M2517.61,940.36h8.05v8.05h-8.05V940.36z"/>
	<path d="M2533.71,940.36h8.05v8.05h-8.05V940.36z"/>
	<path d="M2549.81,940.36h8.05v8.05h-8.05V940.36z"/>
	<path d="M2565.91,940.36h8.05v8.05h-8.05V940.36z"/>
	<path d="M2582.01,940.36h8.05v8.05h-8.05V940.36z"/>
	<path d="M2453.22,952.44h8.05v8.05h-8.05V952.44z"/>
	<path d="M2469.32,952.44h8.05v8.05h-8.05V952.44z"/>
	<path d="M2485.41,952.44h56.35v8.05h-56.35V952.44z"/>
	<path d="M2549.81,952.44h8.05v8.05h-8.05V952.44z"/>
	<path d="M2565.91,952.44h8.05v8.05h-8.05V952.44z"/>
	<path d="M2582.01,952.44h8.05v8.05h-8.05V952.44z"/>
	<path d="M2433.09,747.18h8.05v8.05h-8.05V747.18z"/>
	<path d="M2449.19,747.18h8.05v8.05h-8.05V747.18z"/>
	<path d="M2465.29,747.18h8.05v8.05h-8.05V747.18z"/>
	<path d="M2445.17,787.42c-2.22,0-4.02,1.8-4.02,4.02v76.47c0,2.22,1.8,4.02,4.02,4.02s4.02-1.8,4.02-4.02v-76.47
		C2449.19,789.23,2447.39,787.42,2445.17,787.42z"/>
	<path d="M2473.34,803.52c2.22,0,4.03-1.8,4.03-4.02c0-1.35-0.67-2.61-1.79-3.35l-7.07-4.7l7.05-4.7c1.85-1.23,2.35-3.73,1.11-5.58
		c-1.23-1.85-3.73-2.35-5.58-1.11l-12.07,8.05c-1.85,1.23-2.35,3.73-1.12,5.58c0.29,0.44,0.67,0.82,1.12,1.12l12.07,8.05
		C2471.76,803.29,2472.54,803.53,2473.34,803.52L2473.34,803.52z"/>
	<path d="M2502.19,801.73c1.23,1.85,3.73,2.35,5.58,1.12l0,0l12.07-8.05c1.85-1.23,2.35-3.73,1.12-5.58
		c-0.29-0.44-0.67-0.82-1.12-1.12l-12.07-8.05c-1.85-1.23-4.35-0.73-5.58,1.11c-1.23,1.85-0.73,4.35,1.11,5.58l7.06,4.7l-7.05,4.7
		C2501.46,797.38,2500.96,799.88,2502.19,801.73L2502.19,801.73L2502.19,801.73z"/>
	<path d="M2484.14,807.34c2.11,0.7,4.39-0.44,5.09-2.55l8.05-24.15c0.7-2.11-0.44-4.39-2.55-5.1s-4.39,0.44-5.1,2.55l0,0
		l-8.05,24.15C2480.88,804.36,2482.02,806.64,2484.14,807.34L2484.14,807.34z"/>
	<path d="M2461.27,815.6h24.15v8.05h-24.15V815.6z"/>
	<path d="M2493.46,815.6h8.05v8.05h-8.05V815.6z"/>
	<path d="M2477.36,831.7h48.3v8.05h-48.3V831.7z"/>
	<path d="M2549.81,831.7h36.22v8.05h-36.22V831.7z"/>
	<path d="M2477.36,847.79h8.05v8.05h-8.05V847.79z"/>
	<path d="M2493.46,847.79h48.3v8.05h-48.3V847.79z"/>
	<path d="M2549.81,847.79h16.1v8.05h-16.1V847.79z"/>
	<path d="M2461.27,863.89h24.15v8.05h-24.15V863.89z"/>
	<path d="M2493.46,863.89h8.05v8.05h-8.05V863.89z"/>
	<path d="M2533.71,831.7h8.05v8.05h-8.05V831.7z"/>
	<path d="M2622.26,803.52h-12.07v-56.35c0-6.67-5.41-12.07-12.07-12.07h-169.04c-6.67,0-12.07,5.41-12.07,12.07v128.79
		c0,6.67,5.41,12.07,12.07,12.07h169.04c6.67,0,12.07-5.41,12.07-12.07v-64.4h12.07c2.22,0,4.02,1.8,4.02,4.02v76.47
		c0,2.22-1.8,4.02-4.02,4.02h-156.97c-3.48-0.48-7.02,0.35-9.94,2.31c-1.47,1.54-2.24,3.61-2.14,5.74v8.05h-20.12
		c-6.67,0-12.07,5.41-12.07,12.07v40.25c0,6.67,5.41,12.07,12.07,12.07h160.99c6.67,0,12.07-5.41,12.07-12.07v-40.25
		c0-6.67-5.41-12.07-12.07-12.07h-132.82v-8.05c0.76-0.09,160.99,0,160.99,0c6.67,0,12.07-5.41,12.07-12.07v-76.47
		C2634.33,808.93,2628.92,803.52,2622.26,803.52z M2429.07,743.15h169.04c2.22,0,4.02,1.8,4.02,4.02v12.07h-177.09v-12.07
		C2425.04,744.95,2426.84,743.15,2429.07,743.15z M2598.11,879.99h-169.04c-2.22,0-4.02-1.8-4.02-4.02V767.3h177.09v108.67
		C2602.13,878.19,2600.33,879.99,2598.11,879.99z M2598.11,924.27v40.25c0,2.22-1.8,4.02-4.02,4.02H2433.1
		c-2.22,0-4.02-1.8-4.02-4.02v-40.25c0-2.22,1.8-4.02,4.02-4.02h160.99C2596.31,920.24,2598.11,922.04,2598.11,924.27z"/>
</g>
<circle class="st10" cx="1893.83" cy="867.74" r="127.5"/>
<polygon class="st11" points="1826.3,935.45 1871.2,845.2 1916.37,890.2 "/>
<polygon class="st12" points="1961.45,800.13 1871.29,845.2 1916.37,890.28 "/>
<path class="st4" d="M677.72,340c-13.85,13.85-12.12,41.81-12.12,41.81h-70.26c0,0,1.48-27.96-12.12-41.81
	c-15.09-13.36-24.74-32.66-24.74-54.18c0-39.58,32.16-71.75,71.75-71.75c39.58,0,71.75,32.16,71.75,71.75
	C701.96,307.34,692.56,326.64,677.72,340L677.72,340z"/>
<g>
	<path class="st5" d="M681.43,342.47c16.08-14.6,25.23-35.13,25.23-56.65c0-42.06-34.39-76.45-76.45-76.45s-76.45,34.39-76.45,76.45
		c0,22.02,9.65,43.05,25.98,57.4c12.12,12.12,10.89,37.85,10.89,38.1c0,1.24,0.49,2.47,1.24,3.46c0.99,0.99,2.23,1.48,3.46,1.48
		h70.01c1.24,0,2.47-0.49,3.46-1.48c0.99-0.99,1.24-2.23,1.24-3.46c0-0.25-1.24-25.98,10.89-38.1
		C681.18,342.96,681.43,342.72,681.43,342.47z M674.5,336.29c-0.49,0.25-0.74,0.74-0.99,1.24c-10.89,11.63-12.62,30.68-12.86,39.58
		h-60.61c-0.25-9.15-2.23-28.95-13.85-40.57c-14.6-12.86-23.01-31.17-23.01-50.47c0-37.11,30.18-67.05,67.05-67.05
		c37.11,0,67.05,30.18,67.05,67.05C697.26,305.11,689.1,323.67,674.5,336.29z"/>
	<path class="st5" d="M630.22,229.16c-2.47,0-4.7,1.98-4.7,4.7c0,2.47,1.98,4.7,4.7,4.7c27.71,0,50.22,22.51,50.22,50.22
		c0,2.47,1.98,4.7,4.7,4.7c2.47,0,4.7-1.98,4.7-4.7C689.84,255.88,663.12,229.16,630.22,229.16z"/>
	<path class="st5" d="M672.28,403.83c0-6.43-5.2-11.38-11.38-11.38h-61.11c-6.43,0-11.38,5.2-11.38,11.38
		c0,6.43,5.2,11.38,11.38,11.38h60.86C667.08,415.21,672.28,410.26,672.28,403.83z M660.65,405.8h-60.86
		c-1.24,0-1.98-0.99-1.98-1.98c0-1.24,0.99-1.98,1.98-1.98h60.86c1.24,0,1.98,0.99,1.98,1.98
		C662.87,405.06,661.88,405.8,660.65,405.8z"/>
	<path class="st5" d="M651.74,420.15h-42.8c-6.43,0-11.38,5.2-11.38,11.38c0,6.43,5.2,11.38,11.38,11.38h42.8
		c6.43,0,11.38-5.2,11.38-11.38S657.93,420.15,651.74,420.15z M651.74,433.51h-42.8c-1.24,0-1.98-0.99-1.98-1.98
		c0-1.24,0.99-1.98,1.98-1.98h42.8c1.24,0,1.98,0.99,1.98,1.98C653.72,432.77,652.98,433.51,651.74,433.51z"/>
	<path class="st5" d="M634.92,181.91v-31.67c0-2.47-1.98-4.7-4.7-4.7c-2.47,0-4.7,1.98-4.7,4.7v31.91c0,2.47,1.98,4.7,4.7,4.7
		C632.94,186.61,634.92,184.63,634.92,181.91z"/>
	<path class="st5" d="M708.15,169.04c-2.23-1.48-4.95-0.74-6.43,1.24l-17.57,26.47c-1.48,2.23-0.74,4.95,1.24,6.43
		c0.74,0.49,1.73,0.74,2.47,0.74c1.48,0,2.97-0.74,3.96-1.98l17.57-26.47C710.87,173.5,710.13,170.53,708.15,169.04z"/>
	<path class="st5" d="M574.31,202.94c0.74,0,1.73-0.25,2.47-0.74c2.23-1.48,2.72-4.21,1.48-6.43l-17.07-26.72
		c-1.48-2.23-4.21-2.72-6.43-1.48c-2.23,1.48-2.72,4.21-1.48,6.43l17.07,26.72C571.34,202.19,572.82,202.94,574.31,202.94z"/>
	<path class="st5" d="M508.74,225.2l27.96,15.09c0.74,0.49,1.48,0.49,2.23,0.49c1.73,0,3.22-0.99,4.21-2.47
		c1.24-2.23,0.49-5.2-1.98-6.43l-27.96-15.09c-2.23-1.24-5.2-0.49-6.43,1.98C505.78,221.24,506.52,223.97,508.74,225.2z"/>
	<path class="st5" d="M721.51,241.04c0.74,0,1.48-0.25,2.23-0.49l27.96-15.09c2.23-1.24,3.22-3.96,1.98-6.43
		c-1.24-2.23-3.96-3.22-6.43-1.98l-27.96,15.09c-2.23,1.24-3.22,3.96-1.98,6.43C718.04,240.05,719.78,241.04,721.51,241.04z"/>
</g>
<g>
	<g>
		<path class="st13" d="M495.94,972.52c39.7,16.36,83.2,25.38,128.8,25.38c69.31,0,133.75-20.84,187.41-56.59"/>
		<g>
			<path class="st14" d="M437.34,941.31c22.34,24.72,47.58,60.17,59.2,89.84l7.4-55.14l40.95-37.64
				C513.9,945.85,470.39,945.47,437.34,941.31z"/>
		</g>
	</g>
</g>
<g>
	<g>
		<path class="st13" d="M417.21,392.16c-11.17,8.68-21.77,18.04-31.76,28.03c-61.24,61.24-99.12,145.84-99.12,239.29
			c0,6.61,0.2,13.17,0.57,19.69"/>
		<g>
			<path class="st14" d="M473.36,356.74c-32.54,7.18-75.83,11.54-107.37,6.95l44.24,33.73l12.42,54.22
				C431.51,421.01,453.38,383.39,473.36,356.74z"/>
		</g>
	</g>
</g>
<g>
	<g>
		<path class="st13" d="M959.97,612.83c-10.31-74.79-45.06-141.77-95.93-192.64c-25.78-25.78-55.69-47.41-88.66-63.83"/>
		<g>
			<path class="st14" d="M962.59,679.17c10.06-31.76,27.93-71.44,47.69-96.45l-51.33,21.44l-53.16-16.36
				C927.87,610.78,949.5,648.53,962.59,679.17z"/>
		</g>
	</g>
</g>
<g id="Programing-2_1_">
	<path class="st7" d="M1023.39,707.92H854.35c-4.45,0-8.05,3.6-8.05,8.05v16.1h185.14v-16.1
		C1031.43,711.52,1027.83,707.92,1023.39,707.92z"/>
	<path class="st8" d="M846.3,732.06v112.69c0,4.45,3.6,8.05,8.05,8.05h169.04c4.45,0,8.05-3.6,8.05-8.05V732.06H846.3z"/>
	<path class="st9" d="M1019.36,885H858.37c-4.45,0-8.05,3.6-8.05,8.05v40.25c0,4.45,3.6,8.05,8.05,8.05h160.99
		c4.45,0,8.05-3.6,8.05-8.05v-40.25C1027.41,888.61,1023.81,885,1019.36,885z"/>
	<path d="M862.4,897.08h8.05v8.05h-8.05V897.08z"/>
	<path d="M878.49,897.08h8.05v8.05h-8.05V897.08z"/>
	<path d="M894.59,897.08h8.05v8.05h-8.05V897.08z"/>
	<path d="M910.69,897.08h8.05v8.05h-8.05V897.08z"/>
	<path d="M926.79,897.08h8.05v8.05h-8.05V897.08z"/>
	<path d="M942.89,897.08h8.05v8.05h-8.05V897.08z"/>
	<path d="M958.99,897.08h8.05v8.05h-8.05V897.08z"/>
	<path d="M975.09,897.08h8.05v8.05h-8.05V897.08z"/>
	<path d="M991.19,897.08h8.05v8.05h-8.05V897.08z"/>
	<path d="M1007.29,897.08h8.05v8.05h-8.05V897.08z"/>
	<path d="M862.4,909.15h8.05v8.05h-8.05V909.15z"/>
	<path d="M878.49,909.15h8.05v8.05h-8.05V909.15z"/>
	<path d="M894.59,909.15h8.05v8.05h-8.05V909.15z"/>
	<path d="M910.69,909.15h8.05v8.05h-8.05V909.15z"/>
	<path d="M926.79,909.15h8.05v8.05h-8.05V909.15z"/>
	<path d="M942.89,909.15h8.05v8.05h-8.05V909.15z"/>
	<path d="M958.99,909.15h8.05v8.05h-8.05V909.15z"/>
	<path d="M975.09,909.15h8.05v8.05h-8.05V909.15z"/>
	<path d="M991.19,909.15h8.05v8.05h-8.05V909.15z"/>
	<path d="M1007.29,909.15h8.05v8.05h-8.05V909.15z"/>
	<path d="M878.49,921.23h8.05v8.05h-8.05V921.23z"/>
	<path d="M894.59,921.23h8.05v8.05h-8.05V921.23z"/>
	<path d="M910.69,921.23h56.35v8.05h-56.35V921.23z"/>
	<path d="M975.09,921.23h8.05v8.05h-8.05V921.23z"/>
	<path d="M991.19,921.23h8.05v8.05h-8.05V921.23z"/>
	<path d="M1007.29,921.23h8.05v8.05h-8.05V921.23z"/>
	<path d="M858.37,715.96h8.05v8.05h-8.05V715.96z"/>
	<path d="M874.47,715.96h8.05v8.05h-8.05V715.96z"/>
	<path d="M890.57,715.96h8.05v8.05h-8.05V715.96z"/>
	<path d="M870.44,756.21c-2.22,0-4.02,1.8-4.02,4.02v76.47c0,2.22,1.8,4.02,4.02,4.02c2.22,0,4.02-1.8,4.02-4.02v-76.47
		C874.47,758.01,872.67,756.21,870.44,756.21z"/>
	<path d="M898.62,772.31c2.22,0,4.03-1.8,4.03-4.02c0-1.35-0.67-2.61-1.79-3.35l-7.07-4.7l7.05-4.7c1.85-1.23,2.35-3.73,1.11-5.58
		c-1.23-1.85-3.73-2.35-5.58-1.11l-12.07,8.05c-1.85,1.23-2.35,3.73-1.12,5.58c0.29,0.44,0.67,0.82,1.12,1.12l12.07,8.05
		C897.04,772.08,897.82,772.31,898.62,772.31L898.62,772.31z"/>
	<path d="M927.47,770.52c1.23,1.85,3.73,2.35,5.58,1.12l0,0l12.07-8.05c1.85-1.23,2.35-3.73,1.12-5.58
		c-0.29-0.44-0.67-0.82-1.12-1.12l-12.07-8.05c-1.85-1.23-4.35-0.73-5.58,1.11c-1.23,1.85-0.73,4.35,1.11,5.58l7.06,4.7l-7.05,4.7
		C926.74,766.17,926.24,768.66,927.47,770.52L927.47,770.52L927.47,770.52z"/>
	<path d="M909.42,776.13c2.11,0.7,4.39-0.44,5.09-2.55l8.05-24.15c0.7-2.11-0.44-4.39-2.55-5.1c-2.11-0.7-4.39,0.44-5.1,2.55l0,0
		l-8.05,24.15C906.16,773.15,907.3,775.43,909.42,776.13C909.41,776.13,909.42,776.13,909.42,776.13z"/>
	<path d="M886.54,784.39h24.15v8.05h-24.15V784.39z"/>
	<path d="M918.74,784.39h8.05v8.05h-8.05V784.39z"/>
	<path d="M902.64,800.48h48.3v8.05h-48.3V800.48z"/>
	<path d="M975.09,800.48h36.22v8.05h-36.22V800.48z"/>
	<path d="M902.64,816.58h8.05v8.05h-8.05V816.58z"/>
	<path d="M918.74,816.58h48.3v8.05h-48.3V816.58z"/>
	<path d="M975.09,816.58h16.1v8.05h-16.1V816.58z"/>
	<path d="M886.54,832.68h24.15v8.05h-24.15V832.68z"/>
	<path d="M918.74,832.68h8.05v8.05h-8.05V832.68z"/>
	<path d="M958.99,800.48h8.05v8.05h-8.05V800.48z"/>
	<path d="M1047.53,772.31h-12.07v-56.35c0-6.67-5.41-12.07-12.07-12.07H854.35c-6.67,0-12.07,5.41-12.07,12.07v128.79
		c0,6.67,5.41,12.07,12.07,12.07h169.04c6.67,0,12.07-5.41,12.07-12.07v-64.4h12.07c2.22,0,4.02,1.8,4.02,4.02v76.47
		c0,2.22-1.8,4.02-4.02,4.02H890.57c-3.48-0.48-7.02,0.35-9.94,2.31c-1.47,1.54-2.24,3.61-2.14,5.74v8.05h-20.12
		c-6.67,0-12.07,5.41-12.07,12.07v40.25c0,6.67,5.41,12.07,12.07,12.07h160.99c6.67,0,12.07-5.41,12.07-12.07v-40.25
		c0-6.67-5.41-12.07-12.07-12.07H886.54v-8.05c0.76-0.09,160.99,0,160.99,0c6.67,0,12.07-5.41,12.07-12.07v-76.47
		C1059.61,777.72,1054.2,772.31,1047.53,772.31z M854.35,711.94h169.04c2.22,0,4.02,1.8,4.02,4.02v12.07H850.32v-12.07
		C850.32,713.74,852.12,711.94,854.35,711.94z M1023.39,848.78H854.35c-2.22,0-4.02-1.8-4.02-4.02V736.09h177.09v108.67
		C1027.41,846.98,1025.61,848.78,1023.39,848.78z M1023.39,893.05v40.25c0,2.22-1.8,4.02-4.02,4.02h-161c-2.22,0-4.02-1.8-4.02-4.02
		v-40.25c0-2.22,1.8-4.02,4.02-4.02h160.99C1021.58,889.03,1023.39,890.83,1023.39,893.05z"/>
</g>
<circle class="st10" cx="319.11" cy="836.53" r="127.5"/>
<polygon class="st11" points="251.58,904.24 296.48,813.99 341.65,858.99 "/>
<polygon class="st12" points="386.73,768.91 296.57,813.99 341.65,859.07 "/>
<g>
	<g>
		<line class="st15" x1="631.06" y1="670.52" x2="625.95" y2="667.38"/>
		<line class="st16" x1="615.91" y1="661.22" x2="239.69" y2="430.24"/>
		<line class="st15" x1="234.67" y1="427.16" x2="229.56" y2="424.02"/>
	</g>
</g>
<g>
	<g>
		<line class="st15" x1="991.56" y1="442.02" x2="986.5" y2="445.25"/>
		<line class="st17" x1="976.57" y1="451.58" x2="643.74" y2="663.85"/>
		<line class="st15" x1="638.77" y1="667.02" x2="633.71" y2="670.24"/>
	</g>
</g>
<g>
	<g>
		<line class="st15" x1="629.49" y1="1090.02" x2="629.49" y2="1084.02"/>
		<line class="st18" x1="629.49" y1="1071.74" x2="629.49" y2="685.03"/>
		<line class="st15" x1="629.49" y1="678.89" x2="629.49" y2="672.89"/>
	</g>
</g>
</svg>
