<?xml version="1.0" encoding="utf-8"?>
<!-- Generator: Adobe Illustrator 23.1.0, SVG Export Plug-In . SVG Version: 6.00 Build 0)  -->
<svg version="1.1" id="Ebene_1" xmlns="http://www.w3.org/2000/svg" xmlns:xlink="http://www.w3.org/1999/xlink" x="0px" y="0px"
	 width="602px" height="237px" viewBox="0 0 602 237" style="enable-background:new 0 0 602 237;" xml:space="preserve">
<style type="text/css">
	.st0{opacity:0.54;fill:#E9F91C;enable-background:new    ;}
	.st1{opacity:0.58;fill:#48FF96;enable-background:new    ;}
	.st2{opacity:0.22;fill:#3E5FFF;stroke:#727272;stroke-width:0.2214;stroke-miterlimit:10;enable-background:new    ;}
	.st3{fill:#444444;}
	.st4{fill:#515151;}
</style>
<circle class="st0" cx="78.2" cy="78.4" r="77.5"/>
<circle class="st1" cx="130.9" cy="157" r="77.5"/>
<circle class="st2" cx="197.7" cy="83" r="77.5"/>
<g>
	<g>
		<path class="st3" d="M93.7,63v70.7H79.9V63H93.7z"/>
		<path class="st3" d="M107.3,133.7V83.2h13.3v50.5H107.3z M136.5,133.7v-30.6c0-2.5-0.7-4.4-2.1-5.8c-1.4-1.3-3.4-2-6-2
			c-2.5,0-4.4,0.7-5.7,2.1c-1.3,1.4-2,3.3-2,5.8l-1-11.2c1.5-3,3.2-5.4,5.3-7.1c2.1-1.7,4.8-2.5,8.1-2.5c5.3,0,9.4,1.8,12.4,5.4
			c2.9,3.6,4.4,8.7,4.4,15.2v30.7L136.5,133.7L136.5,133.7z"/>
		<path class="st3" d="M159.1,94.6V83.2h24.7v11.4H159.1z M177.1,133.7c-4.5,0-7.8-1.2-9.8-3.5c-2-2.3-3-5.6-3-9.9V68.5h13.3V117
			c0,1.2,0.2,2.1,0.7,2.8c0.5,0.7,1.2,1,2.1,1h3.3v12.8H177.1z"/>
		<path class="st3" d="M217.6,134.4c-7.4,0-13.1-2-17.1-5.9c-4-3.9-6-9.5-6-16.7v-5.7c0-7.5,1.9-13.3,5.8-17.5
			c3.9-4.1,9.3-6.2,16.4-6.2c6.6,0,11.8,2.5,15.5,7.4c3.7,4.9,5.5,11.8,5.5,20.8v3.3h-34.5v-9h22.4l-0.1-1.2
			c-0.4-2.9-1.3-5.1-2.7-6.7s-3.4-2.4-5.9-2.4c-3.2,0-5.7,1-7.5,2.9c-1.8,1.9-2.7,4.6-2.7,8.1v6.4c0,3.4,1,6.1,2.9,8
			c1.9,1.9,4.6,2.8,8.1,2.8c3.7,0,7.1-1.2,10.1-3.6l8.7,7.7c-2.6,2.4-5.6,4.3-8.9,5.6C224.3,133.8,221,134.4,217.6,134.4z"/>
		<path class="st3" d="M264.9,134.4c-5.4,0-9.6-1.9-12.6-5.7c-3-3.8-4.4-9.2-4.4-16.1v-8.1c0-7,1.5-12.4,4.4-16.3
			c3-3.8,7.1-5.8,12.6-5.8c2.7,0,5.1,0.8,7.4,2.4c2.2,1.6,4,3.9,5.4,6.8l-1,11.2c0-1.7-0.3-3.2-0.9-4.4c-0.6-1.2-1.4-2.1-2.6-2.7
			c-1.1-0.6-2.5-0.9-4.1-0.9c-2.5,0-4.4,0.9-5.8,2.6s-2.1,4.1-2.1,7.2v8c0,3,0.7,5.4,2.1,7c1.4,1.7,3.3,2.5,5.8,2.5
			c1.6,0,2.9-0.3,4.1-0.9c1.1-0.6,2-1.5,2.6-2.7s0.9-2.6,0.9-4.2l0.7,11.5c-1,2.8-2.6,4.9-4.8,6.4
			C270.4,133.7,267.9,134.4,264.9,134.4z M267.3,154.2c-4,0-7.6-0.7-10.8-2.1c-3.2-1.4-5.6-3.4-7.4-6l9-8.2c2.4,2.6,5.4,3.8,9.1,3.8
			c2.7,0,4.9-0.7,6.8-2.2c1.8-1.5,2.7-3.6,2.7-6.4v-50H290v49c0,7-2,12.4-5.9,16.3C280.1,152.3,274.5,154.2,267.3,154.2z"/>
		<path class="st3" d="M303.1,133.7V83.2h14.3v50.5H303.1z M331.5,97.3c-1.3-1.3-3.2-1.9-5.6-1.9c-2.7,0-4.8,0.9-6.3,2.6
			c-1.5,1.7-2.2,4.1-2.2,7.2l-1-13.1c1.4-3,3.2-5.3,5.4-7c2.2-1.7,4.7-2.5,7.3-2.5c4.2,0,7.6,1.3,10.2,3.9L331.5,97.3z"/>
		<path class="st3" d="M359.4,134.4c-5.4,0-9.4-1.3-12.1-3.8c-2.7-2.6-4-6.5-4-11.8c0-5,1.5-8.7,4.5-11.2c3-2.5,7.5-3.7,13.5-3.7
			h12.7l0.7,10.2h-13.3c-2,0-3.5,0.4-4.5,1.2c-1,0.8-1.5,2-1.5,3.6c0,1.7,0.6,2.9,1.9,3.7c1.3,0.8,3.2,1.2,5.7,1.2
			c3.5,0,6.2-0.4,7.9-1.2c1.8-0.8,2.6-2.1,2.6-3.8l1,7.3c-0.2,1.9-1.1,3.5-2.6,4.7c-1.5,1.2-3.4,2.2-5.6,2.8
			C364,134.1,361.7,134.4,359.4,134.4z M373.4,133.7v-32c0-2.3-0.8-4.1-2.3-5.4s-3.8-1.9-6.6-1.9c-4,0-7.5,1.2-10.5,3.5l-8.3-8.1
			c2-2.3,4.6-4.1,8-5.4c3.3-1.3,7-1.9,11-1.9c6.6,0,11.8,1.6,15.4,4.9c3.6,3.3,5.4,7.9,5.4,13.9v32.5L373.4,133.7L373.4,133.7z"/>
		<path class="st3" d="M394.8,94.6V83.2h24.7v11.4H394.8z M412.8,133.7c-4.5,0-7.8-1.2-9.8-3.5c-2-2.3-3-5.6-3-9.9V68.5h13.3V117
			c0,1.2,0.2,2.1,0.7,2.8s1.2,1,2.1,1h3.3v12.8H412.8z"/>
		<path class="st3" d="M430.4,76.3V62.9h13.3v13.3H430.4z M430.4,133.7V83.2h13.3v50.5H430.4z"/>
		<path class="st3" d="M476.5,134.4c-6.9,0-12.3-1.9-16.1-5.8c-3.8-3.8-5.7-9.3-5.7-16.2v-8.2c0-6.9,1.9-12.3,5.7-16.1
			c3.8-3.8,9.2-5.7,16.1-5.7c6.9,0,12.3,1.9,16.1,5.7c3.8,3.8,5.7,9.1,5.7,16.1v8.4c0,6.9-1.9,12.3-5.7,16.1
			C488.8,132.5,483.5,134.4,476.5,134.4z M476.5,121.6c2.7,0,4.8-0.8,6.3-2.4c1.5-1.6,2.2-3.8,2.2-6.6v-8.4c0-2.8-0.7-5-2.2-6.6
			c-1.5-1.6-3.6-2.3-6.3-2.3c-2.7,0-4.8,0.8-6.2,2.3c-1.5,1.6-2.2,3.7-2.2,6.6v8.4c0,2.9,0.7,5.1,2.2,6.6
			C471.7,120.8,473.8,121.6,476.5,121.6z"/>
		<path class="st3" d="M510.5,133.7V83.2h13.3v50.5H510.5z M539.7,133.7v-30.6c0-2.5-0.7-4.4-2.1-5.8c-1.4-1.3-3.4-2-6-2
			c-2.5,0-4.4,0.7-5.7,2.1c-1.3,1.4-2,3.3-2,5.8l-1-11.2c1.5-3,3.2-5.4,5.3-7.1s4.8-2.5,8.1-2.5c5.3,0,9.4,1.8,12.4,5.4
			c2.9,3.6,4.4,8.7,4.4,15.2v30.7L539.7,133.7L539.7,133.7z"/>
	</g>
</g>
<g>
	<g>
		<path class="st4" d="M219.6,193.7V176h1.7v17.7H219.6z M225.2,188.8c-1,0-1.8-0.2-2.5-0.5s-1.2-0.9-1.6-1.7l0.2-2.6
			c0,0.5,0.1,1.1,0.4,1.6c0.3,0.5,0.6,0.9,1.1,1.2c0.5,0.3,1.1,0.5,1.7,0.5c1,0,1.9-0.3,2.4-0.9s0.9-1.5,0.9-2.6V181
			c0-1.2-0.3-2-0.9-2.7s-1.4-1-2.4-1c-0.7,0-1.3,0.2-1.7,0.5c-0.5,0.3-0.8,0.7-1.1,1.2c-0.3,0.5-0.4,1-0.4,1.5l-0.3-2.4
			c0.5-0.9,1-1.5,1.8-1.8c0.7-0.3,1.6-0.5,2.5-0.5c1.3,0,2.4,0.4,3.1,1.3c0.7,0.9,1.1,2.2,1.1,3.8v2.7c0,1.6-0.4,2.9-1.1,3.7
			C227.7,188.3,226.6,188.8,225.2,188.8z"/>
		<path class="st4" d="M238.4,188.8c-1.8,0-3.1-0.5-4.1-1.5c-1-1-1.4-2.4-1.4-4.2v-1.4c0-1.9,0.5-3.3,1.4-4.3c0.9-1,2.2-1.5,3.9-1.5
			c1.6,0,2.8,0.5,3.7,1.5s1.3,2.4,1.3,4.3v1.4H234v-1.6h7.5v-0.1c0-1.2-0.3-2.2-0.9-2.9c-0.6-0.7-1.4-1-2.5-1
			c-1.2,0-2.1,0.4-2.7,1.1c-0.6,0.7-1,1.7-1,3.1v1.6c0,1.3,0.3,2.2,1,2.9c0.7,0.7,1.6,1,2.9,1c1.2,0,2.3-0.5,3.2-1.4l1.2,1.1
			c-0.6,0.6-1.3,1.1-2.1,1.4C239.9,188.6,239.2,188.8,238.4,188.8z"/>
		<path class="st4" d="M251.3,188.8c-1.6,0-2.9-0.5-3.8-1.4c-0.9-1-1.4-2.3-1.4-4v-2c0-1.7,0.5-3.1,1.4-4c0.9-0.9,2.2-1.4,3.8-1.4
			s2.9,0.5,3.8,1.4c0.9,0.9,1.4,2.3,1.4,4v2.1c0,1.7-0.5,3.1-1.4,4C254.3,188.3,253,188.8,251.3,188.8z M251.3,187.1
			c1.1,0,1.9-0.3,2.5-1c0.6-0.7,0.9-1.6,0.9-2.8v-2.1c0-1.2-0.3-2.1-0.9-2.8c-0.6-0.7-1.5-1-2.5-1c-1.1,0-1.9,0.3-2.5,1
			c-0.6,0.7-0.9,1.6-0.9,2.8v2.1c0,1.2,0.3,2.1,0.9,2.8C249.4,186.8,250.2,187.1,251.3,187.1z"/>
		<path class="st4" d="M260,193.7V176h1.7v17.7H260z M265.7,188.8c-1,0-1.8-0.2-2.5-0.5s-1.2-0.9-1.6-1.7l0.2-2.6
			c0,0.5,0.1,1.1,0.4,1.6c0.3,0.5,0.6,0.9,1.1,1.2c0.5,0.3,1.1,0.5,1.7,0.5c1,0,1.9-0.3,2.4-0.9s0.9-1.5,0.9-2.6V181
			c0-1.2-0.3-2-0.9-2.7s-1.4-1-2.4-1c-0.7,0-1.3,0.2-1.7,0.5c-0.5,0.3-0.8,0.7-1.1,1.2c-0.3,0.5-0.4,1-0.4,1.5l-0.3-2.4
			c0.5-0.9,1-1.5,1.8-1.8c0.7-0.3,1.6-0.5,2.5-0.5c1.3,0,2.4,0.4,3.1,1.3c0.7,0.9,1.1,2.2,1.1,3.8v2.7c0,1.6-0.4,2.9-1.1,3.7
			C268.1,188.3,267,188.8,265.7,188.8z"/>
		<path class="st4" d="M275.3,171v14.3c0,0.5,0.1,0.9,0.4,1.2c0.3,0.3,0.6,0.4,1.1,0.4h1.2v1.6h-1.5c-0.9,0-1.7-0.3-2.2-0.9
			c-0.5-0.6-0.8-1.4-0.8-2.5V171H275.3z"/>
		<path class="st4" d="M286,188.8c-1.8,0-3.1-0.5-4.1-1.5c-1-1-1.4-2.4-1.4-4.2v-1.4c0-1.9,0.5-3.3,1.4-4.3c0.9-1,2.2-1.5,3.9-1.5
			c1.6,0,2.8,0.5,3.7,1.5s1.3,2.4,1.3,4.3v1.4h-9.1v-1.6h7.5v-0.1c0-1.2-0.3-2.2-0.9-2.9c-0.6-0.7-1.4-1-2.5-1
			c-1.2,0-2.1,0.4-2.7,1.1c-0.6,0.7-1,1.7-1,3.1v1.6c0,1.3,0.3,2.2,1,2.9c0.7,0.7,1.6,1,2.9,1c1.2,0,2.3-0.5,3.2-1.4l1.2,1.1
			c-0.6,0.6-1.3,1.1-2.1,1.4C287.5,188.6,286.8,188.8,286,188.8z"/>
		<path class="st4" d="M303.2,188.8c-1.6,0-2.9-0.5-3.8-1.4c-0.9-1-1.4-2.3-1.4-4v-2c0-1.7,0.5-3.1,1.4-4c0.9-0.9,2.2-1.4,3.8-1.4
			s2.9,0.5,3.8,1.4c0.9,0.9,1.4,2.3,1.4,4v2.1c0,1.7-0.5,3.1-1.4,4C306.1,188.3,304.8,188.8,303.2,188.8z M303.2,187.1
			c1.1,0,1.9-0.3,2.5-1c0.6-0.7,0.9-1.6,0.9-2.8v-2.1c0-1.2-0.3-2.1-0.9-2.8c-0.6-0.7-1.5-1-2.5-1c-1.1,0-1.9,0.3-2.5,1
			c-0.6,0.7-0.9,1.6-0.9,2.8v2.1c0,1.2,0.3,2.1,0.9,2.8C301.2,186.8,302.1,187.1,303.2,187.1z"/>
		<path class="st4" d="M316.2,186.3L320,176h1.9l-5,12.6h-1.4l-5-12.6h1.9L316.2,186.3z"/>
		<path class="st4" d="M329.5,188.8c-1.8,0-3.1-0.5-4.1-1.5c-1-1-1.4-2.4-1.4-4.2v-1.4c0-1.9,0.5-3.3,1.4-4.3c0.9-1,2.2-1.5,3.9-1.5
			c1.6,0,2.8,0.5,3.7,1.5s1.3,2.4,1.3,4.3v1.4h-9.1v-1.6h7.5v-0.1c0-1.2-0.3-2.2-0.9-2.9c-0.6-0.7-1.4-1-2.5-1
			c-1.2,0-2.1,0.4-2.7,1.1c-0.6,0.7-1,1.7-1,3.1v1.6c0,1.3,0.3,2.2,1,2.9c0.7,0.7,1.6,1,2.9,1c1.2,0,2.3-0.5,3.2-1.4l1.2,1.1
			c-0.6,0.6-1.3,1.1-2.1,1.4C331.1,188.6,330.3,188.8,329.5,188.8z"/>
		<path class="st4" d="M337.7,188.6V176h1.7v12.6H337.7z M345.1,178.3c-0.5-0.5-1.3-0.8-2.3-0.8c-1.1,0-1.9,0.3-2.5,0.8
			c-0.6,0.6-0.9,1.3-0.9,2.3l-0.3-2.4c0.5-0.7,1.1-1.3,1.8-1.7c0.7-0.4,1.6-0.6,2.5-0.6c1.1,0,2.1,0.3,2.8,1L345.1,178.3z"/>
		<path class="st4" d="M352.5,193.7V176h1.7v17.7H352.5z M358.1,188.8c-1,0-1.8-0.2-2.5-0.5s-1.2-0.9-1.6-1.7l0.2-2.6
			c0,0.5,0.1,1.1,0.4,1.6c0.3,0.5,0.6,0.9,1.1,1.2c0.5,0.3,1.1,0.5,1.7,0.5c1,0,1.9-0.3,2.4-0.9s0.9-1.5,0.9-2.6V181
			c0-1.2-0.3-2-0.9-2.7s-1.4-1-2.4-1c-0.7,0-1.3,0.2-1.7,0.5c-0.5,0.3-0.8,0.7-1.1,1.2c-0.3,0.5-0.4,1-0.4,1.5l-0.3-2.4
			c0.5-0.9,1-1.5,1.8-1.8c0.7-0.3,1.6-0.5,2.5-0.5c1.3,0,2.4,0.4,3.1,1.3c0.7,0.9,1.1,2.2,1.1,3.8v2.7c0,1.6-0.4,2.9-1.1,3.7
			C360.6,188.3,359.5,188.8,358.1,188.8z"/>
		<path class="st4" d="M366,188.6V176h1.7v12.6H366z M373.4,178.3c-0.5-0.5-1.3-0.8-2.3-0.8c-1.1,0-1.9,0.3-2.5,0.8
			c-0.6,0.6-0.9,1.3-0.9,2.3l-0.3-2.4c0.5-0.7,1.1-1.3,1.8-1.7c0.7-0.4,1.6-0.6,2.5-0.6c1.1,0,2.1,0.3,2.8,1L373.4,178.3z"/>
		<path class="st4" d="M381.4,188.8c-1.6,0-2.9-0.5-3.8-1.4c-0.9-1-1.4-2.3-1.4-4v-2c0-1.7,0.5-3.1,1.4-4c0.9-0.9,2.2-1.4,3.8-1.4
			s2.9,0.5,3.8,1.4c0.9,0.9,1.4,2.3,1.4,4v2.1c0,1.7-0.5,3.1-1.4,4C384.3,188.3,383.1,188.8,381.4,188.8z M381.4,187.1
			c1.1,0,1.9-0.3,2.5-1c0.6-0.7,0.9-1.6,0.9-2.8v-2.1c0-1.2-0.3-2.1-0.9-2.8c-0.6-0.7-1.5-1-2.5-1c-1.1,0-1.9,0.3-2.5,1
			c-0.6,0.7-0.9,1.6-0.9,2.8v2.1c0,1.2,0.3,2.1,0.9,2.8C379.5,186.8,380.3,187.1,381.4,187.1z"/>
		<path class="st4" d="M395.2,188.8c-1.8,0-3.2-0.5-4.1-1.4s-1.4-2.3-1.4-4.1v-2.1c0-1.8,0.5-3.2,1.4-4.1c0.9-0.9,2.3-1.4,4.1-1.4
			c1,0,1.9,0.2,2.7,0.5c0.8,0.3,1.4,0.8,1.9,1.5l-1.3,1.2c-0.9-1-1.9-1.5-3.2-1.5c-1.2,0-2.2,0.3-2.8,0.9c-0.6,0.6-0.9,1.6-0.9,2.8
			v2.1c0,1.3,0.3,2.3,0.9,3c0.6,0.7,1.6,1,2.8,1c1.4,0,2.5-0.5,3.4-1.5l1.1,1c-0.5,0.7-1.1,1.2-1.9,1.5
			C397.1,188.6,396.2,188.8,395.2,188.8z"/>
		<path class="st4" d="M407.4,188.8c-1.8,0-3.1-0.5-4.1-1.5c-1-1-1.4-2.4-1.4-4.2v-1.4c0-1.9,0.5-3.3,1.4-4.3c0.9-1,2.2-1.5,3.9-1.5
			c1.6,0,2.8,0.5,3.7,1.5c0.9,1,1.3,2.4,1.3,4.3v1.4h-9.1v-1.6h7.5v-0.1c0-1.2-0.3-2.2-0.9-2.9c-0.6-0.7-1.4-1-2.5-1
			c-1.2,0-2.1,0.4-2.7,1.1c-0.6,0.7-1,1.7-1,3.1v1.6c0,1.3,0.3,2.2,1,2.9c0.7,0.7,1.6,1,2.9,1c1.2,0,2.3-0.5,3.2-1.4l1.2,1.1
			c-0.6,0.6-1.3,1.1-2.1,1.4C409,188.6,408.2,188.8,407.4,188.8z"/>
		<path class="st4" d="M419.4,188.8c-1,0-1.9-0.2-2.8-0.5c-0.9-0.3-1.7-0.8-2.3-1.4l1-1.2c1.4,1,2.8,1.6,4.2,1.6
			c1.2,0,2.1-0.2,2.8-0.6c0.7-0.4,1-1,1-1.7c0-0.6-0.2-1.1-0.6-1.3c-0.4-0.3-0.9-0.4-1.6-0.5c-0.6-0.1-1.3-0.1-2-0.2
			c-0.5,0-1-0.1-1.5-0.2c-0.5-0.1-1-0.2-1.4-0.4c-0.4-0.2-0.7-0.5-1-0.9s-0.4-1-0.4-1.7c0-1.2,0.4-2.1,1.3-2.8c0.9-0.7,2.1-1,3.7-1
			c0.8,0,1.6,0.1,2.5,0.4s1.5,0.6,2.2,1l-1,1.2c-1.2-0.7-2.4-1.1-3.6-1.1c-1.1,0-1.9,0.2-2.5,0.6c-0.6,0.4-0.9,1-0.9,1.7
			c0,0.5,0.2,0.9,0.5,1.2c0.4,0.2,0.8,0.4,1.4,0.5s1.2,0.1,1.9,0.2c0.5,0,1.1,0.1,1.6,0.2c0.5,0.1,1,0.2,1.5,0.5
			c0.5,0.2,0.8,0.6,1.1,1c0.3,0.5,0.4,1.1,0.4,1.9c0,1.2-0.5,2.2-1.4,2.8C422.5,188.4,421.2,188.8,419.4,188.8z"/>
		<path class="st4" d="M431.4,188.8c-1,0-1.9-0.2-2.8-0.5c-0.9-0.3-1.7-0.8-2.3-1.4l1-1.2c1.4,1,2.8,1.6,4.2,1.6
			c1.2,0,2.1-0.2,2.8-0.6c0.7-0.4,1-1,1-1.7c0-0.6-0.2-1.1-0.6-1.3c-0.4-0.3-0.9-0.4-1.6-0.5c-0.6-0.1-1.3-0.1-2-0.2
			c-0.5,0-1-0.1-1.5-0.2c-0.5-0.1-1-0.2-1.4-0.4c-0.4-0.2-0.7-0.5-1-0.9s-0.4-1-0.4-1.7c0-1.2,0.4-2.1,1.3-2.8c0.9-0.7,2.1-1,3.7-1
			c0.8,0,1.6,0.1,2.5,0.4s1.5,0.6,2.2,1l-1,1.2c-1.2-0.7-2.4-1.1-3.6-1.1c-1.1,0-1.9,0.2-2.5,0.6c-0.6,0.4-0.9,1-0.9,1.7
			c0,0.5,0.2,0.9,0.5,1.2c0.4,0.2,0.8,0.4,1.4,0.5s1.2,0.1,1.9,0.2c0.5,0,1.1,0.1,1.6,0.2c0.5,0.1,1,0.2,1.5,0.5
			c0.5,0.2,0.8,0.6,1.1,1c0.3,0.5,0.4,1.1,0.4,1.9c0,1.2-0.5,2.2-1.4,2.8C434.5,188.4,433.2,188.8,431.4,188.8z"/>
		<path class="st4" d="M444.2,172.7V171h1.7v1.7H444.2z M444.2,188.6V176h1.7v12.6H444.2z"/>
		<path class="st4" d="M450.1,188.6V176h1.7v12.6H450.1z M458.4,188.6v-7.7c0-1.1-0.3-2-0.9-2.6c-0.6-0.6-1.4-0.9-2.5-0.9
			c-1,0-1.8,0.3-2.4,0.8s-0.9,1.3-0.9,2.3l-0.3-2.4c0.5-0.9,1.1-1.5,1.8-1.8s1.6-0.5,2.5-0.5c1.4,0,2.4,0.4,3.2,1.3s1.1,2.2,1.1,3.8
			v7.7H458.4z"/>
		<path class="st4" d="M219.6,218.3v-12.6h1.7v12.6H219.6z M227.5,218.3v-7.6c0-1.1-0.3-2-0.8-2.6c-0.5-0.6-1.3-0.9-2.3-0.9
			c-1,0-1.7,0.3-2.3,0.8c-0.5,0.6-0.8,1.3-0.8,2.3l-0.3-2.4c0.4-0.9,1-1.5,1.7-1.8c0.7-0.4,1.5-0.5,2.3-0.5c1.3,0,2.3,0.4,3,1.3
			s1.1,2.2,1.1,3.8v7.6H227.5z M235.4,218.3v-7.6c0-1.1-0.3-2-0.8-2.6c-0.5-0.6-1.3-0.9-2.3-0.9c-1,0-1.7,0.3-2.3,0.9
			c-0.5,0.6-0.8,1.4-0.8,2.5l-0.7-1.8c0.4-1,1-1.8,1.7-2.4c0.7-0.6,1.6-0.8,2.6-0.8c1.4,0,2.4,0.4,3.2,1.3c0.8,0.9,1.1,2.2,1.1,3.8
			v7.6H235.4z"/>
		<path class="st4" d="M245.7,218.5c-1.6,0-2.9-0.5-3.8-1.4c-0.9-1-1.4-2.3-1.4-4v-2c0-1.7,0.5-3.1,1.4-4c0.9-0.9,2.2-1.4,3.8-1.4
			s2.9,0.5,3.8,1.4c0.9,0.9,1.4,2.3,1.4,4v2.1c0,1.7-0.5,3.1-1.4,4C248.6,218,247.3,218.5,245.7,218.5z M245.7,216.9
			c1.1,0,1.9-0.3,2.5-1c0.6-0.7,0.9-1.6,0.9-2.8V211c0-1.2-0.3-2.1-0.9-2.8c-0.6-0.7-1.5-1-2.5-1c-1.1,0-1.9,0.3-2.5,1
			c-0.6,0.7-0.9,1.6-0.9,2.8v2.1c0,1.2,0.3,2.1,0.9,2.8C243.7,216.6,244.6,216.9,245.7,216.9z"/>
		<path class="st4" d="M258.4,218.5c-1.4,0-2.5-0.4-3.2-1.3c-0.8-0.9-1.1-2.1-1.1-3.7v-2.7c0-1.6,0.4-2.9,1.1-3.8
			c0.7-0.9,1.8-1.3,3.1-1.3c0.9,0,1.7,0.2,2.5,0.5c0.7,0.3,1.3,0.9,1.8,1.8l-0.3,2.4c0-0.5-0.1-1.1-0.4-1.5
			c-0.3-0.5-0.6-0.9-1.1-1.2c-0.5-0.3-1.1-0.5-1.7-0.5c-1,0-1.9,0.3-2.4,1s-0.9,1.5-0.9,2.7v2.7c0,1.1,0.3,2,0.9,2.6
			s1.4,0.9,2.4,0.9c0.7,0,1.3-0.2,1.7-0.5c0.5-0.3,0.8-0.7,1.1-1.2c0.3-0.5,0.4-1,0.4-1.6l0.2,2.6c-0.3,0.8-0.8,1.4-1.6,1.7
			S259.3,218.5,258.4,218.5z M262.2,218.3v-17.6h1.7v17.6H262.2z"/>
		<path class="st4" d="M273.1,218.5c-1.8,0-3.1-0.5-4.1-1.5c-1-1-1.4-2.4-1.4-4.2v-1.4c0-1.9,0.5-3.3,1.4-4.3c0.9-1,2.2-1.5,3.9-1.5
			c1.6,0,2.8,0.5,3.7,1.5s1.3,2.4,1.3,4.3v1.4h-9.1v-1.6h7.5v-0.1c0-1.2-0.3-2.2-0.9-2.9c-0.6-0.7-1.4-1-2.5-1
			c-1.2,0-2.1,0.4-2.7,1.1c-0.6,0.7-1,1.7-1,3.1v1.6c0,1.3,0.3,2.2,1,2.9c0.7,0.7,1.6,1,2.9,1c1.2,0,2.3-0.5,3.2-1.4l1.2,1.1
			c-0.6,0.6-1.3,1.1-2.1,1.4C274.7,218.4,273.9,218.5,273.1,218.5z"/>
		<path class="st4" d="M281.3,218.3v-12.6h1.7v12.6H281.3z M288.7,208c-0.5-0.5-1.3-0.8-2.3-0.8c-1.1,0-1.9,0.3-2.5,0.8
			c-0.6,0.6-0.9,1.3-0.9,2.3l-0.3-2.4c0.5-0.7,1.1-1.3,1.8-1.7c0.7-0.4,1.6-0.6,2.5-0.6c1.1,0,2.1,0.3,2.8,1L288.7,208z"/>
		<path class="st4" d="M291.9,218.3v-12.6h1.7v12.6H291.9z M300.2,218.3v-7.7c0-1.1-0.3-2-0.9-2.6c-0.6-0.6-1.4-0.9-2.5-0.9
			c-1,0-1.8,0.3-2.4,0.8s-0.9,1.3-0.9,2.3l-0.3-2.4c0.5-0.9,1.1-1.5,1.8-1.8s1.6-0.5,2.5-0.5c1.4,0,2.4,0.4,3.2,1.3
			c0.7,0.9,1.1,2.2,1.1,3.8v7.7H300.2z"/>
		<path class="st4" d="M313.8,218.5c-1,0-1.9-0.2-2.8-0.5s-1.7-0.8-2.3-1.4l1-1.2c1.4,1,2.8,1.6,4.2,1.6c1.2,0,2.1-0.2,2.8-0.6
			c0.7-0.4,1-1,1-1.7c0-0.6-0.2-1.1-0.6-1.3c-0.4-0.3-0.9-0.4-1.6-0.5c-0.6-0.1-1.3-0.1-2-0.2c-0.5,0-1-0.1-1.5-0.2
			c-0.5-0.1-1-0.2-1.4-0.4c-0.4-0.2-0.7-0.5-1-0.9s-0.4-1-0.4-1.7c0-1.2,0.4-2.1,1.3-2.8c0.9-0.7,2.1-1,3.7-1c0.8,0,1.6,0.1,2.5,0.4
			s1.5,0.6,2.2,1l-1,1.2c-1.2-0.7-2.4-1.1-3.6-1.1c-1.1,0-1.9,0.2-2.5,0.6c-0.6,0.4-0.9,1-0.9,1.7c0,0.5,0.2,0.9,0.5,1.2
			c0.4,0.2,0.8,0.4,1.4,0.5s1.2,0.1,1.9,0.2c0.5,0,1.1,0.1,1.6,0.2c0.5,0.1,1,0.2,1.5,0.5s0.8,0.6,1.1,1c0.3,0.5,0.4,1.1,0.4,1.9
			c0,1.2-0.5,2.2-1.4,2.8C316.9,218.2,315.5,218.5,313.8,218.5z"/>
		<path class="st4" d="M326.8,218.5c-1.6,0-2.9-0.5-3.8-1.4c-0.9-1-1.4-2.3-1.4-4v-2c0-1.7,0.5-3.1,1.4-4c0.9-0.9,2.2-1.4,3.8-1.4
			s2.9,0.5,3.8,1.4c0.9,0.9,1.4,2.3,1.4,4v2.1c0,1.7-0.5,3.1-1.4,4C329.7,218,328.4,218.5,326.8,218.5z M326.8,216.9
			c1.1,0,1.9-0.3,2.5-1c0.6-0.7,0.9-1.6,0.9-2.8V211c0-1.2-0.3-2.1-0.9-2.8c-0.6-0.7-1.5-1-2.5-1c-1.1,0-1.9,0.3-2.5,1
			c-0.6,0.7-0.9,1.6-0.9,2.8v2.1c0,1.2,0.3,2.1,0.9,2.8C324.8,216.6,325.7,216.9,326.8,216.9z"/>
		<path class="st4" d="M334.5,207.3v-1.5h6.3v1.5H334.5z M335.8,218.3v-14.3c0-1.1,0.2-1.9,0.7-2.5c0.5-0.6,1.2-0.8,2.2-0.8h2.1v1.6
			H339c-0.5,0-0.8,0.1-1.1,0.4c-0.2,0.3-0.4,0.7-0.4,1.3v14.3H335.8z"/>
		<path class="st4" d="M342.4,207.3v-1.5h5.7v1.5H342.4z M346.6,218.3c-1,0-1.8-0.3-2.2-0.9c-0.5-0.6-0.7-1.4-0.7-2.5v-12.9h1.7V215
			c0,0.5,0.1,0.9,0.4,1.2c0.2,0.3,0.6,0.4,1.1,0.4h1.2v1.6H346.6z"/>
		<path class="st4" d="M355.9,218.3h-1.6l-4-12.6h1.9l3.1,10.3l3.3-10.3h1l3.4,10.3l3-10.3h1.9l-4,12.6h-1.6l-3.2-9.4L355.9,218.3z"
			/>
		<path class="st4" d="M374.6,218.5c-1.5,0-2.6-0.3-3.4-1s-1.2-1.6-1.2-2.9c0-1.2,0.4-2.1,1.1-2.8c0.7-0.6,1.8-1,3.1-1h4.2l0.2,1.6
			h-4.3c-0.8,0-1.4,0.2-1.9,0.6c-0.4,0.4-0.7,0.9-0.7,1.6c0,0.7,0.3,1.3,0.8,1.7c0.6,0.4,1.3,0.6,2.3,0.6c1.1,0,1.9-0.1,2.5-0.3
			c0.6-0.2,0.9-0.5,0.9-0.9l0.3,1.6c-0.3,0.3-0.6,0.5-1,0.7c-0.4,0.2-0.8,0.3-1.3,0.4C375.8,218.5,375.2,218.5,374.6,218.5z
			 M378.3,218.3v-8c0-1-0.3-1.8-0.8-2.4s-1.3-0.8-2.3-0.8c-1.3,0-2.4,0.4-3.3,1.1l-1.3-0.9c0.5-0.6,1.1-1,1.9-1.3
			c0.8-0.3,1.6-0.5,2.6-0.5c1.6,0,2.8,0.4,3.7,1.2s1.3,2,1.3,3.5v8.1H378.3z"/>
		<path class="st4" d="M383.8,218.3v-12.6h1.7v12.6H383.8z M391.2,208c-0.5-0.5-1.3-0.8-2.3-0.8c-1.1,0-1.9,0.3-2.5,0.8
			c-0.6,0.6-0.9,1.3-0.9,2.3l-0.3-2.4c0.5-0.7,1.1-1.3,1.8-1.7c0.7-0.4,1.6-0.6,2.5-0.6c1.1,0,2.1,0.3,2.8,1L391.2,208z"/>
		<path class="st4" d="M399.7,218.5c-1.8,0-3.1-0.5-4.1-1.5c-1-1-1.4-2.4-1.4-4.2v-1.4c0-1.9,0.5-3.3,1.4-4.3c0.9-1,2.2-1.5,3.9-1.5
			c1.6,0,2.8,0.5,3.7,1.5c0.9,1,1.3,2.4,1.3,4.3v1.4h-9.1v-1.6h7.5v-0.1c0-1.2-0.3-2.2-0.9-2.9c-0.6-0.7-1.4-1-2.5-1
			c-1.2,0-2.1,0.4-2.7,1.1c-0.6,0.7-1,1.7-1,3.1v1.6c0,1.3,0.3,2.2,1,2.9c0.7,0.7,1.6,1,2.9,1c1.2,0,2.3-0.5,3.2-1.4l1.2,1.1
			c-0.6,0.6-1.3,1.1-2.1,1.4C401.2,218.4,400.4,218.5,399.7,218.5z"/>
		<path class="st4" d="M416,218.5c-1.4,0-2.5-0.4-3.2-1.3c-0.8-0.9-1.1-2.1-1.1-3.7v-2.7c0-1.6,0.4-2.9,1.1-3.8
			c0.7-0.9,1.8-1.3,3.1-1.3c0.9,0,1.7,0.2,2.5,0.5c0.7,0.3,1.3,0.9,1.8,1.8l-0.3,2.4c0-0.5-0.1-1.1-0.4-1.5
			c-0.3-0.5-0.6-0.9-1.1-1.2s-1.1-0.5-1.7-0.5c-1,0-1.9,0.3-2.4,1s-0.9,1.5-0.9,2.7v2.7c0,1.1,0.3,2,0.9,2.6s1.4,0.9,2.4,0.9
			c0.7,0,1.3-0.2,1.7-0.5s0.8-0.7,1.1-1.2c0.3-0.5,0.4-1,0.4-1.6l0.2,2.6c-0.3,0.8-0.8,1.4-1.6,1.7C417.8,218.4,417,218.5,416,218.5
			z M419.9,218.3v-17.6h1.7v17.6H419.9z"/>
		<path class="st4" d="M430.8,218.5c-1.8,0-3.1-0.5-4.1-1.5c-1-1-1.4-2.4-1.4-4.2v-1.4c0-1.9,0.5-3.3,1.4-4.3c0.9-1,2.2-1.5,3.9-1.5
			c1.6,0,2.8,0.5,3.7,1.5c0.9,1,1.3,2.4,1.3,4.3v1.4h-9.1v-1.6h7.5v-0.1c0-1.2-0.3-2.2-0.9-2.9c-0.6-0.7-1.4-1-2.5-1
			c-1.2,0-2.1,0.4-2.7,1.1c-0.6,0.7-1,1.7-1,3.1v1.6c0,1.3,0.3,2.2,1,2.9c0.7,0.7,1.6,1,2.9,1c1.2,0,2.3-0.5,3.2-1.4l1.2,1.1
			c-0.6,0.6-1.3,1.1-2.1,1.4C432.4,218.4,431.6,218.5,430.8,218.5z"/>
		<path class="st4" d="M443.3,216.1l3.8-10.3h1.9l-5,12.6h-1.4l-5-12.6h1.9L443.3,216.1z"/>
		<path class="st4" d="M456.6,218.5c-1.8,0-3.1-0.5-4.1-1.5c-1-1-1.4-2.4-1.4-4.2v-1.4c0-1.9,0.5-3.3,1.4-4.3c0.9-1,2.2-1.5,3.9-1.5
			c1.6,0,2.8,0.5,3.7,1.5c0.9,1,1.3,2.4,1.3,4.3v1.4h-9.1v-1.6h7.5v-0.1c0-1.2-0.3-2.2-0.9-2.9c-0.6-0.7-1.4-1-2.5-1
			c-1.2,0-2.1,0.4-2.7,1.1c-0.6,0.7-1,1.7-1,3.1v1.6c0,1.3,0.3,2.2,1,2.9c0.7,0.7,1.6,1,2.9,1c1.2,0,2.3-0.5,3.2-1.4l1.2,1.1
			c-0.6,0.6-1.3,1.1-2.1,1.4C458.2,218.4,457.4,218.5,456.6,218.5z"/>
		<path class="st4" d="M466.5,200.7V215c0,0.5,0.1,0.9,0.4,1.2c0.3,0.3,0.6,0.4,1.1,0.4h1.2v1.6h-1.5c-0.9,0-1.7-0.3-2.2-0.9
			c-0.5-0.6-0.8-1.4-0.8-2.5v-14.3H466.5z"/>
		<path class="st4" d="M476.8,218.5c-1.6,0-2.9-0.5-3.8-1.4s-1.4-2.3-1.4-4v-2c0-1.7,0.5-3.1,1.4-4c0.9-0.9,2.2-1.4,3.8-1.4
			c1.6,0,2.9,0.5,3.8,1.4c0.9,0.9,1.4,2.3,1.4,4v2.1c0,1.7-0.5,3.1-1.4,4S478.4,218.5,476.8,218.5z M476.8,216.9
			c1.1,0,1.9-0.3,2.5-1s0.9-1.6,0.9-2.8V211c0-1.2-0.3-2.1-0.9-2.8s-1.5-1-2.5-1c-1.1,0-1.9,0.3-2.5,1s-0.9,1.6-0.9,2.8v2.1
			c0,1.2,0.3,2.1,0.9,2.8S475.7,216.9,476.8,216.9z"/>
		<path class="st4" d="M485.5,223.5v-17.7h1.7v17.7H485.5z M491.1,218.5c-1,0-1.8-0.2-2.5-0.5c-0.7-0.3-1.2-0.9-1.6-1.7l0.2-2.6
			c0,0.5,0.1,1.1,0.4,1.6c0.3,0.5,0.6,0.9,1.1,1.2s1.1,0.5,1.7,0.5c1,0,1.9-0.3,2.4-0.9s0.9-1.5,0.9-2.6v-2.7c0-1.2-0.3-2-0.9-2.7
			s-1.4-1-2.4-1c-0.7,0-1.3,0.2-1.7,0.5s-0.8,0.7-1.1,1.2c-0.3,0.5-0.4,1-0.4,1.5l-0.3-2.4c0.5-0.9,1-1.5,1.8-1.8
			c0.7-0.3,1.6-0.5,2.5-0.5c1.3,0,2.4,0.4,3.1,1.3c0.7,0.9,1.1,2.2,1.1,3.8v2.7c0,1.6-0.4,2.9-1.1,3.7
			C493.6,218.1,492.5,218.5,491.1,218.5z"/>
		<path class="st4" d="M499,218.3v-12.6h1.7v12.6H499z M506.8,218.3v-7.6c0-1.1-0.3-2-0.8-2.6c-0.5-0.6-1.3-0.9-2.3-0.9
			c-1,0-1.7,0.3-2.3,0.8c-0.5,0.6-0.8,1.3-0.8,2.3l-0.3-2.4c0.4-0.9,1-1.5,1.7-1.8c0.7-0.4,1.5-0.5,2.3-0.5c1.3,0,2.3,0.4,3,1.3
			c0.7,0.9,1.1,2.2,1.1,3.8v7.6H506.8z M514.7,218.3v-7.6c0-1.1-0.3-2-0.8-2.6c-0.5-0.6-1.3-0.9-2.3-0.9c-1,0-1.7,0.3-2.3,0.9
			c-0.5,0.6-0.8,1.4-0.8,2.5l-0.7-1.8c0.4-1,1-1.8,1.7-2.4c0.7-0.6,1.6-0.8,2.6-0.8c1.4,0,2.4,0.4,3.2,1.3s1.1,2.2,1.1,3.8v7.6
			H514.7z"/>
		<path class="st4" d="M525.5,218.5c-1.8,0-3.1-0.5-4.1-1.5c-1-1-1.4-2.4-1.4-4.2v-1.4c0-1.9,0.5-3.3,1.4-4.3c0.9-1,2.2-1.5,3.9-1.5
			c1.6,0,2.8,0.5,3.7,1.5c0.9,1,1.3,2.4,1.3,4.3v1.4h-9.1v-1.6h7.5v-0.1c0-1.2-0.3-2.2-0.9-2.9c-0.6-0.7-1.4-1-2.5-1
			c-1.2,0-2.1,0.4-2.7,1.1c-0.6,0.7-1,1.7-1,3.1v1.6c0,1.3,0.3,2.2,1,2.9c0.7,0.7,1.6,1,2.9,1c1.2,0,2.3-0.5,3.2-1.4l1.2,1.1
			c-0.6,0.6-1.3,1.1-2.1,1.4C527,218.4,526.3,218.5,525.5,218.5z"/>
		<path class="st4" d="M533.6,218.3v-12.6h1.7v12.6H533.6z M542,218.3v-7.7c0-1.1-0.3-2-0.9-2.6c-0.6-0.6-1.4-0.9-2.5-0.9
			c-1,0-1.8,0.3-2.4,0.8s-0.9,1.3-0.9,2.3l-0.3-2.4c0.5-0.9,1.1-1.5,1.8-1.8s1.6-0.5,2.5-0.5c1.4,0,2.4,0.4,3.2,1.3s1.1,2.2,1.1,3.8
			v7.7H542z"/>
		<path class="st4" d="M546.5,207.3v-1.5h5.7v1.5H546.5z M550.7,218.3c-1,0-1.8-0.3-2.2-0.9c-0.5-0.6-0.7-1.4-0.7-2.5v-12.9h1.7V215
			c0,0.5,0.1,0.9,0.4,1.2c0.2,0.3,0.6,0.4,1.1,0.4h1.2v1.6H550.7z"/>
	</g>
</g>
</svg>
