<?xml version="1.0" encoding="utf-8"?>
<!-- Generator: Adobe Illustrator 23.1.0, SVG Export Plug-In . SVG Version: 6.00 Build 0)  -->
<svg version="1.1" id="Ebene_1" xmlns="http://www.w3.org/2000/svg" xmlns:xlink="http://www.w3.org/1999/xlink" x="0px" y="0px"
	 width="2649px" height="762.7px" viewBox="0 0 2649 762.7" style="enable-background:new 0 0 2649 762.7;" xml:space="preserve">
<style type="text/css">
	.st0{opacity:0.54;fill:#E9F91C;enable-background:new    ;}
	.st1{opacity:0.58;fill:#48FF96;enable-background:new    ;}
	.st2{opacity:0.22;fill:#3E5FFF;stroke:#727272;stroke-miterlimit:10;enable-background:new    ;}
	.st3{fill:#444444;}
</style>
<circle class="st0" cx="227.4" cy="261.1" r="350"/>
<circle class="st1" cx="465.4" cy="616.1" r="350"/>
<circle class="st2" cx="766.9" cy="281.6" r="350"/>
<g>
	<g>
		<path class="st3" d="M297.2,191.2v319.5h-62.4V191.2H297.2z"/>
		<path class="st3" d="M358.8,510.7V282.6H419v228.1H358.8z M490.6,510.7V372.5c0-11.3-3.2-20-9.7-26c-6.5-6.1-15.5-9.1-27-9.1
			c-11.1,0-19.7,3.1-25.8,9.3s-9.1,15-9.1,26.3l-4.6-50.5c6.6-13.8,14.6-24.4,24.1-31.9s21.7-11.2,36.8-11.2
			c24,0,42.6,8.1,55.8,24.3c13.2,16.2,19.8,39.1,19.8,68.7v138.4L490.6,510.7L490.6,510.7z"/>
		<path class="st3" d="M592.6,334v-51.4h111.6V334H592.6z M673.9,510.7c-20.4,0-35.1-5.2-44.2-15.6c-9.1-10.4-13.6-25.3-13.6-44.8
			v-234h60.2v219.1c0,5.4,1.1,9.7,3.3,12.7s5.4,4.6,9.7,4.6h14.9v58H673.9z"/>
		<path class="st3" d="M856.9,514c-33.3,0-59-8.9-77.1-26.7c-18.2-17.8-27.3-43-27.3-75.5v-25.7c0-34,8.8-60.3,26.3-78.9
			c17.5-18.6,42.2-27.9,74.2-27.9c30,0,53.3,11.1,69.9,33.3s24.8,53.4,24.8,93.7v14.9h-156v-40.6h101.1l-0.7-5.3
			c-1.6-13-5.7-23.2-12.3-30.4S864.2,334,852.9,334c-14.5,0-25.8,4.3-33.7,13c-8,8.6-12,20.9-12,36.7v29c0,15.5,4.4,27.5,13.1,36
			s20.9,12.7,36.6,12.7c16.8,0,32-5.5,45.5-16.5l39.3,34.9c-11.9,10.8-25.2,19.2-40,25.2C886.9,511,872,514,856.9,514z"/>
		<path class="st3" d="M1070.5,514c-24.5,0-43.4-8.6-56.7-25.8c-13.3-17.2-20-41.5-20-72.8v-36.5c0-31.6,6.7-56.1,20-73.5
			c13.3-17.4,32.2-26,56.7-26c12.2,0,23.3,3.6,33.3,10.9c10,7.3,18.1,17.5,24.3,30.9l-4.6,50.5c0-7.8-1.3-14.4-4-19.8
			c-2.6-5.4-6.5-9.6-11.5-12.4s-11.2-4.3-18.3-4.3c-11.3,0-20,3.9-26.3,11.5s-9.3,18.5-9.3,32.4v36.3c0,13.6,3.1,24.2,9.3,31.6
			c6.2,7.5,15,11.2,26.3,11.2c7.2,0,13.3-1.4,18.3-4.2c5.1-2.8,8.9-6.8,11.5-12.1s4-11.7,4-19.1l3.1,52.1
			c-4.7,12.5-11.9,22.1-21.5,28.9C1095.3,510.6,1083.8,514,1070.5,514z M1081.2,603.4c-18.2,0-34.4-3.2-48.7-9.5
			c-14.3-6.3-25.4-15.3-33.3-27l40.4-37.1c10.8,11.6,24.5,17.4,40.9,17.4c12.2,0,22.3-3.4,30.5-10.1c8.2-6.7,12.3-16.3,12.3-28.8
			V282.6h60.2v221.3c0,31.6-8.9,56.1-26.7,73.5C1139.1,594.7,1113.9,603.4,1081.2,603.4z"/>
		<path class="st3" d="M1243,510.7V282.6h64.6v228.1H1243z M1371.3,346.1c-5.9-5.9-14.4-8.8-25.5-8.8c-12.2,0-21.6,3.9-28.2,11.8
			c-6.7,7.8-10,18.7-10,32.6l-4.6-59.3c6.3-13.5,14.4-24,24.4-31.6c10-7.6,21-11.4,33.2-11.4c19,0,34.3,5.9,45.9,17.8L1371.3,346.1z
			"/>
		<path class="st3" d="M1497,514c-24.3,0-42.6-5.8-54.7-17.4c-12.2-11.6-18.2-29.3-18.2-53.2c0-22.6,6.8-39.5,20.3-50.8
			c13.6-11.3,33.9-16.9,61-16.9h57.1l3.1,45.9h-60c-9.1,0-15.9,1.8-20.4,5.4c-4.5,3.6-6.8,9-6.8,16.4c0,7.5,2.9,13,8.6,16.6
			s14.3,5.4,25.9,5.4c16,0,27.9-1.8,35.8-5.5c7.9-3.7,11.9-9.4,11.9-17.1l4.6,33.2c-0.9,8.7-4.8,15.8-11.7,21.4
			c-6.9,5.6-15.4,9.8-25.5,12.5C1517.8,512.6,1507.5,514,1497,514z M1560.5,510.7V366.1c0-10.5-3.5-18.7-10.6-24.4s-17-8.6-29.9-8.6
			c-18.2,0-34,5.3-47.5,15.8l-37.3-36.7c8.9-10.4,20.9-18.5,35.9-24.3c15-5.8,31.6-8.7,49.8-8.7c30,0,53.3,7.4,69.7,22.2
			c16.4,14.8,24.6,35.7,24.6,62.6v146.6L1560.5,510.7L1560.5,510.7z"/>
		<path class="st3" d="M1656.9,334v-51.4h111.6V334H1656.9z M1738.2,510.7c-20.4,0-35.1-5.2-44.2-15.6
			c-9.1-10.4-13.6-25.3-13.6-44.8v-234h60.2v219.1c0,5.4,1.1,9.7,3.3,12.7s5.4,4.6,9.7,4.6h14.9v58H1738.2z"/>
		<path class="st3" d="M1818,251.4v-60.2h60.2v60.2H1818z M1818,510.7V282.6h60.2v228.1H1818z"/>
		<path class="st3" d="M2026.1,514c-31.4,0-55.6-8.7-72.7-26s-25.7-41.8-25.7-73.3v-37.1c0-31.2,8.6-55.4,25.7-72.5
			s41.4-25.7,72.7-25.7s55.6,8.6,72.7,25.7s25.7,41.3,25.7,72.5v37.8c0,31.3-8.6,55.6-25.7,72.8C2081.6,505.4,2057.4,514,2026.1,514
			z M2025.8,456c12.2,0,21.6-3.5,28.4-10.7c6.7-7.1,10.1-17.1,10.1-30v-37.8c0-12.7-3.4-22.6-10.1-29.7s-16.2-10.5-28.4-10.5
			c-12.2,0-21.5,3.5-28.1,10.5s-9.9,16.9-9.9,29.7v37.8c0,12.9,3.3,22.9,9.9,30C2004.3,452.4,2013.7,456,2025.8,456z"/>
		<path class="st3" d="M2179.4,510.7V282.6h60.2v228.1H2179.4z M2311.3,510.7V372.5c0-11.3-3.2-20-9.7-26c-6.4-6.1-15.5-9.1-27-9.1
			c-11.1,0-19.7,3.1-25.8,9.3s-9.1,15-9.1,26.3l-4.6-50.5c6.6-13.8,14.6-24.4,24.1-31.9c9.4-7.5,21.7-11.2,36.8-11.2
			c24,0,42.6,8.1,55.8,24.3c13.2,16.2,19.8,39.1,19.8,68.7v138.4L2311.3,510.7L2311.3,510.7z"/>
	</g>
</g>
</svg>
