<?xml version="1.0" encoding="utf-8"?>
<!-- Generator: Adobe Illustrator 23.1.0, SVG Export Plug-In . SVG Version: 6.00 Build 0)  -->
<svg version="1.1" id="Ebene_1" xmlns="http://www.w3.org/2000/svg" xmlns:xlink="http://www.w3.org/1999/xlink" x="0px" y="0px"
	 width="2771.6px" height="1063px" viewBox="0 0 2771.6 1063" style="enable-background:new 0 0 2771.6 1063;" xml:space="preserve"
	>
<style type="text/css">
	.st0{opacity:0.54;fill:#E9F91C;enable-background:new    ;}
	.st1{opacity:0.58;fill:#48FF96;enable-background:new    ;}
	.st2{opacity:0.22;fill:#3E5FFF;stroke:#727272;stroke-miterlimit:10;enable-background:new    ;}
	.st3{fill:#444444;}
	.st4{fill:#515151;}
</style>
<circle class="st0" cx="350" cy="350" r="350"/>
<circle class="st1" cx="588" cy="705" r="350"/>
<circle class="st2" cx="889.5" cy="370.5" r="350"/>
<g>
	<g>
		<path class="st3" d="M419.8,280.1v319.5h-62.4V280.1H419.8z"/>
		<path class="st3" d="M481.3,599.5V371.5h60.2v228.1H481.3z M613.2,599.5V461.3c0-11.3-3.2-20-9.7-26c-6.5-6.1-15.5-9.1-27-9.1
			c-11.1,0-19.7,3.1-25.8,9.3s-9.1,15-9.1,26.3l-4.6-50.5c6.6-13.8,14.6-24.4,24.1-31.9s21.7-11.2,36.8-11.2
			c24,0,42.6,8.1,55.8,24.3c13.2,16.2,19.8,39.1,19.8,68.7v138.4L613.2,599.5L613.2,599.5z"/>
		<path class="st3" d="M715.1,422.9v-51.4h111.6v51.4H715.1z M796.4,599.5c-20.4,0-35.1-5.2-44.2-15.6
			c-9.1-10.4-13.6-25.3-13.6-44.8v-234h60.2v219.1c0,5.4,1.1,9.7,3.3,12.7s5.4,4.6,9.7,4.6h14.9v58H796.4z"/>
		<path class="st3" d="M979.5,602.8c-33.3,0-59-8.9-77.1-26.7c-18.2-17.8-27.3-43-27.3-75.5V475c0-34,8.8-60.3,26.3-78.9
			c17.5-18.6,42.2-27.9,74.2-27.9c30,0,53.3,11.1,69.9,33.3s24.8,53.4,24.8,93.7v14.9h-156v-40.6h101.1l-0.7-5.3
			c-1.6-13-5.7-23.2-12.3-30.4s-15.5-10.9-26.8-10.9c-14.5,0-25.8,4.3-33.7,13c-8,8.6-12,20.9-12,36.7v29c0,15.5,4.4,27.5,13.1,36
			s20.9,12.7,36.6,12.7c16.8,0,32-5.5,45.5-16.5l39.3,34.9c-11.9,10.8-25.2,19.2-40,25.2C1009.5,599.9,994.5,602.8,979.5,602.8z"/>
		<path class="st3" d="M1193,602.8c-24.5,0-43.4-8.6-56.7-25.8c-13.3-17.2-20-41.5-20-72.8v-36.5c0-31.6,6.7-56.1,20-73.5
			c13.3-17.4,32.2-26,56.7-26c12.2,0,23.3,3.6,33.3,10.9c10,7.3,18.1,17.5,24.3,30.9l-4.6,50.5c0-7.8-1.3-14.4-4-19.8
			c-2.6-5.4-6.5-9.6-11.5-12.4s-11.2-4.3-18.3-4.3c-11.3,0-20,3.9-26.3,11.5s-9.3,18.5-9.3,32.4v36.3c0,13.6,3.1,24.2,9.3,31.6
			c6.2,7.5,15,11.2,26.3,11.2c7.2,0,13.3-1.4,18.3-4.2c5.1-2.8,8.9-6.8,11.5-12.1s4-11.7,4-19.1l3.1,52.1
			c-4.7,12.5-11.9,22.1-21.5,28.9C1217.8,599.4,1206.3,602.8,1193,602.8z M1203.8,692.3c-18.2,0-34.4-3.2-48.7-9.5
			s-25.4-15.3-33.3-27l40.4-37.1c10.8,11.6,24.5,17.4,40.9,17.4c12.2,0,22.3-3.4,30.5-10.1c8.2-6.7,12.3-16.3,12.3-28.8V371.5h60.2
			v221.3c0,31.6-8.9,56.1-26.7,73.5C1261.7,683.6,1236.4,692.3,1203.8,692.3z"/>
		<path class="st3" d="M1365.5,599.5V371.5h64.6v228.1H1365.5z M1493.8,435c-5.9-5.9-14.4-8.8-25.5-8.8c-12.2,0-21.6,3.9-28.2,11.8
			c-6.7,7.8-10,18.7-10,32.6l-4.6-59.3c6.3-13.5,14.4-24,24.4-31.6c10-7.6,21-11.4,33.2-11.4c19,0,34.3,5.9,45.9,17.8L1493.8,435z"
			/>
		<path class="st3" d="M1619.5,602.8c-24.3,0-42.6-5.8-54.7-17.4c-12.2-11.6-18.2-29.3-18.2-53.2c0-22.6,6.8-39.5,20.3-50.8
			c13.6-11.3,33.9-16.9,61-16.9h57.1l3.1,45.9h-60c-9.1,0-15.9,1.8-20.4,5.4c-4.5,3.6-6.8,9-6.8,16.4c0,7.5,2.9,13,8.6,16.6
			s14.3,5.4,25.9,5.4c16,0,27.9-1.8,35.8-5.5c7.9-3.7,11.9-9.4,11.9-17.1l4.6,33.2c-0.9,8.7-4.8,15.8-11.7,21.4
			c-6.9,5.6-15.4,9.8-25.5,12.5C1640.4,601.5,1630.1,602.8,1619.5,602.8z M1683,599.5V455c0-10.5-3.5-18.7-10.6-24.4
			s-17-8.6-29.9-8.6c-18.2,0-34,5.3-47.5,15.8l-37.3-36.7c8.9-10.4,20.9-18.5,35.9-24.3c15-5.8,31.6-8.7,49.8-8.7
			c30,0,53.3,7.4,69.7,22.2c16.4,14.8,24.6,35.7,24.6,62.6v146.6L1683,599.5L1683,599.5z"/>
		<path class="st3" d="M1779.5,422.9v-51.4h111.6v51.4H1779.5z M1860.8,599.5c-20.4,0-35.1-5.2-44.2-15.6
			c-9.1-10.4-13.6-25.3-13.6-44.8v-234h60.2v219.1c0,5.4,1.1,9.7,3.3,12.7s5.4,4.6,9.7,4.6h14.9v58H1860.8z"/>
		<path class="st3" d="M1940.5,340.3v-60.2h60.2v60.2H1940.5z M1940.5,599.5V371.5h60.2v228.1H1940.5z"/>
		<path class="st3" d="M2148.6,602.8c-31.4,0-55.6-8.7-72.7-26s-25.7-41.8-25.7-73.3v-37.1c0-31.2,8.6-55.4,25.7-72.5
			s41.4-25.7,72.7-25.7s55.6,8.6,72.7,25.7s25.7,41.3,25.7,72.5v37.8c0,31.3-8.6,55.6-25.7,72.8
			C2204.2,594.2,2180,602.8,2148.6,602.8z M2148.4,544.8c12.2,0,21.6-3.5,28.4-10.7c6.7-7.1,10.1-17.1,10.1-30v-37.8
			c0-12.7-3.4-22.6-10.1-29.7s-16.2-10.5-28.4-10.5c-12.2,0-21.5,3.5-28.1,10.5s-9.9,16.9-9.9,29.7v37.8c0,12.9,3.3,22.9,9.9,30
			C2126.9,541.3,2136.2,544.8,2148.4,544.8z"/>
		<path class="st3" d="M2302,599.5V371.5h60.2v228.1H2302z M2433.8,599.5V461.3c0-11.3-3.2-20-9.7-26c-6.4-6.1-15.5-9.1-27-9.1
			c-11.1,0-19.7,3.1-25.8,9.3s-9.1,15-9.1,26.3l-4.6-50.5c6.6-13.8,14.6-24.4,24.1-31.9c9.4-7.5,21.7-11.2,36.8-11.2
			c24,0,42.6,8.1,55.8,24.3c13.2,16.2,19.8,39.1,19.8,68.7v138.4L2433.8,599.5L2433.8,599.5z"/>
	</g>
</g>
<g>
	<g>
		<path class="st4" d="M988.5,870.5v-79.8h7.9v79.8H988.5z M1013.9,848.2c-4.3,0-8.1-0.7-11.3-2.1c-3.2-1.4-5.5-4-7-7.6l0.8-11.9
			c0,2.4,0.6,4.7,1.7,7c1.1,2.3,2.8,4.1,4.9,5.6c2.2,1.5,4.8,2.2,7.8,2.2c4.7,0,8.4-1.4,11-4.2c2.6-2.8,3.9-6.8,3.9-11.9V813
			c0-5.2-1.3-9.3-3.9-12.1c-2.6-2.9-6.3-4.3-11-4.3c-3.1,0-5.7,0.7-7.8,2.2c-2.2,1.4-3.8,3.3-4.9,5.5c-1.1,2.2-1.7,4.5-1.7,6.9
			l-1.1-10.9c2-3.9,4.7-6.6,8.1-8.1c3.4-1.5,7.1-2.3,11.2-2.3c6.1,0,10.8,2,14.1,6c3.3,4,5,9.7,5,17.1v12.4c0,7.3-1.7,12.9-5.1,16.9
			C1024.9,846.2,1020.1,848.2,1013.9,848.2z"/>
		<path class="st4" d="M1073.2,848.2c-7.9,0-14-2.2-18.4-6.6c-4.3-4.4-6.5-10.7-6.5-18.8v-6.4c0-8.5,2.1-15,6.2-19.6
			s10-6.9,17.7-6.9c7.1,0,12.7,2.3,16.6,6.8c3.9,4.6,5.9,11,5.9,19.3v6.5h-41v-7.1h33.7v-0.5c0-5.6-1.3-10-4-13
			c-2.6-3.1-6.4-4.6-11.2-4.6c-5.3,0-9.4,1.6-12.3,4.9c-2.9,3.2-4.3,7.8-4.3,13.8v7.2c0,5.7,1.5,10.1,4.6,13.2s7.4,4.7,13,4.7
			c5.5,0,10.4-2.1,14.7-6.3l5.4,5.1c-2.8,2.7-6,4.8-9.5,6.3S1076.7,848.2,1073.2,848.2z"/>
		<path class="st4" d="M1131.7,848.2c-7.4,0-13.2-2.2-17.3-6.5c-4.1-4.3-6.1-10.4-6.1-18.2v-9.2c0-7.8,2-13.8,6.1-18
			c4.1-4.3,9.8-6.4,17.3-6.4s13.2,2.1,17.3,6.4c4.1,4.3,6.1,10.3,6.1,18v9.4c0,7.8-2,13.8-6.1,18.1
			C1144.9,846.1,1139.2,848.2,1131.7,848.2z M1131.7,840.9c5,0,8.8-1.5,11.5-4.5c2.7-3,4.1-7.2,4.1-12.7v-9.4
			c0-5.4-1.4-9.6-4.1-12.6c-2.7-3-6.6-4.5-11.5-4.5c-4.9,0-8.7,1.5-11.4,4.5c-2.7,3-4,7.2-4,12.6v9.4c0,5.5,1.3,9.7,4,12.7
			C1122.9,839.4,1126.8,840.9,1131.7,840.9z"/>
		<path class="st4" d="M1171,870.5v-79.8h7.9v79.8H1171z M1196.4,848.2c-4.3,0-8.1-0.7-11.3-2.1c-3.2-1.4-5.5-4-7-7.6l0.8-11.9
			c0,2.4,0.6,4.7,1.7,7c1.1,2.3,2.8,4.1,4.9,5.6c2.2,1.5,4.8,2.2,7.8,2.2c4.7,0,8.4-1.4,11-4.2c2.6-2.8,3.9-6.8,3.9-11.9V813
			c0-5.2-1.3-9.3-3.9-12.1c-2.6-2.9-6.3-4.3-11-4.3c-3.1,0-5.7,0.7-7.8,2.2c-2.2,1.4-3.8,3.3-4.9,5.5c-1.1,2.2-1.7,4.5-1.7,6.9
			l-1.1-10.9c2-3.9,4.7-6.6,8.1-8.1c3.4-1.5,7.1-2.3,11.2-2.3c6.1,0,10.8,2,14.1,6c3.3,4,5,9.7,5,17.1v12.4c0,7.3-1.7,12.9-5.1,16.9
			C1207.5,846.2,1202.7,848.2,1196.4,848.2z"/>
		<path class="st4" d="M1239.8,767.9v64.6c0,2.4,0.6,4.3,1.8,5.6c1.2,1.3,2.8,2,5,2h5.3v7.3h-6.6c-4.2,0-7.5-1.3-9.8-3.9
			c-2.3-2.6-3.5-6.3-3.5-11.1v-64.5H1239.8z"/>
		<path class="st4" d="M1288.1,848.2c-7.9,0-14-2.2-18.4-6.6c-4.3-4.4-6.5-10.7-6.5-18.8v-6.4c0-8.5,2.1-15,6.2-19.6
			s10-6.9,17.7-6.9c7.1,0,12.7,2.3,16.6,6.8c3.9,4.6,5.9,11,5.9,19.3v6.5h-41v-7.1h33.7v-0.5c0-5.6-1.3-10-4-13
			c-2.6-3.1-6.4-4.6-11.2-4.6c-5.3,0-9.4,1.6-12.3,4.9c-2.9,3.2-4.3,7.8-4.3,13.8v7.2c0,5.7,1.5,10.1,4.6,13.2s7.4,4.7,13,4.7
			c5.5,0,10.4-2.1,14.7-6.3l5.4,5.1c-2.8,2.7-6,4.8-9.5,6.3S1291.7,848.2,1288.1,848.2z"/>
		<path class="st4" d="M1365.9,848.2c-7.4,0-13.2-2.2-17.3-6.5c-4.1-4.3-6.1-10.4-6.1-18.2v-9.2c0-7.8,2-13.8,6.1-18
			c4.1-4.3,9.8-6.4,17.3-6.4s13.2,2.1,17.3,6.4c4.1,4.3,6.1,10.3,6.1,18v9.4c0,7.8-2,13.8-6.1,18.1
			C1379,846.1,1373.3,848.2,1365.9,848.2z M1365.8,840.9c5,0,8.8-1.5,11.5-4.5c2.7-3,4.1-7.2,4.1-12.7v-9.4c0-5.4-1.4-9.6-4.1-12.6
			c-2.7-3-6.6-4.5-11.5-4.5c-4.9,0-8.7,1.5-11.4,4.5c-2.7,3-4,7.2-4,12.6v9.4c0,5.5,1.3,9.7,4,12.7
			C1357.1,839.4,1360.9,840.9,1365.8,840.9z"/>
		<path class="st4" d="M1424.7,837.2l17.1-46.5h8.4l-22.4,56.8h-6.2l-22.5-56.8h8.4L1424.7,837.2z"/>
		<path class="st4" d="M1484.9,848.2c-7.9,0-14-2.2-18.4-6.6s-6.5-10.7-6.5-18.8v-6.4c0-8.5,2.1-15,6.2-19.6s10-6.9,17.7-6.9
			c7.1,0,12.7,2.3,16.6,6.8s5.9,11,5.9,19.3v6.5h-41v-7.1h33.7v-0.5c0-5.6-1.3-10-4-13s-6.4-4.6-11.2-4.6c-5.3,0-9.4,1.6-12.3,4.9
			s-4.3,7.8-4.3,13.8v7.2c0,5.7,1.5,10.1,4.6,13.2s7.4,4.7,13,4.7c5.5,0,10.4-2.1,14.7-6.3l5.4,5.1c-2.8,2.7-6,4.8-9.5,6.3
			S1488.4,848.2,1484.9,848.2z"/>
		<path class="st4" d="M1521.7,847.4v-56.8h7.9v56.8H1521.7z M1555.1,800.8c-2.4-2.4-5.9-3.7-10.6-3.7c-4.8,0-8.5,1.3-11.1,3.8
			s-3.9,6.1-3.9,10.5l-1.1-10.9c2.1-3.4,4.8-6,8.1-7.9s7.1-2.8,11.1-2.8c5.2,0,9.4,1.5,12.5,4.4L1555.1,800.8z"/>
		<path class="st4" d="M1588.6,870.5v-79.8h7.9v79.8H1588.6z M1614.1,848.2c-4.3,0-8.1-0.7-11.3-2.1s-5.5-4-7-7.6l0.8-11.9
			c0,2.4,0.6,4.7,1.7,7s2.8,4.1,4.9,5.6s4.8,2.2,7.8,2.2c4.7,0,8.4-1.4,11-4.2s3.9-6.8,3.9-11.9V813c0-5.2-1.3-9.3-3.9-12.1
			s-6.3-4.3-11-4.3c-3.1,0-5.7,0.7-7.8,2.2s-3.8,3.3-4.9,5.5s-1.7,4.5-1.7,6.9l-1.1-10.9c2-3.9,4.7-6.6,8.1-8.1s7.1-2.3,11.2-2.3
			c6.1,0,10.8,2,14.1,6s5,9.7,5,17.1v12.4c0,7.3-1.7,12.9-5.1,16.9S1620.3,848.2,1614.1,848.2z"/>
		<path class="st4" d="M1649.6,847.4v-56.8h7.9v56.8H1649.6z M1683,800.8c-2.4-2.4-5.9-3.7-10.6-3.7c-4.8,0-8.5,1.3-11.1,3.8
			s-3.9,6.1-3.9,10.5l-1.1-10.9c2.1-3.4,4.8-6,8.1-7.9s7.1-2.8,11.1-2.8c5.2,0,9.4,1.5,12.5,4.4L1683,800.8z"/>
		<path class="st4" d="M1719.1,848.2c-7.4,0-13.2-2.2-17.3-6.5s-6.1-10.4-6.1-18.2v-9.2c0-7.8,2-13.8,6.1-18s9.8-6.4,17.3-6.4
			s13.2,2.1,17.3,6.4s6.1,10.3,6.1,18v9.4c0,7.8-2,13.8-6.1,18.1S1726.6,848.2,1719.1,848.2z M1719.1,840.9c5,0,8.8-1.5,11.5-4.5
			s4.1-7.2,4.1-12.7v-9.4c0-5.4-1.4-9.6-4.1-12.6s-6.6-4.5-11.5-4.5c-4.9,0-8.7,1.5-11.4,4.5s-4,7.2-4,12.6v9.4
			c0,5.5,1.3,9.7,4,12.7S1714.2,840.9,1719.1,840.9z"/>
		<path class="st4" d="M1781.3,848.2c-8.2,0-14.3-2.1-18.4-6.2s-6.1-10.3-6.1-18.5v-9.4c0-8.1,2-14.2,6.1-18.3s10.2-6.1,18.4-6.1
			c4.7,0,8.7,0.8,12.1,2.3s6.2,3.8,8.4,6.8l-5.9,5.2c-3.9-4.6-8.7-6.9-14.5-6.9c-5.6,0-9.8,1.4-12.6,4.2s-4.2,7.1-4.2,12.8v9.4
			c0,6,1.4,10.5,4.2,13.4s7,4.5,12.6,4.5c6.1,0,11.2-2.2,15.3-6.6l5.1,4.5c-2.2,3-5,5.2-8.5,6.7S1785.9,848.2,1781.3,848.2z"/>
		<path class="st4" d="M1836.6,848.2c-7.9,0-14-2.2-18.4-6.6s-6.5-10.7-6.5-18.8v-6.4c0-8.5,2.1-15,6.2-19.6s10-6.9,17.7-6.9
			c7.1,0,12.7,2.3,16.6,6.8s5.9,11,5.9,19.3v6.5h-41v-7.1h33.7v-0.5c0-5.6-1.3-10-4-13s-6.4-4.6-11.2-4.6c-5.3,0-9.4,1.6-12.3,4.9
			s-4.3,7.8-4.3,13.8v7.2c0,5.7,1.5,10.1,4.6,13.2s7.4,4.7,13,4.7c5.5,0,10.4-2.1,14.7-6.3l5.4,5.1c-2.8,2.7-6,4.8-9.5,6.3
			S1840.1,848.2,1836.6,848.2z"/>
		<path class="st4" d="M1890.7,848.2c-4.4,0-8.7-0.7-12.7-2.2c-4-1.4-7.5-3.5-10.4-6.2l4.5-5.5c6.5,4.7,12.8,7.1,19.1,7.1
			c5.4,0,9.6-0.9,12.6-2.8s4.5-4.5,4.5-7.9c0-2.8-0.9-4.9-2.7-6.1s-4.1-2-7-2.3s-6-0.7-9.2-1c-2.3-0.1-4.6-0.4-6.8-0.8s-4.3-1-6.2-2
			s-3.3-2.4-4.5-4.2s-1.7-4.4-1.7-7.5c0-5.5,2-9.7,5.9-12.7s9.5-4.5,16.8-4.5c3.8,0,7.4,0.5,11.1,1.6s6.9,2.6,9.8,4.6l-4.5,5.4
			c-5.5-3.3-10.9-4.9-16.1-4.9c-5,0-8.8,0.9-11.5,2.7s-4.1,4.3-4.1,7.5c0,2.5,0.8,4.3,2.4,5.3s3.8,1.8,6.4,2.1s5.5,0.6,8.6,0.8
			c2.4,0.1,4.8,0.4,7.2,0.8s4.7,1.1,6.7,2.1c2,1,3.7,2.6,4.9,4.6c1.2,2.1,1.9,4.9,1.9,8.4c0,5.5-2.2,9.8-6.5,12.8
			C1904.8,846.7,1898.7,848.2,1890.7,848.2z"/>
		<path class="st4" d="M1945,848.2c-4.4,0-8.7-0.7-12.7-2.2c-4-1.4-7.5-3.5-10.4-6.2l4.5-5.5c6.5,4.7,12.8,7.1,19.1,7.1
			c5.4,0,9.6-0.9,12.6-2.8c3-1.9,4.5-4.5,4.5-7.9c0-2.8-0.9-4.9-2.7-6.1s-4.1-2-7-2.3c-2.9-0.3-6-0.7-9.2-1
			c-2.3-0.1-4.6-0.4-6.8-0.8c-2.3-0.4-4.3-1-6.2-2s-3.3-2.4-4.5-4.2c-1.1-1.9-1.7-4.4-1.7-7.5c0-5.5,2-9.7,5.9-12.7
			c4-3,9.5-4.5,16.8-4.5c3.8,0,7.4,0.5,11.1,1.6c3.6,1.1,6.9,2.6,9.8,4.6l-4.5,5.4c-5.5-3.3-10.9-4.9-16.1-4.9
			c-5,0-8.8,0.9-11.5,2.7c-2.7,1.8-4.1,4.3-4.1,7.5c0,2.5,0.8,4.3,2.4,5.3c1.6,1.1,3.8,1.8,6.4,2.1c2.6,0.3,5.5,0.6,8.6,0.8
			c2.4,0.1,4.8,0.4,7.2,0.8c2.4,0.4,4.7,1.1,6.7,2.1c2,1,3.7,2.6,4.9,4.6c1.2,2.1,1.9,4.9,1.9,8.4c0,5.5-2.2,9.8-6.5,12.8
			C1959,846.7,1952.9,848.2,1945,848.2z"/>
		<path class="st4" d="M2002.7,775.8v-7.9h7.9v7.9H2002.7z M2002.7,847.4v-56.8h7.9v56.8H2002.7z"/>
		<path class="st4" d="M2029.2,847.4v-56.8h7.9v56.8H2029.2z M2066.9,847.4v-34.6c0-5-1.3-8.9-4-11.7c-2.6-2.8-6.4-4.2-11.2-4.2
			c-4.7,0-8.3,1.2-10.9,3.7s-3.9,6-3.9,10.5l-1.1-10.9c2.1-3.9,4.9-6.6,8.3-8.2c3.4-1.6,7.2-2.4,11.2-2.4c6.2,0,10.9,2,14.3,6
			c3.4,4,5.1,9.7,5.1,17.1v34.6H2066.9z"/>
		<path class="st4" d="M988.5,981.8V925h7.9v56.8H988.5z M1024,981.8v-34.4c0-5-1.2-8.9-3.6-11.7c-2.4-2.8-5.8-4.2-10.2-4.2
			c-4.4,0-7.9,1.2-10.3,3.7c-2.4,2.5-3.6,6-3.6,10.6l-1.1-10.9c2-4,4.5-6.8,7.7-8.3c3.2-1.6,6.6-2.4,10.5-2.4c5.9,0,10.5,2,13.7,6
			c3.2,4,4.8,9.7,4.8,17.1v34.5H1024z M1059.5,981.8v-34.4c0-5-1.2-8.9-3.6-11.7c-2.4-2.8-5.8-4.2-10.2-4.2c-4.4,0-7.8,1.3-10.3,4
			c-2.4,2.7-3.6,6.5-3.6,11.4l-3.3-8.2c1.8-4.6,4.3-8.2,7.5-10.7c3.2-2.5,7.2-3.8,11.8-3.8c6.2,0,11.1,2,14.5,6
			c3.4,4,5.1,9.7,5.1,17.1v34.5H1059.5z"/>
		<path class="st4" d="M1106.1,982.6c-7.4,0-13.2-2.2-17.3-6.5c-4.1-4.3-6.1-10.4-6.1-18.2v-9.2c0-7.8,2-13.8,6.1-18
			c4.1-4.3,9.8-6.4,17.3-6.4s13.2,2.1,17.3,6.4c4.1,4.3,6.1,10.3,6.1,18v9.4c0,7.8-2,13.8-6.1,18.1
			C1119.3,980.5,1113.6,982.6,1106.1,982.6z M1106.1,975.3c5,0,8.8-1.5,11.5-4.5c2.7-3,4.1-7.2,4.1-12.7v-9.4
			c0-5.4-1.4-9.6-4.1-12.6c-2.7-3-6.6-4.5-11.5-4.5c-4.9,0-8.7,1.5-11.4,4.5c-2.7,3-4,7.2-4,12.6v9.4c0,5.5,1.3,9.7,4,12.7
			C1097.4,973.8,1101.2,975.3,1106.1,975.3z"/>
		<path class="st4" d="M1163.4,982.6c-6.2,0-11.1-2-14.5-6c-3.4-4-5.1-9.6-5.1-16.9v-12.4c0-7.4,1.7-13.1,5-17.1c3.3-4,8-6,14.1-6
			c4.1,0,7.8,0.8,11.2,2.3c3.4,1.5,6.1,4.2,8.1,8.1l-1.1,10.9c0-2.4-0.6-4.8-1.7-7c-1.1-2.2-2.8-4-4.9-5.4c-2.2-1.4-4.8-2.1-7.8-2.1
			c-4.7,0-8.4,1.4-11,4.3c-2.6,2.9-3.9,6.9-3.9,12.1v12.3c0,5.1,1.3,9.1,3.9,11.9c2.6,2.8,6.3,4.2,11,4.2c3.1,0,5.7-0.7,7.8-2.2
			c2.2-1.5,3.8-3.3,4.9-5.6c1.1-2.3,1.7-4.6,1.7-7l0.8,11.9c-1.5,3.6-3.8,6.2-7,7.6C1171.5,981.9,1167.7,982.6,1163.4,982.6z
			 M1181,981.8v-79.5h7.9v79.5H1181z"/>
		<path class="st4" d="M1230.1,982.6c-7.9,0-14-2.2-18.4-6.6c-4.3-4.4-6.5-10.7-6.5-18.8v-6.4c0-8.5,2.1-15,6.2-19.6
			c4.2-4.6,10-6.9,17.7-6.9c7.1,0,12.7,2.3,16.6,6.8c3.9,4.6,5.9,11,5.9,19.3v6.5h-41v-7.1h33.7v-0.5c0-5.6-1.3-10-4-13
			c-2.6-3.1-6.4-4.6-11.2-4.6c-5.3,0-9.4,1.6-12.3,4.9c-2.9,3.2-4.3,7.8-4.3,13.8v7.2c0,5.7,1.5,10.1,4.6,13.2s7.4,4.7,13,4.7
			c5.5,0,10.4-2.1,14.7-6.3l5.4,5.1c-2.8,2.7-6,4.8-9.5,6.3S1233.7,982.6,1230.1,982.6z"/>
		<path class="st4" d="M1266.9,981.8V925h7.9v56.8H1266.9z M1300.3,935.2c-2.4-2.4-5.9-3.7-10.6-3.7c-4.8,0-8.5,1.3-11.1,3.8
			c-2.6,2.6-3.9,6.1-3.9,10.5l-1.1-10.9c2.1-3.4,4.8-6,8.1-7.9c3.4-1.9,7.1-2.8,11.1-2.8c5.2,0,9.4,1.5,12.5,4.4L1300.3,935.2z"/>
		<path class="st4" d="M1314.7,981.8V925h7.9v56.8H1314.7z M1352.5,981.8v-34.6c0-5-1.3-8.9-4-11.7c-2.6-2.8-6.4-4.2-11.2-4.2
			c-4.7,0-8.3,1.2-10.9,3.7s-3.9,6-3.9,10.5l-1.1-10.9c2.1-3.9,4.9-6.6,8.3-8.2c3.4-1.6,7.2-2.4,11.2-2.4c6.2,0,10.9,2,14.3,6
			c3.4,4,5.1,9.7,5.1,17.1v34.6H1352.5z"/>
		<path class="st4" d="M1413.8,982.6c-4.4,0-8.7-0.7-12.7-2.2c-4-1.4-7.5-3.5-10.4-6.2l4.5-5.5c6.5,4.7,12.8,7.1,19.1,7.1
			c5.4,0,9.6-0.9,12.6-2.8s4.5-4.5,4.5-7.9c0-2.8-0.9-4.9-2.7-6.1s-4.1-2-7-2.3c-2.9-0.3-6-0.7-9.2-1c-2.3-0.1-4.6-0.4-6.8-0.8
			s-4.3-1-6.2-2c-1.9-0.9-3.3-2.4-4.5-4.2s-1.7-4.4-1.7-7.5c0-5.5,2-9.7,5.9-12.7c4-3,9.5-4.5,16.8-4.5c3.8,0,7.4,0.5,11.1,1.6
			s6.9,2.6,9.8,4.6l-4.5,5.4c-5.5-3.3-10.9-4.9-16.1-4.9c-5,0-8.8,0.9-11.5,2.7c-2.7,1.8-4.1,4.3-4.1,7.5c0,2.5,0.8,4.3,2.4,5.3
			c1.6,1.1,3.8,1.8,6.4,2.1s5.5,0.6,8.6,0.8c2.4,0.1,4.8,0.4,7.2,0.8c2.4,0.4,4.7,1.1,6.7,2.1c2,1,3.7,2.6,4.9,4.6
			c1.2,2.1,1.9,4.9,1.9,8.4c0,5.5-2.2,9.8-6.5,12.8C1427.8,981.1,1421.7,982.6,1413.8,982.6z"/>
		<path class="st4" d="M1472.4,982.6c-7.4,0-13.2-2.2-17.3-6.5s-6.1-10.4-6.1-18.2v-9.2c0-7.8,2-13.8,6.1-18s9.8-6.4,17.3-6.4
			s13.2,2.1,17.3,6.4s6.1,10.3,6.1,18v9.4c0,7.8-2,13.8-6.1,18.1C1485.6,980.5,1479.9,982.6,1472.4,982.6z M1472.4,975.3
			c5,0,8.8-1.5,11.5-4.5s4.1-7.2,4.1-12.7v-9.4c0-5.4-1.4-9.6-4.1-12.6c-2.7-3-6.6-4.5-11.5-4.5c-4.9,0-8.7,1.5-11.4,4.5
			c-2.7,3-4,7.2-4,12.6v9.4c0,5.5,1.3,9.7,4,12.7S1467.5,975.3,1472.4,975.3z"/>
		<path class="st4" d="M1507.3,931.8V925h28.4v6.8H1507.3z M1513.3,981.8v-64.5c0-5,1.1-8.8,3.3-11.3c2.2-2.5,5.4-3.7,9.8-3.7h9.3
			v7.3h-8c-2.2,0-3.8,0.6-4.9,1.9s-1.6,3.2-1.6,5.7v64.6H1513.3z"/>
		<path class="st4" d="M1542.8,931.8V925h25.6v6.8H1542.8z M1562,981.8c-4.7,0-8-1.3-10.1-3.9c-2.1-2.6-3.1-6.3-3.1-11.2v-58.2h7.9
			v58.4c0,2.4,0.5,4.3,1.6,5.6c1.1,1.3,2.7,2,4.9,2h5.4v7.3H1562z"/>
		<path class="st4" d="M1603.9,981.8h-7.1l-17.9-56.8h8.4l14.2,46.5l15.1-46.5h4.6l15.4,46.5L1650,925h8.4l-17.9,56.8h-7.1
			l-14.5-42.3L1603.9,981.8z"/>
		<path class="st4" d="M1688.5,982.6c-6.6,0-11.8-1.5-15.4-4.6s-5.5-7.4-5.5-13c0-5.4,1.7-9.5,5-12.4c3.4-2.9,8.1-4.4,14.1-4.4h18.9
			l0.8,7.3h-19.6c-3.6,0-6.5,0.8-8.4,2.5c-2,1.7-3,4-3,7c0,3.2,1.2,5.7,3.7,7.5c2.5,1.8,6,2.7,10.6,2.7c4.9,0,8.7-0.5,11.4-1.5
			s4-2.4,4-4.2l1.1,7.4c-1.1,1.2-2.6,2.2-4.3,3.1c-1.8,0.8-3.8,1.5-6.1,1.9S1691.1,982.6,1688.5,982.6z M1705.1,981.8v-36
			c0-4.6-1.2-8.2-3.7-10.7c-2.5-2.5-6-3.8-10.5-3.8c-5.7,0-10.6,1.7-14.8,5l-5.7-3.9c2.2-2.6,5-4.6,8.5-6c3.5-1.4,7.4-2.2,11.7-2.2
			c7.1,0,12.6,1.8,16.5,5.5c3.9,3.7,5.9,8.9,5.9,15.6v36.5H1705.1z"/>
		<path class="st4" d="M1730,981.8V925h7.9v56.8H1730z M1763.4,935.2c-2.4-2.4-5.9-3.7-10.6-3.7c-4.8,0-8.5,1.3-11.1,3.8
			c-2.6,2.6-3.9,6.1-3.9,10.5l-1.1-10.9c2.1-3.4,4.8-6,8.1-7.9c3.4-1.9,7.1-2.8,11.1-2.8c5.2,0,9.4,1.5,12.5,4.4L1763.4,935.2z"/>
		<path class="st4" d="M1801.5,982.6c-7.9,0-14-2.2-18.4-6.6s-6.5-10.7-6.5-18.8v-6.4c0-8.5,2.1-15,6.2-19.6
			c4.2-4.6,10-6.9,17.7-6.9c7.1,0,12.7,2.3,16.6,6.8c3.9,4.6,5.9,11,5.9,19.3v6.5h-41v-7.1h33.7v-0.5c0-5.6-1.3-10-4-13
			c-2.6-3.1-6.4-4.6-11.2-4.6c-5.3,0-9.4,1.6-12.3,4.9c-2.9,3.2-4.3,7.8-4.3,13.8v7.2c0,5.7,1.5,10.1,4.6,13.2s7.4,4.7,13,4.7
			c5.5,0,10.4-2.1,14.7-6.3l5.4,5.1c-2.8,2.7-6,4.8-9.5,6.3S1805.1,982.6,1801.5,982.6z"/>
		<path class="st4" d="M1875.5,982.6c-6.2,0-11.1-2-14.5-6s-5.1-9.6-5.1-16.9v-12.4c0-7.4,1.7-13.1,5-17.1c3.3-4,8-6,14.1-6
			c4.1,0,7.8,0.8,11.2,2.3s6.1,4.2,8.1,8.1l-1.1,10.9c0-2.4-0.6-4.8-1.7-7c-1.1-2.2-2.8-4-4.9-5.4s-4.8-2.1-7.8-2.1
			c-4.7,0-8.4,1.4-11,4.3c-2.6,2.9-3.9,6.9-3.9,12.1v12.3c0,5.1,1.3,9.1,3.9,11.9c2.6,2.8,6.3,4.2,11,4.2c3.1,0,5.7-0.7,7.8-2.2
			c2.2-1.5,3.8-3.3,4.9-5.6c1.1-2.3,1.7-4.6,1.7-7l0.8,11.9c-1.5,3.6-3.8,6.2-7,7.6S1879.8,982.6,1875.5,982.6z M1893,981.8v-79.5
			h7.9v79.5H1893z"/>
		<path class="st4" d="M1942.2,982.6c-7.9,0-14-2.2-18.4-6.6c-4.3-4.4-6.5-10.7-6.5-18.8v-6.4c0-8.5,2.1-15,6.2-19.6
			c4.2-4.6,10-6.9,17.7-6.9c7.1,0,12.7,2.3,16.6,6.8c3.9,4.6,5.9,11,5.9,19.3v6.5h-41v-7.1h33.7v-0.5c0-5.6-1.3-10-4-13
			c-2.6-3.1-6.4-4.6-11.2-4.6c-5.3,0-9.4,1.6-12.3,4.9c-2.9,3.2-4.3,7.8-4.3,13.8v7.2c0,5.7,1.5,10.1,4.6,13.2s7.4,4.7,13,4.7
			c5.5,0,10.4-2.1,14.7-6.3l5.4,5.1c-2.8,2.7-6,4.8-9.5,6.3S1945.7,982.6,1942.2,982.6z"/>
		<path class="st4" d="M1998.6,971.6l17.1-46.5h8.4l-22.4,56.8h-6.2L1973,925h8.4L1998.6,971.6z"/>
		<path class="st4" d="M2058.8,982.6c-7.9,0-14-2.2-18.4-6.6c-4.3-4.4-6.5-10.7-6.5-18.8v-6.4c0-8.5,2.1-15,6.2-19.6
			c4.2-4.6,10-6.9,17.7-6.9c7.1,0,12.7,2.3,16.6,6.8c3.9,4.6,5.9,11,5.9,19.3v6.5h-41v-7.1h33.7v-0.5c0-5.6-1.3-10-4-13
			c-2.6-3.1-6.4-4.6-11.2-4.6c-5.3,0-9.4,1.6-12.3,4.9c-2.9,3.2-4.3,7.8-4.3,13.8v7.2c0,5.7,1.5,10.1,4.6,13.2s7.4,4.7,13,4.7
			c5.5,0,10.4-2.1,14.7-6.3l5.4,5.1c-2.8,2.7-6,4.8-9.5,6.3S2062.3,982.6,2058.8,982.6z"/>
		<path class="st4" d="M2103.5,902.3v64.6c0,2.4,0.6,4.3,1.8,5.6c1.2,1.3,2.8,2,5,2h5.3v7.3h-6.6c-4.2,0-7.5-1.3-9.8-3.9
			c-2.3-2.6-3.5-6.3-3.5-11.1v-64.5H2103.5z"/>
		<path class="st4" d="M2149.8,982.6c-7.4,0-13.2-2.2-17.3-6.5c-4.1-4.3-6.1-10.4-6.1-18.2v-9.2c0-7.8,2-13.8,6.1-18
			c4.1-4.3,9.8-6.4,17.3-6.4s13.2,2.1,17.3,6.4c4.1,4.3,6.1,10.3,6.1,18v9.4c0,7.8-2,13.8-6.1,18.1
			C2163,980.5,2157.2,982.6,2149.8,982.6z M2149.7,975.3c5,0,8.8-1.5,11.5-4.5c2.7-3,4.1-7.2,4.1-12.7v-9.4c0-5.4-1.4-9.6-4.1-12.6
			c-2.7-3-6.6-4.5-11.5-4.5c-4.9,0-8.7,1.5-11.4,4.5c-2.7,3-4,7.2-4,12.6v9.4c0,5.5,1.3,9.7,4,12.7
			C2141,973.8,2144.8,975.3,2149.7,975.3z"/>
		<path class="st4" d="M2189.1,1004.9V925h7.9v79.8H2189.1z M2214.5,982.6c-4.3,0-8.1-0.7-11.3-2.1c-3.2-1.4-5.5-4-7-7.6l0.8-11.9
			c0,2.4,0.6,4.7,1.7,7c1.1,2.3,2.8,4.1,4.9,5.6c2.2,1.5,4.8,2.2,7.8,2.2c4.7,0,8.4-1.4,11-4.2c2.6-2.8,3.9-6.8,3.9-11.9v-12.3
			c0-5.2-1.3-9.3-3.9-12.1c-2.6-2.9-6.3-4.3-11-4.3c-3.1,0-5.7,0.7-7.8,2.2c-2.2,1.4-3.8,3.3-4.9,5.5c-1.1,2.2-1.7,4.5-1.7,6.9
			l-1.1-10.9c2-3.9,4.7-6.6,8.1-8.1c3.4-1.5,7.1-2.3,11.2-2.3c6.1,0,10.8,2,14.1,6c3.3,4,5,9.7,5,17.1v12.4c0,7.3-1.7,12.9-5.1,16.9
			C2225.6,980.6,2220.7,982.6,2214.5,982.6z"/>
		<path class="st4" d="M2250,981.8V925h7.9v56.8H2250z M2285.5,981.8v-34.4c0-5-1.2-8.9-3.6-11.7c-2.4-2.8-5.8-4.2-10.2-4.2
			c-4.4,0-7.9,1.2-10.3,3.7c-2.4,2.5-3.6,6-3.6,10.6l-1.1-10.9c2-4,4.5-6.8,7.7-8.3c3.2-1.6,6.6-2.4,10.5-2.4c5.9,0,10.5,2,13.7,6
			c3.2,4,4.8,9.7,4.8,17.1v34.5H2285.5z M2321.1,981.8v-34.4c0-5-1.2-8.9-3.6-11.7c-2.4-2.8-5.8-4.2-10.2-4.2c-4.4,0-7.8,1.3-10.3,4
			c-2.4,2.7-3.6,6.5-3.6,11.4l-3.3-8.2c1.8-4.6,4.3-8.2,7.5-10.7c3.2-2.5,7.2-3.8,11.8-3.8c6.2,0,11.1,2,14.5,6
			c3.4,4,5.1,9.7,5.1,17.1v34.5H2321.1z"/>
		<path class="st4" d="M2369.7,982.6c-7.9,0-14-2.2-18.4-6.6c-4.3-4.4-6.5-10.7-6.5-18.8v-6.4c0-8.5,2.1-15,6.2-19.6
			c4.2-4.6,10-6.9,17.7-6.9c7.1,0,12.7,2.3,16.6,6.8c3.9,4.6,5.9,11,5.9,19.3v6.5h-41v-7.1h33.7v-0.5c0-5.6-1.3-10-4-13
			c-2.6-3.1-6.4-4.6-11.2-4.6c-5.3,0-9.4,1.6-12.3,4.9c-2.9,3.2-4.3,7.8-4.3,13.8v7.2c0,5.7,1.5,10.1,4.6,13.2s7.4,4.7,13,4.7
			c5.5,0,10.4-2.1,14.7-6.3l5.4,5.1c-2.8,2.7-6,4.8-9.5,6.3S2373.2,982.6,2369.7,982.6z"/>
		<path class="st4" d="M2406.5,981.8V925h7.9v56.8H2406.5z M2444.2,981.8v-34.6c0-5-1.3-8.9-4-11.7c-2.6-2.8-6.4-4.2-11.2-4.2
			c-4.7,0-8.3,1.2-10.9,3.7s-3.9,6-3.9,10.5l-1.1-10.9c2.1-3.9,4.9-6.6,8.3-8.2c3.4-1.6,7.2-2.4,11.2-2.4c6.2,0,10.9,2,14.3,6
			c3.4,4,5.1,9.7,5.1,17.1v34.6H2444.2z"/>
		<path class="st4" d="M2464.7,931.8V925h25.6v6.8H2464.7z M2483.8,981.8c-4.7,0-8-1.3-10.1-3.9c-2.1-2.6-3.1-6.3-3.1-11.2v-58.2
			h7.9v58.4c0,2.4,0.5,4.3,1.6,5.6c1.1,1.3,2.7,2,4.9,2h5.4v7.3H2483.8z"/>
	</g>
</g>
</svg>
